<svg xmlns="http://www.w3.org/2000/svg" width="26" height="26" viewBox="0 0 26 26">
    <path fill="#5C566D" fill-rule="evenodd" d="M12.624 1.052c-6.376 0-11.546 5.17-11.546 11.548 0 5.1 3.308 9.43 7.898 10.956.577.106.759-.237.759-.543 0-.274.005-1.04 0-2.004-3.212.698-3.877-1.521-3.877-1.521-.525-1.335-1.281-1.69-1.281-1.69-1.049-.715.078-.702.078-.702 1.159.082 1.77 1.19 1.77 1.19 1.03 1.764 2.701 1.255 3.359.96.105-.746.404-1.255.734-1.544-2.564-.292-5.26-1.282-5.26-5.706 0-1.262.45-2.292 1.189-3.099-.12-.292-.516-1.466.113-3.056 0 0 .97-.31 3.175 1.184a11.06 11.06 0 0 1 2.89-.388c.982.004 1.97.132 2.891.388 2.205-1.494 3.174-1.184 3.174-1.184.629 1.59.233 2.764.114 3.056.739.807 1.188 1.837 1.188 3.099 0 4.436-2.7 5.412-5.274 5.696.415.358.791 1.05.791 2.128v3.196c0 .309.186.65.773.539 4.585-1.53 7.89-5.856 7.89-10.955 0-6.378-5.17-11.548-11.548-11.548zm0-1.052C19.599 0 25.25 5.652 25.25 12.625S19.598 25.25 12.625 25.25 0 19.598 0 12.625 5.652 0 12.625 0z"/>
</svg>
