<svg xmlns="http://www.w3.org/2000/svg" width="25" height="25" viewBox="0 0 25 25">
    <path fill="#0077B5" fill-rule="nonzero" d="M22.222 0A2.778 2.778 0 0 1 25 2.778v19.444A2.778 2.778 0 0 1 22.222 25H2.778A2.778 2.778 0 0 1 0 22.222V2.778A2.778 2.778 0 0 1 2.778 0h19.444zM22 22v-7.43c0-2.524-2.093-4.57-4.674-4.57-1.218 0-2.638.729-3.326 1.822v-1.556h-4V22h4v-6.911c0-1.08.889-1.963 1.993-1.963 1.108 0 2.007.879 2.007 1.963V22h4zM5.507 8a2.501 2.501 0 0 0 0-5A2.507 2.507 0 0 0 3 5.507 2.501 2.501 0 0 0 5.507 8zM7 22V10H3v12h4z"/>
</svg>
