<svg xmlns="http://www.w3.org/2000/svg" width="211" height="55" viewBox="0 0 211 55">
    <defs>
        <linearGradient id="a" x1="-.001%" x2="25%" y1="0%" y2="100%">
            <stop offset="0%" stop-color="#65B1D1"/>
            <stop offset="56%" stop-color="#6497CE"/>
            <stop offset="100%" stop-color="#6231C3"/>
            <stop offset="100%" stop-color="#6231C3"/>
        </linearGradient>
        <linearGradient id="b" x1="-6.611%" x2="75%" y1="108.089%" y2="12.5%">
            <stop offset="0%" stop-color="#A453FF"/>
            <stop offset="100%" stop-color="#3A81F4"/>
        </linearGradient>
        <linearGradient id="c" x1="-.001%" y1="49.999%" y2="49.999%">
            <stop offset="0%" stop-color="#53DFFF"/>
            <stop offset="100%" stop-color="#3A81F4"/>
        </linearGradient>
        <linearGradient id="d" x1="0%" x2="100.001%" y1="50.001%" y2="50.001%">
            <stop offset="0%" stop-color="#65B1D1"/>
            <stop offset="100%" stop-color="#6231C3"/>
        </linearGradient>
    </defs>
    <g fill="none" fill-rule="evenodd">
        <g fill="#372861" fill-rule="nonzero">
            <path d="M86.277 22.452c0-2.18-.713-4.442-2.138-6.087-2.018-2.303-5.185-3.126-9.777-3.126h-6.175c-.91 0-1.187.247-1.187 1.275v26.199c0 .904.435 1.069 1.148 1.069h3.958c.91 0 1.188-.411 1.188-1.11v-8.35h2.216c5.898 0 10.767-3.33 10.767-9.87zm-6.333.288c0 3.413-2.138 4.565-4.988 4.565h-1.662v-9.007h1.94c2.968 0 4.71 1.316 4.71 4.442zM94.629 16.242c0-1.974-1.583-3.126-3.167-3.126-1.623 0-3.206 1.152-3.206 3.167 0 1.974 1.702 3.084 3.206 3.084s3.167-1.151 3.167-3.125zm-.158 6.58c0-.864-.396-1.07-1.148-1.07H89.76c-.712 0-1.227.248-1.227 1.07V40.59c0 .905.396 1.193 1.227 1.193h3.563c.791 0 1.148-.37 1.148-1.193V22.822zM104.723 16.735c0-.658-.357-.987-1.109-.863l-3.879.534c-.752.124-.95.535-.95 1.275v4.072h-1.82c-.594 0-.911.493-.911 1.07v1.768c0 1.11.158 1.357 1.108 1.357h1.584v7.896c0 3.373.079 5.059 1.345 6.622 1.07 1.316 2.85 1.85 5.067 1.85 1.82 0 3.642-.41 4.987-1.028.713-.329.792-.699.673-1.275l-.475-2.632c-.118-.658-.633-.617-1.108-.452-.792.247-1.544.493-2.533.493-1.742 0-1.98-1.316-1.98-3.454v-8.02h4.275c.555 0 .95-.33.95-.946v-2.385c0-.617-.395-.864-.95-.864h-4.274v-5.018zM126.335 37.093c-.159-.617-.554-.534-.99-.37-1.385.535-2.256.74-3.483.74-3.206 0-4.948-1.727-4.948-5.716 0-3.537 1.663-5.676 4.75-5.676 1.227 0 2.375.33 3.483.782.515.205.91.246 1.07-.412l.632-2.96c.12-.577.12-.947-.435-1.194-1.86-.822-3.642-1.11-5.502-1.11-6.294 0-10.133 4.236-10.133 10.899 0 6.786 4.037 10.24 9.777 10.24 2.098 0 4.235-.37 6.016-1.192.515-.247.752-.453.515-1.275l-.752-2.756zM134.726 28.333c1.109-.987 2.81-1.604 4.117-1.604 1.781 0 2.256 1.152 2.256 2.88v10.98c0 .905.396 1.193 1.227 1.193h3.563c.791 0 1.148-.37 1.148-1.193V28.498c0-4.442-1.94-7.32-6.254-7.32-1.98 0-4.513.698-6.057 2.055V13.157c0-.658-.356-.987-1.108-.863l-3.879.534c-.752.124-.95.535-.95 1.275V40.59c0 .905.396 1.193 1.227 1.193h3.563c.791 0 1.147-.37 1.147-1.193V28.333zM162.157 22.822c-1.068-1.028-2.691-1.645-4.433-1.645-5.858 0-8.669 5.47-8.669 10.94 0 5.593 2.771 10.2 8.313 10.2 2.098 0 4.116-.946 5.225-2.221l.079.863c.04.453.356.823 1.03.823h3.324c.594 0 1.069-.33 1.069-1.152V13.157c0-.658-.356-.987-1.108-.863l-3.88.534c-.752.124-.95.535-.95 1.275v8.72zm0 12.996c-.633.7-2.098 1.48-3.245 1.48-3.009 0-3.682-3.001-3.682-5.551 0-2.468.91-5.594 3.8-5.594 1.148 0 2.415.617 3.127 1.317v8.348zM190.815 38.45c0-.616-.277-.822-.83-.822h-.317c-.436 0-.594-.288-.594-.7V22.74c0-.658-.396-.987-.95-.987h-3.563c-.514 0-.83.288-.91.822l-.119.905c-.831-1.234-2.612-2.303-4.829-2.303-4.354 0-8.708 3.702-8.708 10.981 0 5.47 2.652 10.158 8.352 10.158 1.94 0 4.473-1.151 5.541-2.426h.08c.514 1.193 1.464 1.892 3.8 1.892h2.097c.555 0 .95-.33.95-.946V38.45zm-7.679-2.837c-.475.617-1.9 1.727-3.325 1.727-3.008 0-3.641-3.043-3.641-5.593 0-3.825 1.82-5.47 3.76-5.47 1.188 0 2.494.74 3.206 1.398v7.938z"/>
            <path d="M201.067 34.75h-.118l-3.682-12.175c-.158-.493-.514-.822-1.187-.822h-4.67c-.674 0-.95.658-.713 1.234l7.323 18.918-.475 1.275c-.673 1.81-1.703 2.591-4.038 2.591-.99 0-1.544-.123-1.94-.123-.356 0-.672.082-.791.905l-.356 2.59c-.08.659-.08 1.152.673 1.317.791.164 1.464.246 2.374.246 5.146 0 7.521-1.768 9.342-6.662l7.837-21.14c.198-.534.08-1.151-.593-1.151h-4.077c-.792 0-1.227.37-1.465 1.193l-3.444 11.803z"/>
        </g>
        <path fill="url(#a)" d="M8.31 54.601V18.466l23.724 13.55v-9.033L.404 4.916v45.168l7.906 4.517z"/>
        <path fill="url(#b)" d="M16.219 22.983v18.068l15.815-9.034v-9.034l7.908-4.517v18.068L8.31 54.6V18.466z"/>
        <path fill="url(#c)" d="M.403 4.916L8.31.399l31.632 18.067-7.908 4.517z"/>
        <path fill="url(#d)" d="M16.219 32.017l7.908-4.517 7.907 4.517L16.22 41.05z"/>
        <g fill="#45386A" fill-rule="nonzero">
            <path d="M16.308 22.595c.051.015.066.016.112.043.088.05.154.132.184.228.016.05.014.064.018.117V40.36l23-13.137.053-.025c.02-.007.039-.014.058-.018a.405.405 0 0 1 .423.164.397.397 0 0 1-.082.535c-.016.014-.033.023-.05.034L16.42 41.396c-.018.009-.035.018-.054.026a.404.404 0 0 1-.443-.1.396.396 0 0 1-.103-.212c-.003-.02-.003-.04-.004-.06V22.984c.004-.053.002-.067.018-.117a.404.404 0 0 1 .295-.271c.052-.012.067-.01.12-.01l.06.01z"/>
            <path d="M40.122 27.143c.021.013.043.024.063.039.08.06.135.148.153.244.005.025.005.05.007.074v9.034c-.002.023-.002.047-.006.07a.403.403 0 0 1-.088.186c-.04.048-.056.054-.107.089L8.512 54.946c-.056.026-.07.037-.131.048a.406.406 0 0 1-.467-.323c-.004-.023-.004-.046-.006-.07V18.466c.002-.024.002-.05.007-.073a.403.403 0 0 1 .153-.245.41.41 0 0 1 .54.05c.05.054.085.122.099.195.004.024.004.049.007.073v35.445l30.825-17.608V27.5c.007-.065.004-.082.027-.144a.407.407 0 0 1 .34-.253c.066-.006.082.002.147.013l.069.027z"/>
            <path d="M.482 13.558c.066.02.086.02.145.06a.4.4 0 0 1 .17.254c.006.025.006.051.008.077v35.906l7.707 4.401.065.045c.017.02.037.037.053.058a.398.398 0 0 1-.293.64.399.399 0 0 1-.156-.02c-.025-.009-.048-.022-.071-.033L.202 50.43c-.02-.013-.04-.024-.058-.04a.398.398 0 0 1-.12-.168c-.021-.058-.018-.075-.024-.137V13.95c.007-.068.003-.088.03-.152a.407.407 0 0 1 .219-.216c.065-.027.085-.024.154-.03l.079.007zM24.196 27.107c.041.01.052.01.09.027l.042.02 7.908 4.518c.036.023.046.028.078.058a.398.398 0 0 1-.296.685.404.404 0 0 1-.142-.032c-.014-.006-.029-.013-.043-.021l-7.706-4.402-7.707 4.402-.044.021c-.04.015-.05.02-.093.027a.407.407 0 0 1-.413-.194.398.398 0 0 1 .107-.517c.012-.01.027-.018.04-.027l7.908-4.517c.037-.019.046-.025.086-.037a.428.428 0 0 1 .092-.016h.047l.046.005z"/>
            <path d="M8.38.006a.516.516 0 0 1 .132.048L40.144 18.12c.019.013.04.025.058.04a.402.402 0 0 1 .12.17c.02.058.018.074.023.135V27.5c-.002.026-.002.052-.007.078a.4.4 0 0 1-.172.253.41.41 0 0 1-.509-.05.403.403 0 0 1-.11-.203c-.005-.026-.005-.052-.008-.078v-8.803L8.31.859.805 5.145v8.574L31.7 31.365c.021.015.044.028.064.046a.397.397 0 0 1-.24.697.412.412 0 0 1-.155-.02c-.025-.009-.048-.022-.072-.033L.202 14.295c-.051-.036-.067-.042-.107-.09a.387.387 0 0 1-.089-.186c-.004-.024-.004-.047-.006-.07V4.916c.002-.024.002-.047.006-.07a.39.39 0 0 1 .089-.187c.04-.047.056-.053.107-.088L8.11.053c.056-.026.07-.037.131-.048.023-.004.047-.004.07-.006l.07.006z"/>
            <path d="M.473 4.523c.068.018.068.018.132.048l31.63 18.067c.02.013.04.025.058.04a.396.396 0 0 1 .12.169c.021.058.019.075.024.136v9.034c-.002.023-.002.047-.006.07a.387.387 0 0 1-.138.235.41.41 0 0 1-.518 0 .401.401 0 0 1-.138-.236c-.003-.022-.003-.046-.005-.07v-8.803L.202 5.261l-.058-.04c-.017-.017-.035-.032-.05-.05a.399.399 0 0 1 .238-.648c.024-.004.047-.004.071-.006l.07.006z"/>
            <path d="M39.978 18.069c.03.004.039.004.069.012a.402.402 0 0 1 .274.25.398.398 0 0 1-.12.44c-.024.02-.03.024-.057.04l-7.908 4.517c-.028.015-.034.019-.064.03a.412.412 0 0 1-.275 0 .402.402 0 0 1-.252-.478.402.402 0 0 1 .13-.202c.024-.02.032-.024.058-.04l7.908-4.517a.46.46 0 0 1 .097-.04.487.487 0 0 1 .14-.012z"/>
        </g>
        <g fill="#372861" fill-rule="nonzero">
            <path d="M68.67 48.784v5.395c0 .136.048.182.159.182h.426c.103 0 .15-.064.15-.182v-5.395h1.5c.11 0 .158-.027.174-.145l.047-.362c.016-.1-.023-.154-.134-.154H67.17c-.102 0-.15.036-.15.145v.371c0 .108.048.145.15.145h1.5zM77.521 51.2c0-1.882-.797-3.185-2.25-3.185-1.373 0-2.313 1.285-2.313 3.25 0 1.973.829 3.186 2.242 3.186 1.319 0 2.321-1.195 2.321-3.25zm-.773.028c0 1.557-.624 2.535-1.516 2.535-.948 0-1.5-.942-1.5-2.526 0-1.493.615-2.525 1.524-2.525.963 0 1.492.923 1.492 2.516zM83.214 48.304c.056-.072.056-.181-.071-.181h-.402c-.126 0-.19.036-.26.136l-1.888 2.67h-.008v-2.625c0-.136-.047-.181-.157-.181H80c-.103 0-.15.064-.15.181v5.875c0 .136.047.182.158.182h.426c.103 0 .15-.064.15-.182v-2.706h.008l1.99 2.742c.079.11.142.146.284.146h.52c.135 0 .128-.127.057-.218l-2.235-3.023 2.005-2.816zM86.294 48.784h2.108c.11 0 .158-.027.173-.145l.048-.362c.015-.1-.024-.154-.135-.154h-2.762c-.104 0-.167.054-.167.208v5.821c0 .154.063.209.167.209h2.762c.104 0 .15-.037.15-.146v-.37c0-.11-.046-.145-.15-.145h-2.194v-2.282h1.863c.103 0 .15-.036.15-.144v-.363c0-.109-.047-.144-.15-.144h-1.863v-1.983zM94.513 52.984l-2.85-4.68c-.08-.136-.159-.181-.27-.181h-.315c-.102 0-.15.064-.15.181v5.875c0 .136.048.182.159.182h.37c.103 0 .15-.064.15-.182v-4.616h.016l2.819 4.616c.08.136.158.182.268.182h.348c.102 0 .15-.064.15-.182v-5.875c0-.136-.048-.181-.158-.181h-.371c-.103 0-.15.064-.15.181v4.68h-.016zM98.974 48.684h.466c.11 0 .15-.036.15-.144v-.272c0-.109-.04-.145-.15-.145h-1.65c-.111 0-.15.036-.15.145v.272c0 .108.039.144.15.144h.474v5.106h-.443c-.11 0-.15.036-.15.145v.28c0 .11.04.146.15.146h1.61c.111 0 .15-.037.15-.146v-.28c0-.109-.039-.145-.15-.145h-.457v-5.106zM102.535 53.69l2.748-4.87a.555.555 0 0 0 .087-.28v-.272c0-.109-.048-.145-.15-.145h-3.19c-.103 0-.15.036-.15.145v.371c0 .108.047.145.15.145h2.44v.009l-2.74 4.889a.555.555 0 0 0-.087.28v.253c0 .11.047.146.15.146h3.505c.103 0 .15-.037.15-.146v-.37c0-.11-.047-.145-.15-.145h-2.763v-.01zM108.859 48.684h.466c.11 0 .15-.036.15-.144v-.272c0-.109-.04-.145-.15-.145h-1.65c-.111 0-.15.036-.15.145v.272c0 .108.039.144.15.144h.474v5.106h-.442c-.111 0-.15.036-.15.145v.28c0 .11.039.146.15.146h1.61c.11 0 .15-.037.15-.146v-.28c0-.109-.04-.145-.15-.145h-.458v-5.106zM115.491 52.984l-2.85-4.68c-.079-.136-.157-.181-.268-.181h-.316c-.103 0-.15.064-.15.181v5.875c0 .136.047.182.158.182h.371c.102 0 .15-.064.15-.182v-4.616h.016l2.818 4.616c.08.136.158.182.269.182h.347c.103 0 .15-.064.15-.182v-5.875c0-.136-.047-.181-.157-.181h-.371c-.104 0-.151.064-.151.181v4.68h-.016zM122.045 51.418v2.155c-.269.154-.655.217-1.003.217-1.224 0-1.745-1.204-1.745-2.562 0-1.376.632-2.516 1.887-2.516.324 0 .774.1 1.074.244.079.036.15.018.182-.082l.11-.353c.032-.108.024-.162-.079-.217-.395-.199-.9-.29-1.31-.29-1.658 0-2.645 1.395-2.645 3.232 0 1.874.828 3.205 2.542 3.205.521 0 1.16-.163 1.547-.408.143-.09.174-.162.174-.353v-2.724c0-.154-.055-.2-.158-.2h-1.397c-.103 0-.15.036-.15.145v.363c0 .108.047.144.15.144h.821zM129.624 48.784v5.395c0 .136.048.182.158.182h.427c.103 0 .15-.064.15-.182v-5.395h1.5c.11 0 .158-.027.174-.145l.047-.362c.016-.1-.024-.154-.134-.154h-3.821c-.103 0-.15.036-.15.145v.371c0 .108.047.145.15.145h1.5zM137.402 50.767h-2.543v-2.463c0-.136-.047-.181-.158-.181h-.426c-.103 0-.15.064-.15.181v5.875c0 .136.047.182.158.182h.426c.103 0 .15-.064.15-.182v-2.76h2.543v2.76c0 .136.047.182.158.182h.426c.102 0 .15-.064.15-.182v-5.875c0-.136-.048-.181-.158-.181h-.426c-.103 0-.15.064-.15.181v2.463zM141.413 48.784h2.108c.11 0 .158-.027.173-.145l.048-.362c.015-.1-.024-.154-.135-.154h-2.762c-.104 0-.167.054-.167.208v5.821c0 .154.063.209.167.209h2.762c.104 0 .15-.037.15-.146v-.37c0-.11-.046-.145-.15-.145h-2.194v-2.282h1.863c.103 0 .15-.036.15-.144v-.363c0-.109-.047-.144-.15-.144h-1.863v-1.983zM152.064 48.784c.11 0 .158-.027.174-.145l.047-.362c.016-.1-.024-.154-.134-.154h-2.764c-.102 0-.165.054-.165.208v5.848c0 .136.047.182.157.182h.427c.102 0 .15-.064.15-.182v-2.76h1.863c.102 0 .15-.037.15-.145v-.363c0-.109-.048-.144-.15-.144h-1.863v-1.983h2.108zM158.83 48.304c0-.136-.047-.181-.157-.181h-.427c-.103 0-.15.064-.15.181v3.187c0 1.167-.158 2.263-1.421 2.263-1.31 0-1.445-1.041-1.445-2.254v-3.196c0-.136-.048-.181-.158-.181h-.426c-.103 0-.15.064-.15.181v3.277c0 1.765.458 2.87 2.17 2.87 1.564 0 2.165-1.159 2.165-2.816v-3.33zM162.533 48.784v5.395c0 .136.048.182.158.182h.427c.102 0 .15-.064.15-.182v-5.395h1.5c.11 0 .158-.027.173-.145l.048-.362c.015-.1-.024-.154-.135-.154h-3.82c-.103 0-.15.036-.15.145v.371c0 .108.047.145.15.145h1.5zM171.345 48.304c0-.136-.047-.181-.158-.181h-.427c-.102 0-.15.064-.15.181v3.187c0 1.167-.158 2.263-1.42 2.263-1.311 0-1.446-1.041-1.446-2.254v-3.196c0-.136-.047-.181-.158-.181h-.426c-.102 0-.15.064-.15.181v3.277c0 1.765.458 2.87 2.172 2.87 1.563 0 2.163-1.159 2.163-2.816v-3.33zM174.598 51.826h.758l1.184 2.371c.056.118.126.164.245.164h.45c.134 0 .15-.11.103-.2l-1.295-2.48c.623-.245 1.105-.86 1.105-1.73 0-1.366-.813-1.828-1.99-1.828h-1.129c-.102 0-.165.054-.165.208v5.848c0 .136.047.182.157.182h.427c.102 0 .15-.064.15-.182v-2.353zm0-3.06h.505c.814 0 1.303.307 1.303 1.195 0 .806-.506 1.231-1.2 1.231h-.608v-2.426zM180.322 48.784h2.108c.11 0 .158-.027.174-.145l.047-.362c.016-.1-.023-.154-.134-.154h-2.764c-.102 0-.165.054-.165.208v5.821c0 .154.063.209.165.209h2.764c.102 0 .15-.037.15-.146v-.37c0-.11-.048-.145-.15-.145h-2.195v-2.282h1.863c.103 0 .15-.036.15-.144v-.363c0-.109-.047-.144-.15-.144h-1.863v-1.983z"/>
        </g>
    </g>
</svg>
