<svg xmlns="http://www.w3.org/2000/svg" width="25" height="24" viewBox="0 0 25 24">
    <path fill="#5C566D" fill-rule="nonzero" d="M24.166.824A2.124 2.124 0 0 0 22.459 0c-.441 0-.899.123-1.36.365L1.472 10.656c-1.395.733-1.492 1.836-1.47 2.275.023.443.236 1.529 1.7 2.11l2.508.992a4.277 4.277 0 0 0 1.58.285c.091 0 .178-.012.268-.016-.034.044-.076.078-.107.124-.468.7-.491 1.648-.068 2.669a.82.82 0 0 0 .02.047c.741 1.643 1.566 3.498 1.666 3.756a1.69 1.69 0 0 0 1.56 1.083c1.058 0 1.373-.51 3.105-3.33.135-.207.435-.687.486-1.299.202.083.392.158.555.224l2.78 1.133c.556.227 1.044.427 1.3.534a1.67 1.67 0 0 0 .866.244c1.264 0 1.567-1.095 1.73-1.682.08-.29.191-.692.31-1.135l4.24-15.575c.319-1.176-.074-1.927-.335-2.27zm-13.332 18.94s-1.572 2.56-1.706 2.56c-.004 0-.006-.001-.008-.005-.154-.415-1.708-3.858-1.708-3.858-.286-.69-.235-1.282.258-1.282.108 0 .237.03.389.092l1.206.627c.202.138.422.257.664.352l.06.023.114.058c.933.493 1.23.671.731 1.433zM22.902 2.66l-4.237 15.575c-.24.877-.439 1.595-.443 1.595-.003-.002-.008-.018-.008-.021 0-.006-.691-.288-1.535-.634l-2.781-1.133c-.845-.341-2.23-.895-3.079-1.222l-.14-.056-.52-.27c-.514-.394-.56-1.045-.042-1.596l8.603-9.212c.346-.369.476-.56.401-.56-.059 0-.25.124-.57.374L7.666 14.085c-.475.37-1.196.578-1.874.578-.348 0-.685-.056-.972-.17l-2.507-.99c-.847-.336-.88-.955-.073-1.38L21.87 1.83c.226-.118.425-.173.59-.173.421 0 .614.37.442 1.002z"/>
</svg>
