<svg xmlns="http://www.w3.org/2000/svg" width="20" height="20" viewBox="0 0 20 20">
    <path fill="#FFF" fill-rule="nonzero" d="M19.631.67A1.726 1.726 0 0 0 18.245 0c-.359 0-.73.1-1.105.296L1.195 8.656C.062 9.252-.017 10.148.002 10.505c.018.36.192 1.241 1.38 1.713l2.038.806c.387.153.819.232 1.284.232.074 0 .144-.01.217-.013-.028.036-.062.064-.087.101-.38.568-.399 1.338-.055 2.168l.016.038A169.427 169.427 0 0 1 6.149 18.6c.2.521.708.88 1.267.88.86 0 1.115-.414 2.522-2.705.11-.168.354-.558.395-1.055l.451.182 2.258.92c.452.184.848.347 1.057.433a1.356 1.356 0 0 0 .703.198c1.027 0 1.273-.889 1.405-1.365.065-.236.156-.562.252-.923l3.444-12.652c.26-.955-.06-1.565-.272-1.845zM8.801 16.055s-1.277 2.08-1.386 2.08c-.003 0-.005-.002-.006-.005-.125-.337-1.388-3.134-1.388-3.134-.232-.56-.19-1.041.21-1.041.087 0 .193.023.316.074l.98.51c.163.111.342.208.539.286l.05.018.092.047c.757.4.998.545.593 1.165zM18.604 2.16l-3.442 12.652a81.565 81.565 0 0 1-.359 1.296c-.003-.001-.007-.015-.007-.017 0-.005-.561-.234-1.247-.515l-2.26-.92c-.685-.278-1.81-.727-2.5-.993l-.114-.046-.422-.219c-.418-.32-.455-.849-.034-1.297l6.989-7.483c.28-.3.386-.454.325-.454-.048 0-.203.1-.463.303l-8.842 6.975c-.386.301-.972.47-1.523.47-.282 0-.556-.046-.79-.138l-2.036-.805c-.688-.273-.714-.776-.06-1.12l15.947-8.362c.184-.096.345-.141.479-.141.343 0 .499.3.36.814z"/>
</svg>
