<?xml version="1.0" standalone="no"?>
<!DOCTYPE svg PUBLIC "-//W3C//DTD SVG 1.1//EN" "http://www.w3.org/Graphics/SVG/1.1/DTD/svg11.dtd" >
<svg>
<metadata>
Created by FontForge 20090622 at Tue Sep 19 11:34:45 2017
 By deploy user
Copyright (c) 2009 by Jason Smith, Fontsmith Ltd. All rights reserved.
</metadata>
<defs>
<font id="FSAlbertPro-Thin" horiz-adv-x="530" >
  <font-face 
    font-family="FS Albert Pro Thin"
    font-weight="250"
    font-stretch="normal"
    units-per-em="1000"
    panose-1="2 0 5 6 3 0 0 2 0 4"
    ascent="770"
    descent="-230"
    x-height="482"
    cap-height="687"
    bbox="-150.118 -220 1000 995.267"
    underline-thickness="50"
    underline-position="-50"
    unicode-range="U+000D-U+FB04"
  />
<missing-glyph horiz-adv-x="535" 
d="M20 0v693h495v-693h-495zM268 391l168 253h-337zM297 347l169 -253v505zM99 50h337l-168 252zM70 599v-505l168 253z" />
    <glyph glyph-name="f_f" unicode="ff" horiz-adv-x="571" 
d="M97 455h-61q-8 0 -8 7v12q0 8 9 8h60v10q0 48 2 80q6 65 40 100t93 35q43 0 69 -12q6 -2 4 -8l-3 -11q-2 -7 -10 -5q-31 9 -56 9q-59 0 -81 -38t-22 -116v-44h227v20q0 48 2 80q6 65 41 100t94 35q44 0 71 -11q7 -2 6 -9l-3 -11q-2 -7 -10 -5q-29 9 -60 9
q-60 0 -82.5 -38t-22.5 -116v-54h130q8 0 8 -8v-12q0 -7 -7 -7h-131v-446q0 -9 -9 -9h-18q-9 0 -9 9v446h-227v-446q0 -9 -9 -9h-18q-9 0 -9 9v446z" />
    <glyph glyph-name="fi" unicode="fi" horiz-adv-x="452" 
d="M375 473v-464q0 -9 -9 -9h-18q-9 0 -9 9v446h-206v-446q0 -9 -9 -9h-18q-9 0 -9 9v446h-61q-8 0 -8 7v12q0 8 9 8h60v43q0 99 34 143q39 49 115 49q51 0 101 -19q8 -3 5 -11l-3 -9q-2 -6 -10 -4q-46 16 -89 16q-61 0 -89 -34t-28 -106v-68h235q7 0 7 -9z" />
    <glyph glyph-name="fl" unicode="fl" horiz-adv-x="474" 
d="M360 9v665q-54 16 -110 16q-61 0 -89 -34q-29 -35 -29 -106v-68h121q8 0 8 -8v-12q0 -7 -7 -7h-122v-446q0 -9 -7 -9h-20q-8 0 -8 9v446h-61q-8 0 -8 7v12q0 8 9 8h60v32q0 35 1 55t9 49t24 50q39 49 115 49q52 0 113 -16l27 6q10 3 10 -7v-691q0 -9 -7 -9h-22q-7 0 -7 9
z" />
    <glyph glyph-name="f_f_i" unicode="ffi" horiz-adv-x="715" 
d="M638 473v-461q0 -42 -2 -70.5t-11 -61.5t-24.5 -53t-45 -33.5t-70.5 -13.5q-21 0 -37 4q-8 3 -7 10l2 10q2 8 11 7q18 -3 34 -3q39 0 64 17.5t35 52t12.5 61t2.5 69.5v447h-206v-446q0 -9 -8 -9h-20q-8 0 -8 9v446h-227v-446q0 -9 -9 -9h-18q-9 0 -9 9v446h-61q-8 0 -8 7
v12q0 8 9 8h60v10q0 48 2 80q6 65 40 100t93 35q43 0 69 -12q6 -2 4 -8l-3 -11q-2 -7 -10 -5q-31 9 -56 9q-59 0 -81 -38t-22 -116v-44h227v43q0 99 34 143q39 49 115 49q51 0 101 -19q8 -3 5 -11l-3 -9q-2 -6 -10 -4q-46 16 -89 16q-61 0 -89 -34t-28 -106v-68h235
q7 0 7 -9z" />
    <glyph glyph-name="f_f_l" unicode="ffl" horiz-adv-x="737" 
d="M623 9v665q-54 16 -110 16q-61 0 -89 -34q-29 -35 -29 -106v-68h121q8 0 8 -8v-12q0 -7 -7 -7h-122v-446q0 -9 -7 -9h-20q-8 0 -8 9v446h-227v-446q0 -9 -9 -9h-18q-9 0 -9 9v446h-61q-8 0 -8 7v12q0 8 9 8h60v10q0 48 2 80q6 65 40 100t93 35q43 0 69 -12q6 -2 4 -8
l-3 -11q-2 -7 -10 -5q-31 9 -56 9q-59 0 -81 -38t-22 -116v-44h227v32q0 35 1 55t9 49t24 50q39 49 115 49q52 0 113 -16l27 6q10 3 10 -7v-691q0 -9 -7 -9h-22q-7 0 -7 9z" />
    <glyph glyph-name="f_j" unicode="fj" horiz-adv-x="451" 
d="M375 473v-461q0 -42 -2 -70.5t-11 -61.5t-24.5 -53t-45 -33.5t-70.5 -13.5q-21 0 -37 4q-8 3 -7 10l2 10q2 8 11 7q18 -3 34 -3q39 0 64 17.5t35 52t12.5 61t2.5 69.5v447h-206v-446q0 -9 -8 -9h-20q-8 0 -8 9v446h-61q-8 0 -8 7v12q0 8 9 8h60v43q0 99 34 143
q39 49 115 49q51 0 101 -19q8 -3 5 -11l-3 -9q-2 -6 -10 -4q-46 16 -89 16q-61 0 -89 -34t-28 -106v-68h235q7 0 7 -9z" />
    <glyph glyph-name="f_f_j" unicode="ffj" horiz-adv-x="714" 
d="M638 473v-461q0 -42 -2 -70.5t-11 -61.5t-24.5 -53t-45 -33.5t-70.5 -13.5q-21 0 -37 4q-8 3 -7 10l2 10q2 8 11 7q18 -3 34 -3q39 0 64 17.5t35 52t12.5 61t2.5 69.5v447h-206v-446q0 -9 -8 -9h-20q-8 0 -8 9v446h-227v-446q0 -9 -9 -9h-18q-9 0 -9 9v446h-61q-8 0 -8 7
v12q0 8 9 8h60v10q0 48 2 80q6 65 40 100t93 35q43 0 69 -12q6 -2 4 -8l-3 -11q-2 -7 -10 -5q-31 9 -56 9q-59 0 -81 -38t-22 -116v-44h227v43q0 99 34 143q39 49 115 49q51 0 101 -19q8 -3 5 -11l-3 -9q-2 -6 -10 -4q-46 16 -89 16q-61 0 -89 -34t-28 -106v-68h235
q7 0 7 -9z" />
    <glyph glyph-name=".notdef" horiz-adv-x="535" 
d="M20 0v693h495v-693h-495zM268 391l168 253h-337zM297 347l169 -253v505zM99 50h337l-168 252zM70 599v-505l168 253z" />
    <glyph glyph-name=".null" horiz-adv-x="0" 
 />
    <glyph glyph-name=".null" horiz-adv-x="0" 
 />
    <glyph glyph-name="nonmarkingreturn" horiz-adv-x="333" 
 />
    <glyph glyph-name="CR" unicode="&#xd;" horiz-adv-x="220" 
 />
    <glyph glyph-name="space" unicode=" " horiz-adv-x="220" 
 />
    <glyph glyph-name="exclam" unicode="!" horiz-adv-x="228" 
d="M102 687h28q8 0 8 -7l-8 -527q0 -8 -8 -8h-12q-8 0 -8 8l-7 527q0 7 7 7zM148 25q0 -35 -34 -35t-34 35q0 15 10 24t25 9q14 0 23.5 -9t9.5 -24z" />
    <glyph glyph-name="quotedbl" unicode="&#x22;" horiz-adv-x="281" 
d="M100 689l-3 -158q0 -9 -8 -9h-18q-8 0 -8 9l-3 158q0 9 9 9h22q9 0 9 -9zM221 689l-3 -158q0 -9 -8 -9h-18q-8 0 -8 9l-3 158q0 9 9 9h22q9 0 9 -9z" />
    <glyph glyph-name="numbersign" unicode="#" 
d="M233 680l-35 -224h165l34 224q1 7 8 7h21q7 0 6 -7l-34 -224h106q4 0 6.5 -1.5t1.5 -5.5l-2 -13q-1 -7 -9 -7h-106l-29 -189h108q4 0 6.5 -1.5t1.5 -5.5l-3 -13q-1 -7 -9 -7h-107l-30 -203q-1 -10 -11 -10h-16q-10 0 -8 10l30 203h-167l-31 -203q-1 -10 -11 -10h-16
q-10 0 -8 10l31 203h-100q-4 0 -6.5 1.5t-1.5 5.5l3 13q1 7 9 7h100l29 189h-102q-4 0 -6.5 1.5t-1.5 5.5l2 13q1 7 9 7h103l34 224q1 7 8 7h22q7 0 6 -7zM194 429l-29 -189h166l29 189h-166z" />
    <glyph glyph-name="dollar" unicode="$" 
d="M459 171q0 -77 -46.5 -122.5t-121.5 -54.5v-86q0 -9 -8 -9h-10q-8 0 -8 9v83h-12q-72 0 -140 23q-13 6 -9 16l6 16q4 9 14 5q64 -25 131 -25h10v319l-69 41q-97 58 -97 151q0 69 46.5 111t119.5 49v87q0 9 8 9h10q8 0 8 -9v-86q68 0 127 -26q8 -4 5 -12l-5 -16
q-2 -6 -12 -3q-58 22 -115 24v-289l40 -24q65 -40 96.5 -79.5t31.5 -101.5zM317 314l-26 15v-301q55 9 91.5 43.5t36.5 95.5q0 87 -102 147zM141 547q0 -47 23 -77.5t65 -55.5l36 -22v272q-54 -6 -89 -36t-35 -81z" />
    <glyph glyph-name="percent" unicode="%" horiz-adv-x="635" 
d="M535 688l-396 -689q-5 -8 -13 -8h-17q-11 0 -5 10l395 689q5 8 13 8h18q11 0 5 -10zM603 173q0 -41 -9 -78.5t-37 -68.5t-70 -31q-32 0 -55.5 17t-35.5 45.5t-17 56.5t-5 58q0 29 5.5 57.5t17.5 56.5t36 45.5t56 17.5q42 0 69.5 -31t36 -67.5t8.5 -77.5zM566 172
q0 22 -3 44.5t-11 47.5t-24.5 40.5t-39.5 15.5t-39.5 -15.5t-24.5 -40.5t-11 -47.5t-3 -44.5t3 -44.5t11 -47t24.5 -40t39.5 -15.5t39.5 15.5t24.5 40t11 47t3 44.5zM261 517q0 -41 -9 -78.5t-37 -68.5t-70 -31q-32 0 -55.5 17t-35.5 45.5t-17 56.5t-5 58q0 29 5.5 57.5
t17.5 56.5t36 45.5t56 17.5q42 0 69.5 -31t36 -67.5t8.5 -77.5zM224 516q0 22 -3 44.5t-11 47.5t-24.5 40.5t-39.5 15.5t-39.5 -15.5t-24.5 -40.5t-11 -47.5t-3 -44.5t3 -44.5t11 -47t24.5 -40t39.5 -15.5t39.5 15.5t24.5 40t11 47t3 44.5z" />
    <glyph glyph-name="ampersand" unicode="&#x26;" horiz-adv-x="650" 
d="M487 117q64 -71 133 -95q9 -2 6 -11l-6 -15q-4 -9 -13 -5q-83 25 -143 99q-92 -99 -222 -99q-80 0 -134 51.5t-54 131.5q0 37 13.5 70t42.5 63t49 47t59 45l-37 50q-27 37 -40 64t-13 60q0 50 37 87.5t93 37.5q58 0 94 -35t36 -89q0 -52 -33 -93t-90 -84l200 -255
q77 108 91 255q1 10 11 10h12q9 0 9 -9q-16 -167 -101 -281zM247 420q108 82 108 152q0 44 -26 71.5t-69 27.5q-41 0 -68 -27t-27 -70q0 -47 51 -114zM442 113l-206 262q-144 -96 -144 -199q0 -69 46 -111t109 -42q113 0 195 90z" />
    <glyph glyph-name="quotesingle" unicode="'" horiz-adv-x="160" 
d="M100 689l-3 -158q0 -9 -8 -9h-18q-8 0 -8 9l-3 158q0 9 9 9h22q9 0 9 -9z" />
    <glyph glyph-name="parenleft" unicode="(" horiz-adv-x="310" 
d="M233 -105q5 -8 -2 -12l-12 -7q-7 -3 -11 4q-71 109 -103 204t-32 209q0 211 133 410q6 9 12 6l11 -6q6 -4 1 -11q-120 -186 -120 -401q0 -205 123 -396z" />
    <glyph glyph-name="parenright" unicode=")" horiz-adv-x="310" 
d="M77 -104q123 191 123 396q0 215 -120 401q-5 7 1 11l11 6q6 3 12 -6q133 -199 133 -410q0 -114 -32 -209t-103 -204q-4 -7 -11 -4l-12 7q-7 4 -2 12z" />
    <glyph glyph-name="asterisk" unicode="*" horiz-adv-x="298" 
d="M157 581l99 47q10 4 13 -5l7 -20q4 -10 -7 -13l-108 -20l78 -87q7 -9 -3 -15l-14 -9q-11 -9 -17 3l-54 104l-52 -107q-7 -10 -16 -2l-15 10q-10 7 -3 15l73 87l-105 18q-11 3 -7 15l6 18q4 10 14 6l99 -45l-14 115q-2 10 10 10h21q12 0 10 -10z" />
    <glyph glyph-name="plus" unicode="+" 
d="M283 277h160q9 0 9 -8v-16q0 -8 -9 -8h-160v-180q0 -9 -9 -9h-18q-9 0 -9 9v180h-161q-9 0 -9 8v16q0 8 9 8h161v181q0 9 9 9h18q9 0 9 -9v-181z" />
    <glyph glyph-name="comma" unicode="," horiz-adv-x="188" 
d="M142 28q0 -79 -63 -137q-5 -5 -10 -1l-4 5q-5 5 1 10q34 34 34 70q0 19 -16 40t-16 32q0 14 9.5 22.5t23.5 8.5q16 0 28.5 -14t12.5 -36z" />
    <glyph glyph-name="hyphen" unicode="-" horiz-adv-x="265" 
d="M208 265v-9q0 -13 -11 -13h-128q-11 0 -11 10v16q0 8 10 8h128q12 0 12 -12z" />
    <glyph glyph-name="period" unicode="." horiz-adv-x="190" 
d="M134 25q0 -35 -34 -35t-34 35q0 15 10 24t25 9q14 0 23.5 -9t9.5 -24z" />
    <glyph glyph-name="slash" unicode="/" horiz-adv-x="312" 
d="M275 689l-188 -688q-3 -10 -13 -10h-17q-7 0 -5 9l190 690q2 8 8 8h20q7 0 5 -9z" />
    <glyph glyph-name="zero" unicode="0" 
d="M473 346q0 -61 -10.5 -119t-32.5 -113t-65.5 -89t-101.5 -34q-47 0 -84 22.5t-59.5 58.5t-37.5 84t-20.5 94t-5.5 94q0 61 10.5 118.5t32.5 113t65.5 89t101.5 33.5t101 -33t64.5 -88t31.5 -112t10 -119zM432 345q0 47 -7.5 97t-24.5 103t-52 86.5t-83 33.5t-83.5 -33.5
t-52.5 -86.5t-24.5 -102.5t-7.5 -97.5t7.5 -97.5t24.5 -102.5t52.5 -86.5t83.5 -33.5t83 33.5t52 86.5t24.5 103t7.5 97z" />
    <glyph glyph-name="one" unicode="1" 
d="M284 648l-147 -103q-9 -6 -13 1l-8 13q-5 8 3 13l154 109q8 6 24 6h15q8 0 8 -11v-665q0 -11 -9 -11h-18q-9 0 -9 10v638z" />
    <glyph glyph-name="two" unicode="2" 
d="M452 25v-16q0 -9 -11 -9h-355q-8 0 -8 9v17q0 9 5 15l61 65.5l84 90.5t70 83q109 141 109 239q0 66 -40.5 105.5t-104.5 39.5q-67 0 -136 -39q-9 -5 -12 2l-8 16q-3 6 5 11q70 44 152 44q84 0 134.5 -46.5t50.5 -127.5q0 -70 -37.5 -143t-132.5 -180q-74 -85 -154 -167
h317q11 0 11 -9z" />
    <glyph glyph-name="three" unicode="3" 
d="M447 191q0 -89 -57 -144.5t-144 -55.5t-144 28q-9 4 -6 12l8 19q2 7 12 3q64 -27 123 -27q74 0 120 43.5t46 120.5q0 80 -49 122.5t-128 42.5h-24q-8 0 -8 7v18q0 7 7 7h17q74 0 118.5 35t44.5 108q0 66 -41.5 100.5t-103.5 34.5t-116 -27q-10 -5 -13 3l-6 15q-3 7 6 12
q58 30 132 30q80 0 131 -44.5t51 -122.5q0 -55 -29 -100t-86 -58v-1q63 -13 101 -63t38 -118z" />
    <glyph glyph-name="four" unicode="4" 
d="M444 382v-375q0 -7 -7 -7h-22q-7 0 -7 7v166h-332q-9 0 -9 9v15q0 15 7 31l189 451q3 8 12 8h23q9 0 5 -10l-198 -471h303v176q0 9 8 9h20q8 0 8 -9z" />
    <glyph glyph-name="five" unicode="5" 
d="M454 199q0 -96 -61 -152t-158 -56q-77 0 -137 35q-7 4 -4 11l8 17q4 7 11 3q59 -31 129 -31q71 0 121 43.5t50 126.5q0 54 -18.5 91.5t-52 56.5t-71 26.5t-84.5 7.5h-49q-13 0 -13 11v290q0 8 8 8h277q8 0 8 -7v-20q0 -6 -8 -6h-249v-243h52q107 0 174 -53t67 -159z" />
    <glyph glyph-name="six" unicode="6" 
d="M78 291q0 56 6 108t24 108.5t46.5 97t76.5 67t111 26.5q30 0 58 -6q12 -2 9 -12l-3 -15q-1 -7 -10 -6q-27 6 -55 6q-48 0 -86 -20.5t-61.5 -52.5t-40 -77t-23.5 -88.5t-10 -91.5q33 40 80 59.5t89 19.5q74 0 122.5 -53.5t48.5 -144.5q0 -98 -50.5 -161.5t-134.5 -63.5
q-103 0 -150 81t-47 219zM118 298q0 -277 158 -277q51 0 85.5 33t47.5 73.5t13 81.5q0 69 -34 121t-100 52q-95 0 -170 -84z" />
    <glyph glyph-name="seven" unicode="7" 
d="M421 654h-307q-9 0 -9 7v19q0 7 7 7h339q9 0 9 -8v-11q0 -16 -7 -33l-267 -627q-4 -8 -10 -8h-27q-9 0 -5 10z" />
    <glyph glyph-name="eight" unicode="8" 
d="M463 172q0 -84 -57.5 -132.5t-146.5 -48.5q-85 0 -139 47.5t-54 131.5q0 117 163 197q-141 66 -141 182q0 67 49.5 108t125.5 41q74 0 120.5 -43t46.5 -111q0 -106 -134 -169q167 -76 167 -203zM260 666q-57 0 -94 -30t-37 -86q0 -97 134 -160q60 30 93 64t33 90
q0 55 -35 88.5t-94 33.5zM422 170q0 67 -42.5 107t-118.5 75q-34 -19 -55 -33t-47 -36.5t-39 -50.5t-13 -60q0 -72 47 -110.5t108 -38.5q64 0 112 36.5t48 110.5z" />
    <glyph glyph-name="nine" unicode="9" 
d="M452 401q0 -57 -6 -109t-24 -108.5t-46.5 -98t-76.5 -68t-111 -26.5q-30 0 -59 6q-9 2 -8 12l3 15q1 7 9 6q27 -6 56 -6q48 0 86 20.5t61.5 52.5t40 77t23.5 88.5t10 91.5q-33 -40 -80 -59.5t-89 -19.5q-74 0 -122.5 53.5t-48.5 144.5q0 98 50.5 161.5t134.5 63.5
q103 0 150 -80t47 -217zM412 391q0 277 -158 277q-51 0 -85.5 -33t-47.5 -73.5t-13 -81.5q0 -69 34 -121t100 -52q95 0 170 84z" />
    <glyph glyph-name="colon" unicode=":" horiz-adv-x="193" 
d="M134 29q0 -35 -34 -35t-34 35q0 15 10 24t25 9q14 0 23.5 -9t9.5 -24zM134 456q0 -35 -34 -35t-34 35q0 15 10 24t25 9q14 0 23.5 -9t9.5 -24z" />
    <glyph glyph-name="semicolon" unicode=";" horiz-adv-x="199" 
d="M140 453q0 -14 -10.5 -23.5t-23.5 -9.5q-14 0 -24.5 9.5t-10.5 23.5q0 16 10 26t25 10q14 0 24 -10t10 -26zM144 28q0 -79 -63 -137q-5 -5 -10 -1l-4 5q-5 5 1 10q34 34 34 70q0 19 -16 40t-16 32q0 14 9.5 22.5t23.5 8.5q16 0 28.5 -14t12.5 -36z" />
    <glyph glyph-name="less" unicode="&#x3c;" 
d="M142 261l251 -181q8 -5 3 -13l-10 -15q-7 -8 -15 -2l-269 197q-5 4 -5 10v9q0 7 5 10l270 198q8 5 13 -1l9 -13q6 -8 -2 -16z" />
    <glyph glyph-name="equal" unicode="=" 
d="M86 379h357q9 0 9 -8v-16q0 -8 -9 -8h-357q-9 0 -9 8v16q0 8 9 8zM86 175h357q9 0 9 -8v-16q0 -8 -9 -8h-357q-9 0 -9 8v16q0 8 9 8z" />
    <glyph glyph-name="greater" unicode="&#x3e;" 
d="M388 263l-251 181q-8 5 -3 13l10 15q7 8 15 2l269 -197q5 -4 5 -10v-9q0 -7 -5 -10l-270 -198q-8 -5 -13 1l-9 13q-6 8 2 16z" />
    <glyph glyph-name="question" unicode="?" horiz-adv-x="393" 
d="M356 553q0 -38 -14.5 -72t-31 -54t-45.5 -48q-33 -32 -48 -49t-31.5 -51.5t-16.5 -72.5v-11q0 -7 -7 -7h-16q-7 0 -7 7v14q0 41 16 77t32 54.5t47 49.5q30 29 45 46t29.5 49.5t14.5 68.5q0 54 -36 84t-86 30q-55 0 -109 -32q-8 -5 -11 2l-7 14q-4 7 5 11q58 35 127 35
q64 0 107 -39t43 -106zM186 25q0 -35 -34 -35t-34 35q0 15 10 24t25 9q14 0 23.5 -9t9.5 -24z" />
    <glyph glyph-name="at" unicode="@" horiz-adv-x="787" 
d="M733 395q0 -91 -51 -169.5t-126 -78.5q-33 0 -55 20t-22 59q0 8 2 24q-43 -88 -123 -88q-40 0 -67 32t-27 100q0 81 45.5 148t116.5 67q26 0 52 -17.5t32 -54.5l9 47q1 9 9 9h13q9 0 7 -9l-37 -178q-8 -42 -8 -65q0 -36 12 -53t41 -17q38 0 67.5 23.5t46 59.5t24.5 72
t8 67q0 126 -75 201t-196 75q-142 0 -232.5 -103t-90.5 -246q0 -139 81.5 -221t214.5 -82q78 0 155 41q7 5 10 -2l4 -10q2 -7 -4 -10q-78 -45 -171 -45q-147 0 -240 90t-93 235q0 160 105.5 271t257.5 111q134 0 219.5 -82.5t85.5 -220.5zM477 288l24 117q-8 77 -70 77
q-43 0 -75 -34.5t-44.5 -74.5t-12.5 -75q0 -53 18.5 -80.5t50.5 -27.5q34 0 63.5 29t45.5 69z" />
    <glyph glyph-name="A" unicode="A" horiz-adv-x="556" 
d="M21 13l240 665q3 9 10 9h21q7 0 10 -8l235 -668q3 -11 -8 -11h-26q-10 0 -13 8l-74 223h-277l-79 -225q-2 -6 -9 -6h-24q-10 0 -6 13zM150 263h256l-126 365z" />
    <glyph glyph-name="B" unicode="B" horiz-adv-x="526" 
d="M475 189q0 -104 -61.5 -146.5t-171.5 -42.5h-141q-14 0 -14 13v660q0 14 14 14h118q205 0 205 -159q0 -58 -31.5 -104.5t-90.5 -58.5v-1q77 -1 125 -50.5t48 -124.5zM382 526q0 33 -10.5 57.5t-26.5 38t-40.5 21t-46.5 9.5t-51 2h-80v-276h89q166 0 166 148zM431 188
q0 157 -198 157h-106v-311h106q93 0 145.5 33t52.5 121z" />
    <glyph glyph-name="C" unicode="C" horiz-adv-x="549" 
d="M343 25q77 0 153 38q8 3 11 -4l7 -16q3 -7 -6 -12q-77 -40 -172 -40q-139 0 -212 100t-73 253q0 147 77.5 250.5t210.5 103.5q98 0 167 -43q6 -4 3 -12l-7 -14q-4 -8 -12 -4q-67 39 -146 39q-82 0 -140 -48.5t-83 -118t-25 -148.5q0 -62 13.5 -118t42 -103t77.5 -75
t114 -28z" />
    <glyph glyph-name="D" unicode="D" horiz-adv-x="625" 
d="M103 687h107q96 0 147.5 -10t92.5 -39q58 -40 91 -118t33 -181q0 -177 -93 -268q-71 -71 -229 -71h-149q-16 0 -16 15v657q0 15 16 15zM127 654v-620h95q77 0 123 8t81 34q103 77 103 264q0 82 -24 151.5t-69 109.5q-37 32 -85.5 42.5t-114.5 10.5h-109z" />
    <glyph glyph-name="E" unicode="E" horiz-adv-x="470" 
d="M127 34h284q9 0 9 -8v-18q0 -8 -9 -8h-311q-13 0 -13 12v661q0 8 3 11t12 3h308q7 0 7 -6l-2 -20q-1 -7 -10 -7h-278v-276h241q9 0 9 -8v-17q0 -8 -9 -8h-241v-311z" />
    <glyph glyph-name="F" unicode="F" horiz-adv-x="447" 
d="M127 654v-276h240q10 0 10 -8v-17q0 -8 -9 -8h-241v-331q0 -14 -11 -14h-16q-13 0 -13 12v661q0 8 3 11t12 3h308q8 0 7 -7l-2 -19q-1 -7 -10 -7h-278z" />
    <glyph glyph-name="G" unicode="G" horiz-adv-x="611" 
d="M491 345h-121q-8 0 -8 7v18q0 8 7 8h152q10 0 10 -10v-305q0 -12 -4 -17.5t-19 -14.5q-68 -40 -172 -40q-139 0 -212 100t-73 253q0 146 78.5 250t212.5 104q101 0 168 -43q7 -4 3 -11l-9 -16q-3 -8 -10 -3q-63 39 -147 39q-82 0 -141 -48.5t-84.5 -118t-25.5 -148.5
q0 -63 13.5 -118.5t41.5 -102.5t77.5 -75t114.5 -28q87 0 148 37v283z" />
    <glyph glyph-name="H" unicode="H" horiz-adv-x="621" 
d="M494 378v301q0 8 8 8h24q8 0 8 -9v-669q0 -9 -7 -9h-24q-4 0 -5.5 0.5t-2.5 2.5t-1 7v335h-367v-336q0 -9 -8 -9h-25q-7 0 -7 9v669q0 9 8 9h24q8 0 8 -10v-299h367z" />
    <glyph glyph-name="I" unicode="I" horiz-adv-x="336" 
d="M185 29h71q6 0 6 -6v-17q0 -6 -6 -6h-177q-6 0 -6 6v17q0 6 6 6h66v630h-68q-7 0 -7 6v17q0 5 6 5h179q7 0 7 -6v-16q0 -6 -7 -6h-70v-630z" />
    <glyph glyph-name="J" unicode="J" horiz-adv-x="344" 
d="M217 659h-117q-8 0 -8 7v16q0 5 6 5h151q8 0 8 -8v-451q0 -80 -9 -127.5t-37 -73.5q-38 -36 -113 -36q-24 0 -40 4q-9 2 -7 10l3 14q2 7 9 6q19 -4 40 -4q70 0 94 45q20 37 20 137v456z" />
    <glyph glyph-name="K" unicode="K" horiz-adv-x="468" 
d="M441 678l-274 -323l292 -345q3 -3 1.5 -6.5t-5.5 -3.5h-29q-11 0 -19 8l-279 335h-1v-332q0 -11 -9 -11h-22q-9 0 -9 10v667q0 10 9 10h23q8 0 8 -11v-314h1l271 319q5 6 13 6h25q3 0 4.5 -1.5t1.5 -3.5t-2 -4z" />
    <glyph glyph-name="L" unicode="L" horiz-adv-x="410" 
d="M388 27v-20q0 -7 -8 -7h-283q-10 0 -10 10v668q0 9 7 9h26q7 0 7 -9v-644h253q8 0 8 -7z" />
    <glyph glyph-name="M" unicode="M" horiz-adv-x="798" 
d="M642 578l-223 -570q-3 -8 -11 -8h-12q-9 0 -12 8l-236 570h-2l-15 -570q0 -8 -7 -8h-25q-7 0 -7 7l21 668q0 12 10 12h15q9 0 13 -10l250 -609h2l242 612q2 7 10 7h21q7 0 7 -7l23 -671q0 -9 -9 -9h-22q-9 0 -9 10l-22 568h-2z" />
    <glyph glyph-name="N" unicode="N" horiz-adv-x="646" 
d="M559 679v-671q0 -8 -8 -8h-17q-8 0 -13 8l-396 606h-1v-604q0 -10 -9 -10h-19q-9 0 -9 9v670q0 8 8 8h17q9 0 13 -7l395 -600h1v599q0 8 7 8h25q6 0 6 -8z" />
    <glyph glyph-name="O" unicode="O" horiz-adv-x="621" 
d="M570 348q0 -168 -75 -262.5t-190 -94.5q-119 0 -186.5 91.5t-67.5 258.5q0 164 74 260.5t190 96.5q120 0 187.5 -94t67.5 -256zM525 345q0 147 -54.5 232.5t-157.5 85.5q-98 0 -157.5 -90.5t-59.5 -228.5q0 -146 55 -232.5t157 -86.5q98 0 157.5 89t59.5 231z" />
    <glyph glyph-name="P" unicode="P" horiz-adv-x="478" 
d="M127 278v-268q0 -10 -8 -10h-24q-8 0 -8 9v668q0 10 10 10h110q106 0 168 -47.5t62 -151.5q0 -101 -63.5 -155.5t-162.5 -54.5h-84zM127 311h80q86 0 136.5 43t50.5 134q0 95 -52.5 130.5t-144.5 35.5h-70v-343z" />
    <glyph glyph-name="Q" unicode="Q" horiz-adv-x="631" 
d="M306 -5q-68 0 -118.5 28.5t-79.5 78.5t-43 110t-14 130q0 93 27 171.5t88.5 131.5t148.5 53q67 0 117.5 -29t79.5 -79.5t43.5 -111t14.5 -129.5q0 -107 -40.5 -200.5t-129.5 -134.5q40 -12 97.5 -51t97.5 -51q9 -2 6 -11l-5 -13q-3 -9 -13 -6q-48 12 -105 53
q-53 39 -84.5 49.5t-87.5 10.5zM525 346q0 56 -9.5 107t-31.5 101t-66 80t-105 30q-58 0 -102 -31t-68 -81t-35.5 -102.5t-11.5 -104.5q0 -55 10 -106.5t32.5 -101.5t66.5 -80t105 -30q59 0 103 30.5t67 80t34 102t11 106.5z" />
    <glyph glyph-name="R" unicode="R" horiz-adv-x="494" 
d="M250 304h-123v-295q0 -9 -8 -9h-25q-7 0 -7 8v670q0 9 9 9h129q218 0 218 -190q0 -74 -42.5 -125t-111.5 -64l165 -297q6 -11 -7 -11h-23q-9 0 -14 8zM127 337h106q75 0 120.5 40.5t45.5 120.5q0 85 -48 120.5t-139 35.5h-85v-317z" />
    <glyph glyph-name="S" unicode="S" horiz-adv-x="458" 
d="M416 171q0 -87 -58 -133.5t-148 -46.5q-76 0 -142 24q-10 3 -7 14l6 17q3 10 14 5q64 -25 131 -25q66 0 115 35t49 106q0 87 -102 147l-121 72q-97 58 -97 151q0 75 54.5 118t136.5 43q70 0 128 -27q8 -4 5 -12l-6 -14q-4 -7 -13 -4q-60 24 -115 24q-62 0 -105 -30.5
t-43 -87.5q0 -47 23 -77.5t65 -55.5l102 -62q65 -40 96.5 -79.5t31.5 -101.5z" />
    <glyph glyph-name="T" unicode="T" horiz-adv-x="514" 
d="M272 654v-646q0 -8 -8 -8h-23q-9 0 -9 8v646h-198q-7 0 -7 7v20q0 6 7 6h442q5 0 7.5 -2t1.5 -6l-2 -17q-1 -8 -11 -8h-200z" />
    <glyph glyph-name="U" unicode="U" horiz-adv-x="660" 
d="M575 678v-383q0 -304 -244 -304q-62 0 -106.5 15.5t-71 41.5t-41.5 68t-20 85.5t-5 103.5v371q0 11 10 11h20q10 0 10 -11v-363q0 -51 3 -87.5t15 -77t33 -65t59.5 -41t92.5 -16.5t92.5 17t60 42t33.5 65.5t15.5 77t3.5 86.5v364q0 9 8 9h24q8 0 8 -9z" />
    <glyph glyph-name="V" unicode="V" horiz-adv-x="560" 
d="M287 56h1l196 621q3 10 14 10h21q12 0 9 -12l-216 -667q-3 -8 -12 -8h-29q-10 0 -13 10l-219 664q-5 13 8 13h25q11 0 15 -11z" />
    <glyph glyph-name="W" unicode="W" horiz-adv-x="830" 
d="M800 676l-179 -667q-3 -9 -12 -9h-30q-8 0 -11 9l-147 613h-2l-152 -613q-1 -9 -12 -9h-29q-8 0 -11 9l-174 667q-4 11 8 11h20q9 0 12 -9l162 -632h1l157 632q3 9 13 9h15q9 0 12 -8l157 -633h1l165 631q3 10 12 10h15q12 0 9 -11z" />
    <glyph glyph-name="X" unicode="X" horiz-adv-x="512" 
d="M257 323l-175 -314q-4 -9 -15 -9h-20q-13 0 -6 12l196 347l-176 316q-6 12 8 12h20q11 0 15 -8l156 -280l156 280q4 8 15 8h20q11 0 6 -11l-177 -313l198 -351q7 -12 -9 -12h-22q-11 0 -17 10z" />
    <glyph glyph-name="Y" unicode="Y" horiz-adv-x="500" 
d="M442 687h16q13 0 8 -12l-189 -409v-255q0 -11 -12 -11h-16q-12 0 -12 11v253l-200 412q-3 4 -0.5 7.5t9.5 3.5h20q10 0 14 -9l178 -374h1l169 374q4 9 14 9z" />
    <glyph glyph-name="Z" unicode="Z" horiz-adv-x="497" 
d="M411 654h-333q-9 0 -9 8v18q0 7 8 7h372q9 0 9 -9v-9q0 -9 -7 -21l-373 -614h370q10 0 10 -10v-15q0 -9 -9 -9h-406q-10 0 -10 8v12q0 10 6 20z" />
    <glyph glyph-name="bracketleft" unicode="[" horiz-adv-x="275" 
d="M251 -124v-12q0 -8 -8 -8h-139q-10 0 -10 12v819q0 11 10 11h139q8 0 8 -7v-12q0 -8 -8 -8h-113v-788h113q8 0 8 -7z" />
    <glyph glyph-name="backslash" unicode="\" horiz-adv-x="334" 
d="M91 694l187 -698q3 -9 -7 -9h-13q-7 0 -9 8l-188 696q-3 12 7 12h11q9 0 12 -9z" />
    <glyph glyph-name="bracketright" unicode="]" horiz-adv-x="276" 
d="M182 686v-820q0 -10 -10 -10h-140q-8 0 -8 7v12q0 8 8 8h114v788h-114q-8 0 -8 7v12q0 8 8 8h140q10 0 10 -12z" />
    <glyph glyph-name="asciicircum" unicode="^" 
d="M411 387l-145 250l-148 -243q-5 -8 -12 -3l-15 10q-6 5 -2 12l160 254q5 8 13 8h11q8 0 13 -8l154 -263q5 -8 -2 -12l-14 -9q-8 -5 -13 4z" />
    <glyph glyph-name="underscore" unicode="_" horiz-adv-x="487" 
d="M477 -93v-13q0 -11 -11 -11h-445q-11 0 -11 10v16q0 8 10 8h445q12 0 12 -10z" />
    <glyph glyph-name="grave" unicode="`" horiz-adv-x="296" 
d="M98 694l128 -102q7 -5 3 -11l-5 -8q-4 -6 -9 -2l-145 86q-9 5 -3 14l15 22q6 9 16 1z" />
    <glyph glyph-name="a" unicode="a" horiz-adv-x="503" 
d="M389 93q-17 -41 -56 -71.5t-102 -30.5q-87 0 -135 68.5t-48 173.5q0 121 56 190t138 69q44 0 84.5 -20.5t62.5 -62.5v64q0 9 10 9h16q10 0 10 -9v-400q0 -49 30 -49h5q8 0 8 -7v-10q0 -7 -8 -7h-18q-53 0 -53 69v24zM389 152v210q-45 101 -144 101q-72 0 -115 -61
t-43 -165q0 -101 40.5 -159.5t105.5 -58.5q117 0 156 133z" />
    <glyph glyph-name="b" unicode="b" horiz-adv-x="506" 
d="M419 238q0 103 -37.5 164t-116.5 61q-43 0 -85.5 -24.5t-67.5 -61.5v-262q26 -42 64.5 -69t81.5 -27q82 0 121.5 62.5t39.5 156.5zM112 73v-64q0 -9 -8 -9h-20q-8 0 -8 9v684q0 11 9 12l17 3q10 2 10 -8v-285q63 77 159 77q92 0 139.5 -70t47.5 -178q0 -109 -51 -181
t-147 -72q-91 0 -148 82z" />
    <glyph glyph-name="c" unicode="c" horiz-adv-x="405" 
d="M260 21q62 0 108 23q6 3 9 -4l6 -12q2 -6 -6 -10q-54 -27 -117 -27q-105 0 -158.5 67.5t-53.5 184.5q0 110 58.5 179.5t157.5 69.5q60 0 111 -28q9 -5 6 -11l-7 -15q-2 -6 -11 -2q-56 26 -99 26q-81 0 -129 -58.5t-48 -158.5q0 -96 41.5 -160t131.5 -64z" />
    <glyph glyph-name="d" unicode="d" horiz-adv-x="509" 
d="M396 111v257q-20 43 -58 69t-83 26q-77 0 -122.5 -59.5t-45.5 -161.5q0 -100 40.5 -161.5t114.5 -61.5q45 0 88.5 26t65.5 66zM396 9v60q-60 -78 -158 -78q-94 0 -142 71t-48 179q0 113 57 182t144 69q43 0 84.5 -20t62.5 -57v278q0 11 8 12l18 3q10 2 10 -8v-691
q0 -9 -8 -9h-20q-8 0 -8 9z" />
    <glyph glyph-name="e" unicode="e" horiz-adv-x="468" 
d="M87 245q0 -97 42 -161t135 -64q61 0 114 21q11 4 13 -4l4 -13q2 -6 -6 -10q-55 -23 -130 -23q-103 0 -157 67.5t-54 183.5q0 108 57 179t151 71q78 0 123 -57t45 -147v-30q0 -13 -15 -13h-322zM88 272h301v20q0 73 -33 122t-102 49q-77 0 -118 -54.5t-48 -136.5z" />
    <glyph glyph-name="f" unicode="f" horiz-adv-x="308" 
d="M97 455h-61q-8 0 -8 7v12q0 8 9 8h60v20q0 48 2 80q6 65 41 100t94 35q44 0 71 -11q7 -2 6 -9l-3 -11q-2 -7 -10 -5q-29 9 -60 9q-60 0 -82.5 -38t-22.5 -116v-54h130q8 0 8 -8v-12q0 -7 -7 -7h-131v-446q0 -9 -9 -9h-18q-9 0 -9 9v446z" />
    <glyph glyph-name="g" unicode="g" horiz-adv-x="508" 
d="M396 118v249q-20 43 -58.5 69.5t-83.5 26.5q-79 0 -123 -60t-44 -156q0 -39 7.5 -75t24.5 -69.5t49 -53.5t75 -20q45 0 86 24t67 65zM396 416v57q0 9 8 9h20q8 0 8 -9v-455q0 -238 -195 -238q-69 0 -131 31q-8 4 -5 11l6 13q3 7 11 4q62 -30 122 -30q156 0 156 201v70
q-18 -32 -62 -56t-95 -24q-93 0 -142 68.5t-49 173.5t54 177.5t147 72.5q96 0 147 -76z" />
    <glyph glyph-name="h" unicode="h" horiz-adv-x="509" 
d="M113 421q27 30 72 50.5t94 20.5q153 0 153 -177v-306q0 -9 -8 -9h-20q-8 0 -8 9v297q0 73 -25.5 114t-95.5 41q-91 0 -162 -76v-376q0 -9 -8 -9h-20q-8 0 -8 9v684q0 11 8 12l18 3q10 2 10 -8v-279z" />
    <glyph glyph-name="i" unicode="i" horiz-adv-x="210" 
d="M132 607q0 -11 -7.5 -18.5t-19.5 -7.5t-19.5 7.5t-7.5 18.5t7.5 18.5t19.5 7.5t19.5 -7.5t7.5 -18.5zM123 473v-464q0 -9 -8 -9h-20q-8 0 -8 9v464q0 9 8 9h20q8 0 8 -9z" />
    <glyph glyph-name="j" unicode="j" horiz-adv-x="235" 
d="M159 607q0 -11 -7.5 -18.5t-19.5 -7.5t-19 7.5t-7 18.5t7 18.5t19 7.5t19.5 -7.5t7.5 -18.5zM149 473v-461q0 -42 -2 -70.5t-11 -61.5t-24.5 -53t-45 -33.5t-70.5 -13.5q-21 0 -37 4q-8 3 -7 10l2 10q2 8 11 7q18 -3 34 -3q39 0 64 17.5t35 52t12.5 61t2.5 69.5v465
q0 9 8 9h20q8 0 8 -9z" />
    <glyph glyph-name="k" unicode="k" horiz-adv-x="389" 
d="M77 9v684q0 11 8 12l18 3q10 2 10 -8v-441l189 216q7 7 16 7h19q5 0 6 -3.5t-2 -6.5l-159 -182l185 -280q7 -10 -3 -10h-24q-11 0 -16 8l-167 255l-44 -49v-205q0 -9 -8 -9h-20q-8 0 -8 9z" />
    <glyph glyph-name="l" unicode="l" horiz-adv-x="192" 
d="M78 9v684q0 11 8 12l18 3q10 2 10 -8v-691q0 -9 -8 -9h-20q-8 0 -8 9z" />
    <glyph glyph-name="m" unicode="m" horiz-adv-x="793" 
d="M716 316v-307q0 -9 -8 -9h-20q-8 0 -8 9v297q0 76 -26.5 116.5t-97.5 40.5q-70 0 -144 -67q9 -36 9 -80v-307q0 -9 -8 -9h-20q-8 0 -8 9v297q0 35 -5 61t-17 49t-37 35t-61 12q-75 0 -152 -81v-373q0 -9 -8 -9h-20q-8 0 -8 9v464q0 9 7 9h22q7 0 7 -9v-55q69 74 163 74
q86 0 126 -69q73 69 165 69q149 0 149 -176z" />
    <glyph glyph-name="n" unicode="n" horiz-adv-x="509" 
d="M396 9v297q0 90 -32 124q-29 32 -88 32q-41 0 -85 -22t-78 -57v-374q0 -9 -8 -9h-20q-8 0 -8 9v464q0 9 6 9h23q7 0 7 -9v-54q76 73 172 73q70 0 105 -37q42 -43 42 -139v-307q0 -9 -8 -9h-20q-8 0 -8 9z" />
    <glyph glyph-name="o" unicode="o" horiz-adv-x="502" 
d="M454 241q0 -105 -53 -177.5t-154 -72.5q-70 0 -116.5 37t-64.5 91.5t-18 123.5q0 104 52.5 176.5t152.5 72.5q104 0 152.5 -71t48.5 -180zM415 240q0 57 -14 105t-52.5 83t-95.5 35q-58 0 -96.5 -33.5t-54 -80.5t-15.5 -105q0 -42 8 -79.5t25.5 -71.5t50 -54t77.5 -20
q58 0 97 33.5t54.5 81.5t15.5 106z" />
    <glyph glyph-name="p" unicode="p" horiz-adv-x="509" 
d="M461 242q0 -112 -57 -181.5t-145 -69.5q-45 0 -84.5 20t-61.5 57v-265q0 -9 -8 -9h-20q-8 0 -8 9v671q0 8 8 8h20q8 0 8 -8v-60q60 78 158 78q94 0 142 -71t48 -179zM422 241q0 100 -40.5 161t-114.5 61q-45 0 -88.5 -25.5t-65.5 -65.5v-254q20 -43 58.5 -70.5
t82.5 -27.5q77 0 122.5 59.5t45.5 161.5z" />
    <glyph glyph-name="q" unicode="q" horiz-adv-x="508" 
d="M431 473v-670q0 -9 -8 -9h-20q-8 0 -8 9v265q-63 -77 -159 -77q-92 0 -140 70t-48 178q0 109 51 181t148 72q92 0 148 -80v61q0 9 10 9h16q10 0 10 -9zM395 106v264q-25 41 -63 67t-82 26q-82 0 -122.5 -62t-40.5 -156q0 -103 38.5 -164t117.5 -61q43 0 85 24.5t67 61.5z
" />
    <glyph glyph-name="r" unicode="r" horiz-adv-x="274" 
d="M113 414q20 40 53.5 59t69.5 19q10 0 16 -1q7 -1 6 -8l-2 -15q-1 -6 -9 -6q-1 0 -6.5 0.5t-12.5 0.5q-69 0 -115 -89v-365q0 -9 -8 -9h-20q-8 0 -8 9v464q0 9 8 9h19q9 0 9 -9v-59z" />
    <glyph glyph-name="s" unicode="s" horiz-adv-x="363" 
d="M324 127q0 -60 -43.5 -98t-117.5 -38q-66 0 -114 28q-7 4 -4 10l6 14q3 6 9 3q56 -27 105 -27q55 0 90 27.5t35 75.5q0 41 -24 65t-69 44l-59 26q-92 40 -92 116q0 54 40 86.5t103 32.5q56 0 104 -22q8 -4 5 -12l-4 -11q-3 -9 -12 -4q-48 21 -92 21q-48 0 -78.5 -23
t-30.5 -61q0 -37 20.5 -59t59.5 -39l61 -27q102 -45 102 -128z" />
    <glyph glyph-name="t" unicode="t" horiz-adv-x="311" 
d="M96 482v124q0 11 8 12l18 3q10 2 10 -8v-131h122q7 0 7 -6v-13q0 -8 -7 -8h-122v-314q0 -78 21 -100q22 -23 68 -23q25 0 56 9q8 3 9 -4l3 -11q1 -6 -5 -9q-29 -12 -71 -12q-62 0 -90 33q-27 32 -27 116v315h-61q-8 0 -8 7v14q0 6 7 6h62z" />
    <glyph glyph-name="u" unicode="u" horiz-adv-x="500" 
d="M423 474v-465q0 -9 -8 -9h-19q-9 0 -9 10v53q-74 -72 -163 -72q-69 0 -104 37q-43 44 -43 139v307q0 8 8 8h20q8 0 8 -8v-297q0 -90 32 -124q29 -32 88 -32q84 0 154 78v375q0 8 8 8h20q8 0 8 -8z" />
    <glyph glyph-name="v" unicode="v" horiz-adv-x="410" 
d="M351 482h20q9 0 6 -9l-155 -466q-3 -7 -9 -7h-18q-7 0 -9 6l-157 467q-4 9 7 9h20q9 0 11 -7l139 -423l134 422q3 8 11 8z" />
    <glyph glyph-name="w" unicode="w" horiz-adv-x="648" 
d="M596 482h15q9 0 5 -12l-135 -463q-2 -7 -9 -7h-21q-8 0 -9 7l-121 424l-121 -425q-2 -6 -8 -6h-21q-7 0 -9 6l-133 466q-3 10 9 10h15q9 0 11 -9l119 -430l122 432q2 7 10 7h15q7 0 10 -8l123 -430l120 429q3 9 13 9z" />
    <glyph glyph-name="x" unicode="x" horiz-adv-x="424" 
d="M211 224l-135 -216q-5 -8 -15 -8h-18q-10 0 -3 11l154 241l-134 221q-4 9 5 9h19q9 0 16 -10l114 -189l120 191q5 8 13 8h17q5 0 6.5 -3.5t-1.5 -6.5l-138 -217l150 -244q7 -11 -5 -11h-21q-9 0 -14 8z" />
    <glyph glyph-name="y" unicode="y" horiz-adv-x="434" 
d="M226 34h1l146 439q4 9 12 9h17q12 0 7 -12l-183 -529q-31 -91 -68 -126t-105 -35q-19 0 -32 4q-8 3 -7 11l3 12q2 8 10 7l12 -2q12 -1 20 -1q83 0 117 90l32 84l-171 487q-3 10 7 10h19q9 0 12 -8z" />
    <glyph glyph-name="z" unicode="z" horiz-adv-x="370" 
d="M338 20v-14q0 -6 -8 -6h-284q-8 0 -8 7v12q0 8 7 20l251 416h-230q-8 0 -8 8v13q0 6 8 6h263q6 0 6 -5v-10q0 -10 -6 -19l-255 -421h257q7 0 7 -7z" />
    <glyph glyph-name="braceleft" unicode="{" horiz-adv-x="298" 
d="M60 285v-1q36 -3 50 -39.5t15 -113.5l2 -132q1 -22 6 -42t24 -39t49 -19h47q8 0 9 -6l2 -14q1 -7 -7 -7h-44q-117 0 -120 126l-3 156q-1 58 -12 86.5t-40 33.5q-9 1 -9 6v7q0 7 7 8q52 10 54 114l3 163q3 126 120 126h46q6 0 6 -5l-2 -17q0 -5 -7 -5h-50
q-43 0 -60.5 -30.5t-18.5 -69.5l-2 -138q-2 -143 -65 -148z" />
    <glyph glyph-name="bar" unicode="|" horiz-adv-x="179" 
d="M106 699v-709q0 -9 -8 -9h-16q-8 0 -8 9v709q0 9 6 9h20q6 0 6 -9z" />
    <glyph glyph-name="braceright" unicode="}" horiz-adv-x="298" 
d="M238 283v1q-63 5 -65 148l-2 138q-1 39 -18.5 70t-60.5 31h-50q-7 0 -7 5l-2 17q0 5 6 5h46q117 0 120 -127l3 -163q2 -104 54 -114q7 -1 7 -8v-7q0 -5 -9 -6q-29 -5 -40 -33.5t-12 -86.5l-3 -156q-3 -125 -120 -125h-44q-8 0 -7 7l2 14q1 6 9 6h47q30 0 49 19t24 38.5
t6 41.5l2 132q1 77 15 113.5t50 39.5z" />
    <glyph glyph-name="asciitilde" unicode="~" 
d="M251 313l34 -17q46 -23 72 -23q42 0 68 37q4 6 10 4l10 -4q7 -3 4 -9q-27 -61 -98 -61q-33 0 -71 19l-34 17q-46 23 -72 23q-42 0 -68 -37q-4 -6 -10 -4l-10 4q-7 3 -4 9q27 61 98 61q33 0 71 -19z" />
    <glyph glyph-name="nbspace" unicode="&#xa0;" horiz-adv-x="220" 
 />
    <glyph glyph-name="exclamdown" unicode="&#xa1;" horiz-adv-x="228" 
d="M126 -205h-28q-8 0 -8 7l8 527q0 8 8 8h12q8 0 8 -8l7 -527q0 -7 -7 -7zM80 457q0 35 34 35t34 -35q0 -15 -10 -24t-25 -9q-14 0 -23.5 9t-9.5 24z" />
    <glyph glyph-name="cent" unicode="&#xa2;" 
d="M316 578v-86q58 -2 109 -28q8 -4 6 -10l-6 -16q-3 -6 -11 -2q-53 25 -98 26v-441q57 2 102 23q6 2 9 -3l6 -13q2 -6 -6 -10q-54 -25 -111 -27v-80q0 -9 -8 -9h-10q-8 0 -8 9v81q-95 6 -143.5 73t-48.5 178q0 103 51.5 171t140.5 77v87q0 9 8 9h10q8 0 8 -9zM137 245
q0 -90 36.5 -152.5t116.5 -70.5v438q-71 -8 -112 -65.5t-41 -149.5z" />
    <glyph glyph-name="sterling" unicode="&#xa3;" 
d="M169 340h-60q-8 0 -8 7v16q0 7 8 7h60v118q0 99 41.5 154.5t125.5 55.5q66 0 107 -23q7 -4 5 -11l-7 -14q-3 -7 -12 -3q-44 20 -93 20q-126 0 -126 -174v-123h168q8 0 8 -7v-16q0 -7 -8 -7h-169v-119q0 -68 -12.5 -116t-52.5 -72v-1h309q11 0 11 -8v-16q0 -8 -11 -8h-363
q-8 0 -8 8v10q0 7 10 13q77 45 77 166v143z" />
    <glyph glyph-name="currency" unicode="&#xa4;" 
d="M403 356h-270v-7q0 -29 3 -57h247q4 0 6.5 -1.5t1.5 -5.5l-3 -14q-1 -7 -8 -7h-241q17 -106 72 -172.5t152 -66.5q72 0 143 38q8 5 11 -4l6 -15q3 -9 -5 -13q-73 -40 -162 -40q-113 0 -179.5 75t-83.5 198h-88q-7 0 -7 7v14q0 7 7 7h85q-2 17 -2 52v12h-70q-7 0 -7 7v14
q0 7 7 7h71q10 133 81.5 223.5t187.5 90.5q92 0 157 -43q6 -4 3 -12l-8 -16q-2 -6 -11 -2q-62 39 -136 39q-70 0 -122 -42t-77 -103t-30 -135h272q4 0 6.5 -1.5t1.5 -5.5l-3 -14q-1 -7 -8 -7z" />
    <glyph glyph-name="yen" unicode="&#xa5;" 
d="M400 169h-112v-157q0 -12 -10 -12h-18q-12 0 -12 11v158h-112q-8 0 -8 7v14q0 7 8 7h112v64h-112q-8 0 -8 7v14q0 7 8 7h100l-187 386q-3 4 -0.5 8t8.5 4h17q13 0 17 -9l178 -374h1l168 371q3 8 5.5 10t9.5 2h17q13 0 7 -12l-179 -386h102q8 0 8 -7v-14q0 -7 -8 -7h-112
v-64h112q8 0 8 -7v-14q0 -7 -8 -7z" />
    <glyph glyph-name="brokenbar" unicode="&#xa6;" horiz-adv-x="179" 
d="M106 699v-231q0 -9 -7 -9h-18q-7 0 -7 9v231q0 9 6 9h20q6 0 6 -9zM106 221v-231q0 -9 -8 -9h-16q-8 0 -8 9v231q0 9 7 9h18q7 0 7 -9z" />
    <glyph glyph-name="section" unicode="&#xa7;" horiz-adv-x="448" 
d="M370 127q0 -60 -43.5 -98t-117.5 -38q-66 0 -114 25q-8 3 -4 10l7 15q2 6 9 3q54 -26 104 -26q55 0 90 28t35 76q0 69 -93 109l-59 26q-92 40 -92 116q0 72 67 102q-68 37 -68 104q0 54 40 86.5t103 32.5q54 0 106 -23q6 -2 4 -9l-5 -14q-3 -7 -10 -4q-47 22 -94 22
q-48 0 -78.5 -23.5t-30.5 -61.5q0 -36 19.5 -57t57.5 -38l64 -29q102 -45 102 -128q0 -68 -55 -105q56 -42 56 -101zM335 328q0 69 -93 109l-54 23q-60 -22 -60 -80q0 -38 20 -59.5t59 -38.5l61 -27q14 -6 21 -10q46 28 46 83z" />
    <glyph glyph-name="dieresis" unicode="&#xa8;" horiz-adv-x="297" 
d="M45 653q0 12 8 20.5t19 8.5q12 0 20.5 -8t8.5 -21q0 -11 -8.5 -19t-20.5 -8q-11 0 -19 8t-8 19zM198 653q0 12 8 20.5t19 8.5q12 0 20.5 -8t8.5 -21q0 -11 -8.5 -19t-20.5 -8q-11 0 -19 8t-8 19z" />
    <glyph glyph-name="copyright" unicode="&#xa9;" horiz-adv-x="800" 
d="M520 175l5 -12q1 -4 -4 -7q-47 -25 -104 -25q-83 0 -127.5 60t-44.5 152q0 88 46.5 150.5t126.5 62.5q58 0 101 -25q5 -2 3 -8l-5 -11q-2 -5 -8 -2q-40 22 -88 22q-72 0 -108.5 -55t-36.5 -131q0 -81 35 -136t110 -55q48 0 92 22q6 2 7 -2zM750 344q0 -146 -102.5 -249.5
t-247.5 -103.5t-247.5 103.5t-102.5 249.5t102.5 250t247.5 104t247.5 -104t102.5 -250zM721 344q0 134 -94 229.5t-227 95.5t-227 -95.5t-94 -229.5t94 -229t227 -95t227 95t94 229z" />
    <glyph glyph-name="ordfeminine" unicode="&#xaa;" horiz-adv-x="275" 
d="M200 505v20q0 71 -61 71q-36 0 -75 -18q-9 -4 -13 2l-4 8q-3 8 4 11q43 21 87 21q92 0 92 -99v-167q0 -10 -10 -10h-9q-11 0 -11 10v19q-29 -34 -83 -34q-39 0 -61.5 20.5t-22.5 53.5q0 48 49 70t118 22zM199 398v84q-133 0 -133 -67q0 -24 16.5 -37t41.5 -13q42 0 75 33
z" />
    <glyph glyph-name="guillemotleft" unicode="&#xab;" horiz-adv-x="445" 
d="M131 229l82 -158q5 -8 -2 -11l-5 -3q-6 -3 -12 5l-102 155q-3 5 -3 10t3 9l102 150q6 8 12 5l6 -3q7 -3 2 -11zM287 229l82 -158q5 -8 -2 -11l-5 -3q-6 -3 -12 5l-102 155q-3 5 -3 10t3 9l102 150q6 8 12 5l6 -3q7 -3 2 -11z" />
    <glyph glyph-name="logicalnot" unicode="&#xac;" 
d="M80 337h357q9 0 9 -8v-175q0 -8 -8 -8h-20q-7 0 -7 8v151h-331q-9 0 -9 8v16q0 8 9 8z" />
    <glyph glyph-name="uni00AD" unicode="&#xad;" horiz-adv-x="265" 
d="M208 265v-9q0 -13 -11 -13h-128q-11 0 -11 10v16q0 8 10 8h128q12 0 12 -12z" />
    <glyph glyph-name="registered" unicode="&#xae;" horiz-adv-x="800" 
d="M406 319h-72v-176q0 -6 -6 -6h-16q-6 0 -6 6v401q0 6 6 6h81q131 0 131 -114q0 -42 -24.5 -72t-66.5 -42l97 -178q5 -7 -4 -7h-17q-7 0 -10 6zM497 436q0 51 -28.5 72.5t-83.5 21.5h-51v-191h59q45 0 74.5 25t29.5 72zM750 344q0 -146 -102.5 -249.5t-247.5 -103.5
t-247.5 103.5t-102.5 249.5t102.5 250t247.5 104t247.5 -104t102.5 -250zM721 344q0 134 -94 229.5t-227 95.5t-227 -95.5t-94 -229.5t94 -229t227 -95t227 95t94 229z" />
    <glyph glyph-name="macron" unicode="&#xaf;" horiz-adv-x="297" 
d="M260 687v-8q0 -8 -2.5 -10t-8.5 -2h-200q-5 0 -7 0.5t-3.5 3t-1.5 8.5v8q0 7 2.5 9t9.5 2h202q9 0 9 -11z" />
    <glyph glyph-name="degree" unicode="&#xb0;" horiz-adv-x="276" 
d="M234 603q0 -45 -27.5 -69.5t-68.5 -24.5t-68.5 24.5t-27.5 69.5t27.5 70t68.5 25t68.5 -25t27.5 -70zM204 603q0 32 -18.5 50.5t-47.5 18.5t-47.5 -18.5t-18.5 -50.5t18.5 -50t47.5 -18t47.5 18t18.5 50z" />
    <glyph glyph-name="plusminus" unicode="&#xb1;" 
d="M96 32h337q9 0 9 -8v-16q0 -8 -9 -8h-337q-9 0 -9 8v16q0 8 9 8zM283 319h150q9 0 9 -8v-16q0 -8 -9 -8h-150v-160q0 -9 -9 -9h-18q-9 0 -9 9v160h-151q-9 0 -9 8v16q0 8 9 8h151v161q0 9 9 9h18q9 0 9 -9v-161z" />
    <glyph glyph-name="twosuperior" unicode="&#xb2;" horiz-adv-x="270" 
d="M73 483h150q9 0 9 -8v-13q0 -8 -9 -8h-185q-8 0 -8 8v11q0 7 4 12l37.5 39t37.5 40q84 92 84 146q0 29 -18 46t-48 17q-31 0 -70 -21q-7 -4 -10 4l-5 11q-3 6 3 11q38 25 88 25q41 0 68 -23.5t27 -65.5q0 -37 -18.5 -71t-69.5 -90q-31 -36 -67 -70z" />
    <glyph glyph-name="threesuperior" unicode="&#xb3;" horiz-adv-x="270" 
d="M233 553q0 -46 -31 -75t-80 -29t-80 16q-8 3 -5 10l6 13q3 7 10 3q32 -13 65 -13q35 0 56.5 19.5t21.5 54.5t-23 54t-61 19h-17q-7 0 -7 7v14q0 7 7 7h13q75 0 75 65q0 55 -66 55q-31 0 -58 -15q-6 -4 -9 1l-6 14q-3 6 3 10q34 20 77 20q42 0 69.5 -22.5t27.5 -61.5
q0 -26 -16.5 -48t-41.5 -30q31 -7 50.5 -31.5t19.5 -56.5z" />
    <glyph glyph-name="acute" unicode="&#xb4;" horiz-adv-x="297" 
d="M79 592l128 102q10 7 16 -1l15 -22q6 -9 -3 -14l-145 -86q-5 -4 -9 2l-5 8q-4 6 3 11z" />
    <glyph glyph-name="micro" unicode="&#xb5;" horiz-adv-x="515" 
d="M387 99v375q0 8 7 8h22q7 0 7 -8v-386q0 -62 31 -62q12 0 23 6q9 5 13 -3l5 -10q4 -6 -3 -11q-15 -12 -42 -12q-29 0 -43 17t-18 53q-71 -75 -165 -75q-77 0 -111 45v-184q0 -8 -7 -8h-22q-7 0 -7 8v622q0 8 7 8h22q7 0 7 -8v-349q0 -45 29 -74.5t89 -29.5q86 0 156 78z
" />
    <glyph glyph-name="paragraph" unicode="&#xb6;" horiz-adv-x="493" 
d="M255 660v-792q0 -9 -9 -9h-18q-9 0 -9 9v526q-71 1 -114.5 42.5t-43.5 104.5q0 64 40.5 105t110.5 41h171q14 0 14 -12v-807q0 -9 -9 -9h-18q-9 0 -9 9v792h-106z" />
    <glyph glyph-name="periodcentered" unicode="&#xb7;" horiz-adv-x="195" 
d="M137 267q0 -39 -37 -39q-38 0 -38 39q0 17 11 26t28 9q16 0 26 -9t10 -26z" />
    <glyph glyph-name="cedilla" unicode="&#xb8;" horiz-adv-x="297" 
d="M242 -116q0 -34 -21.5 -56t-68.5 -22q-26 0 -47 7q-8 2 -6 9l4 12q2 7 9 4q17 -6 40 -6q56 0 56 49q0 27 -18.5 35t-52.5 8h-14q-8 0 -11 3t-2 11l8 70h28l-3 -61h15q84 0 84 -63z" />
    <glyph glyph-name="onesuperior" unicode="&#xb9;" horiz-adv-x="270" 
d="M175 787v-324q0 -9 -9 -9h-15q-9 0 -9 9v298l-68 -45q-8 -5 -12 2l-7 11q-5 7 4 11l80 53q5 4 16 4h11q9 0 9 -10z" />
    <glyph glyph-name="ordmasculine" unicode="&#xba;" horiz-adv-x="286" 
d="M263 480q0 -61 -32.5 -101t-89.5 -40q-59 0 -88.5 39t-29.5 102q0 60 32 100t89 40q59 0 89 -38t30 -102zM230 479q0 48 -20.5 82t-65.5 34q-46 0 -67 -33.5t-21 -80.5q0 -49 20 -83.5t66 -34.5q45 0 66.5 34t21.5 82z" />
    <glyph glyph-name="guillemotright" unicode="&#xbb;" horiz-adv-x="445" 
d="M159 224l-83 152q-5 8 2 11l6 3q7 3 12 -5l101 -150q3 -4 3 -10q0 -3 -3 -9l-102 -152q-5 -8 -12 -5l-5 3q-7 3 -2 11zM316 224l-83 152q-5 8 2 11l6 3q7 3 12 -5l101 -150q3 -4 3 -10q0 -3 -3 -9l-102 -152q-6 -8 -12 -5l-5 3q-7 3 -2 11z" />
    <glyph glyph-name="onequarter" unicode="&#xbc;" horiz-adv-x="725" 
d="M182 677v-324q0 -9 -9 -9h-15q-9 0 -9 9v298l-68 -45q-8 -5 -12 2l-7 11q-5 7 4 11l80 53q5 4 16 4h11q9 0 9 -10zM543 688l-396 -689q-5 -8 -13 -8h-17q-11 0 -5 10l395 689q5 8 13 8h18q11 0 5 -10zM590 112v81q0 8 8 8h17q8 0 8 -7v-186q0 -8 -7 -8h-19q-7 0 -7 8v75
h-165q-9 0 -9 9v8q0 11 4 20l96 215q4 8 11 8h19q10 0 5 -10l-97 -221h136z" />
    <glyph glyph-name="onehalf" unicode="&#xbd;" horiz-adv-x="725" 
d="M543 688l-396 -689q-5 -8 -13 -8h-17q-11 0 -5 10l395 689q5 8 13 8h18q11 0 5 -10zM182 677v-324q0 -9 -9 -9h-15q-9 0 -9 9v298l-68 -45q-8 -5 -12 2l-7 11q-5 7 4 11l80 53q5 4 16 4h11q9 0 9 -10zM487 29h150q9 0 9 -8v-13q0 -8 -9 -8h-185q-8 0 -8 8v11q0 7 4 12
q12 14 37.5 40l37.5 39q84 92 84 146q0 29 -18 46t-48 17q-31 0 -70 -21q-7 -4 -10 4l-5 11q-3 6 3 11q38 25 88 25q41 0 68 -23.5t27 -65.5q0 -37 -18.5 -71t-69.5 -90q-31 -36 -67 -70z" />
    <glyph glyph-name="threequarters" unicode="&#xbe;" horiz-adv-x="725" 
d="M595 688l-396 -689q-5 -8 -13 -8h-17q-11 0 -5 10l395 689q5 8 13 8h18q11 0 5 -10zM614 112v81q0 8 8 8h17q8 0 8 -7v-186q0 -8 -7 -8h-19q-7 0 -7 8v75h-165q-9 0 -9 9v8q0 11 4 20l96 215q4 8 11 8h19q10 0 5 -10l-97 -221h136zM270 443q0 -46 -31 -75t-80 -29t-80 16
q-8 3 -5 10l6 13q3 7 10 3q32 -13 65 -13q35 0 56.5 19.5t21.5 54.5t-23 54t-61 19h-17q-7 0 -7 7v14q0 7 7 7h13q75 0 75 65q0 55 -66 55q-31 0 -58 -15q-6 -4 -9 1l-6 14q-3 6 3 10q34 20 77 20q42 0 69.5 -22.5t27.5 -61.5q0 -26 -16.5 -48t-41.5 -30q31 -7 50.5 -31.5
t19.5 -56.5z" />
    <glyph glyph-name="questiondown" unicode="&#xbf;" horiz-adv-x="393" 
d="M37 -70q0 38 14.5 72t31 54t45.5 48q33 32 48 49t31.5 51.5t16.5 72.5v11q0 7 7 7h16q7 0 7 -7v-14q0 -41 -16 -77t-32 -54.5t-47 -49.5q-30 -29 -45 -46t-29.5 -49.5t-14.5 -68.5q0 -54 36 -84t86 -30q55 0 109 32q8 5 11 -2l7 -14q4 -7 -5 -11q-58 -35 -127 -35
q-64 0 -107 39t-43 106zM207 458q0 35 34 35t34 -35q0 -15 -10 -24t-25 -9q-14 0 -23.5 9t-9.5 24z" />
    <glyph glyph-name="Agrave" unicode="&#xc0;" horiz-adv-x="556" 
d="M21 13l240 665q3 9 10 9h21q7 0 10 -8l235 -668q3 -11 -8 -11h-26q-10 0 -13 8l-74 223h-277l-79 -225q-2 -6 -9 -6h-24q-10 0 -6 13zM150 263h256l-126 365zM217 854l128 -102q7 -5 3 -11l-5 -8q-4 -6 -9 -2l-145 86q-9 5 -3 14l15 22q6 8 16 1z" />
    <glyph glyph-name="Aacute" unicode="&#xc1;" horiz-adv-x="556" 
d="M21 13l240 665q3 9 10 9h21q7 0 10 -8l235 -668q3 -11 -8 -11h-26q-10 0 -13 8l-74 223h-277l-79 -225q-2 -6 -9 -6h-24q-10 0 -6 13zM150 263h256l-126 365zM217 751l128 102q10 7 16 -1l15 -22q6 -9 -3 -14l-145 -86q-5 -4 -9 2l-5 8q-4 6 3 11z" />
    <glyph glyph-name="Acircumflex" unicode="&#xc2;" horiz-adv-x="556" 
d="M21 13l240 665q3 9 10 9h21q7 0 10 -8l235 -668q3 -11 -8 -11h-26q-10 0 -13 8l-74 223h-277l-79 -225q-2 -6 -9 -6h-24q-10 0 -6 13zM150 263h256l-126 365zM284 810l-95 -83q-3 -3 -7 0l-6 7q-4 4 0 9l94 108q6 6 11 6h5q8 0 12 -6l89 -105q5 -5 2 -10l-5 -6
q-4 -5 -9 0z" />
    <glyph glyph-name="Atilde" unicode="&#xc3;" horiz-adv-x="556" 
d="M21 13l240 665q3 9 10 9h21q7 0 10 -8l235 -668q3 -11 -8 -11h-26q-10 0 -13 8l-74 223h-277l-79 -225q-2 -6 -9 -6h-24q-10 0 -6 13zM150 263h256l-126 365zM283 762l-20 15q-25 18 -46 18q-39 0 -59 -36q-3 -7 -9 -5l-10 5q-5 2 -3 8q18 56 82 56q32 0 60 -20l21 -15
q23 -17 46 -17q21 0 32.5 8.5t24.5 28.5q4 7 9 5l11 -5q5 -2 3 -7q-9 -28 -31 -43.5t-48 -15.5q-35 0 -63 20z" />
    <glyph glyph-name="Adieresis" unicode="&#xc4;" horiz-adv-x="556" 
d="M21 13l240 665q3 9 10 9h21q7 0 10 -8l235 -668q3 -11 -8 -11h-26q-10 0 -13 8l-74 223h-277l-79 -225q-2 -6 -9 -6h-24q-10 0 -6 13zM150 263h256l-126 365zM176 778q0 12 8 20.5t19 8.5q12 0 20.5 -8t8.5 -21q0 -11 -8.5 -19t-20.5 -8q-11 0 -19 8t-8 19zM329 778
q0 12 8 20.5t19 8.5q12 0 20.5 -8t8.5 -21q0 -11 -8.5 -19t-20.5 -8q-11 0 -19 8t-8 19z" />
    <glyph glyph-name="Aring" unicode="&#xc5;" horiz-adv-x="556" 
d="M21 13l240 665q3 9 10 9h21q7 0 10 -8l235 -668q3 -11 -8 -11h-26q-10 0 -13 8l-74 223h-277l-79 -225q-2 -6 -9 -6h-24q-10 0 -6 13zM150 263h256l-126 365zM366 825q0 -35 -24.5 -59.5t-59.5 -24.5t-60 25t-25 59t25 59t60 25t59.5 -24.5t24.5 -59.5zM336 827
q0 21 -15 36.5t-37 15.5q-23 0 -39.5 -15.5t-16.5 -36.5q0 -23 16.5 -39t39.5 -16q22 0 37 16t15 39z" />
    <glyph glyph-name="AE" unicode="&#xc6;" horiz-adv-x="827" 
d="M774 22v-13q0 -9 -9 -9h-312q-12 0 -12 11v218h-246l-133 -218q-7 -11 -16 -11h-27q-11 0 -3 12l403 652q14 23 36 23h308q8 0 8 -5v-2l-1 -16q0 -8 -12 -8h-277v-275h242q9 0 9 -6v-17q0 -7 -9 -7h-242v-321h284q9 0 9 -8zM213 260h228v374z" />
    <glyph glyph-name="Ccedilla" unicode="&#xc7;" horiz-adv-x="549" 
d="M343 25q76 0 154 39q9 4 11 -3l6 -18q3 -7 -6 -12q-69 -37 -161 -40l-2 -44h15q84 0 84 -63q0 -34 -21.5 -56t-68.5 -22q-26 0 -47 7q-8 2 -6 9l4 12q2 7 9 4q17 -6 40 -6q56 0 56 49q0 27 -18.5 35t-52.5 8h-14q-8 0 -11 3t-2 11l6 54q-130 6 -198.5 105t-68.5 247
q0 147 77.5 250.5t210.5 103.5q98 0 167 -43q6 -4 3 -12l-8 -16q-3 -6 -11 -2q-67 39 -146 39q-82 0 -140 -48.5t-83 -118t-25 -148.5q0 -62 13.5 -118t42 -103t77.5 -75t114 -28z" />
    <glyph glyph-name="Egrave" unicode="&#xc8;" horiz-adv-x="470" 
d="M127 34h284q9 0 9 -8v-18q0 -8 -9 -8h-311q-13 0 -13 12v661q0 8 3 11t12 3h308q7 0 7 -6l-2 -20q-1 -7 -10 -7h-278v-276h241q9 0 9 -8v-17q0 -8 -9 -8h-241v-311zM208 854l128 -102q7 -5 3 -11l-5 -8q-4 -6 -9 -2l-145 86q-9 5 -3 14l15 22q6 8 16 1z" />
    <glyph glyph-name="Eacute" unicode="&#xc9;" horiz-adv-x="470" 
d="M127 34h284q9 0 9 -8v-18q0 -8 -9 -8h-311q-13 0 -13 12v661q0 8 3 11t12 3h308q7 0 7 -6l-2 -20q-1 -7 -10 -7h-278v-276h241q9 0 9 -8v-17q0 -8 -9 -8h-241v-311zM194 751l128 102q10 7 16 -1l15 -22q6 -9 -3 -14l-145 -86q-5 -4 -9 2l-5 8q-4 6 3 11z" />
    <glyph glyph-name="Ecircumflex" unicode="&#xca;" horiz-adv-x="470" 
d="M127 34h284q9 0 9 -8v-18q0 -8 -9 -8h-311q-13 0 -13 12v661q0 8 3 11t12 3h308q7 0 7 -6l-2 -20q-1 -7 -10 -7h-278v-276h241q9 0 9 -8v-17q0 -8 -9 -8h-241v-311zM262 810l-95 -83q-3 -3 -7 0l-6 7q-4 4 0 9l94 108q6 6 11 6h5q8 0 12 -6l89 -105q5 -5 2 -10l-5 -6
q-4 -5 -9 0z" />
    <glyph glyph-name="Edieresis" unicode="&#xcb;" horiz-adv-x="470" 
d="M127 34h284q9 0 9 -8v-18q0 -8 -9 -8h-311q-13 0 -13 12v661q0 8 3 11t12 3h308q7 0 7 -6l-2 -20q-1 -7 -10 -7h-278v-276h241q9 0 9 -8v-17q0 -8 -9 -8h-241v-311zM155 778q0 12 8 20.5t19 8.5q12 0 20.5 -8t8.5 -21q0 -11 -8.5 -19t-20.5 -8q-11 0 -19 8t-8 19z
M308 778q0 12 8 20.5t19 8.5q12 0 20.5 -8t8.5 -21q0 -11 -8.5 -19t-20.5 -8q-11 0 -19 8t-8 19z" />
    <glyph glyph-name="Igrave" unicode="&#xcc;" horiz-adv-x="336" 
d="M185 29h71q6 0 6 -6v-17q0 -6 -6 -6h-177q-6 0 -6 6v17q0 6 6 6h66v630h-68q-7 0 -7 6v17q0 5 6 5h179q7 0 7 -6v-16q0 -6 -7 -6h-70v-630zM110 854l128 -102q7 -5 3 -11l-5 -8q-4 -6 -9 -2l-145 86q-9 5 -3 14l15 22q6 8 16 1z" />
    <glyph glyph-name="Iacute" unicode="&#xcd;" horiz-adv-x="336" 
d="M185 29h71q6 0 6 -6v-17q0 -6 -6 -6h-177q-6 0 -6 6v17q0 6 6 6h66v630h-68q-7 0 -7 6v17q0 5 6 5h179q7 0 7 -6v-16q0 -6 -7 -6h-70v-630zM92 751l128 102q10 7 16 -1l15 -22q6 -9 -3 -14l-145 -86q-5 -4 -9 2l-5 8q-4 6 3 11z" />
    <glyph glyph-name="Icircumflex" unicode="&#xce;" horiz-adv-x="336" 
d="M185 29h71q6 0 6 -6v-17q0 -6 -6 -6h-177q-6 0 -6 6v17q0 6 6 6h66v630h-68q-7 0 -7 6v17q0 5 6 5h179q7 0 7 -6v-16q0 -6 -7 -6h-70v-630zM169 810l-95 -83q-4 -3 -7 0l-6 7q-5 4 0 9l94 108q6 6 11 6h5q7 0 12 -6l89 -105q5 -5 2 -10l-5 -6q-4 -5 -9 0z" />
    <glyph glyph-name="Idieresis" unicode="&#xcf;" horiz-adv-x="336" 
d="M185 29h71q6 0 6 -6v-17q0 -6 -6 -6h-177q-6 0 -6 6v17q0 6 6 6h66v630h-68q-7 0 -7 6v17q0 5 6 5h179q7 0 7 -6v-16q0 -6 -7 -6h-70v-630zM63 778q0 12 8 20.5t19 8.5q12 0 20.5 -8t8.5 -21q0 -11 -8.5 -19t-20.5 -8q-11 0 -19 8t-8 19zM216 778q0 12 8 20.5t19 8.5
q12 0 20.5 -8t8.5 -21q0 -11 -8.5 -19t-20.5 -8q-11 0 -19 8t-8 19z" />
    <glyph glyph-name="Eth" unicode="&#xd0;" horiz-adv-x="625" 
d="M574 339q0 -177 -93 -268q-71 -71 -229 -71h-149q-16 0 -16 15v330h-66q-11 0 -11 10v18q0 8 10 8h67v292q0 9 2 11.5t12 2.5h109q96 0 147.5 -10t92.5 -39q58 -40 91 -118t33 -181zM529 340q0 82 -24 151.5t-69 109.5q-37 32 -85.5 42.5t-114.5 10.5h-109v-273h118
q12 0 12 -12v-11q0 -13 -11 -13h-119v-311h95q77 0 123 8t81 34q103 77 103 264z" />
    <glyph glyph-name="Ntilde" unicode="&#xd1;" horiz-adv-x="648" 
d="M560 679v-671q0 -8 -8 -8h-17q-8 0 -13 8l-396 606h-1v-604q0 -10 -9 -10h-19q-9 0 -9 9v670q0 8 8 8h17q9 0 13 -7l395 -600h1v599q0 8 7 8h25q6 0 6 -8zM333 762l-20 15q-26 18 -46 18q-39 0 -59 -36q-3 -7 -9 -5l-10 5q-5 2 -3 8q18 56 82 56q32 0 60 -20l21 -15
q23 -17 46 -17q21 0 32.5 8.5t24.5 28.5q4 7 9 5l11 -5q5 -2 3 -7q-9 -28 -31 -43.5t-48 -15.5q-35 0 -63 20z" />
    <glyph glyph-name="Ograve" unicode="&#xd2;" horiz-adv-x="621" 
d="M570 348q0 -168 -75 -262.5t-190 -94.5q-119 0 -186.5 91.5t-67.5 258.5q0 164 74 260.5t190 96.5q120 0 187.5 -94t67.5 -256zM525 345q0 147 -54.5 232.5t-157.5 85.5q-98 0 -157.5 -90.5t-59.5 -228.5q0 -146 55 -232.5t157 -86.5q98 0 157.5 89t59.5 231zM267 854
l128 -102q7 -5 3 -11l-5 -8q-4 -6 -9 -2l-145 86q-9 5 -3 14l15 22q6 8 16 1z" />
    <glyph glyph-name="Oacute" unicode="&#xd3;" horiz-adv-x="621" 
d="M570 348q0 -168 -75 -262.5t-190 -94.5q-119 0 -186.5 91.5t-67.5 258.5q0 164 74 260.5t190 96.5q120 0 187.5 -94t67.5 -256zM525 345q0 147 -54.5 232.5t-157.5 85.5q-98 0 -157.5 -90.5t-59.5 -228.5q0 -146 55 -232.5t157 -86.5q98 0 157.5 89t59.5 231zM240 751
l128 102q10 7 16 -1l15 -22q6 -9 -3 -14l-145 -86q-5 -4 -9 2l-5 8q-4 6 3 11z" />
    <glyph glyph-name="Ocircumflex" unicode="&#xd4;" horiz-adv-x="621" 
d="M570 348q0 -168 -75 -262.5t-190 -94.5q-119 0 -186.5 91.5t-67.5 258.5q0 164 74 260.5t190 96.5q120 0 187.5 -94t67.5 -256zM525 345q0 147 -54.5 232.5t-157.5 85.5q-98 0 -157.5 -90.5t-59.5 -228.5q0 -146 55 -232.5t157 -86.5q98 0 157.5 89t59.5 231zM314 810
l-95 -83q-3 -3 -7 0l-6 7q-4 4 0 9l94 108q6 6 11 6h5q8 0 12 -6l89 -105q5 -5 2 -10l-5 -6q-4 -5 -9 0z" />
    <glyph glyph-name="Otilde" unicode="&#xd5;" horiz-adv-x="621" 
d="M570 348q0 -168 -75 -262.5t-190 -94.5q-119 0 -186.5 91.5t-67.5 258.5q0 164 74 260.5t190 96.5q120 0 187.5 -94t67.5 -256zM525 345q0 147 -54.5 232.5t-157.5 85.5q-98 0 -157.5 -90.5t-59.5 -228.5q0 -146 55 -232.5t157 -86.5q98 0 157.5 89t59.5 231zM315 762
l-20 15q-25 18 -46 18q-39 0 -59 -36q-3 -7 -9 -5l-10 5q-5 2 -3 8q18 56 82 56q32 0 60 -20l21 -15q23 -17 46 -17q21 0 32.5 8.5t24.5 28.5q4 7 9 5l11 -5q5 -2 3 -7q-9 -28 -31 -43.5t-48 -15.5q-35 0 -63 20z" />
    <glyph glyph-name="Odieresis" unicode="&#xd6;" horiz-adv-x="621" 
d="M570 348q0 -168 -75 -262.5t-190 -94.5q-119 0 -186.5 91.5t-67.5 258.5q0 164 74 260.5t190 96.5q120 0 187.5 -94t67.5 -256zM525 345q0 147 -54.5 232.5t-157.5 85.5q-98 0 -157.5 -90.5t-59.5 -228.5q0 -146 55 -232.5t157 -86.5q98 0 157.5 89t59.5 231zM208 778
q0 12 8 20.5t19 8.5q12 0 20.5 -8t8.5 -21q0 -11 -8.5 -19t-20.5 -8q-11 0 -19 8t-8 19zM361 778q0 12 8 20.5t19 8.5q12 0 20.5 -8t8.5 -21q0 -11 -8.5 -19t-20.5 -8q-11 0 -19 8t-8 19z" />
    <glyph glyph-name="multiply" unicode="&#xd7;" 
d="M266 286l137 139q7 7 12 1l12 -12q5 -6 -1 -12l-137 -139l147 -147q6 -6 0 -13l-13 -13q-6 -6 -12 0l-148 148l-146 -146q-7 -6 -12 -1l-11 11q-6 6 1 12l146 146l-140 140q-6 6 0 13l12 13q7 6 13 0z" />
    <glyph glyph-name="Oslash" unicode="&#xd8;" horiz-adv-x="646" 
d="M587 348q0 -168 -75 -262.5t-190 -94.5q-90 0 -151 53l-43 -71q-5 -8 -14 -4l-10 6q-7 4 -2 12l47 78q-81 90 -81 276q0 164 74 260.5t190 96.5q97 0 162 -63l45 75q6 8 12 5l12 -7q6 -4 2 -12l-51 -84q73 -93 73 -264zM173 104l299 495q-55 64 -142 64
q-98 0 -157.5 -90.5t-59.5 -228.5q0 -154 60 -240zM542 345q0 144 -52 228l-297 -493q53 -55 132 -55q98 0 157.5 89t59.5 231z" />
    <glyph glyph-name="Ugrave" unicode="&#xd9;" horiz-adv-x="660" 
d="M575 678v-383q0 -304 -244 -304q-62 0 -106.5 15.5t-71 41.5t-41.5 68t-20 85.5t-5 103.5v371q0 11 10 11h20q10 0 10 -11v-363q0 -51 3 -87.5t15 -77t33 -65t59.5 -41t92.5 -16.5t92.5 17t60 42t33.5 65.5t15.5 77t3.5 86.5v364q0 9 8 9h24q8 0 8 -9zM278 854l128 -102
q7 -5 3 -11l-5 -8q-4 -6 -9 -2l-145 86q-9 5 -3 14l15 22q6 8 16 1z" />
    <glyph glyph-name="Uacute" unicode="&#xda;" horiz-adv-x="660" 
d="M575 678v-383q0 -304 -244 -304q-62 0 -106.5 15.5t-71 41.5t-41.5 68t-20 85.5t-5 103.5v371q0 11 10 11h20q10 0 10 -11v-363q0 -51 3 -87.5t15 -77t33 -65t59.5 -41t92.5 -16.5t92.5 17t60 42t33.5 65.5t15.5 77t3.5 86.5v364q0 9 8 9h24q8 0 8 -9zM272 751l128 102
q10 7 16 -1l15 -22q6 -9 -3 -14l-145 -86q-5 -4 -9 2l-5 8q-4 6 3 11z" />
    <glyph glyph-name="Ucircumflex" unicode="&#xdb;" horiz-adv-x="660" 
d="M575 678v-383q0 -304 -244 -304q-62 0 -106.5 15.5t-71 41.5t-41.5 68t-20 85.5t-5 103.5v371q0 11 10 11h20q10 0 10 -11v-363q0 -51 3 -87.5t15 -77t33 -65t59.5 -41t92.5 -16.5t92.5 17t60 42t33.5 65.5t15.5 77t3.5 86.5v364q0 9 8 9h24q8 0 8 -9zM334 810l-95 -83
q-3 -3 -7 0l-6 7q-4 4 0 9l94 108q6 6 11 6h5q8 0 12 -6l89 -105q5 -5 2 -10l-5 -6q-4 -5 -9 0z" />
    <glyph glyph-name="Udieresis" unicode="&#xdc;" horiz-adv-x="660" 
d="M575 678v-383q0 -304 -244 -304q-62 0 -106.5 15.5t-71 41.5t-41.5 68t-20 85.5t-5 103.5v371q0 11 10 11h20q10 0 10 -11v-363q0 -51 3 -87.5t15 -77t33 -65t59.5 -41t92.5 -16.5t92.5 17t60 42t33.5 65.5t15.5 77t3.5 86.5v364q0 9 8 9h24q8 0 8 -9zM229 778
q0 12 8 20.5t19 8.5q12 0 20.5 -8t8.5 -21q0 -11 -8.5 -19t-20.5 -8q-11 0 -19 8t-8 19zM382 778q0 12 8 20.5t19 8.5q12 0 20.5 -8t8.5 -21q0 -11 -8.5 -19t-20.5 -8q-11 0 -19 8t-8 19z" />
    <glyph glyph-name="Yacute" unicode="&#xdd;" horiz-adv-x="500" 
d="M442 687h16q13 0 8 -12l-189 -409v-255q0 -11 -12 -11h-16q-12 0 -12 11v253l-200 412q-3 4 -0.5 7.5t9.5 3.5h20q10 0 14 -9l178 -374h1l169 374q4 9 14 9zM194 751l128 102q10 7 16 -1l15 -22q6 -9 -3 -14l-145 -86q-5 -4 -9 2l-5 8q-4 6 3 11z" />
    <glyph glyph-name="Thorn" unicode="&#xde;" horiz-adv-x="473" 
d="M127 570h75q106 0 168 -47.5t62 -151.5q0 -101 -63.5 -155.5t-162.5 -54.5h-79v-152q0 -9 -8 -9h-25q-7 0 -7 9v669q0 9 8 9h24q8 0 8 -10v-107zM389 371q0 95 -52.5 130.5t-144.5 35.5h-65v-343h75q86 0 136.5 43t50.5 134z" />
    <glyph glyph-name="germandbls" unicode="&#xdf;" horiz-adv-x="522" 
d="M474 198q0 -100 -57 -153.5t-149 -53.5q-28 0 -40 3q-9 3 -9 9v12q0 7 9 7q1 0 13.5 -1.5t21.5 -1.5q84 0 128.5 52.5t44.5 127.5q0 82 -54.5 125.5t-121.5 43.5h-32q-9 0 -9 7v11q0 7 8 7h13q56 0 104 41.5t48 113.5q0 73 -37.5 106.5t-100.5 33.5q-64 0 -102.5 -43
t-38.5 -122v-608q0 -10 -7 -10h-21q-8 0 -8 10v599q0 99 47 151t129 52q78 0 127.5 -44t49.5 -123q0 -52 -30.5 -100t-83.5 -63q70 -10 114 -63.5t44 -125.5z" />
    <glyph glyph-name="agrave" unicode="&#xe0;" horiz-adv-x="503" 
d="M389 93q-17 -41 -56 -71.5t-102 -30.5q-87 0 -135 68.5t-48 173.5q0 121 56 190t138 69q44 0 84.5 -20.5t62.5 -62.5v64q0 9 10 9h16q10 0 10 -9v-400q0 -49 30 -49h5q8 0 8 -7v-10q0 -7 -8 -7h-18q-53 0 -53 69v24zM389 152v210q-45 101 -144 101q-72 0 -115 -61
t-43 -165q0 -101 40.5 -159.5t105.5 -58.5q117 0 156 133zM192 694l128 -102q7 -5 3 -11l-5 -8q-4 -6 -9 -2l-145 86q-9 5 -3 14l15 22q6 9 16 1z" />
    <glyph glyph-name="aacute" unicode="&#xe1;" horiz-adv-x="503" 
d="M389 93q-17 -41 -56 -71.5t-102 -30.5q-87 0 -135 68.5t-48 173.5q0 121 56 190t138 69q44 0 84.5 -20.5t62.5 -62.5v64q0 9 10 9h16q10 0 10 -9v-400q0 -49 30 -49h5q8 0 8 -7v-10q0 -7 -8 -7h-18q-53 0 -53 69v24zM389 152v210q-45 101 -144 101q-72 0 -115 -61
t-43 -165q0 -101 40.5 -159.5t105.5 -58.5q117 0 156 133zM175 592l128 102q10 7 16 -1l15 -22q6 -9 -3 -14l-145 -86q-5 -4 -9 2l-5 8q-4 6 3 11z" />
    <glyph glyph-name="acircumflex" unicode="&#xe2;" horiz-adv-x="503" 
d="M389 93q-17 -41 -56 -71.5t-102 -30.5q-87 0 -135 68.5t-48 173.5q0 121 56 190t138 69q44 0 84.5 -20.5t62.5 -62.5v64q0 9 10 9h16q10 0 10 -9v-400q0 -49 30 -49h5q8 0 8 -7v-10q0 -7 -8 -7h-18q-53 0 -53 69v24zM389 152v210q-45 101 -144 101q-72 0 -115 -61
t-43 -165q0 -101 40.5 -159.5t105.5 -58.5q117 0 156 133zM249 651l-95 -83q-4 -4 -7 0l-6 7q-5 5 0 9l94 108q6 6 11 6h5q7 0 12 -6l89 -105q5 -5 2 -10l-5 -6q-4 -5 -9 0z" />
    <glyph glyph-name="atilde" unicode="&#xe3;" horiz-adv-x="503" 
d="M389 93q-17 -41 -56 -71.5t-102 -30.5q-87 0 -135 68.5t-48 173.5q0 121 56 190t138 69q44 0 84.5 -20.5t62.5 -62.5v64q0 9 10 9h16q10 0 10 -9v-400q0 -49 30 -49h5q8 0 8 -7v-10q0 -7 -8 -7h-18q-53 0 -53 69v24zM389 152v210q-45 101 -144 101q-72 0 -115 -61
t-43 -165q0 -101 40.5 -159.5t105.5 -58.5q117 0 156 133zM249 591l-20 15q-25 18 -46 18q-39 0 -59 -36q-3 -7 -9 -5l-10 5q-5 2 -3 8q18 56 82 56q32 0 60 -20l21 -15q23 -17 46 -17q21 0 32.5 8.5t24.5 28.5q4 7 9 5l11 -5q5 -2 3 -7q-9 -28 -31 -43.5t-48 -15.5
q-35 0 -63 20z" />
    <glyph glyph-name="adieresis" unicode="&#xe4;" horiz-adv-x="503" 
d="M389 93q-17 -41 -56 -71.5t-102 -30.5q-87 0 -135 68.5t-48 173.5q0 121 56 190t138 69q44 0 84.5 -20.5t62.5 -62.5v64q0 9 10 9h16q10 0 10 -9v-400q0 -49 30 -49h5q8 0 8 -7v-10q0 -7 -8 -7h-18q-53 0 -53 69v24zM389 152v210q-45 101 -144 101q-72 0 -115 -61
t-43 -165q0 -101 40.5 -159.5t105.5 -58.5q117 0 156 133zM142 590q0 12 8 20.5t19 8.5q12 0 20.5 -8t8.5 -21q0 -11 -8.5 -19t-20.5 -8q-11 0 -19 8t-8 19zM295 590q0 12 8 20.5t19 8.5q12 0 20.5 -8t8.5 -21q0 -11 -8.5 -19t-20.5 -8q-11 0 -19 8t-8 19z" />
    <glyph glyph-name="aring" unicode="&#xe5;" horiz-adv-x="503" 
d="M389 93q-17 -41 -56 -71.5t-102 -30.5q-87 0 -135 68.5t-48 173.5q0 121 56 190t138 69q44 0 84.5 -20.5t62.5 -62.5v64q0 9 10 9h16q10 0 10 -9v-400q0 -49 30 -49h5q8 0 8 -7v-10q0 -7 -8 -7h-18q-53 0 -53 69v24zM389 152v210q-45 101 -144 101q-72 0 -115 -61
t-43 -165q0 -101 40.5 -159.5t105.5 -58.5q117 0 156 133zM336 621q0 -35 -24.5 -59.5t-59.5 -24.5t-60 25t-25 59t25 59t60 25t59.5 -24.5t24.5 -59.5zM306 623q0 21 -15 36.5t-37 15.5q-23 0 -39.5 -15.5t-16.5 -36.5q0 -23 16.5 -39t39.5 -16q22 0 37 16t15 39z" />
    <glyph glyph-name="ae" unicode="&#xe6;" horiz-adv-x="743" 
d="M362 245q0 -97 42 -161t135 -64q61 0 114 21q11 4 13 -4l4 -13q2 -6 -6 -10q-55 -23 -130 -23q-115 0 -171 86q-77 -87 -185 -87q-55 0 -94.5 35t-39.5 97q0 150 242 150h38v60q0 69 -21.5 100.5t-81.5 31.5q-69 0 -130 -31q-9 -4 -11 1l-5 12q-4 7 4 11q67 35 151 35
q117 0 128 -104q57 104 173 104q78 0 123 -57t45 -147v-30q0 -13 -15 -13h-322zM188 20q85 0 162 84q-26 61 -26 141h-33q-209 0 -209 -119q0 -53 32 -79.5t74 -26.5zM363 272h301v20q0 73 -33 122t-102 49q-77 0 -118 -54.5t-48 -136.5z" />
    <glyph glyph-name="ccedilla" unicode="&#xe7;" horiz-adv-x="405" 
d="M260 21q62 0 108 23q6 3 9 -4l6 -12q2 -6 -6 -10q-51 -25 -111 -27l-2 -44h15q84 0 84 -63q0 -34 -21.5 -56t-68.5 -22q-26 0 -47 7q-8 2 -6 9l4 12q2 7 9 4q17 -6 40 -6q56 0 56 49q0 27 -18.5 35t-52.5 8h-14q-8 0 -11 3t-2 11l6 54q-94 7 -141.5 74t-47.5 177
t58.5 179.5t157.5 69.5q60 0 111 -28q9 -5 6 -11l-7 -15q-2 -6 -11 -2q-56 26 -99 26q-81 0 -129 -58.5t-48 -158.5q0 -96 41.5 -160t131.5 -64z" />
    <glyph glyph-name="egrave" unicode="&#xe8;" horiz-adv-x="468" 
d="M87 245q0 -97 42 -161t135 -64q61 0 114 21q11 4 13 -4l4 -13q2 -6 -6 -10q-55 -23 -130 -23q-103 0 -157 67.5t-54 183.5q0 108 57 179t151 71q78 0 123 -57t45 -147v-30q0 -13 -15 -13h-322zM88 272h301v20q0 73 -33 122t-102 49q-77 0 -118 -54.5t-48 -136.5zM184 694
l128 -102q7 -5 3 -11l-5 -8q-4 -6 -9 -2l-145 86q-9 5 -3 14l15 22q6 9 16 1z" />
    <glyph glyph-name="eacute" unicode="&#xe9;" horiz-adv-x="468" 
d="M87 245q0 -97 42 -161t135 -64q61 0 114 21q11 4 13 -4l4 -13q2 -6 -6 -10q-55 -23 -130 -23q-103 0 -157 67.5t-54 183.5q0 108 57 179t151 71q78 0 123 -57t45 -147v-30q0 -13 -15 -13h-322zM88 272h301v20q0 73 -33 122t-102 49q-77 0 -118 -54.5t-48 -136.5zM196 592
l128 102q10 7 16 -1l15 -22q6 -9 -3 -14l-145 -86q-5 -4 -9 2l-5 8q-4 6 3 11z" />
    <glyph glyph-name="ecircumflex" unicode="&#xea;" horiz-adv-x="468" 
d="M87 245q0 -97 42 -161t135 -64q61 0 114 21q11 4 13 -4l4 -13q2 -6 -6 -10q-55 -23 -130 -23q-103 0 -157 67.5t-54 183.5q0 108 57 179t151 71q78 0 123 -57t45 -147v-30q0 -13 -15 -13h-322zM88 272h301v20q0 73 -33 122t-102 49q-77 0 -118 -54.5t-48 -136.5zM245 651
l-95 -83q-4 -4 -7 0l-6 7q-5 5 0 9l94 108q6 6 11 6h5q7 0 12 -6l89 -105q5 -5 2 -10l-5 -6q-4 -5 -9 0z" />
    <glyph glyph-name="edieresis" unicode="&#xeb;" horiz-adv-x="468" 
d="M87 245q0 -97 42 -161t135 -64q61 0 114 21q11 4 13 -4l4 -13q2 -6 -6 -10q-55 -23 -130 -23q-103 0 -157 67.5t-54 183.5q0 108 57 179t151 71q78 0 123 -57t45 -147v-30q0 -13 -15 -13h-322zM88 272h301v20q0 73 -33 122t-102 49q-77 0 -118 -54.5t-48 -136.5zM139 620
q0 12 8 20.5t19 8.5q12 0 20.5 -8t8.5 -21q0 -11 -8.5 -19t-20.5 -8q-11 0 -19 8t-8 19zM292 620q0 12 8 20.5t19 8.5q12 0 20.5 -8t8.5 -21q0 -11 -8.5 -19t-20.5 -8q-11 0 -19 8t-8 19z" />
    <glyph glyph-name="igrave" unicode="&#xec;" horiz-adv-x="210" 
d="M42 694l128 -102q7 -5 3 -11l-5 -8q-4 -6 -9 -2l-145 86q-9 5 -3 14l15 22q6 9 16 1zM123 473v-464q0 -9 -8 -9h-20q-8 0 -8 9v464q0 9 8 9h20q8 0 8 -9z" />
    <glyph glyph-name="iacute" unicode="&#xed;" horiz-adv-x="210" 
d="M123 473v-464q0 -9 -8 -9h-20q-8 0 -8 9v464q0 9 8 9h20q8 0 8 -9zM37 592l128 102q10 7 16 -1l15 -22q6 -9 -3 -14l-145 -86q-5 -4 -9 2l-5 8q-4 6 3 11z" />
    <glyph glyph-name="icircumflex" unicode="&#xee;" horiz-adv-x="210" 
d="M123 473v-464q0 -9 -8 -9h-20q-8 0 -8 9v464q0 9 8 9h20q8 0 8 -9zM107 651l-95 -83q-4 -4 -7 0l-6 7q-5 5 0 9l94 108q6 6 11 6h5q7 0 12 -6l89 -105q5 -5 2 -10l-5 -6q-4 -5 -9 0z" />
    <glyph glyph-name="idieresis" unicode="&#xef;" horiz-adv-x="210" 
d="M1 617q0 12 8 20.5t19 8.5q12 0 20.5 -8t8.5 -21q0 -11 -8.5 -19t-20.5 -8q-11 0 -19 8t-8 19zM154 617q0 12 8 20.5t19 8.5q12 0 20.5 -8t8.5 -21q0 -11 -8.5 -19t-20.5 -8q-11 0 -19 8t-8 19zM123 473v-464q0 -9 -8 -9h-20q-8 0 -8 9v464q0 9 8 9h20q8 0 8 -9z" />
    <glyph glyph-name="eth" unicode="&#xf0;" horiz-adv-x="505" 
d="M339 711l-61 -47q81 -78 129 -192t48 -229q0 -47 -11.5 -90t-35 -80t-65 -59.5t-94.5 -22.5t-92.5 21t-62 57t-33 79.5t-10.5 94.5q0 104 52 176.5t152 72.5q83 0 126 -51q-40 116 -128 204l-80 -62q-6 -5 -12 1l-6 7q-6 6 2 12l78 59q-35 32 -79 59q-7 4 -4 10l5 9
q3 6 11 2q49 -24 92 -61l64 49q7 5 11 0l7 -9q4 -5 -3 -10zM418 240q0 42 -8.5 80t-27 71t-51 53t-76.5 20q-58 0 -97 -33.5t-54.5 -81.5t-15.5 -105q0 -58 13.5 -106t51.5 -84t97 -36q85 0 126.5 65.5t41.5 156.5z" />
    <glyph glyph-name="ntilde" unicode="&#xf1;" horiz-adv-x="509" 
d="M396 9v297q0 90 -32 124q-29 32 -88 32q-41 0 -85 -22t-78 -57v-374q0 -9 -8 -9h-20q-8 0 -8 9v464q0 9 6 9h23q7 0 7 -9v-54q76 73 172 73q70 0 105 -37q42 -43 42 -139v-307q0 -9 -8 -9h-20q-8 0 -8 9zM264 604l-20 15q-26 18 -46 18q-39 0 -59 -36q-3 -7 -9 -5l-10 5
q-5 2 -3 8q18 56 82 56q33 0 60 -20l21 -15q23 -17 46 -17q21 0 32.5 8.5t24.5 28.5q4 7 9 5l11 -5q5 -2 3 -7q-9 -28 -31 -43.5t-48 -15.5q-35 0 -63 20z" />
    <glyph glyph-name="ograve" unicode="&#xf2;" horiz-adv-x="502" 
d="M454 241q0 -105 -53 -177.5t-154 -72.5q-70 0 -116.5 37t-64.5 91.5t-18 123.5q0 104 52.5 176.5t152.5 72.5q104 0 152.5 -71t48.5 -180zM415 240q0 57 -14 105t-52.5 83t-95.5 35q-58 0 -96.5 -33.5t-54 -80.5t-15.5 -105q0 -42 8 -79.5t25.5 -71.5t50 -54t77.5 -20
q58 0 97 33.5t54.5 81.5t15.5 106zM201 694l128 -102q7 -5 3 -11l-5 -8q-4 -6 -9 -2l-145 86q-9 5 -3 14l15 22q6 9 16 1z" />
    <glyph glyph-name="oacute" unicode="&#xf3;" horiz-adv-x="502" 
d="M454 241q0 -105 -53 -177.5t-154 -72.5q-70 0 -116.5 37t-64.5 91.5t-18 123.5q0 104 52.5 176.5t152.5 72.5q104 0 152.5 -71t48.5 -180zM415 240q0 57 -14 105t-52.5 83t-95.5 35q-58 0 -96.5 -33.5t-54 -80.5t-15.5 -105q0 -42 8 -79.5t25.5 -71.5t50 -54t77.5 -20
q58 0 97 33.5t54.5 81.5t15.5 106zM172 592l128 102q10 7 16 -1l15 -22q6 -9 -3 -14l-145 -86q-5 -4 -9 2l-5 8q-4 6 3 11z" />
    <glyph glyph-name="ocircumflex" unicode="&#xf4;" horiz-adv-x="502" 
d="M454 241q0 -105 -53 -177.5t-154 -72.5q-70 0 -116.5 37t-64.5 91.5t-18 123.5q0 104 52.5 176.5t152.5 72.5q104 0 152.5 -71t48.5 -180zM415 240q0 57 -14 105t-52.5 83t-95.5 35q-58 0 -96.5 -33.5t-54 -80.5t-15.5 -105q0 -42 8 -79.5t25.5 -71.5t50 -54t77.5 -20
q58 0 97 33.5t54.5 81.5t15.5 106zM252 651l-95 -83q-3 -4 -7 0l-6 7q-4 5 0 9l94 108q6 6 11 6h5q8 0 12 -6l89 -105q5 -5 2 -10l-5 -6q-4 -5 -9 0z" />
    <glyph glyph-name="otilde" unicode="&#xf5;" horiz-adv-x="502" 
d="M454 241q0 -105 -53 -177.5t-154 -72.5q-70 0 -116.5 37t-64.5 91.5t-18 123.5q0 104 52.5 176.5t152.5 72.5q104 0 152.5 -71t48.5 -180zM415 240q0 57 -14 105t-52.5 83t-95.5 35q-58 0 -96.5 -33.5t-54 -80.5t-15.5 -105q0 -42 8 -79.5t25.5 -71.5t50 -54t77.5 -20
q58 0 97 33.5t54.5 81.5t15.5 106zM256 604l-20 15q-25 18 -46 18q-39 0 -59 -36q-3 -7 -9 -5l-10 5q-5 2 -3 8q18 56 82 56q33 0 60 -20l21 -15q23 -17 46 -17q21 0 32.5 8.5t24.5 28.5q4 7 9 5l11 -5q5 -2 3 -7q-9 -28 -31 -43.5t-48 -15.5q-35 0 -63 20z" />
    <glyph glyph-name="odieresis" unicode="&#xf6;" horiz-adv-x="502" 
d="M454 241q0 -105 -53 -177.5t-154 -72.5q-70 0 -116.5 37t-64.5 91.5t-18 123.5q0 104 52.5 176.5t152.5 72.5q104 0 152.5 -71t48.5 -180zM415 240q0 57 -14 105t-52.5 83t-95.5 35q-58 0 -96.5 -33.5t-54 -80.5t-15.5 -105q0 -42 8 -79.5t25.5 -71.5t50 -54t77.5 -20
q58 0 97 33.5t54.5 81.5t15.5 106zM148 619q0 12 8 20.5t19 8.5q12 0 20.5 -8t8.5 -21q0 -11 -8.5 -19t-20.5 -8q-11 0 -19 8t-8 19zM301 619q0 12 8 20.5t19 8.5q12 0 20.5 -8t8.5 -21q0 -11 -8.5 -19t-20.5 -8q-11 0 -19 8t-8 19z" />
    <glyph glyph-name="divide" unicode="&#xf7;" 
d="M87 276h357q9 0 9 -8v-16q0 -8 -9 -8h-357q-9 0 -9 8v16q0 8 9 8zM295 451q0 -39 -37 -39q-38 0 -38 39q0 17 11 26t28 9q16 0 26 -9t10 -26zM295 80q0 -39 -37 -39q-38 0 -38 39q0 17 11 26t28 9q16 0 26 -9t10 -26z" />
    <glyph glyph-name="oslash" unicode="&#xf8;" horiz-adv-x="499" 
d="M451 241q0 -105 -52 -177.5t-153 -72.5q-59 0 -104 29l-29 -46q-7 -10 -15 -5l-8 5q-9 5 -3 14l32 50q-71 67 -71 205q0 104 52 176.5t152 72.5q68 0 119 -39l32 53q5 9 13 5l10 -6q9 -4 4 -12l-38 -61q59 -66 59 -191zM415 240q0 99 -42 161l-215 -355q36 -28 89 -28
q85 0 126.5 65.5t41.5 156.5zM136 67l217 358q-41 39 -101 39q-58 0 -97 -33.5t-54.5 -81.5t-15.5 -105q0 -117 51 -177z" />
    <glyph glyph-name="ugrave" unicode="&#xf9;" horiz-adv-x="500" 
d="M423 474v-465q0 -9 -8 -9h-19q-9 0 -9 10v53q-74 -72 -163 -72q-69 0 -104 37q-43 44 -43 139v307q0 8 8 8h20q8 0 8 -8v-297q0 -90 32 -124q29 -32 88 -32q84 0 154 78v375q0 8 8 8h20q8 0 8 -8zM189 694l128 -102q7 -5 3 -11l-5 -8q-4 -6 -9 -2l-145 86q-9 5 -3 14
l15 22q6 9 16 1z" />
    <glyph glyph-name="uacute" unicode="&#xfa;" horiz-adv-x="500" 
d="M423 474v-465q0 -9 -8 -9h-19q-9 0 -9 10v53q-74 -72 -163 -72q-69 0 -104 37q-43 44 -43 139v307q0 8 8 8h20q8 0 8 -8v-297q0 -90 32 -124q29 -32 88 -32q84 0 154 78v375q0 8 8 8h20q8 0 8 -8zM189 592l128 102q10 7 16 -1l15 -22q6 -9 -3 -14l-145 -86q-5 -4 -9 2
l-5 8q-4 6 3 11z" />
    <glyph glyph-name="ucircumflex" unicode="&#xfb;" horiz-adv-x="500" 
d="M423 474v-465q0 -9 -8 -9h-19q-9 0 -9 10v53q-74 -72 -163 -72q-69 0 -104 37q-43 44 -43 139v307q0 8 8 8h20q8 0 8 -8v-297q0 -90 32 -124q29 -32 88 -32q84 0 154 78v375q0 8 8 8h20q8 0 8 -8zM255 651l-95 -83q-4 -4 -7 0l-6 7q-5 5 0 9l94 108q6 6 11 6h5q7 0 12 -6
l89 -105q5 -5 2 -10l-5 -6q-4 -5 -9 0z" />
    <glyph glyph-name="udieresis" unicode="&#xfc;" horiz-adv-x="500" 
d="M423 474v-465q0 -9 -8 -9h-19q-9 0 -9 10v53q-74 -72 -163 -72q-69 0 -104 37q-43 44 -43 139v307q0 8 8 8h20q8 0 8 -8v-297q0 -90 32 -124q29 -32 88 -32q84 0 154 78v375q0 8 8 8h20q8 0 8 -8zM148 619q0 12 8 20.5t19 8.5q12 0 20.5 -8t8.5 -21q0 -11 -8.5 -19
t-20.5 -8q-11 0 -19 8t-8 19zM301 619q0 12 8 20.5t19 8.5q12 0 20.5 -8t8.5 -21q0 -11 -8.5 -19t-20.5 -8q-11 0 -19 8t-8 19z" />
    <glyph glyph-name="yacute" unicode="&#xfd;" horiz-adv-x="434" 
d="M226 34h1l146 439q4 9 12 9h17q12 0 7 -12l-183 -529q-31 -91 -68 -126t-105 -35q-19 0 -32 4q-8 3 -7 11l3 12q2 8 10 7l12 -2q12 -1 20 -1q83 0 117 90l32 84l-171 487q-3 10 7 10h19q9 0 12 -8zM149 592l128 102q10 7 16 -1l15 -22q6 -9 -3 -14l-145 -86q-5 -4 -9 2
l-5 8q-4 6 3 11z" />
    <glyph glyph-name="thorn" unicode="&#xfe;" horiz-adv-x="509" 
d="M113 414q60 78 158 78q94 0 142 -71t48 -179q0 -112 -57 -181.5t-145 -69.5q-45 0 -84.5 20t-61.5 57v-265q0 -9 -8 -9h-20q-8 0 -8 9v890q0 11 9 12l17 3q10 2 10 -8v-286zM422 241q0 100 -40.5 161t-114.5 61q-45 0 -88.5 -25.5t-65.5 -65.5v-254q20 -43 58.5 -70.5
t82.5 -27.5q77 0 122.5 59.5t45.5 161.5z" />
    <glyph glyph-name="ydieresis" unicode="&#xff;" horiz-adv-x="434" 
d="M226 34h1l146 439q4 9 12 9h17q12 0 7 -12l-183 -529q-31 -91 -68 -126t-105 -35q-19 0 -32 4q-8 3 -7 11l3 12q2 8 10 7l12 -2q12 -1 20 -1q83 0 117 90l32 84l-171 487q-3 10 7 10h19q9 0 12 -8zM121 618q0 12 8 20.5t19 8.5q12 0 20.5 -8t8.5 -21q0 -11 -8.5 -19
t-20.5 -8q-11 0 -19 8t-8 19zM274 618q0 12 8 20.5t19 8.5q12 0 20.5 -8t8.5 -21q0 -11 -8.5 -19t-20.5 -8q-11 0 -19 8t-8 19z" />
    <glyph glyph-name="Amacron" unicode="&#x100;" horiz-adv-x="556" 
d="M21 13l240 665q3 9 10 9h21q7 0 10 -8l235 -668q3 -11 -8 -11h-26q-10 0 -13 8l-74 223h-277l-79 -225q-2 -6 -9 -6h-24q-10 0 -6 13zM150 263h256l-126 365zM394 786v-11q0 -8 -2.5 -10t-8.5 -2h-200q-5 0 -7 0.5t-3.5 3t-1.5 8.5v11q0 7 2.5 9t9.5 2h202q9 0 9 -11z
" />
    <glyph glyph-name="amacron" unicode="&#x101;" horiz-adv-x="503" 
d="M389 93q-17 -41 -56 -71.5t-102 -30.5q-87 0 -135 68.5t-48 173.5q0 121 56 190t138 69q44 0 84.5 -20.5t62.5 -62.5v64q0 9 10 9h16q10 0 10 -9v-400q0 -49 30 -49h5q8 0 8 -7v-10q0 -7 -8 -7h-18q-53 0 -53 69v24zM389 152v210q-45 101 -144 101q-72 0 -115 -61
t-43 -165q0 -101 40.5 -159.5t105.5 -58.5q117 0 156 133zM358 619v-8q0 -8 -2.5 -10t-8.5 -2h-200q-5 0 -7 0.5t-3.5 3t-1.5 8.5v8q0 7 2.5 9t9.5 2h202q9 0 9 -11z" />
    <glyph glyph-name="Abreve" unicode="&#x102;" horiz-adv-x="556" 
d="M21 13l240 665q3 9 10 9h21q7 0 10 -8l235 -668q3 -11 -8 -11h-26q-10 0 -13 8l-74 223h-277l-79 -225q-2 -6 -9 -6h-24q-10 0 -6 13zM150 263h256l-126 365zM399 843q-5 -47 -34.5 -77t-84.5 -30q-53 0 -85 30.5t-32 76.5q0 8 7 8h17q7 0 7 -8q2 -34 24.5 -56.5
t62.5 -22.5q41 0 63 22t24 57q0 8 7 8h17q7 0 7 -8z" />
    <glyph glyph-name="abreve" unicode="&#x103;" horiz-adv-x="503" 
d="M389 93q-17 -41 -56 -71.5t-102 -30.5q-87 0 -135 68.5t-48 173.5q0 121 56 190t138 69q44 0 84.5 -20.5t62.5 -62.5v64q0 9 10 9h16q10 0 10 -9v-400q0 -49 30 -49h5q8 0 8 -7v-10q0 -7 -8 -7h-18q-53 0 -53 69v24zM389 152v210q-45 101 -144 101q-72 0 -115 -61
t-43 -165q0 -101 40.5 -159.5t105.5 -58.5q117 0 156 133zM366 672q-5 -47 -34.5 -77t-84.5 -30q-53 0 -85 30.5t-32 76.5q0 8 7 8h17q7 0 7 -8q2 -34 24.5 -56.5t62.5 -22.5q41 0 63 22t24 57q0 8 7 8h17q7 0 7 -8z" />
    <glyph glyph-name="Aogonek" unicode="&#x104;" horiz-adv-x="556" 
d="M150 263h256l-126 365zM21 13l240 665q3 9 10 9h21q7 0 10 -8l235 -666q4 -10 -8 -14q-39 -14 -60.5 -46t-21.5 -68q0 -59 65 -59q23 0 47 7q9 3 10 -4l2 -8q1 -6 -5 -9q-26 -11 -65 -11q-42 0 -64.5 22.5t-22.5 55.5q0 78 79 123l-77 229h-277l-79 -225q-2 -6 -9 -6h-24
q-10 0 -6 13z" />
    <glyph glyph-name="aogonek" unicode="&#x105;" horiz-adv-x="503" 
d="M389 93q-17 -41 -56 -71.5t-102 -30.5q-87 0 -135 68.5t-48 173.5q0 121 56 190t138 69q44 0 84.5 -20.5t62.5 -62.5v64q0 9 10 9h16q10 0 10 -9v-400q0 -49 30 -49h5q8 0 8 -7v-6q0 -7 -8 -11q-73 -42 -73 -115q0 -59 65 -59q23 0 47 7q9 3 10 -4l2 -8q1 -6 -5 -9
q-26 -11 -65 -11q-42 0 -64.5 22.5t-22.5 55.5q0 74 74 121q-39 12 -39 69v24zM389 152v210q-45 101 -144 101q-72 0 -115 -61t-43 -165q0 -101 40.5 -159.5t105.5 -58.5q117 0 156 133z" />
    <glyph glyph-name="Cacute" unicode="&#x106;" horiz-adv-x="549" 
d="M343 25q77 0 153 38q8 3 11 -4l7 -16q3 -7 -6 -12q-77 -40 -172 -40q-139 0 -212 100t-73 253q0 147 77.5 250.5t210.5 103.5q98 0 167 -43q6 -4 3 -12l-7 -14q-4 -8 -12 -4q-67 39 -146 39q-82 0 -140 -48.5t-83 -118t-25 -148.5q0 -62 13.5 -118t42 -103t77.5 -75
t114 -28zM281 751l128 102q10 7 16 -1l15 -22q6 -9 -3 -14l-145 -86q-5 -4 -9 2l-5 8q-4 6 3 11z" />
    <glyph glyph-name="cacute" unicode="&#x107;" horiz-adv-x="405" 
d="M260 21q62 0 108 23q6 3 9 -4l6 -12q2 -6 -6 -10q-54 -27 -117 -27q-105 0 -158.5 67.5t-53.5 184.5q0 110 58.5 179.5t157.5 69.5q60 0 111 -28q9 -5 6 -11l-7 -15q-2 -6 -11 -2q-56 26 -99 26q-81 0 -129 -58.5t-48 -158.5q0 -96 41.5 -160t131.5 -64zM183 592l128 102
q10 7 16 -1l15 -22q6 -9 -3 -14l-145 -86q-5 -4 -9 2l-5 8q-4 6 3 11z" />
    <glyph glyph-name="Ccircumflex" unicode="&#x108;" horiz-adv-x="549" 
d="M343 25q77 0 153 38q8 3 11 -4l7 -16q3 -7 -6 -12q-77 -40 -172 -40q-139 0 -212 100t-73 253q0 147 77.5 250.5t210.5 103.5q98 0 167 -43q6 -4 3 -12l-7 -14q-4 -8 -12 -4q-67 39 -146 39q-82 0 -140 -48.5t-83 -118t-25 -148.5q0 -62 13.5 -118t42 -103t77.5 -75
t114 -28zM346 810l-95 -83q-3 -3 -7 0l-6 7q-4 4 0 9l94 108q6 6 11 6h5q8 0 12 -6l89 -105q5 -5 2 -10l-5 -6q-4 -5 -9 0z" />
    <glyph glyph-name="ccircumflex" unicode="&#x109;" horiz-adv-x="405" 
d="M260 21q62 0 108 23q6 3 9 -4l6 -12q2 -6 -6 -10q-54 -27 -117 -27q-105 0 -158.5 67.5t-53.5 184.5q0 110 58.5 179.5t157.5 69.5q60 0 111 -28q9 -5 6 -11l-7 -15q-2 -6 -11 -2q-56 26 -99 26q-81 0 -129 -58.5t-48 -158.5q0 -96 41.5 -160t131.5 -64zM246 651l-95 -83
q-3 -4 -7 0l-6 7q-4 5 0 9l94 108q6 6 11 6h5q8 0 12 -6l89 -105q5 -5 2 -10l-5 -6q-4 -5 -9 0z" />
    <glyph glyph-name="Cdotaccent" unicode="&#x10a;" horiz-adv-x="549" 
d="M343 25q77 0 153 38q8 3 11 -4l7 -16q3 -7 -6 -12q-77 -40 -172 -40q-139 0 -212 100t-73 253q0 147 77.5 250.5t210.5 103.5q98 0 167 -43q6 -4 3 -12l-7 -14q-4 -8 -12 -4q-67 39 -146 39q-82 0 -140 -48.5t-83 -118t-25 -148.5q0 -62 13.5 -118t42 -103t77.5 -75
t114 -28zM364 801q0 -17 -11 -27.5t-25 -10.5q-15 0 -26.5 10.5t-11.5 27.5t11 26.5t27 9.5t26 -9.5t10 -26.5z" />
    <glyph glyph-name="cdotaccent" unicode="&#x10b;" horiz-adv-x="405" 
d="M260 21q62 0 108 23q6 3 9 -4l6 -12q2 -6 -6 -10q-54 -27 -117 -27q-105 0 -158.5 67.5t-53.5 184.5q0 110 58.5 179.5t157.5 69.5q60 0 111 -28q9 -5 6 -11l-7 -15q-2 -6 -11 -2q-56 26 -99 26q-81 0 -129 -58.5t-48 -158.5q0 -96 41.5 -160t131.5 -64zM282 634
q0 -17 -11 -27.5t-25 -10.5q-15 0 -26.5 10.5t-11.5 27.5t11 26.5t27 9.5t26 -9.5t10 -26.5z" />
    <glyph glyph-name="Ccaron" unicode="&#x10c;" horiz-adv-x="549" 
d="M343 25q77 0 153 38q8 3 11 -4l7 -16q3 -7 -6 -12q-77 -40 -172 -40q-139 0 -212 100t-73 253q0 147 77.5 250.5t210.5 103.5q98 0 167 -43q6 -4 3 -12l-7 -14q-4 -8 -12 -4q-67 39 -146 39q-82 0 -140 -48.5t-83 -118t-25 -148.5q0 -62 13.5 -118t42 -103t77.5 -75
t114 -28zM330 777l90 82q6 6 10 0l7 -7q4 -4 0 -10l-91 -103q-5 -6 -13 -6h-8q-7 0 -12 6l-91 102q-4 5 0 9l7 8q5 5 11 -1z" />
    <glyph glyph-name="ccaron" unicode="&#x10d;" horiz-adv-x="405" 
d="M260 21q62 0 108 23q6 3 9 -4l6 -12q2 -6 -6 -10q-54 -27 -117 -27q-105 0 -158.5 67.5t-53.5 184.5q0 110 58.5 179.5t157.5 69.5q60 0 111 -28q9 -5 6 -11l-7 -15q-2 -6 -11 -2q-56 26 -99 26q-81 0 -129 -58.5t-48 -158.5q0 -96 41.5 -160t131.5 -64zM246 613l90 82
q6 6 10 0l7 -7q4 -4 0 -10l-91 -103q-5 -6 -13 -6h-8q-7 0 -12 6l-91 102q-4 5 0 9l7 8q5 5 11 -1z" />
    <glyph glyph-name="Dcaron" unicode="&#x10e;" horiz-adv-x="625" 
d="M103 687h107q96 0 147.5 -10t92.5 -39q58 -40 91 -118t33 -181q0 -177 -93 -268q-71 -71 -229 -71h-149q-16 0 -16 15v657q0 15 16 15zM127 654v-620h95q77 0 123 8t81 34q103 77 103 264q0 82 -24 151.5t-69 109.5q-37 32 -85.5 42.5t-114.5 10.5h-109zM264 777l90 82
q6 6 10 0l7 -7q4 -4 0 -10l-91 -103q-5 -6 -13 -6h-8q-7 0 -12 6l-91 102q-4 5 0 9l7 8q5 5 11 -1z" />
    <glyph glyph-name="dcaron" unicode="&#x10f;" horiz-adv-x="509" 
d="M396 111v257q-20 43 -58 69t-83 26q-77 0 -122.5 -59.5t-45.5 -161.5q0 -100 40.5 -161.5t114.5 -61.5q45 0 88.5 26t65.5 66zM396 9v60q-60 -78 -158 -78q-94 0 -142 71t-48 179q0 113 57 182t144 69q43 0 84.5 -20t62.5 -57v278q0 11 8 12l18 3q10 2 10 -8v-691
q0 -9 -8 -9h-20q-8 0 -8 9zM553 668q0 -61 -50 -109q-5 -4 -8 -1l-4 4q-3 4 1 8q27 27 27 56q0 15 -12.5 32t-12.5 25q0 11 7.5 18t18.5 7q13 0 23 -11.5t10 -28.5z" />
    <glyph glyph-name="Dcroat" unicode="&#x110;" horiz-adv-x="625" 
d="M574 339q0 -177 -93 -268q-71 -71 -229 -71h-149q-16 0 -16 15v330h-66q-11 0 -11 10v18q0 8 10 8h67v292q0 9 2 11.5t12 2.5h109q96 0 147.5 -10t92.5 -39q58 -40 91 -118t33 -181zM529 340q0 82 -24 151.5t-69 109.5q-37 32 -85.5 42.5t-114.5 10.5h-109v-273h118
q12 0 12 -12v-11q0 -13 -11 -13h-119v-311h95q77 0 123 8t81 34q103 77 103 264z" />
    <glyph glyph-name="dcroat" unicode="&#x111;" horiz-adv-x="509" 
d="M280 638h116v55q0 11 8 12l18 3q10 2 10 -8v-62h53q7 0 7 -7v-11q0 -9 -7 -9h-53v-602q0 -9 -8 -9h-20q-8 0 -8 9v60q-60 -78 -158 -78q-94 0 -142 71t-48 179q0 113 57 182t144 69q43 0 84.5 -20t62.5 -57v196h-115q-8 0 -8 7v13q0 7 7 7zM396 111v257q-20 43 -58 69
t-83 26q-77 0 -122.5 -59.5t-45.5 -161.5q0 -100 40.5 -161.5t114.5 -61.5q45 0 88.5 26t65.5 66z" />
    <glyph glyph-name="Emacron" unicode="&#x112;" horiz-adv-x="470" 
d="M127 34h284q9 0 9 -8v-18q0 -8 -9 -8h-311q-13 0 -13 12v661q0 8 3 11t12 3h308q7 0 7 -6l-2 -20q-1 -7 -10 -7h-278v-276h241q9 0 9 -8v-17q0 -8 -9 -8h-241v-311zM370 786v-11q0 -8 -2.5 -10t-8.5 -2h-200q-5 0 -7 0.5t-3.5 3t-1.5 8.5v11q0 7 2.5 9t9.5 2h202
q9 0 9 -11z" />
    <glyph glyph-name="emacron" unicode="&#x113;" horiz-adv-x="468" 
d="M87 245q0 -97 42 -161t135 -64q61 0 114 21q11 4 13 -4l4 -13q2 -6 -6 -10q-55 -23 -130 -23q-103 0 -157 67.5t-54 183.5q0 108 57 179t151 71q78 0 123 -57t45 -147v-30q0 -13 -15 -13h-322zM88 272h301v20q0 73 -33 122t-102 49q-77 0 -118 -54.5t-48 -136.5zM358 619
v-8q0 -8 -2.5 -10t-8.5 -2h-200q-5 0 -7 0.5t-3.5 3t-1.5 8.5v8q0 7 2.5 9t9.5 2h202q9 0 9 -11z" />
    <glyph glyph-name="Ebreve" unicode="&#x114;" horiz-adv-x="470" 
d="M127 34h284q9 0 9 -8v-18q0 -8 -9 -8h-311q-13 0 -13 12v661q0 8 3 11t12 3h308q7 0 7 -6l-2 -20q-1 -7 -10 -7h-278v-276h241q9 0 9 -8v-17q0 -8 -9 -8h-241v-311zM374 843q-5 -47 -34.5 -77t-84.5 -30q-53 0 -85 30.5t-32 76.5q0 8 7 8h17q7 0 7 -8q2 -34 24.5 -56.5
t62.5 -22.5q41 0 63 22t24 57q0 8 7 8h17q7 0 7 -8z" />
    <glyph glyph-name="ebreve" unicode="&#x115;" horiz-adv-x="468" 
d="M87 245q0 -97 42 -161t135 -64q61 0 114 21q11 4 13 -4l4 -13q2 -6 -6 -10q-55 -23 -130 -23q-103 0 -157 67.5t-54 183.5q0 108 57 179t151 71q78 0 123 -57t45 -147v-30q0 -13 -15 -13h-322zM88 272h301v20q0 73 -33 122t-102 49q-77 0 -118 -54.5t-48 -136.5zM366 690
q-5 -47 -34.5 -77t-84.5 -30q-53 0 -85 30.5t-32 76.5q0 8 7 8h17q7 0 7 -8q2 -34 24.5 -56.5t62.5 -22.5q41 0 63 22t24 57q0 8 7 8h17q7 0 7 -8z" />
    <glyph glyph-name="Edotaccent" unicode="&#x116;" horiz-adv-x="470" 
d="M127 34h284q9 0 9 -8v-18q0 -8 -9 -8h-311q-13 0 -13 12v661q0 8 3 11t12 3h308q7 0 7 -6l-2 -20q-1 -7 -10 -7h-278v-276h241q9 0 9 -8v-17q0 -8 -9 -8h-241v-311zM301 801q0 -17 -11 -27.5t-25 -10.5q-15 0 -26.5 10.5t-11.5 27.5t11 26.5t27 9.5t26 -9.5t10 -26.5z
" />
    <glyph glyph-name="edotaccent" unicode="&#x117;" horiz-adv-x="468" 
d="M87 245q0 -97 42 -161t135 -64q61 0 114 21q11 4 13 -4l4 -13q2 -6 -6 -10q-55 -23 -130 -23q-103 0 -157 67.5t-54 183.5q0 108 57 179t151 71q78 0 123 -57t45 -147v-30q0 -13 -15 -13h-322zM88 272h301v20q0 73 -33 122t-102 49q-77 0 -118 -54.5t-48 -136.5zM284 634
q0 -17 -11 -27.5t-25 -10.5q-15 0 -26.5 10.5t-11.5 27.5t11 26.5t27 9.5t26 -9.5t10 -26.5z" />
    <glyph glyph-name="Eogonek" unicode="&#x118;" horiz-adv-x="470" 
d="M127 34h284q9 0 9 -8v-18q0 -8 -9 -8h-36q-69 -53 -69 -115q0 -59 65 -59q23 0 47 7q9 3 10 -4l2 -8q1 -6 -5 -9q-26 -11 -65 -11q-42 0 -64.5 22.5t-22.5 55.5q0 77 76 121h-249q-13 0 -13 12v661q0 8 3 11t12 3h308q7 0 7 -6l-2 -20q-1 -7 -10 -7h-278v-276h241
q9 0 9 -8v-17q0 -8 -9 -8h-241v-311z" />
    <glyph glyph-name="eogonek" unicode="&#x119;" horiz-adv-x="468" 
d="M87 245q0 -97 42 -161t135 -64q61 0 114 21q11 4 13 -4l4 -13q2 -6 -6 -10q-13 -5 -23 -8q-62 -18 -93.5 -50.5t-31.5 -70.5q0 -59 65 -59q23 0 47 7q9 3 10 -4l2 -8q1 -6 -5 -9q-26 -11 -65 -11q-42 0 -64.5 22.5t-22.5 55.5q0 81 81 113q-12 -1 -30 -1
q-103 0 -157 67.5t-54 183.5q0 108 57 179t151 71q78 0 123 -57t45 -147v-30q0 -13 -15 -13h-322zM88 272h301v20q0 73 -33 122t-102 49q-77 0 -118 -54.5t-48 -136.5z" />
    <glyph glyph-name="Ecaron" unicode="&#x11a;" horiz-adv-x="470" 
d="M127 34h284q9 0 9 -8v-18q0 -8 -9 -8h-311q-13 0 -13 12v661q0 8 3 11t12 3h308q7 0 7 -6l-2 -20q-1 -7 -10 -7h-278v-276h241q9 0 9 -8v-17q0 -8 -9 -8h-241v-311zM258 777l90 82q6 6 10 0l7 -7q4 -4 0 -10l-91 -103q-5 -6 -13 -6h-8q-7 0 -12 6l-91 102q-4 5 0 9l7 8
q5 5 11 -1z" />
    <glyph glyph-name="ecaron" unicode="&#x11b;" horiz-adv-x="468" 
d="M87 245q0 -97 42 -161t135 -64q61 0 114 21q11 4 13 -4l4 -13q2 -6 -6 -10q-55 -23 -130 -23q-103 0 -157 67.5t-54 183.5q0 108 57 179t151 71q78 0 123 -57t45 -147v-30q0 -13 -15 -13h-322zM88 272h301v20q0 73 -33 122t-102 49q-77 0 -118 -54.5t-48 -136.5zM252 613
l90 82q6 6 10 0l7 -7q4 -4 0 -10l-91 -103q-5 -6 -13 -6h-8q-7 0 -12 6l-91 102q-4 5 0 9l7 8q5 5 11 -1z" />
    <glyph glyph-name="Gcircumflex" unicode="&#x11c;" horiz-adv-x="611" 
d="M491 345h-121q-8 0 -8 7v18q0 8 7 8h152q10 0 10 -10v-305q0 -12 -4 -17.5t-19 -14.5q-68 -40 -172 -40q-139 0 -212 100t-73 253q0 146 78.5 250t212.5 104q101 0 168 -43q7 -4 3 -11l-9 -16q-3 -8 -10 -3q-63 39 -147 39q-82 0 -141 -48.5t-84.5 -118t-25.5 -148.5
q0 -63 13.5 -118.5t41.5 -102.5t77.5 -75t114.5 -28q87 0 148 37v283zM346 810l-95 -83q-3 -3 -7 0l-6 7q-4 4 0 9l94 108q6 6 11 6h5q8 0 12 -6l89 -105q5 -5 2 -10l-5 -6q-4 -5 -9 0z" />
    <glyph glyph-name="gcircumflex" unicode="&#x11d;" horiz-adv-x="508" 
d="M396 118v249q-20 43 -58.5 69.5t-83.5 26.5q-79 0 -123 -60t-44 -156q0 -39 7.5 -75t24.5 -69.5t49 -53.5t75 -20q45 0 86 24t67 65zM396 416v57q0 9 8 9h20q8 0 8 -9v-455q0 -238 -195 -238q-69 0 -131 31q-8 4 -5 11l6 13q3 7 11 4q62 -30 122 -30q156 0 156 201v70
q-18 -32 -62 -56t-95 -24q-93 0 -142 68.5t-49 173.5t54 177.5t147 72.5q96 0 147 -76zM252 651l-95 -83q-3 -4 -7 0l-6 7q-4 5 0 9l94 108q6 6 11 6h5q8 0 12 -6l89 -105q5 -5 2 -10l-5 -6q-4 -5 -9 0z" />
    <glyph glyph-name="Gbreve" unicode="&#x11e;" horiz-adv-x="611" 
d="M491 345h-121q-8 0 -8 7v18q0 8 7 8h152q10 0 10 -10v-305q0 -12 -4 -17.5t-19 -14.5q-68 -40 -172 -40q-139 0 -212 100t-73 253q0 146 78.5 250t212.5 104q101 0 168 -43q7 -4 3 -11l-9 -16q-3 -8 -10 -3q-63 39 -147 39q-82 0 -141 -48.5t-84.5 -118t-25.5 -148.5
q0 -63 13.5 -118.5t41.5 -102.5t77.5 -75t114.5 -28q87 0 148 37v283zM454 843q-5 -47 -34.5 -77t-84.5 -30q-53 0 -85 30.5t-32 76.5q0 8 7 8h17q7 0 7 -8q2 -34 24.5 -56.5t62.5 -22.5q41 0 63 22t24 57q0 8 7 8h17q7 0 7 -8z" />
    <glyph glyph-name="gbreve" unicode="&#x11f;" horiz-adv-x="508" 
d="M396 118v249q-20 43 -58.5 69.5t-83.5 26.5q-79 0 -123 -60t-44 -156q0 -39 7.5 -75t24.5 -69.5t49 -53.5t75 -20q45 0 86 24t67 65zM396 416v57q0 9 8 9h20q8 0 8 -9v-455q0 -238 -195 -238q-69 0 -131 31q-8 4 -5 11l6 13q3 7 11 4q62 -30 122 -30q156 0 156 201v70
q-18 -32 -62 -56t-95 -24q-93 0 -142 68.5t-49 173.5t54 177.5t147 72.5q96 0 147 -76zM367 671q-5 -47 -34.5 -77t-84.5 -30q-53 0 -85 30.5t-32 76.5q0 8 7 8h17q7 0 7 -8q2 -34 24.5 -56.5t62.5 -22.5q41 0 63 22t24 57q0 8 7 8h17q7 0 7 -8z" />
    <glyph glyph-name="Gdotaccent" unicode="&#x120;" horiz-adv-x="611" 
d="M491 345h-121q-8 0 -8 7v18q0 8 7 8h152q10 0 10 -10v-305q0 -12 -4 -17.5t-19 -14.5q-68 -40 -172 -40q-139 0 -212 100t-73 253q0 146 78.5 250t212.5 104q101 0 168 -43q7 -4 3 -11l-9 -16q-3 -8 -10 -3q-63 39 -147 39q-82 0 -141 -48.5t-84.5 -118t-25.5 -148.5
q0 -63 13.5 -118.5t41.5 -102.5t77.5 -75t114.5 -28q87 0 148 37v283zM381 801q0 -17 -11 -27.5t-25 -10.5q-15 0 -26.5 10.5t-11.5 27.5t11 26.5t27 9.5t26 -9.5t10 -26.5z" />
    <glyph glyph-name="gdotaccent" unicode="&#x121;" horiz-adv-x="508" 
d="M396 118v249q-20 43 -58.5 69.5t-83.5 26.5q-79 0 -123 -60t-44 -156q0 -39 7.5 -75t24.5 -69.5t49 -53.5t75 -20q45 0 86 24t67 65zM396 416v57q0 9 8 9h20q8 0 8 -9v-455q0 -238 -195 -238q-69 0 -131 31q-8 4 -5 11l6 13q3 7 11 4q62 -30 122 -30q156 0 156 201v70
q-18 -32 -62 -56t-95 -24q-93 0 -142 68.5t-49 173.5t54 177.5t147 72.5q96 0 147 -76zM289 635q0 -17 -11 -27.5t-25 -10.5q-15 0 -26.5 10.5t-11.5 27.5t11 26.5t27 9.5t26 -9.5t10 -26.5z" />
    <glyph glyph-name="Gcommaaccent" unicode="&#x122;" horiz-adv-x="611" 
d="M491 345h-121q-8 0 -8 7v18q0 8 7 8h152q10 0 10 -10v-305q0 -12 -4 -17.5t-19 -14.5q-68 -40 -172 -40q-139 0 -212 100t-73 253q0 146 78.5 250t212.5 104q101 0 168 -43q7 -4 3 -11l-9 -16q-3 -8 -10 -3q-63 39 -147 39q-82 0 -141 -48.5t-84.5 -118t-25.5 -148.5
q0 -63 13.5 -118.5t41.5 -102.5t77.5 -75t114.5 -28q87 0 148 37v283zM366 -80q0 -61 -50 -109q-5 -4 -8 -1l-4 4q-3 4 1 8q27 27 27 56q0 15 -12.5 32t-12.5 25q0 11 7.5 18t18.5 7q13 0 23 -11.5t10 -28.5z" />
    <glyph glyph-name="gcommaaccent" unicode="&#x123;" horiz-adv-x="508" 
d="M396 118v249q-20 43 -58.5 69.5t-83.5 26.5q-79 0 -123 -60t-44 -156q0 -39 7.5 -75t24.5 -69.5t49 -53.5t75 -20q45 0 86 24t67 65zM396 416v57q0 9 8 9h20q8 0 8 -9v-455q0 -238 -195 -238q-69 0 -131 31q-8 4 -5 11l6 13q3 7 11 4q62 -30 122 -30q156 0 156 201v70
q-18 -32 -62 -56t-95 -24q-93 0 -142 68.5t-49 173.5t54 177.5t147 72.5q96 0 147 -76zM221 606q0 61 50 109q5 4 8 1l4 -4q3 -4 -1 -8q-27 -27 -27 -56q0 -15 12.5 -32t12.5 -25q0 -11 -7.5 -18t-18.5 -7q-13 0 -23 11.5t-10 28.5z" />
    <glyph glyph-name="Hcircumflex" unicode="&#x124;" horiz-adv-x="621" 
d="M494 378v301q0 8 8 8h24q8 0 8 -9v-669q0 -9 -7 -9h-24q-4 0 -5.5 0.5t-2.5 2.5t-1 7v335h-367v-336q0 -9 -8 -9h-25q-7 0 -7 9v669q0 9 8 9h24q8 0 8 -10v-299h367zM315 826l-95 -83q-4 -3 -7 0l-6 7q-5 4 0 9l94 108q6 6 11 6h5q7 0 12 -6l89 -105q5 -5 2 -10l-5 -6
q-4 -5 -9 0z" />
    <glyph glyph-name="hcircumflex" unicode="&#x125;" horiz-adv-x="509" 
d="M113 421q27 30 72 50.5t94 20.5q153 0 153 -177v-306q0 -9 -8 -9h-20q-8 0 -8 9v297q0 73 -25.5 114t-95.5 41q-91 0 -162 -76v-376q0 -9 -8 -9h-20q-8 0 -8 9v684q0 11 8 12l18 3q10 2 10 -8v-279zM97 815l-95 -83q-4 -4 -7 0l-6 7q-5 5 0 9l94 108q6 6 11 6h5
q7 0 12 -6l89 -105q5 -5 2 -10l-5 -6q-4 -5 -9 0z" />
    <glyph glyph-name="Hbar" unicode="&#x126;" horiz-adv-x="621" 
d="M534 678v-131h56q10 0 10 -8v-16q0 -10 -11 -10h-55v-504q0 -9 -7 -9h-24q-4 0 -5.5 0.5t-2.5 2.5t-1 7v335h-367v-336q0 -9 -8 -9h-25q-7 0 -7 9v504h-55q-11 0 -11 10v16q0 8 10 8h56v131q0 9 8 9h24q8 0 8 -10v-130h367v132q0 8 8 8h24q8 0 8 -9zM127 378h367v135
h-367v-135z" />
    <glyph glyph-name="hbar" unicode="&#x127;" horiz-adv-x="509" 
d="M24 613h53v80q0 11 8 12l18 3q10 2 10 -8v-87h144q7 0 7 -7v-11q0 -9 -7 -9h-144v-165q27 30 72 50.5t94 20.5q153 0 153 -177v-306q0 -9 -8 -9h-20q-8 0 -8 9v297q0 73 -25.5 114t-95.5 41q-91 0 -162 -76v-376q0 -9 -8 -9h-20q-8 0 -8 9v577h-52q-8 0 -8 7v13q0 7 7 7z
" />
    <glyph glyph-name="Itilde" unicode="&#x128;" horiz-adv-x="336" 
d="M185 29h71q6 0 6 -6v-17q0 -6 -6 -6h-177q-6 0 -6 6v17q0 6 6 6h66v630h-68q-7 0 -7 6v17q0 5 6 5h179q7 0 7 -6v-16q0 -6 -7 -6h-70v-630zM172 762l-20 15q-25 18 -46 18q-39 0 -59 -36q-3 -7 -9 -5l-10 5q-5 2 -3 8q18 56 82 56q33 0 60 -20l21 -15q23 -17 46 -17
q21 0 32.5 8.5t24.5 28.5q4 7 9 5l11 -5q5 -2 3 -7q-9 -28 -31 -43.5t-48 -15.5q-35 0 -63 20z" />
    <glyph glyph-name="itilde" unicode="&#x129;" horiz-adv-x="210" 
d="M123 473v-464q0 -9 -8 -9h-20q-8 0 -8 9v464q0 9 8 9h20q8 0 8 -9zM108 602l-20 15q-25 18 -46 18q-39 0 -59 -36q-3 -7 -9 -5l-10 5q-5 2 -3 8q18 56 82 56q33 0 60 -20l21 -15q23 -17 46 -17q21 0 32.5 8.5t24.5 28.5q4 7 9 5l11 -5q5 -2 3 -7q-9 -28 -31 -43.5
t-48 -15.5q-35 0 -63 20z" />
    <glyph glyph-name="Imacron" unicode="&#x12a;" horiz-adv-x="336" 
d="M185 29h71q6 0 6 -6v-17q0 -6 -6 -6h-177q-6 0 -6 6v17q0 6 6 6h66v630h-68q-7 0 -7 6v17q0 5 6 5h179q7 0 7 -6v-16q0 -6 -7 -6h-70v-630zM278 786v-11q0 -8 -2.5 -10t-8.5 -2h-200q-5 0 -7 0.5t-3.5 3t-1.5 8.5v11q0 7 2.5 9t9.5 2h202q9 0 9 -11z" />
    <glyph glyph-name="imacron" unicode="&#x12b;" horiz-adv-x="210" 
d="M123 473v-464q0 -9 -8 -9h-20q-8 0 -8 9v464q0 9 8 9h20q8 0 8 -9zM216 619v-8q0 -8 -2.5 -10t-8.5 -2h-200q-5 0 -7 0.5t-3.5 3t-1.5 8.5v8q0 7 2.5 9t9.5 2h202q9 0 9 -11z" />
    <glyph glyph-name="Ibreve" unicode="&#x12c;" horiz-adv-x="336" 
d="M185 29h71q6 0 6 -6v-17q0 -6 -6 -6h-177q-6 0 -6 6v17q0 6 6 6h66v630h-68q-7 0 -7 6v17q0 5 6 5h179q7 0 7 -6v-16q0 -6 -7 -6h-70v-630zM285 843q-5 -47 -34.5 -77t-84.5 -30q-53 0 -85 30.5t-32 76.5q0 8 7 8h17q7 0 7 -8q2 -34 24.5 -56.5t62.5 -22.5q41 0 63 22
t24 57q0 8 7 8h17q7 0 7 -8z" />
    <glyph glyph-name="ibreve" unicode="&#x12d;" horiz-adv-x="210" 
d="M123 473v-464q0 -9 -8 -9h-20q-8 0 -8 9v464q0 9 8 9h20q8 0 8 -9zM222 669q-5 -47 -34.5 -77t-84.5 -30q-53 0 -85 30.5t-32 76.5q0 8 7 8h17q7 0 7 -8q2 -34 24.5 -56.5t62.5 -22.5q41 0 63 22t24 57q0 8 7 8h17q7 0 7 -8z" />
    <glyph glyph-name="Iogonek" unicode="&#x12e;" horiz-adv-x="336" 
d="M262 23v-17q0 -6 -6 -6h-68q-69 -53 -69 -115q0 -59 65 -59q23 0 47 7q9 3 10 -4l2 -8q1 -6 -5 -9q-26 -11 -65 -11q-42 0 -64.5 22.5t-22.5 55.5q0 77 76 121h-83q-6 0 -6 6v17q0 6 6 6h66v630h-68q-7 0 -7 7v16q0 5 6 5h179q7 0 7 -6v-15q0 -7 -6 -7h-71v-630h71
q6 0 6 -6z" />
    <glyph glyph-name="iogonek" unicode="&#x12f;" horiz-adv-x="210" 
d="M123 473v-462q0 -8 -7 -13q-70 -46 -70 -113q0 -59 65 -59q23 0 47 7q9 3 10 -4l2 -8q1 -6 -5 -9q-26 -11 -65 -11q-42 0 -64.5 22.5t-22.5 55.5q0 78 74 119v475q0 9 8 9h20q8 0 8 -9zM132 607q0 -11 -7.5 -18.5t-19.5 -7.5t-19.5 7.5t-7.5 18.5t7.5 18.5t19.5 7.5
t19.5 -7.5t7.5 -18.5z" />
    <glyph glyph-name="Idotaccent" unicode="&#x130;" horiz-adv-x="336" 
d="M185 29h71q6 0 6 -6v-17q0 -6 -6 -6h-177q-6 0 -6 6v17q0 6 6 6h66v630h-68q-7 0 -7 6v17q0 5 6 5h179q7 0 7 -6v-16q0 -6 -7 -6h-70v-630zM203 801q0 -17 -11 -27.5t-25 -10.5q-15 0 -26.5 10.5t-11.5 27.5t11 26.5t27 9.5t26 -9.5t10 -26.5z" />
    <glyph glyph-name="dotlessi" unicode="&#x131;" horiz-adv-x="210" 
d="M123 473v-464q0 -9 -8 -9h-20q-8 0 -8 9v464q0 9 8 9h20q8 0 8 -9z" />
    <glyph glyph-name="IJ" unicode="&#x132;" horiz-adv-x="680" 
d="M185 29h71q6 0 6 -6v-17q0 -6 -6 -6h-177q-6 0 -6 6v17q0 6 6 6h66v630h-68q-7 0 -7 6v17q0 5 6 5h179q7 0 7 -6v-16q0 -6 -7 -6h-70v-630zM553 659h-117q-8 0 -8 7v16q0 5 6 5h151q8 0 8 -8v-451q0 -80 -9 -127.5t-37 -73.5q-38 -36 -113 -36q-24 0 -40 4q-9 2 -7 10
l3 14q2 7 9 6q19 -4 40 -4q70 0 94 45q20 38 20 137v456z" />
    <glyph glyph-name="ij" unicode="&#x133;" horiz-adv-x="445" 
d="M132 607q0 -11 -7.5 -18.5t-19.5 -7.5t-19.5 7.5t-7.5 18.5t7.5 18.5t19.5 7.5t19.5 -7.5t7.5 -18.5zM123 473v-464q0 -9 -8 -9h-20q-8 0 -8 9v464q0 9 8 9h20q8 0 8 -9zM369 607q0 -11 -7.5 -18.5t-19.5 -7.5t-19 7.5t-7 18.5t7 18.5t19 7.5t19.5 -7.5t7.5 -18.5z
M359 473v-461q0 -42 -2 -70.5t-11 -61.5t-24.5 -53t-45 -33.5t-70.5 -13.5q-21 0 -37 4q-8 3 -7 10l2 10q2 8 11 7q18 -3 34 -3q39 0 64 17.5t35 52t12.5 61t2.5 69.5v465q0 9 8 9h20q8 0 8 -9z" />
    <glyph glyph-name="Jcircumflex" unicode="&#x134;" horiz-adv-x="344" 
d="M217 659h-117q-8 0 -8 7v16q0 5 6 5h151q8 0 8 -8v-451q0 -80 -9 -127.5t-37 -73.5q-38 -36 -113 -36q-24 0 -40 4q-9 2 -7 10l3 14q2 7 9 6q19 -4 40 -4q70 0 94 45q20 37 20 137v456zM173 810l-95 -83q-4 -3 -7 0l-6 7q-5 4 0 9l94 108q6 6 11 6h5q7 0 12 -6l89 -105
q5 -5 2 -10l-5 -6q-4 -5 -9 0z" />
    <glyph glyph-name="jcircumflex" unicode="&#x135;" horiz-adv-x="235" 
d="M149 473v-461q0 -42 -2 -70.5t-11 -61.5t-24.5 -53t-45 -33.5t-70.5 -13.5q-21 0 -37 4q-8 3 -7 10l2 10q2 8 11 7q18 -3 34 -3q39 0 64 17.5t35 52t12.5 61t2.5 69.5v465q0 9 8 9h20q8 0 8 -9zM133 651l-95 -83q-4 -4 -7 0l-6 7q-5 5 0 9l94 108q6 6 11 6h5q7 0 12 -6
l89 -105q5 -5 2 -10l-5 -6q-4 -5 -9 0z" />
    <glyph glyph-name="Kcommaaccent" unicode="&#x136;" horiz-adv-x="468" 
d="M441 678l-274 -323l292 -345q3 -3 1.5 -6.5t-5.5 -3.5h-29q-11 0 -19 8l-279 335h-1v-332q0 -11 -9 -11h-22q-9 0 -9 10v667q0 10 9 10h23q8 0 8 -11v-314h1l271 319q5 6 13 6h25q3 0 4.5 -1.5t1.5 -3.5t-2 -4zM294 -80q0 -61 -50 -109q-5 -4 -8 -1l-4 4q-3 4 1 8
q27 27 27 56q0 15 -12.5 32t-12.5 25q0 11 7.5 18t18.5 7q13 0 23 -11.5t10 -28.5z" />
    <glyph glyph-name="kcommaaccent" unicode="&#x137;" horiz-adv-x="389" 
d="M77 9v684q0 11 8 12l18 3q10 2 10 -8v-441l189 216q7 7 16 7h19q5 0 6 -3.5t-2 -6.5l-159 -182l185 -280q7 -10 -3 -10h-24q-11 0 -16 8l-167 255l-44 -49v-205q0 -9 -8 -9h-20q-8 0 -8 9zM241 -80q0 -61 -50 -109q-5 -4 -8 -1l-4 4q-3 4 1 8q27 27 27 56q0 15 -12.5 32
t-12.5 25q0 11 7.5 18t18.5 7q13 0 23 -11.5t10 -28.5z" />
    <glyph glyph-name="kgreenlandic" unicode="&#x138;" horiz-adv-x="426" 
d="M378 473l-188 -189l201 -274q7 -10 -3 -10h-24q-11 0 -16 8l-183 250l-52 -53v-196q0 -9 -8 -9h-20q-8 0 -8 9v464q0 9 8 9h20q8 0 8 -9v-228l224 230q7 7 15 7h24q4 0 4.5 -3t-2.5 -6z" />
    <glyph glyph-name="Lacute" unicode="&#x139;" horiz-adv-x="410" 
d="M388 27v-20q0 -7 -8 -7h-283q-10 0 -10 10v668q0 9 7 9h26q7 0 7 -9v-644h253q8 0 8 -7zM74 751l128 102q10 7 16 -1l15 -22q6 -9 -3 -14l-145 -86q-5 -4 -9 2l-5 8q-4 6 3 11z" />
    <glyph glyph-name="lacute" unicode="&#x13a;" horiz-adv-x="192" 
d="M78 9v684q0 11 8 12l18 3q10 2 10 -8v-691q0 -9 -8 -9h-20q-8 0 -8 9zM57 750l128 102q10 7 16 -1l15 -22q6 -9 -3 -14l-145 -86q-5 -4 -9 2l-5 8q-4 6 3 11z" />
    <glyph glyph-name="Lcommaaccent" unicode="&#x13b;" horiz-adv-x="410" 
d="M388 27v-20q0 -7 -8 -7h-283q-10 0 -10 10v668q0 9 7 9h26q7 0 7 -9v-644h253q8 0 8 -7zM272 -80q0 -61 -50 -109q-5 -4 -8 -1l-4 4q-3 4 1 8q27 27 27 56q0 15 -12.5 32t-12.5 25q0 11 7.5 18t18.5 7q13 0 23 -11.5t10 -28.5z" />
    <glyph glyph-name="lcommaaccent" unicode="&#x13c;" horiz-adv-x="192" 
d="M78 9v684q0 11 8 12l18 3q10 2 10 -8v-691q0 -9 -8 -9h-20q-8 0 -8 9zM125 -80q0 -61 -50 -109q-5 -4 -8 -1l-4 4q-3 4 1 8q27 27 27 56q0 15 -12.5 32t-12.5 25q0 11 7.5 18t18.5 7q13 0 23 -11.5t10 -28.5z" />
    <glyph glyph-name="Lcaron" unicode="&#x13d;" horiz-adv-x="410" 
d="M388 27v-20q0 -7 -8 -7h-283q-10 0 -10 10v668q0 9 7 9h26q7 0 7 -9v-644h253q8 0 8 -7zM356 654q0 -61 -50 -109q-5 -4 -8 -1l-4 4q-3 4 1 8q27 27 27 56q0 15 -12.5 32t-12.5 25q0 11 7.5 18t18.5 7q13 0 23 -11.5t10 -28.5z" />
    <glyph glyph-name="lcaron" unicode="&#x13e;" horiz-adv-x="192" 
d="M78 9v684q0 11 8 12l18 3q10 2 10 -8v-691q0 -9 -8 -9h-20q-8 0 -8 9zM227 671q0 -61 -50 -109q-5 -4 -8 -1l-4 4q-3 4 1 8q27 27 27 56q0 15 -12.5 32t-12.5 25q0 11 7.5 18t18.5 7q13 0 23 -11.5t10 -28.5z" />
    <glyph glyph-name="Ldot" unicode="&#x13f;" horiz-adv-x="410" 
d="M388 27v-20q0 -7 -8 -7h-283q-10 0 -10 10v668q0 9 7 9h26q7 0 7 -9v-644h253q8 0 8 -7zM348 385q0 -17 -11 -27.5t-25 -10.5q-15 0 -26.5 10.5t-11.5 27.5t11 26.5t27 9.5t26 -9.5t10 -26.5z" />
    <glyph glyph-name="ldot" unicode="&#x140;" horiz-adv-x="225" 
d="M78 9v684q0 11 8 12l18 3q10 2 10 -8v-691q0 -9 -8 -9h-20q-8 0 -8 9zM247 371q0 -17 -11 -27.5t-25 -10.5q-15 0 -26.5 10.5t-11.5 27.5t11 26.5t27 9.5t26 -9.5t10 -26.5z" />
    <glyph glyph-name="Lslash" unicode="&#x141;" horiz-adv-x="410" 
d="M127 34h253q8 0 8 -7v-21q0 -6 -7 -6h-286q-8 0 -8 10v359l-74 -45q-8 -5 -8 6v19q0 6 6 10l76 47v272q0 9 6 9h28q6 0 6 -9v-247l116 72q8 5 8 -3v-23q0 -6 -6 -9l-118 -74v-360z" />
    <glyph glyph-name="lslash" unicode="&#x142;" horiz-adv-x="227" 
d="M95 9v375l-84 -59q-11 -6 -11 5v13q0 9 10 15l85 60v275q0 11 8 12l18 3q10 2 10 -8v-256l83 59q13 10 13 -5v-9q0 -11 -9 -17l-87 -62v-401q0 -9 -8 -9h-20q-8 0 -8 9z" />
    <glyph glyph-name="Nacute" unicode="&#x143;" horiz-adv-x="648" 
d="M560 679v-671q0 -8 -8 -8h-17q-8 0 -13 8l-396 606h-1v-604q0 -10 -9 -10h-19q-9 0 -9 9v670q0 8 8 8h17q9 0 13 -7l395 -600h1v599q0 8 7 8h25q6 0 6 -8zM258 751l128 102q10 7 16 -1l15 -22q6 -9 -3 -14l-145 -86q-5 -4 -9 2l-5 8q-4 6 3 11z" />
    <glyph glyph-name="nacute" unicode="&#x144;" horiz-adv-x="509" 
d="M396 9v297q0 90 -32 124q-29 32 -88 32q-41 0 -85 -22t-78 -57v-374q0 -9 -8 -9h-20q-8 0 -8 9v464q0 9 6 9h23q7 0 7 -9v-54q76 73 172 73q70 0 105 -37q42 -43 42 -139v-307q0 -9 -8 -9h-20q-8 0 -8 9zM176 592l128 102q10 7 16 -1l15 -22q6 -9 -3 -14l-145 -86
q-5 -4 -9 2l-5 8q-4 6 3 11z" />
    <glyph glyph-name="Ncommaaccent" unicode="&#x145;" horiz-adv-x="648" 
d="M560 679v-671q0 -8 -8 -8h-17q-8 0 -13 8l-396 606h-1v-604q0 -10 -9 -10h-19q-9 0 -9 9v670q0 8 8 8h17q9 0 13 -7l395 -600h1v599q0 8 7 8h25q6 0 6 -8zM351 -80q0 -61 -50 -109q-5 -4 -8 -1l-4 4q-3 4 1 8q27 27 27 56q0 15 -12.5 32t-12.5 25q0 11 7.5 18t18.5 7
q13 0 23 -11.5t10 -28.5z" />
    <glyph glyph-name="ncommaaccent" unicode="&#x146;" horiz-adv-x="509" 
d="M396 9v297q0 90 -32 124q-29 32 -88 32q-41 0 -85 -22t-78 -57v-374q0 -9 -8 -9h-20q-8 0 -8 9v464q0 9 6 9h23q7 0 7 -9v-54q76 73 172 73q70 0 105 -37q42 -43 42 -139v-307q0 -9 -8 -9h-20q-8 0 -8 9zM291 -80q0 -61 -50 -109q-5 -4 -8 -1l-4 4q-3 4 1 8q27 27 27 56
q0 15 -12.5 32t-12.5 25q0 11 7.5 18t18.5 7q13 0 23 -11.5t10 -28.5z" />
    <glyph glyph-name="Ncaron" unicode="&#x147;" horiz-adv-x="648" 
d="M560 679v-671q0 -8 -8 -8h-17q-8 0 -13 8l-396 606h-1v-604q0 -10 -9 -10h-19q-9 0 -9 9v670q0 8 8 8h17q9 0 13 -7l395 -600h1v599q0 8 7 8h25q6 0 6 -8zM330 777l90 82q6 6 10 0l7 -7q4 -4 0 -10l-91 -103q-5 -6 -13 -6h-8q-7 0 -12 6l-91 102q-4 5 0 9l7 8q5 5 11 -1z
" />
    <glyph glyph-name="ncaron" unicode="&#x148;" horiz-adv-x="509" 
d="M396 9v297q0 90 -32 124q-29 32 -88 32q-41 0 -85 -22t-78 -57v-374q0 -9 -8 -9h-20q-8 0 -8 9v464q0 9 6 9h23q7 0 7 -9v-54q76 73 172 73q70 0 105 -37q42 -43 42 -139v-307q0 -9 -8 -9h-20q-8 0 -8 9zM263 613l90 82q6 6 10 0l7 -7q4 -4 0 -10l-91 -103q-5 -6 -13 -6
h-8q-8 0 -12 6l-91 102q-5 5 0 9l7 8q5 5 11 -1z" />
    <glyph glyph-name="napostrophe" unicode="&#x149;" horiz-adv-x="509" 
d="M396 9v297q0 90 -32 124q-29 32 -88 32q-41 0 -85 -22t-78 -57v-374q0 -9 -8 -9h-20q-8 0 -8 9v464q0 9 6 9h23q7 0 7 -9v-54q76 73 172 73q70 0 105 -37q42 -43 42 -139v-307q0 -9 -8 -9h-20q-8 0 -8 9zM50 671q0 -61 -50 -109q-5 -4 -8 -1l-4 4q-3 4 1 8q27 27 27 56
q0 15 -12.5 32t-12.5 25q0 11 7.5 18t18.5 7q13 0 23 -11.5t10 -28.5z" />
    <glyph glyph-name="Eng" unicode="&#x14a;" horiz-adv-x="648" 
d="M560 679v-670q0 -69 -8 -111t-33 -65q-34 -31 -102 -31q-13 0 -35 4q-9 1 -8 10l3 14q2 8 8 6q24 -4 35 -4q62 0 82 38q18 32 18 114v27l-394 603h-1v-604q0 -10 -9 -10h-19q-9 0 -9 9v670q0 8 8 8h19q5 0 11 -7l395 -600h1v599q0 8 7 8h25q6 0 6 -8z" />
    <glyph glyph-name="eng" unicode="&#x14b;" horiz-adv-x="509" 
d="M432 316v-261q0 -42 -2 -70.5t-10 -61.5t-23 -53t-42 -33.5t-66 -13.5q-20 0 -35 4q-8 3 -7 10l2 10q2 8 11 7q16 -3 31 -3q36 0 59 17.5t32 52t11.5 61t2.5 69.5v255q0 90 -32 124q-29 32 -88 32q-41 0 -85 -22t-78 -57v-373q0 -10 -8 -10h-21q-7 0 -7 9v464q0 9 6 9h23
q7 0 7 -9v-54q76 73 172 73q70 0 105 -37q42 -43 42 -139z" />
    <glyph glyph-name="Omacron" unicode="&#x14c;" horiz-adv-x="621" 
d="M570 348q0 -168 -75 -262.5t-190 -94.5q-119 0 -186.5 91.5t-67.5 258.5q0 164 74 260.5t190 96.5q120 0 187.5 -94t67.5 -256zM525 345q0 147 -54.5 232.5t-157.5 85.5q-98 0 -157.5 -90.5t-59.5 -228.5q0 -146 55 -232.5t157 -86.5q98 0 157.5 89t59.5 231zM423 786
v-11q0 -8 -2.5 -10t-8.5 -2h-200q-5 0 -7 0.5t-3.5 3t-1.5 8.5v11q0 7 2.5 9t9.5 2h202q9 0 9 -11z" />
    <glyph glyph-name="omacron" unicode="&#x14d;" horiz-adv-x="502" 
d="M454 241q0 -105 -53 -177.5t-154 -72.5q-70 0 -116.5 37t-64.5 91.5t-18 123.5q0 104 52.5 176.5t152.5 72.5q104 0 152.5 -71t48.5 -180zM415 240q0 57 -14 105t-52.5 83t-95.5 35q-58 0 -96.5 -33.5t-54 -80.5t-15.5 -105q0 -42 8 -79.5t25.5 -71.5t50 -54t77.5 -20
q58 0 97 33.5t54.5 81.5t15.5 106zM363 620v-8q0 -8 -2.5 -10t-8.5 -2h-200q-5 0 -7 0.5t-3.5 3t-1.5 8.5v8q0 7 2.5 9t9.5 2h202q9 0 9 -11z" />
    <glyph glyph-name="Obreve" unicode="&#x14e;" horiz-adv-x="621" 
d="M570 348q0 -168 -75 -262.5t-190 -94.5q-119 0 -186.5 91.5t-67.5 258.5q0 164 74 260.5t190 96.5q120 0 187.5 -94t67.5 -256zM525 345q0 147 -54.5 232.5t-157.5 85.5q-98 0 -157.5 -90.5t-59.5 -228.5q0 -146 55 -232.5t157 -86.5q98 0 157.5 89t59.5 231zM430 843
q-5 -47 -34.5 -77t-84.5 -30q-53 0 -85 30.5t-32 76.5q0 8 7 8h17q7 0 7 -8q2 -34 24.5 -56.5t62.5 -22.5q41 0 63 22t24 57q0 8 7 8h17q7 0 7 -8z" />
    <glyph glyph-name="obreve" unicode="&#x14f;" horiz-adv-x="502" 
d="M454 241q0 -105 -53 -177.5t-154 -72.5q-70 0 -116.5 37t-64.5 91.5t-18 123.5q0 104 52.5 176.5t152.5 72.5q104 0 152.5 -71t48.5 -180zM415 240q0 57 -14 105t-52.5 83t-95.5 35q-58 0 -96.5 -33.5t-54 -80.5t-15.5 -105q0 -42 8 -79.5t25.5 -71.5t50 -54t77.5 -20
q58 0 97 33.5t54.5 81.5t15.5 106zM370 670q-5 -47 -34.5 -77t-84.5 -30q-53 0 -85 30.5t-32 76.5q0 8 7 8h17q7 0 7 -8q2 -34 24.5 -56.5t62.5 -22.5q41 0 63 22t24 57q0 8 7 8h17q7 0 7 -8z" />
    <glyph glyph-name="Ohungarumlaut" unicode="&#x150;" horiz-adv-x="621" 
d="M570 348q0 -168 -75 -262.5t-190 -94.5q-119 0 -186.5 91.5t-67.5 258.5q0 164 74 260.5t190 96.5q120 0 187.5 -94t67.5 -256zM525 345q0 147 -54.5 232.5t-157.5 85.5q-98 0 -157.5 -90.5t-59.5 -228.5q0 -146 55 -232.5t157 -86.5q98 0 157.5 89t59.5 231zM356 854
l15 -22q6 -9 -3 -14l-143 -85q-7 -7 -11 1l-5 7q-3 5 2 10l129 104q9 9 16 -1zM556 854l15 -22q6 -9 -3 -14l-143 -85q-6 -7 -11 1l-5 7q-3 5 2 10l129 104q9 9 16 -1z" />
    <glyph glyph-name="ohungarumlaut" unicode="&#x151;" horiz-adv-x="502" 
d="M454 241q0 -105 -53 -177.5t-154 -72.5q-70 0 -116.5 37t-64.5 91.5t-18 123.5q0 104 52.5 176.5t152.5 72.5q104 0 152.5 -71t48.5 -180zM415 240q0 57 -14 105t-52.5 83t-95.5 35q-58 0 -96.5 -33.5t-54 -80.5t-15.5 -105q0 -42 8 -79.5t25.5 -71.5t50 -54t77.5 -20
q58 0 97 33.5t54.5 81.5t15.5 106zM254 693l15 -22q6 -9 -3 -14l-143 -85q-7 -6 -11 1l-5 7q-3 5 2 10l129 104q9 9 16 -1zM454 693l15 -22q6 -9 -3 -14l-143 -85q-6 -6 -11 1l-5 7q-3 5 2 10l129 104q10 7 16 -1z" />
    <glyph glyph-name="OE" unicode="&#x152;" horiz-adv-x="873" 
d="M823 28v-21q0 -7 -8 -7h-314q-11 0 -11 11v61q-38 -41 -89.5 -61t-101.5 -20q-118 0 -183 90.5t-65 259.5q0 165 74 261t191 96q113 0 174 -83v62q0 10 11 10h311q8 0 8 -7v-2l-1 -15q0 -8 -13 -8h-276v-275h243q8 0 8 -7v-18q0 -8 -9 -8h-242v-313h285q8 0 8 -6z
M490 116v450q-57 97 -176 97q-99 0 -158 -90t-59 -229q0 -144 54 -231t155 -87q52 0 101 23.5t83 66.5z" />
    <glyph glyph-name="oe" unicode="&#x153;" horiz-adv-x="834" 
d="M453 245q0 -97 42 -161t135 -64q61 0 114 21q11 4 13 -4l4 -13q2 -6 -6 -10q-55 -23 -130 -23q-148 0 -193 134q-50 -134 -186 -134q-53 0 -92.5 21t-62 57t-33 79.5t-10.5 94.5q0 104 52 176.5t152 72.5q138 0 183 -134q25 63 72.5 98.5t114.5 35.5q78 0 123 -57
t45 -147v-30q0 -13 -15 -13h-322zM415 240q0 42 -8.5 80t-27 71t-51 53t-76.5 20q-58 0 -97 -33.5t-54.5 -81.5t-15.5 -105q0 -58 13.5 -106t51.5 -84t97 -36q85 0 126.5 65.5t41.5 156.5zM454 272h301v20q0 73 -33 122t-102 49q-77 0 -118 -54.5t-48 -136.5z" />
    <glyph glyph-name="Racute" unicode="&#x154;" horiz-adv-x="494" 
d="M250 304h-123v-295q0 -9 -8 -9h-25q-7 0 -7 8v670q0 9 9 9h129q218 0 218 -190q0 -74 -42.5 -125t-111.5 -64l165 -297q6 -11 -7 -11h-23q-9 0 -14 8zM127 337h106q75 0 120.5 40.5t45.5 120.5q0 85 -48 120.5t-139 35.5h-85v-317zM176 751l128 102q10 7 16 -1l15 -22
q6 -9 -3 -14l-145 -86q-5 -4 -9 2l-5 8q-4 6 3 11z" />
    <glyph glyph-name="racute" unicode="&#x155;" horiz-adv-x="274" 
d="M113 414q20 40 53.5 59t69.5 19q10 0 16 -1q7 -1 6 -8l-2 -15q-1 -6 -9 -6q-1 0 -6.5 0.5t-12.5 0.5q-69 0 -115 -89v-365q0 -9 -8 -9h-20q-8 0 -8 9v464q0 9 8 9h19q9 0 9 -9v-59zM99 592l128 102q10 7 16 -1l15 -22q6 -9 -3 -14l-145 -86q-5 -4 -9 2l-5 8q-4 6 3 11z
" />
    <glyph glyph-name="Rcommaaccent" unicode="&#x156;" horiz-adv-x="494" 
d="M250 304h-123v-295q0 -9 -8 -9h-25q-7 0 -7 8v670q0 9 9 9h129q218 0 218 -190q0 -74 -42.5 -125t-111.5 -64l165 -297q6 -11 -7 -11h-23q-9 0 -14 8zM127 337h106q75 0 120.5 40.5t45.5 120.5q0 85 -48 120.5t-139 35.5h-85v-317zM295 -80q0 -61 -50 -109q-5 -4 -8 -1
l-4 4q-3 4 1 8q27 27 27 56q0 15 -12.5 32t-12.5 25q0 11 7.5 18t18.5 7q13 0 23 -11.5t10 -28.5z" />
    <glyph glyph-name="rcommaaccent" unicode="&#x157;" horiz-adv-x="274" 
d="M113 414q20 40 53.5 59t69.5 19q10 0 16 -1q7 -1 6 -8l-2 -15q-1 -6 -9 -6q-1 0 -6.5 0.5t-12.5 0.5q-69 0 -115 -89v-365q0 -9 -8 -9h-20q-8 0 -8 9v464q0 9 8 9h19q9 0 9 -9v-59zM126 -80q0 -61 -50 -109q-5 -4 -8 -1l-4 4q-3 4 1 8q27 27 27 56q0 15 -12.5 32
t-12.5 25q0 11 7.5 18t18.5 7q13 0 23 -11.5t10 -28.5z" />
    <glyph glyph-name="Rcaron" unicode="&#x158;" horiz-adv-x="494" 
d="M250 304h-123v-295q0 -9 -8 -9h-25q-7 0 -7 8v670q0 9 9 9h129q218 0 218 -190q0 -74 -42.5 -125t-111.5 -64l165 -297q6 -11 -7 -11h-23q-9 0 -14 8zM127 337h106q75 0 120.5 40.5t45.5 120.5q0 85 -48 120.5t-139 35.5h-85v-317zM254 777l90 82q6 6 10 0l7 -7
q4 -4 0 -10l-91 -103q-5 -6 -13 -6h-8q-7 0 -12 6l-91 102q-4 5 0 9l7 8q5 5 11 -1z" />
    <glyph glyph-name="rcaron" unicode="&#x159;" horiz-adv-x="274" 
d="M113 414q20 40 53.5 59t69.5 19q10 0 16 -1q7 -1 6 -8l-2 -15q-1 -6 -9 -6q-1 0 -6.5 0.5t-12.5 0.5q-69 0 -115 -89v-365q0 -9 -8 -9h-20q-8 0 -8 9v464q0 9 8 9h19q9 0 9 -9v-59zM158 613l90 82q6 6 10 0l7 -7q4 -4 0 -10l-91 -103q-5 -6 -13 -6h-8q-7 0 -12 6l-91 102
q-4 5 0 9l7 8q5 5 11 -1z" />
    <glyph glyph-name="Sacute" unicode="&#x15a;" horiz-adv-x="458" 
d="M416 171q0 -87 -58 -133.5t-148 -46.5q-76 0 -142 24q-10 3 -7 14l6 17q3 10 14 5q64 -25 131 -25q66 0 115 35t49 106q0 87 -102 147l-121 72q-97 58 -97 151q0 75 54.5 118t136.5 43q70 0 128 -27q8 -4 5 -12l-6 -14q-4 -7 -13 -4q-60 24 -115 24q-62 0 -105 -30.5
t-43 -87.5q0 -47 23 -77.5t65 -55.5l102 -62q65 -40 96.5 -79.5t31.5 -101.5zM176 751l128 102q10 7 16 -1l15 -22q6 -9 -3 -14l-145 -86q-5 -4 -9 2l-5 8q-4 6 3 11z" />
    <glyph glyph-name="sacute" unicode="&#x15b;" horiz-adv-x="363" 
d="M324 127q0 -60 -43.5 -98t-117.5 -38q-66 0 -114 28q-7 4 -4 10l6 14q3 6 9 3q56 -27 105 -27q55 0 90 27.5t35 75.5q0 41 -24 65t-69 44l-59 26q-92 40 -92 116q0 54 40 86.5t103 32.5q56 0 104 -22q8 -4 5 -12l-4 -11q-3 -9 -12 -4q-48 21 -92 21q-48 0 -78.5 -23
t-30.5 -61q0 -37 20.5 -59t59.5 -39l61 -27q102 -45 102 -128zM114 592l128 102q10 7 16 -1l15 -22q6 -9 -3 -14l-145 -86q-5 -4 -9 2l-5 8q-4 6 3 11z" />
    <glyph glyph-name="Scircumflex" unicode="&#x15c;" horiz-adv-x="458" 
d="M416 171q0 -87 -58 -133.5t-148 -46.5q-76 0 -142 24q-10 3 -7 14l6 17q3 10 14 5q64 -25 131 -25q66 0 115 35t49 106q0 87 -102 147l-121 72q-97 58 -97 151q0 75 54.5 118t136.5 43q70 0 128 -27q8 -4 5 -12l-6 -14q-4 -7 -13 -4q-60 24 -115 24q-62 0 -105 -30.5
t-43 -87.5q0 -47 23 -77.5t65 -55.5l102 -62q65 -40 96.5 -79.5t31.5 -101.5zM230 810l-95 -83q-3 -3 -7 0l-6 7q-4 4 0 9l94 108q6 6 11 6h5q8 0 12 -6l89 -105q5 -5 2 -10l-5 -6q-4 -5 -9 0z" />
    <glyph glyph-name="scircumflex" unicode="&#x15d;" horiz-adv-x="363" 
d="M324 127q0 -60 -43.5 -98t-117.5 -38q-66 0 -114 28q-7 4 -4 10l6 14q3 6 9 3q56 -27 105 -27q55 0 90 27.5t35 75.5q0 41 -24 65t-69 44l-59 26q-92 40 -92 116q0 54 40 86.5t103 32.5q56 0 104 -22q8 -4 5 -12l-4 -11q-3 -9 -12 -4q-48 21 -92 21q-48 0 -78.5 -23
t-30.5 -61q0 -37 20.5 -59t59.5 -39l61 -27q102 -45 102 -128zM183 651l-95 -83q-4 -4 -7 0l-6 7q-5 5 0 9l94 108q6 6 11 6h5q7 0 12 -6l89 -105q5 -5 2 -10l-5 -6q-4 -5 -9 0z" />
    <glyph glyph-name="Scedilla" unicode="&#x15e;" horiz-adv-x="458" 
d="M416 171q0 -84 -54.5 -130.5t-139.5 -49.5l-2 -44h15q84 0 84 -63q0 -34 -21.5 -56t-68.5 -22q-26 0 -47 7q-8 2 -6 9l4 12q2 7 9 4q17 -6 40 -6q56 0 56 49q0 27 -18.5 35t-52.5 8h-14q-8 0 -11 3t-2 11l6 53q-65 3 -123 23q-13 6 -9 16l6 16q4 9 14 5q64 -25 131 -25
q66 0 115 35t49 106q0 87 -102 147l-121 72q-97 58 -97 151q0 75 54.5 118t136.5 43q69 0 128 -26q8 -4 5 -12l-5 -16q-2 -6 -12 -3q-60 24 -117 24q-62 0 -105 -30.5t-43 -87.5q0 -47 23 -77.5t65 -55.5l102 -62q65 -40 96.5 -79.5t31.5 -101.5z" />
    <glyph glyph-name="scedilla" unicode="&#x15f;" horiz-adv-x="363" 
d="M278 -116q0 -34 -21.5 -56t-68.5 -22q-26 0 -47 7q-8 2 -6 9l4 12q2 7 9 4q17 -6 40 -6q56 0 56 49q0 27 -18.5 35t-52.5 8h-14q-8 0 -11 3t-2 11l6 53q-61 3 -103 28q-7 4 -4 10l6 14q3 6 9 3q56 -27 105 -27q55 0 90 27.5t35 75.5q0 41 -24 65t-69 44l-59 26
q-92 40 -92 116q0 54 40 86.5t103 32.5q56 0 104 -22q8 -4 5 -12l-4 -11q-3 -9 -12 -4q-48 21 -92 21q-48 0 -78.5 -23t-30.5 -61q0 -37 20.5 -59t59.5 -39l61 -27q102 -45 102 -128q0 -56 -38.5 -93.5t-104.5 -41.5l-2 -45h15q84 0 84 -63z" />
    <glyph glyph-name="Scaron" unicode="&#x160;" horiz-adv-x="458" 
d="M416 171q0 -87 -58 -133.5t-148 -46.5q-76 0 -142 24q-10 3 -7 14l6 17q3 10 14 5q64 -25 131 -25q66 0 115 35t49 106q0 87 -102 147l-121 72q-97 58 -97 151q0 75 54.5 118t136.5 43q70 0 128 -27q8 -4 5 -12l-6 -14q-4 -7 -13 -4q-60 24 -115 24q-62 0 -105 -30.5
t-43 -87.5q0 -47 23 -77.5t65 -55.5l102 -62q65 -40 96.5 -79.5t31.5 -101.5zM228 777l90 82q6 6 10 0l7 -7q4 -4 0 -10l-91 -103q-5 -6 -13 -6h-8q-7 0 -12 6l-91 102q-4 5 0 9l7 8q5 5 11 -1z" />
    <glyph glyph-name="scaron" unicode="&#x161;" horiz-adv-x="363" 
d="M324 127q0 -60 -43.5 -98t-117.5 -38q-66 0 -114 28q-7 4 -4 10l6 14q3 6 9 3q56 -27 105 -27q55 0 90 27.5t35 75.5q0 41 -24 65t-69 44l-59 26q-92 40 -92 116q0 54 40 86.5t103 32.5q56 0 104 -22q8 -4 5 -12l-4 -11q-3 -9 -12 -4q-48 21 -92 21q-48 0 -78.5 -23
t-30.5 -61q0 -37 20.5 -59t59.5 -39l61 -27q102 -45 102 -128zM182 613l90 82q6 6 10 0l7 -7q4 -4 0 -10l-91 -103q-5 -6 -13 -6h-8q-7 0 -12 6l-91 102q-4 5 0 9l7 8q5 5 11 -1z" />
    <glyph glyph-name="Tcommaaccent" unicode="&#x162;" horiz-adv-x="514" 
d="M272 654v-646q0 -8 -8 -8h-23q-9 0 -9 8v646h-198q-7 0 -7 7v20q0 6 7 6h442q5 0 7.5 -2t1.5 -6l-2 -17q-1 -8 -11 -8h-200zM281 -80q0 -61 -50 -109q-5 -4 -8 -1l-4 4q-3 4 1 8q27 27 27 56q0 15 -12.5 32t-12.5 25q0 11 7.5 18t18.5 7q13 0 23 -11.5t10 -28.5z" />
    <glyph glyph-name="tcommaaccent" unicode="&#x163;" horiz-adv-x="311" 
d="M96 482v124q0 11 8 12l18 3q10 2 10 -8v-131h122q7 0 7 -6v-13q0 -8 -7 -8h-122v-314q0 -78 21 -100q22 -23 68 -23q25 0 56 9q8 3 9 -4l3 -11q1 -6 -5 -9q-29 -12 -71 -12q-62 0 -90 33q-27 32 -27 116v315h-61q-8 0 -8 7v14q0 6 7 6h62zM226 -80q0 -61 -50 -109
q-5 -4 -8 -1l-4 4q-3 4 1 8q27 27 27 56q0 15 -12.5 32t-12.5 25q0 11 7.5 18t18.5 7q13 0 23 -11.5t10 -28.5z" />
    <glyph glyph-name="Tcaron" unicode="&#x164;" horiz-adv-x="514" 
d="M272 654v-646q0 -8 -8 -8h-23q-9 0 -9 8v646h-198q-7 0 -7 7v20q0 6 7 6h442q5 0 7.5 -2t1.5 -6l-2 -17q-1 -8 -11 -8h-200zM251 777l90 82q6 6 10 0l7 -7q4 -4 0 -10l-91 -103q-5 -6 -13 -6h-8q-8 0 -12 6l-91 102q-5 5 0 9l7 8q5 5 11 -1z" />
    <glyph glyph-name="tcaron" unicode="&#x165;" horiz-adv-x="311" 
d="M96 482v124q0 11 8 12l18 3q10 2 10 -8v-131h122q7 0 7 -6v-13q0 -8 -7 -8h-122v-314q0 -78 21 -100q22 -23 68 -23q25 0 56 9q8 3 9 -4l3 -11q1 -6 -5 -9q-29 -12 -71 -12q-62 0 -90 33q-27 32 -27 116v315h-61q-8 0 -8 7v14q0 6 7 6h62zM276 648q0 -61 -50 -109
q-5 -4 -8 -1l-4 4q-3 4 1 8q27 27 27 56q0 15 -12.5 32t-12.5 25q0 11 7.5 18t18.5 7q13 0 23 -11.5t10 -28.5z" />
    <glyph glyph-name="Tbar" unicode="&#x166;" horiz-adv-x="514" 
d="M470 654h-198v-275h93q12 0 12 -12v-9q0 -13 -11 -13h-94v-337q0 -8 -8 -8h-23q-9 0 -9 8v337h-91q-11 0 -11 10v16q0 8 10 8h92v275h-198q-7 0 -7 7v20q0 6 7 6h443q5 0 7 -1.5t1 -5.5l-2 -19q-1 -7 -13 -7z" />
    <glyph glyph-name="tbar" unicode="&#x167;" horiz-adv-x="311" 
d="M35 263h61v192h-61q-8 0 -8 7v14q0 6 7 6h62v124q0 11 8 12l18 3q10 2 10 -8v-131h122q7 0 7 -6v-13q0 -8 -7 -8h-122v-192h109q7 0 7 -6v-13q0 -8 -7 -8h-109v-95q0 -78 21 -100q22 -23 68 -23q25 0 56 9q8 3 9 -4l3 -11q1 -6 -5 -9q-29 -12 -71 -12q-62 0 -90 33
q-27 32 -27 116v96h-60q-8 0 -8 7v14q0 6 7 6z" />
    <glyph glyph-name="Utilde" unicode="&#x168;" horiz-adv-x="660" 
d="M575 678v-383q0 -304 -244 -304q-62 0 -106.5 15.5t-71 41.5t-41.5 68t-20 85.5t-5 103.5v371q0 11 10 11h20q10 0 10 -11v-363q0 -51 3 -87.5t15 -77t33 -65t59.5 -41t92.5 -16.5t92.5 17t60 42t33.5 65.5t15.5 77t3.5 86.5v364q0 9 8 9h24q8 0 8 -9zM336 762l-20 15
q-26 18 -46 18q-39 0 -59 -36q-3 -7 -9 -5l-10 5q-5 2 -3 8q18 56 82 56q33 0 60 -20l21 -15q23 -17 46 -17q21 0 32.5 8.5t24.5 28.5q4 7 9 5l11 -5q5 -2 3 -7q-9 -28 -31 -43.5t-48 -15.5q-35 0 -63 20z" />
    <glyph glyph-name="utilde" unicode="&#x169;" horiz-adv-x="500" 
d="M423 474v-465q0 -9 -8 -9h-19q-9 0 -9 10v53q-74 -72 -163 -72q-69 0 -104 37q-43 44 -43 139v307q0 8 8 8h20q8 0 8 -8v-297q0 -90 32 -124q29 -32 88 -32q84 0 154 78v375q0 8 8 8h20q8 0 8 -8zM254 604l-20 15q-26 18 -46 18q-39 0 -59 -36q-3 -7 -9 -5l-10 5
q-5 2 -3 8q18 56 82 56q33 0 60 -20l21 -15q23 -17 46 -17q21 0 32.5 8.5t24.5 28.5q4 7 9 5l11 -5q5 -2 3 -7q-9 -28 -31 -43.5t-48 -15.5q-35 0 -63 20z" />
    <glyph glyph-name="Umacron" unicode="&#x16a;" horiz-adv-x="660" 
d="M575 678v-383q0 -304 -244 -304q-62 0 -106.5 15.5t-71 41.5t-41.5 68t-20 85.5t-5 103.5v371q0 11 10 11h20q10 0 10 -11v-363q0 -51 3 -87.5t15 -77t33 -65t59.5 -41t92.5 -16.5t92.5 17t60 42t33.5 65.5t15.5 77t3.5 86.5v364q0 9 8 9h24q8 0 8 -9zM445 786v-11
q0 -8 -2.5 -10t-8.5 -2h-200q-5 0 -7 0.5t-3.5 3t-1.5 8.5v11q0 7 2.5 9t9.5 2h202q9 0 9 -11z" />
    <glyph glyph-name="umacron" unicode="&#x16b;" horiz-adv-x="500" 
d="M423 474v-465q0 -9 -8 -9h-19q-9 0 -9 10v53q-74 -72 -163 -72q-69 0 -104 37q-43 44 -43 139v307q0 8 8 8h20q8 0 8 -8v-297q0 -90 32 -124q29 -32 88 -32q84 0 154 78v375q0 8 8 8h20q8 0 8 -8zM364 620v-8q0 -8 -2.5 -10t-8.5 -2h-200q-5 0 -7 0.5t-3.5 3t-1.5 8.5v8
q0 7 2.5 9t9.5 2h202q9 0 9 -11z" />
    <glyph glyph-name="Ubreve" unicode="&#x16c;" horiz-adv-x="660" 
d="M575 678v-383q0 -304 -244 -304q-62 0 -106.5 15.5t-71 41.5t-41.5 68t-20 85.5t-5 103.5v371q0 11 10 11h20q10 0 10 -11v-363q0 -51 3 -87.5t15 -77t33 -65t59.5 -41t92.5 -16.5t92.5 17t60 42t33.5 65.5t15.5 77t3.5 86.5v364q0 9 8 9h24q8 0 8 -9zM450 843
q-5 -47 -34.5 -77t-84.5 -30q-53 0 -85 30.5t-32 76.5q0 8 7 8h17q7 0 7 -8q2 -34 24.5 -56.5t62.5 -22.5q41 0 63 22t24 57q0 8 7 8h17q7 0 7 -8z" />
    <glyph glyph-name="ubreve" unicode="&#x16d;" horiz-adv-x="500" 
d="M423 474v-465q0 -9 -8 -9h-19q-9 0 -9 10v53q-74 -72 -163 -72q-69 0 -104 37q-43 44 -43 139v307q0 8 8 8h20q8 0 8 -8v-297q0 -90 32 -124q29 -32 88 -32q84 0 154 78v375q0 8 8 8h20q8 0 8 -8zM371 669q-5 -47 -34.5 -77t-84.5 -30q-53 0 -85 30.5t-32 76.5q0 8 7 8
h17q7 0 7 -8q2 -34 24.5 -56.5t62.5 -22.5q41 0 63 22t24 57q0 8 7 8h17q7 0 7 -8z" />
    <glyph glyph-name="Uring" unicode="&#x16e;" horiz-adv-x="660" 
d="M575 678v-383q0 -304 -244 -304q-62 0 -106.5 15.5t-71 41.5t-41.5 68t-20 85.5t-5 103.5v371q0 11 10 11h20q10 0 10 -11v-363q0 -51 3 -87.5t15 -77t33 -65t59.5 -41t92.5 -16.5t92.5 17t60 42t33.5 65.5t15.5 77t3.5 86.5v364q0 9 8 9h24q8 0 8 -9zM417 825
q0 -35 -24.5 -59.5t-59.5 -24.5t-60 25t-25 59t25 59t60 25t59.5 -24.5t24.5 -59.5zM387 827q0 21 -15 36.5t-37 15.5q-23 0 -39.5 -15.5t-16.5 -36.5q0 -23 16.5 -39t39.5 -16q22 0 37 16t15 39z" />
    <glyph glyph-name="uring" unicode="&#x16f;" horiz-adv-x="500" 
d="M423 474v-465q0 -9 -8 -9h-19q-9 0 -9 10v53q-74 -72 -163 -72q-69 0 -104 37q-43 44 -43 139v307q0 8 8 8h20q8 0 8 -8v-297q0 -90 32 -124q29 -32 88 -32q84 0 154 78v375q0 8 8 8h20q8 0 8 -8zM338 621q0 -35 -24.5 -59.5t-59.5 -24.5t-60 25t-25 59t25 59t60 25
t59.5 -24.5t24.5 -59.5zM308 623q0 21 -15 36.5t-37 15.5q-23 0 -39.5 -15.5t-16.5 -36.5q0 -23 16.5 -39t39.5 -16q22 0 37 16t15 39z" />
    <glyph glyph-name="Uhungarumlaut" unicode="&#x170;" horiz-adv-x="660" 
d="M575 678v-383q0 -304 -244 -304q-62 0 -106.5 15.5t-71 41.5t-41.5 68t-20 85.5t-5 103.5v371q0 11 10 11h20q10 0 10 -11v-363q0 -51 3 -87.5t15 -77t33 -65t59.5 -41t92.5 -16.5t92.5 17t60 42t33.5 65.5t15.5 77t3.5 86.5v364q0 9 8 9h24q8 0 8 -9zM359 854l15 -22
q6 -9 -3 -14l-143 -85q-6 -7 -11 1l-5 7q-3 5 2 10l129 104q9 9 16 -1zM559 854l15 -22q6 -9 -3 -14l-143 -85q-6 -7 -11 1l-5 7q-3 5 2 10l129 104q9 9 16 -1z" />
    <glyph glyph-name="uhungarumlaut" unicode="&#x171;" horiz-adv-x="500" 
d="M423 474v-465q0 -9 -8 -9h-19q-9 0 -9 10v53q-74 -72 -163 -72q-69 0 -104 37q-43 44 -43 139v307q0 8 8 8h20q8 0 8 -8v-297q0 -90 32 -124q29 -32 88 -32q84 0 154 78v375q0 8 8 8h20q8 0 8 -8zM245 693l15 -22q6 -9 -3 -14l-143 -85q-6 -6 -11 1l-5 7q-3 5 2 10
l129 104q9 9 16 -1zM445 693l15 -22q6 -9 -3 -14l-143 -85q-6 -6 -11 1l-5 7q-3 5 2 10l129 104q10 7 16 -1z" />
    <glyph glyph-name="Uogonek" unicode="&#x172;" horiz-adv-x="660" 
d="M575 678v-383q0 -216 -123 -279q-51 -26 -78 -55.5t-27 -75.5q0 -59 65 -59q23 0 47 7q9 3 10 -4l2 -8q1 -6 -5 -9q-26 -11 -65 -11q-42 0 -64.5 22.5t-22.5 55.5q0 73 67 116q-20 -4 -48 -4q-62 0 -107 15.5t-71.5 41.5t-42 68t-20.5 85.5t-5 103.5v371q0 11 9 11h22
q9 0 9 -13v-361q0 -51 3.5 -87.5t15.5 -77t33.5 -65t60 -41t92.5 -16.5t92 17t59.5 42t33.5 66t15 77t3 86v365q0 8 6 8h28q6 0 6 -9z" />
    <glyph glyph-name="uogonek" unicode="&#x173;" horiz-adv-x="500" 
d="M423 474v-461q0 -11 -11 -19q-64 -52 -64 -109q0 -59 65 -59q23 0 47 7q9 3 10 -4l2 -8q1 -6 -5 -9q-26 -11 -65 -11q-42 0 -64.5 22.5t-22.5 55.5q0 74 72 118v66q-74 -72 -163 -72q-69 0 -104 37q-43 44 -43 139v307q0 8 8 8h20q8 0 8 -8v-297q0 -90 32 -124
q29 -32 88 -32q84 0 154 78v375q0 8 8 8h20q8 0 8 -8z" />
    <glyph glyph-name="Wcircumflex" unicode="&#x174;" horiz-adv-x="830" 
d="M800 676l-179 -667q-3 -9 -12 -9h-30q-8 0 -11 9l-147 613h-2l-152 -613q-1 -9 -12 -9h-29q-8 0 -11 9l-174 667q-4 11 8 11h20q9 0 12 -9l162 -632h1l157 632q3 9 13 9h15q9 0 12 -8l157 -633h1l165 631q3 10 12 10h15q12 0 9 -11zM422 810l-95 -83q-3 -3 -7 0l-6 7
q-4 4 0 9l94 108q6 6 11 6h5q8 0 12 -6l89 -105q5 -5 2 -10l-5 -6q-4 -5 -9 0z" />
    <glyph glyph-name="wcircumflex" unicode="&#x175;" horiz-adv-x="648" 
d="M596 482h15q9 0 5 -12l-135 -463q-2 -7 -9 -7h-21q-8 0 -9 7l-121 424l-121 -425q-2 -6 -8 -6h-21q-7 0 -9 6l-133 466q-3 10 9 10h15q9 0 11 -9l119 -430l122 432q2 7 10 7h15q7 0 10 -8l123 -430l120 429q3 9 13 9zM325 651l-95 -83q-4 -4 -7 0l-6 7q-5 5 0 9l94 108
q6 6 11 6h5q7 0 12 -6l89 -105q5 -5 2 -10l-5 -6q-4 -5 -9 0z" />
    <glyph glyph-name="Ycircumflex" unicode="&#x176;" horiz-adv-x="500" 
d="M442 687h16q13 0 8 -12l-189 -409v-255q0 -11 -12 -11h-16q-12 0 -12 11v253l-200 412q-3 4 -0.5 7.5t9.5 3.5h20q10 0 14 -9l178 -374h1l169 374q4 9 14 9zM260 810l-95 -83q-3 -3 -7 0l-6 7q-4 4 0 9l94 108q6 6 11 6h5q8 0 12 -6l89 -105q5 -5 2 -10l-5 -6q-4 -5 -9 0
z" />
    <glyph glyph-name="ycircumflex" unicode="&#x177;" horiz-adv-x="434" 
d="M226 34h1l146 439q4 9 12 9h17q12 0 7 -12l-183 -529q-31 -91 -68 -126t-105 -35q-19 0 -32 4q-8 3 -7 11l3 12q2 8 10 7l12 -2q12 -1 20 -1q83 0 117 90l32 84l-171 487q-3 10 7 10h19q9 0 12 -8zM228 651l-95 -83q-3 -4 -7 0l-6 7q-4 5 0 9l94 108q6 6 11 6h5
q8 0 12 -6l89 -105q5 -5 2 -10l-5 -6q-4 -5 -9 0z" />
    <glyph glyph-name="Ydieresis" unicode="&#x178;" horiz-adv-x="500" 
d="M442 687h16q13 0 8 -12l-189 -409v-255q0 -11 -12 -11h-16q-12 0 -12 11v253l-200 412q-3 4 -0.5 7.5t9.5 3.5h20q10 0 14 -9l178 -374h1l169 374q4 9 14 9zM154 778q0 12 8 20.5t19 8.5q12 0 20.5 -8t8.5 -21q0 -11 -8.5 -19t-20.5 -8q-11 0 -19 8t-8 19zM307 778
q0 12 8 20.5t19 8.5q12 0 20.5 -8t8.5 -21q0 -11 -8.5 -19t-20.5 -8q-11 0 -19 8t-8 19z" />
    <glyph glyph-name="Zacute" unicode="&#x179;" horiz-adv-x="497" 
d="M411 654h-333q-9 0 -9 8v18q0 7 8 7h372q9 0 9 -9v-9q0 -9 -7 -21l-373 -614h370q10 0 10 -10v-15q0 -9 -9 -9h-406q-10 0 -10 8v12q0 10 6 20zM189 751l128 102q10 7 16 -1l15 -22q6 -9 -3 -14l-145 -86q-5 -4 -9 2l-5 8q-4 6 3 11z" />
    <glyph glyph-name="zacute" unicode="&#x17a;" horiz-adv-x="370" 
d="M338 20v-14q0 -6 -8 -6h-284q-8 0 -8 7v12q0 8 7 20l251 416h-230q-8 0 -8 8v13q0 6 8 6h263q6 0 6 -5v-10q0 -10 -6 -19l-255 -421h257q7 0 7 -7zM123 592l128 102q10 7 16 -1l15 -22q6 -9 -3 -14l-145 -86q-5 -4 -9 2l-5 8q-4 6 3 11z" />
    <glyph glyph-name="Zdotaccent" unicode="&#x17b;" horiz-adv-x="497" 
d="M411 654h-333q-9 0 -9 8v18q0 7 8 7h372q9 0 9 -9v-9q0 -9 -7 -21l-373 -614h370q10 0 10 -10v-15q0 -9 -9 -9h-406q-10 0 -10 8v12q0 10 6 20zM294 801q0 -17 -11 -27.5t-25 -10.5q-15 0 -26.5 10.5t-11.5 27.5t11 26.5t27 9.5t26 -9.5t10 -26.5z" />
    <glyph glyph-name="zdotaccent" unicode="&#x17c;" horiz-adv-x="370" 
d="M338 20v-14q0 -6 -8 -6h-284q-8 0 -8 7v12q0 8 7 20l251 416h-230q-8 0 -8 8v13q0 6 8 6h263q6 0 6 -5v-10q0 -10 -6 -19l-255 -421h257q7 0 7 -7zM238 634q0 -17 -11 -27.5t-25 -10.5q-15 0 -26.5 10.5t-11.5 27.5t11 26.5t27 9.5t26 -9.5t10 -26.5z" />
    <glyph glyph-name="Zcaron" unicode="&#x17d;" horiz-adv-x="497" 
d="M411 654h-333q-9 0 -9 8v18q0 7 8 7h372q9 0 9 -9v-9q0 -9 -7 -21l-373 -614h370q10 0 10 -10v-15q0 -9 -9 -9h-406q-10 0 -10 8v12q0 10 6 20zM257 777l90 82q6 6 10 0l7 -7q4 -4 0 -10l-91 -103q-5 -6 -13 -6h-8q-8 0 -12 6l-91 102q-5 5 0 9l7 8q5 5 11 -1z" />
    <glyph glyph-name="zcaron" unicode="&#x17e;" horiz-adv-x="370" 
d="M338 20v-14q0 -6 -8 -6h-284q-8 0 -8 7v12q0 8 7 20l251 416h-230q-8 0 -8 8v13q0 6 8 6h263q6 0 6 -5v-10q0 -10 -6 -19l-255 -421h257q7 0 7 -7zM202 613l90 82q6 6 10 0l7 -7q4 -4 0 -10l-91 -103q-5 -6 -13 -6h-8q-7 0 -12 6l-91 102q-4 5 0 9l7 8q5 5 11 -1z" />
    <glyph glyph-name="longs" unicode="&#x17f;" horiz-adv-x="258" 
d="M97 455h-61q-8 0 -8 7v12q0 8 9 8h60v20q0 48 2 80q6 65 41 100t94 35q44 0 71 -11q7 -2 6 -9l-3 -11q-2 -7 -10 -5q-29 9 -60 9q-60 0 -82.5 -38t-22.5 -116v-527q0 -9 -9 -9h-18q-9 0 -9 9v446z" />
    <glyph glyph-name="florin" unicode="&#x192;" 
d="M296 372h130q4 0 6.5 -1.5t1.5 -5.5l-2 -10q-1 -7 -9 -7h-131l-60 -338q-18 -101 -60.5 -144t-110.5 -43q-40 0 -68 10q-7 3 -5 10l4 12q2 7 11 4q27 -9 59 -9q110 0 136 154l60 344h-108q-4 0 -6.5 1.5t-1.5 5.5l2 10q1 7 9 7h109l24 139q15 88 52 137.5t118 49.5
q40 0 68 -10q7 -3 5 -10l-4 -12q-2 -7 -11 -4q-27 9 -59 9q-43 0 -72 -24.5t-41 -55t-20 -75.5z" />
    <glyph glyph-name="Acaron" unicode="&#x1cd;" horiz-adv-x="556" 
d="M282 777l90 82q6 6 10 0l7 -7q4 -4 0 -10l-91 -103q-5 -6 -13 -6h-8q-7 0 -12 6l-91 102q-4 5 0 9l7 8q5 5 11 -1zM21 13l240 665q3 9 10 9h21q7 0 10 -8l235 -668q3 -11 -8 -11h-26q-10 0 -13 8l-74 223h-277l-79 -225q-2 -6 -9 -6h-24q-10 0 -6 13zM150 263h256
l-126 365z" />
    <glyph glyph-name="acaron" unicode="&#x1ce;" horiz-adv-x="503" 
d="M389 93q-17 -41 -56 -71.5t-102 -30.5q-87 0 -135 68.5t-48 173.5q0 121 56 190t138 69q44 0 84.5 -20.5t62.5 -62.5v64q0 9 10 9h16q10 0 10 -9v-400q0 -49 30 -49h5q8 0 8 -7v-10q0 -7 -8 -7h-18q-53 0 -53 69v24zM389 152v210q-45 101 -144 101q-72 0 -115 -61
t-43 -165q0 -101 40.5 -159.5t105.5 -58.5q117 0 156 133zM251 613l90 82q6 6 10 0l7 -7q4 -4 0 -10l-91 -103q-5 -6 -13 -6h-8q-8 0 -12 6l-91 102q-5 5 0 9l7 8q5 5 11 -1z" />
    <glyph glyph-name="Aringacute" unicode="&#x1fa;" horiz-adv-x="556" 
d="M21 13l240 665q3 9 10 9h21q7 0 10 -8l235 -668q3 -11 -8 -11h-26q-10 0 -13 8l-74 223h-277l-79 -225q-2 -6 -9 -6h-24q-10 0 -6 13zM150 263h256l-126 365zM367 792q0 -35 -24.5 -59.5t-59.5 -24.5t-60 25t-25 59t25 59t60 25t59.5 -24.5t24.5 -59.5zM337 794
q0 21 -15 36.5t-37 15.5q-23 0 -39.5 -15.5t-16.5 -36.5q0 -23 16.5 -39t39.5 -16q22 0 37 16t15 39zM203 890l128 102q10 7 16 -1l15 -22q6 -9 -3 -14l-145 -86q-5 -4 -9 2l-5 8q-4 6 3 11z" />
    <glyph glyph-name="aringacute" unicode="&#x1fb;" horiz-adv-x="503" 
d="M389 93q-17 -41 -56 -71.5t-102 -30.5q-87 0 -135 68.5t-48 173.5q0 121 56 190t138 69q44 0 84.5 -20.5t62.5 -62.5v64q0 9 10 9h16q10 0 10 -9v-400q0 -49 30 -49h5q8 0 8 -7v-10q0 -7 -8 -7h-18q-53 0 -53 69v24zM389 152v210q-45 101 -144 101q-72 0 -115 -61
t-43 -165q0 -101 40.5 -159.5t105.5 -58.5q117 0 156 133zM336 603q0 -35 -24.5 -59.5t-59.5 -24.5t-60 25t-25 59t25 59t60 25t59.5 -24.5t24.5 -59.5zM306 605q0 21 -15 36.5t-37 15.5q-23 0 -39.5 -15.5t-16.5 -36.5q0 -23 16.5 -39t39.5 -16q22 0 37 16t15 39zM173 715
l128 102q10 7 16 -1l15 -22q6 -9 -3 -14l-145 -86q-5 -4 -9 2l-5 8q-4 6 3 11z" />
    <glyph glyph-name="AEacute" unicode="&#x1fc;" horiz-adv-x="827" 
d="M774 22v-13q0 -9 -9 -9h-312q-12 0 -12 11v218h-246l-133 -218q-7 -11 -16 -11h-27q-11 0 -3 12l403 652q14 23 36 23h308q8 0 8 -5v-2l-1 -16q0 -8 -12 -8h-277v-275h242q9 0 9 -6v-17q0 -7 -9 -7h-242v-321h284q9 0 9 -8zM213 260h228v374zM505 751l128 102q10 7 16 -1
l15 -22q6 -9 -3 -14l-145 -86q-5 -4 -9 2l-5 8q-4 6 3 11z" />
    <glyph glyph-name="aeacute" unicode="&#x1fd;" horiz-adv-x="743" 
d="M362 245q0 -97 42 -161t135 -64q61 0 114 21q11 4 13 -4l4 -13q2 -6 -6 -10q-55 -23 -130 -23q-115 0 -171 86q-77 -87 -185 -87q-55 0 -94.5 35t-39.5 97q0 150 242 150h38v60q0 69 -21.5 100.5t-81.5 31.5q-69 0 -130 -31q-9 -4 -11 1l-5 12q-4 7 4 11q67 35 151 35
q117 0 128 -104q57 104 173 104q78 0 123 -57t45 -147v-30q0 -13 -15 -13h-322zM188 20q85 0 162 84q-26 61 -26 141h-33q-209 0 -209 -119q0 -53 32 -79.5t74 -26.5zM363 272h301v20q0 73 -33 122t-102 49q-77 0 -118 -54.5t-48 -136.5zM304 592l128 102q10 7 16 -1l15 -22
q6 -9 -3 -14l-145 -86q-5 -4 -9 2l-5 8q-4 6 3 11z" />
    <glyph glyph-name="Oslashacute" unicode="&#x1fe;" horiz-adv-x="646" 
d="M587 348q0 -168 -75 -262.5t-190 -94.5q-90 0 -151 53l-43 -71q-5 -8 -14 -4l-10 6q-7 4 -2 12l47 78q-81 90 -81 276q0 164 74 260.5t190 96.5q97 0 162 -63l45 75q6 8 12 5l12 -7q6 -4 2 -12l-51 -84q73 -93 73 -264zM173 104l299 495q-55 64 -142 64
q-98 0 -157.5 -90.5t-59.5 -228.5q0 -154 60 -240zM542 345q0 144 -52 228l-297 -493q53 -55 132 -55q98 0 157.5 89t59.5 231zM274 751l128 102q10 7 16 -1l15 -22q6 -9 -3 -14l-145 -86q-5 -4 -9 2l-5 8q-4 6 3 11z" />
    <glyph glyph-name="oslashacute" unicode="&#x1ff;" horiz-adv-x="499" 
d="M451 241q0 -105 -52 -177.5t-153 -72.5q-59 0 -104 29l-29 -46q-7 -10 -15 -5l-8 5q-9 5 -3 14l32 50q-71 67 -71 205q0 104 52 176.5t152 72.5q68 0 119 -39l32 53q5 9 13 5l10 -6q9 -4 4 -12l-38 -61q59 -66 59 -191zM415 240q0 99 -42 161l-215 -355q36 -28 89 -28
q85 0 126.5 65.5t41.5 156.5zM136 67l217 358q-41 39 -101 39q-58 0 -97 -33.5t-54.5 -81.5t-15.5 -105q0 -117 51 -177zM184 592l128 102q10 7 16 -1l15 -22q6 -9 -3 -14l-145 -86q-5 -4 -9 2l-5 8q-4 6 3 11z" />
    <glyph glyph-name="Scommaaccent" unicode="&#x218;" horiz-adv-x="458" 
d="M416 171q0 -87 -58 -133.5t-148 -46.5q-76 0 -142 24q-10 3 -7 14l6 17q3 10 14 5q64 -25 131 -25q66 0 115 35t49 106q0 87 -102 147l-121 72q-97 58 -97 151q0 75 54.5 118t136.5 43q70 0 128 -27q8 -4 5 -12l-6 -14q-4 -7 -13 -4q-60 24 -115 24q-62 0 -105 -30.5
t-43 -87.5q0 -47 23 -77.5t65 -55.5l102 -62q65 -40 96.5 -79.5t31.5 -101.5zM260 -80q0 -61 -50 -109q-5 -4 -8 -1l-4 4q-3 4 1 8q27 27 27 56q0 15 -12.5 32t-12.5 25q0 11 7.5 18t18.5 7q13 0 23 -11.5t10 -28.5z" />
    <glyph glyph-name="scommaaccent" unicode="&#x219;" horiz-adv-x="363" 
d="M324 127q0 -60 -43.5 -98t-117.5 -38q-66 0 -114 28q-7 4 -4 10l6 14q3 6 9 3q56 -27 105 -27q55 0 90 27.5t35 75.5q0 41 -24 65t-69 44l-59 26q-92 40 -92 116q0 54 40 86.5t103 32.5q56 0 104 -22q8 -4 5 -12l-4 -11q-3 -9 -12 -4q-48 21 -92 21q-48 0 -78.5 -23
t-30.5 -61q0 -37 20.5 -59t59.5 -39l61 -27q102 -45 102 -128zM205 -80q0 -61 -50 -109q-5 -4 -8 -1l-4 4q-3 4 1 8q27 27 27 56q0 15 -12.5 32t-12.5 25q0 11 7.5 18t18.5 7q13 0 23 -11.5t10 -28.5z" />
    <glyph glyph-name="uni021A" unicode="&#x21a;" horiz-adv-x="514" 
d="M272 654v-646q0 -8 -8 -8h-23q-9 0 -9 8v646h-198q-7 0 -7 7v20q0 6 7 6h442q5 0 7.5 -2t1.5 -6l-2 -17q-1 -8 -11 -8h-200zM281 -80q0 -61 -50 -109q-5 -4 -8 -1l-4 4q-3 4 1 8q27 27 27 56q0 15 -12.5 32t-12.5 25q0 11 7.5 18t18.5 7q13 0 23 -11.5t10 -28.5z" />
    <glyph glyph-name="uni021B" unicode="&#x21b;" horiz-adv-x="311" 
d="M96 482v124q0 11 8 12l18 3q10 2 10 -8v-131h122q7 0 7 -6v-13q0 -8 -7 -8h-122v-314q0 -78 21 -100q22 -23 68 -23q25 0 56 9q8 3 9 -4l3 -11q1 -6 -5 -9q-29 -12 -71 -12q-62 0 -90 33q-27 32 -27 116v315h-61q-8 0 -8 7v14q0 6 7 6h62zM226 -80q0 -61 -50 -109
q-5 -4 -8 -1l-4 4q-3 4 1 8q27 27 27 56q0 15 -12.5 32t-12.5 25q0 11 7.5 18t18.5 7q13 0 23 -11.5t10 -28.5z" />
    <glyph glyph-name="circumflex" unicode="&#x2c6;" horiz-adv-x="297" 
d="M150 651l-95 -83q-3 -4 -7 0l-6 7q-4 5 0 9l94 108q6 6 11 6h5q8 0 12 -6l89 -105q5 -5 2 -10l-5 -6q-4 -5 -9 0z" />
    <glyph glyph-name="caron" unicode="&#x2c7;" horiz-adv-x="297" 
d="M149 613l90 82q6 6 10 0l7 -7q4 -4 0 -10l-91 -103q-5 -6 -13 -6h-8q-8 0 -12 6l-91 102q-5 5 0 9l7 8q5 5 11 -1z" />
    <glyph glyph-name="breve" unicode="&#x2d8;" horiz-adv-x="297" 
d="M267 690q-5 -47 -34.5 -77t-84.5 -30q-53 0 -85 30.5t-32 76.5q0 8 7 8h17q7 0 7 -8q2 -34 24.5 -56.5t62.5 -22.5q41 0 63 22t24 57q0 8 7 8h17q7 0 7 -8z" />
    <glyph glyph-name="dotaccent" unicode="&#x2d9;" horiz-adv-x="297" 
d="M183 662q0 -17 -11 -27.5t-25 -10.5q-15 0 -26.5 10.5t-11.5 27.5t11 26.5t27 9.5t26 -9.5t10 -26.5z" />
    <glyph glyph-name="ring" unicode="&#x2da;" horiz-adv-x="297" 
d="M231 621q0 -35 -24.5 -59.5t-59.5 -24.5t-60 25t-25 59t25 59t60 25t59.5 -24.5t24.5 -59.5zM201 623q0 21 -15 36.5t-37 15.5q-23 0 -39.5 -15.5t-16.5 -36.5q0 -23 16.5 -39t39.5 -16q22 0 37 16t15 39z" />
    <glyph glyph-name="ogonek" unicode="&#x2db;" horiz-adv-x="297" 
d="M188 6q-78 -56 -78 -121q0 -59 65 -59q23 0 47 7q9 3 10 -4l2 -8q1 -6 -5 -9q-26 -11 -65 -11q-42 0 -64.5 22.5t-22.5 55.5q0 81 87 127h24z" />
    <glyph glyph-name="tilde" unicode="&#x2dc;" horiz-adv-x="297" 
d="M153 632l-20 15q-26 18 -46 18q-39 0 -59 -36q-3 -7 -9 -5l-10 5q-5 2 -3 8q18 56 82 56q32 0 60 -20l21 -15q23 -17 46 -17q21 0 32.5 8.5t24.5 28.5q4 7 9 5l11 -5q5 -2 3 -7q-9 -28 -31 -43.5t-48 -15.5q-35 0 -63 20z" />
    <glyph glyph-name="hungarumlaut" unicode="&#x2dd;" horiz-adv-x="297" 
d="M129 693l15 -22q6 -9 -3 -14l-143 -85q-6 -6 -11 1l-5 7q-3 5 2 10l129 104q9 9 16 -1zM329 693l15 -22q6 -9 -3 -14l-143 -85q-6 -6 -11 1l-5 7q-3 5 2 10l129 104q10 7 16 -1z" />
    <glyph glyph-name="commaaccent" unicode="&#x326;" horiz-adv-x="297" 
d="M173 -80q0 -61 -50 -109q-5 -4 -8 -1l-4 4q-3 4 1 8q27 27 27 56q0 15 -12.5 32t-12.5 25q0 11 7.5 18t18.5 7q13 0 23 -11.5t10 -28.5z" />
    <glyph glyph-name="uni0374" unicode="&#x374;" horiz-adv-x="297" 
d="M205 658l-96 -105q-6 -6 -12 -2l-7 6q-5 5 -1 12l86 113q8 12 18 3l12 -11q8 -8 0 -16z" />
    <glyph glyph-name="uni0375" unicode="&#x375;" horiz-adv-x="297" 
d="M91 -109l96 105q6 6 12 2l7 -6q5 -5 1 -12l-86 -113q-8 -12 -18 -3l-12 11q-7 7 0 16z" />
    <glyph glyph-name="uni037E" unicode="&#x37e;" horiz-adv-x="199" 
d="M140 453q0 -14 -10.5 -23.5t-23.5 -9.5q-14 0 -24.5 9.5t-10.5 23.5q0 16 10 26t25 10q14 0 24 -10t10 -26zM144 28q0 -79 -63 -137q-5 -5 -10 -1l-4 5q-5 5 1 10q34 34 34 70q0 19 -16 40t-16 32q0 14 9.5 22.5t23.5 8.5q16 0 28.5 -14t12.5 -36z" />
    <glyph glyph-name="tonos" unicode="&#x384;" horiz-adv-x="297" 
d="M205 665l-96 -105q-6 -6 -12 -2l-7 6q-5 5 -1 12l86 113q8 12 18 3l12 -11q7 -7 0 -16z" />
    <glyph glyph-name="dieresistonos" unicode="&#x385;" horiz-adv-x="310" 
d="M36 611q0 11 7.5 18.5t17.5 7.5q11 0 18.5 -7.5t7.5 -18.5q0 -10 -7.5 -17.5t-18.5 -7.5q-10 0 -17.5 7.5t-7.5 17.5zM211 676l-73 -122q-6 -8 -12 -4l-7 3q-8 5 -4 11l62 128q6 14 18 6l13 -7q9 -5 3 -15zM221 611q0 11 7.5 18.5t17.5 7.5q11 0 18.5 -7.5t7.5 -18.5
q0 -10 -7.5 -17.5t-18.5 -7.5q-10 0 -17.5 7.5t-7.5 17.5z" />
    <glyph glyph-name="Alphatonos" unicode="&#x386;" horiz-adv-x="556" 
d="M177 669l-64 -127q-4 -8 -11 -5l-11 4q-7 2 -4 11l52 132q4 13 18 7l16 -7q10 -4 4 -15zM21 13l240 665q3 9 10 9h21q7 0 10 -8l235 -668q3 -11 -8 -11h-26q-10 0 -13 8l-74 223h-277l-79 -225q-2 -6 -9 -6h-24q-10 0 -6 13zM150 263h256l-126 365z" />
    <glyph glyph-name="anoteleia" unicode="&#x387;" horiz-adv-x="195" 
d="M137 267q0 -39 -37 -39q-38 0 -38 39q0 17 11 26t28 9q16 0 26 -9t10 -26z" />
    <glyph glyph-name="Epsilontonos" unicode="&#x388;" horiz-adv-x="512" 
d="M97 669l-64 -127q-4 -8 -11 -5l-11 4q-7 2 -4 11l52 132q4 13 18 7l16 -7q10 -4 4 -15zM169 34h284q9 0 9 -8v-18q0 -8 -9 -8h-311q-13 0 -13 12v661q0 8 3 11t12 3h308q7 0 7 -6l-2 -20q-1 -7 -10 -7h-278v-276h241q9 0 9 -8v-17q0 -8 -9 -8h-241v-311z" />
    <glyph glyph-name="Etatonos" unicode="&#x389;" horiz-adv-x="663" 
d="M97 669l-64 -127q-4 -8 -11 -5l-11 4q-7 2 -4 11l52 132q4 13 18 7l16 -7q10 -4 4 -15zM536 378v301q0 8 8 8h24q8 0 8 -9v-669q0 -9 -7 -9h-24q-4 0 -5.5 0.5t-2.5 2.5t-1 7v335h-367v-336q0 -9 -8 -9h-25q-7 0 -7 9v669q0 9 8 9h24q8 0 8 -10v-299h367z" />
    <glyph glyph-name="Iotatonos" unicode="&#x38a;" horiz-adv-x="395" 
d="M97 669l-64 -127q-4 -8 -11 -5l-11 4q-7 2 -4 11l52 132q4 13 18 7l16 -7q10 -4 4 -15zM244 29h71q6 0 6 -6v-17q0 -6 -6 -6h-177q-6 0 -6 6v17q0 6 6 6h66v630h-68q-7 0 -7 6v17q0 5 6 5h179q7 0 7 -6v-16q0 -6 -7 -6h-70v-630z" />
    <glyph glyph-name="Omicrontonos" unicode="&#x38c;" horiz-adv-x="621" 
d="M104 669l-64 -127q-4 -8 -11 -5l-11 4q-7 2 -4 11l52 132q4 13 18 7l16 -7q10 -4 4 -15zM570 348q0 -168 -75 -262.5t-190 -94.5q-119 0 -186.5 91.5t-67.5 258.5q0 164 74 260.5t190 96.5q120 0 187.5 -94t67.5 -256zM525 345q0 147 -54.5 232.5t-157.5 85.5
q-98 0 -157.5 -90.5t-59.5 -228.5q0 -146 55 -232.5t157 -86.5q98 0 157.5 89t59.5 231z" />
    <glyph glyph-name="Upsilontonos" unicode="&#x38e;" horiz-adv-x="595" 
d="M94 669l-64 -127q-4 -8 -11 -5l-11 4q-7 2 -4 11l52 132q4 13 18 7l16 -7q10 -4 4 -15zM342 242h1q29 130 131 326l57 110q5 9 15 9h20q12 0 6 -12l-66 -127q-145 -279 -145 -410v-129q0 -9 -8 -9h-25q-7 0 -7 9v128q0 60 -27.5 144.5t-52.5 137t-64 127.5l-67 129
q-2 5 0 8.5t7 3.5h22q11 0 15 -9l57 -113q108 -211 131 -323z" />
    <glyph glyph-name="Omegatonos" unicode="&#x38f;" horiz-adv-x="689" 
d="M124 669l-64 -127q-4 -8 -11 -5l-11 4q-7 2 -4 11l52 132q4 13 18 7l16 -7q10 -4 4 -15zM300 33q7 -1 7 -7v-19q0 -7 -7 -7h-220q-7 0 -7 7v19q0 7 7 7h138v1q-65 28 -105.5 106t-40.5 201q0 170 76.5 263.5t198.5 93.5q124 0 197 -92t73 -254q0 -129 -44 -212t-106 -106
v-1h137q7 0 7 -7v-19q0 -7 -7 -7h-211q-7 0 -7 7v19q0 6 7 7q82 16 131 100t49 215q0 148 -62 231.5t-166 83.5q-103 0 -166 -87.5t-63 -238.5q0 -128 48 -208t136 -96z" />
    <glyph glyph-name="iotadieresistonos" unicode="&#x390;" horiz-adv-x="209" 
d="M111 474v-364q0 -44 7.5 -63.5t26.5 -19.5q14 0 30 9q9 5 12 -2l6 -13q2 -6 -4 -10q-25 -15 -55 -15q-33 0 -46 27t-13 79v372q0 8 7 8h22q7 0 7 -8zM-19 611q0 11 7.5 18.5t17.5 7.5q11 0 18.5 -7.5t7.5 -18.5q0 -10 -7.5 -17.5t-18.5 -7.5q-10 0 -17.5 7.5t-7.5 17.5z
M156 676l-73 -122q-6 -8 -12 -4l-7 3q-8 5 -4 11l62 128q6 14 18 6l13 -7q9 -5 3 -15zM166 611q0 11 7.5 18.5t17.5 7.5q11 0 18.5 -7.5t7.5 -18.5q0 -10 -7.5 -17.5t-18.5 -7.5q-10 0 -17.5 7.5t-7.5 17.5z" />
    <glyph glyph-name="Alpha" unicode="&#x391;" horiz-adv-x="556" 
d="M21 13l240 665q3 9 10 9h21q7 0 10 -8l235 -668q3 -11 -8 -11h-26q-10 0 -13 8l-74 223h-277l-79 -225q-2 -6 -9 -6h-24q-10 0 -6 13zM150 263h256l-126 365z" />
    <glyph glyph-name="Beta" unicode="&#x392;" horiz-adv-x="526" 
d="M475 189q0 -104 -61.5 -146.5t-171.5 -42.5h-141q-14 0 -14 13v660q0 14 14 14h118q205 0 205 -159q0 -58 -31.5 -104.5t-90.5 -58.5v-1q77 -1 125 -50.5t48 -124.5zM382 526q0 33 -10.5 57.5t-26.5 38t-40.5 21t-46.5 9.5t-51 2h-80v-276h89q166 0 166 148zM431 188
q0 157 -198 157h-106v-311h106q93 0 145.5 33t52.5 121z" />
    <glyph glyph-name="Gamma" unicode="&#x393;" horiz-adv-x="474" 
d="M127 654v-646q0 -8 -8 -8h-23q-9 0 -9 8v665q0 14 14 14h354q5 0 7 -1.5t1 -5.5l-2 -19q-1 -7 -10 -7h-324z" />
    <glyph glyph-name="_36" unicode="&#x394;" horiz-adv-x="545" 
d="M33 53l222 625q3 9 10 9h21q7 0 10 -8l216 -626q6 -18 6 -28v-15q0 -10 -13 -10h-465q-13 0 -13 10v15q0 10 6 28zM67 34h407l-198 594h-1z" />
    <glyph glyph-name="Epsilon" unicode="&#x395;" horiz-adv-x="470" 
d="M127 34h284q9 0 9 -8v-18q0 -8 -9 -8h-311q-13 0 -13 12v661q0 8 3 11t12 3h308q7 0 7 -6l-2 -20q-1 -7 -10 -7h-278v-276h241q9 0 9 -8v-17q0 -8 -9 -8h-241v-311z" />
    <glyph glyph-name="Zeta" unicode="&#x396;" horiz-adv-x="497" 
d="M411 654h-333q-9 0 -9 8v18q0 7 8 7h372q9 0 9 -9v-9q0 -9 -7 -21l-373 -614h370q10 0 10 -10v-15q0 -9 -9 -9h-406q-10 0 -10 8v12q0 10 6 20z" />
    <glyph glyph-name="Eta" unicode="&#x397;" horiz-adv-x="621" 
d="M494 378v301q0 8 8 8h24q8 0 8 -9v-669q0 -9 -7 -9h-24q-4 0 -5.5 0.5t-2.5 2.5t-1 7v335h-367v-336q0 -9 -8 -9h-25q-7 0 -7 9v669q0 9 8 9h24q8 0 8 -10v-299h367z" />
    <glyph glyph-name="Theta" unicode="&#x398;" horiz-adv-x="647" 
d="M593 348q0 -168 -78 -262.5t-197 -94.5q-124 0 -194 91.5t-70 258.5q0 164 76.5 260.5t197.5 96.5q125 0 195 -94t70 -256zM548 345q0 147 -57 232.5t-165 85.5q-103 0 -165 -90.5t-62 -228.5q0 -146 57.5 -232.5t164.5 -86.5q102 0 164.5 89t62.5 231zM169 367h310
q9 0 9 -8v-19q0 -8 -9 -8h-310q-9 0 -9 8v19q0 8 9 8z" />
    <glyph glyph-name="Iota" unicode="&#x399;" horiz-adv-x="336" 
d="M185 29h71q6 0 6 -6v-17q0 -6 -6 -6h-177q-6 0 -6 6v17q0 6 6 6h66v630h-68q-7 0 -7 6v17q0 5 6 5h179q7 0 7 -6v-16q0 -6 -7 -6h-70v-630z" />
    <glyph glyph-name="Kappa" unicode="&#x39a;" horiz-adv-x="468" 
d="M441 678l-274 -323l292 -345q3 -3 1.5 -6.5t-5.5 -3.5h-29q-11 0 -19 8l-279 335h-1v-332q0 -11 -9 -11h-22q-9 0 -9 10v667q0 10 9 10h23q8 0 8 -11v-314h1l271 319q5 6 13 6h25q3 0 4.5 -1.5t1.5 -3.5t-2 -4z" />
    <glyph glyph-name="Lambda" unicode="&#x39b;" horiz-adv-x="551" 
d="M487 6l-208 624l-217 -624q-2 -6 -9 -6h-25q-10 0 -7 8l238 670q3 9 10 9h21q7 0 10 -8l230 -667q5 -12 -3 -12h-30q-8 0 -10 6z" />
    <glyph glyph-name="Mu" unicode="&#x39c;" horiz-adv-x="798" 
d="M642 578l-223 -570q-3 -8 -11 -8h-12q-9 0 -12 8l-236 570h-2l-15 -570q0 -8 -7 -8h-25q-7 0 -7 7l21 668q0 12 10 12h15q9 0 13 -10l250 -609h2l242 612q2 7 10 7h21q7 0 7 -7l23 -671q0 -9 -9 -9h-22q-9 0 -9 10l-22 568h-2z" />
    <glyph glyph-name="Nu" unicode="&#x39d;" horiz-adv-x="648" 
d="M560 679v-671q0 -8 -8 -8h-17q-8 0 -13 8l-396 606h-1v-604q0 -10 -9 -10h-19q-9 0 -9 9v670q0 8 8 8h17q9 0 13 -7l395 -600h1v599q0 8 7 8h25q6 0 6 -8z" />
    <glyph glyph-name="Xi" unicode="&#x39e;" horiz-adv-x="442" 
d="M406 0h-370q-9 0 -9 8v18q0 8 9 8h370q9 0 9 -8v-18q0 -8 -9 -8zM72 378h299q9 0 9 -8v-17q0 -8 -9 -8h-299q-9 0 -9 8v17q0 8 9 8zM392 654h-342q-9 0 -9 8v17q0 8 9 8h342q9 0 9 -8v-17q0 -8 -9 -8z" />
    <glyph glyph-name="Omicron" unicode="&#x39f;" horiz-adv-x="621" 
d="M570 348q0 -168 -75 -262.5t-190 -94.5q-119 0 -186.5 91.5t-67.5 258.5q0 164 74 260.5t190 96.5q120 0 187.5 -94t67.5 -256zM525 345q0 147 -54.5 232.5t-157.5 85.5q-98 0 -157.5 -90.5t-59.5 -228.5q0 -146 55 -232.5t157 -86.5q98 0 157.5 89t59.5 231z" />
    <glyph glyph-name="Pi" unicode="&#x3a0;" horiz-adv-x="616" 
d="M127 654v-646q0 -8 -8 -8h-24q-8 0 -8 8v671q0 8 8 8h426q8 0 8 -8v-671q0 -8 -8 -8h-24q-8 0 -8 8v646h-362z" />
    <glyph glyph-name="Rho" unicode="&#x3a1;" horiz-adv-x="478" 
d="M127 278v-268q0 -10 -8 -10h-24q-8 0 -8 9v668q0 10 10 10h110q106 0 168 -47.5t62 -151.5q0 -101 -63.5 -155.5t-162.5 -54.5h-84zM127 311h80q86 0 136.5 43t50.5 134q0 95 -52.5 130.5t-144.5 35.5h-70v-343z" />
    <glyph glyph-name="Sigma" unicode="&#x3a3;" horiz-adv-x="450" 
d="M66 34h339q10 0 10 -10v-15q0 -9 -9 -9h-373q-9 0 -9 9v16q0 11 7 19l227 320l-213 280q-7 8 -7 19v15q0 9 9 9h361q8 0 8 -7v-18q0 -8 -9 -8h-326l204 -265q7 -9 7 -16v-15q0 -7 -8 -18z" />
    <glyph glyph-name="Tau" unicode="&#x3a4;" horiz-adv-x="514" 
d="M272 654v-646q0 -8 -8 -8h-23q-9 0 -9 8v646h-198q-7 0 -7 7v20q0 6 7 6h442q5 0 7.5 -2t1.5 -6l-2 -17q-1 -8 -11 -8h-200z" />
    <glyph glyph-name="Upsilon" unicode="&#x3a5;" horiz-adv-x="496" 
d="M249 242h1q29 130 131 326l57 110q4 9 15 9h20q12 0 6 -12l-66 -127q-145 -279 -145 -410v-129q0 -9 -8 -9h-25q-7 0 -7 9v128q0 60 -27.5 144.5t-52.5 137t-64 127.5l-67 129q-2 5 0 8.5t7 3.5h22q10 0 15 -9l57 -113q108 -211 131 -323z" />
    <glyph glyph-name="Phi" unicode="&#x3a6;" horiz-adv-x="667" 
d="M630 348q0 -140 -78 -221.5t-199 -89.5v-59q0 -9 -8 -9h-25q-7 0 -7 9v58q-130 5 -203 84.5t-73 220.5q0 135 76.5 218t199.5 91v57q0 9 8 9h24q8 0 8 -10v-55q131 -4 204 -85.5t73 -217.5zM587 345q0 121 -60.5 194t-173.5 78v-548q106 7 170 83t64 193zM80 344
q0 -122 60.5 -196t172.5 -80v549q-106 -8 -169.5 -85t-63.5 -188z" />
    <glyph glyph-name="Chi" unicode="&#x3a7;" horiz-adv-x="512" 
d="M257 323l-175 -314q-4 -9 -15 -9h-20q-13 0 -6 12l196 347l-176 316q-6 12 8 12h20q11 0 15 -8l156 -280l156 280q4 8 15 8h20q11 0 6 -11l-177 -313l198 -351q7 -12 -9 -12h-22q-11 0 -17 10z" />
    <glyph glyph-name="Psi" unicode="&#x3a8;" horiz-adv-x="639" 
d="M342 261q216 3 216 252v165q0 9 7 9h26q8 0 8 -9v-160q0 -286 -257 -291v-218q0 -9 -8 -9h-25q-7 0 -7 9v218q-137 3 -199.5 70.5t-62.5 217.5v163q0 9 7 9h26q8 0 8 -9v-159q0 -134 51 -195.5t170 -62.5v417q0 9 7 9h25q8 0 8 -9v-417z" />
    <glyph glyph-name="_57" unicode="&#x3a9;" horiz-adv-x="675" 
d="M293 33q7 -1 7 -7v-19q0 -7 -7 -7h-220q-7 0 -7 7v19q0 7 7 7h138v1q-65 28 -105.5 106t-40.5 201q0 170 76.5 263.5t198.5 93.5q124 0 197 -92t73 -254q0 -129 -44 -212t-106 -106v-1h137q7 0 7 -7v-19q0 -7 -7 -7h-211q-7 0 -7 7v19q0 6 7 7q82 16 131 100t49 215
q0 148 -62 231.5t-166 83.5q-103 0 -166 -87.5t-63 -238.5q0 -128 48 -208t136 -96z" />
    <glyph glyph-name="Iotadieresis" unicode="&#x3aa;" horiz-adv-x="336" 
d="M185 29h71q6 0 6 -6v-17q0 -6 -6 -6h-177q-6 0 -6 6v17q0 6 6 6h66v630h-68q-7 0 -7 6v17q0 5 6 5h179q7 0 7 -6v-16q0 -6 -7 -6h-70v-630zM61 778q0 12 8 20.5t19 8.5q12 0 20.5 -8t8.5 -21q0 -11 -8.5 -19t-20.5 -8q-11 0 -19 8t-8 19zM214 778q0 12 8 20.5t19 8.5
q12 0 20.5 -8t8.5 -21q0 -11 -8.5 -19t-20.5 -8q-11 0 -19 8t-8 19z" />
    <glyph glyph-name="Upsilondieresis" unicode="&#x3ab;" horiz-adv-x="496" 
d="M249 242h1q29 130 131 326l57 110q4 9 15 9h20q12 0 6 -12l-66 -127q-145 -279 -145 -410v-129q0 -9 -8 -9h-25q-7 0 -7 9v128q0 60 -27.5 144.5t-52.5 137t-64 127.5l-67 129q-2 5 0 8.5t7 3.5h22q10 0 15 -9l57 -113q108 -211 131 -323zM146 778q0 12 8 20.5t19 8.5
q12 0 20.5 -8t8.5 -21q0 -11 -8.5 -19t-20.5 -8q-11 0 -19 8t-8 19zM299 778q0 12 8 20.5t19 8.5q12 0 20.5 -8t8.5 -21q0 -11 -8.5 -19t-20.5 -8q-11 0 -19 8t-8 19z" />
    <glyph glyph-name="alphatonos" unicode="&#x3ac;" horiz-adv-x="550" 
d="M431 221q3 -38 4.5 -52t5 -44t9 -42.5t14 -29t21.5 -22.5t30 -6h8q7 0 7 -6v-18q0 -6 -7 -6h-9q-30 0 -50.5 12t-32 36t-17 48.5t-8.5 59.5h-1q-34 -160 -171 -160q-84 0 -134 62.5t-50 187.5q0 132 55.5 191.5t137.5 59.5q81 0 122.5 -56.5t52.5 -139.5h1q19 104 48 179
q3 7 10 7h16q10 0 6 -9q-39 -97 -68 -252zM242 463q-72 0 -112.5 -56.5t-40.5 -159.5q0 -41 7 -78t22.5 -72t45 -55.5t70.5 -20.5q126 0 160 206q-4 41 -9 69.5t-16 62.5t-26 55t-41 35t-60 14zM308 665l-96 -105q-6 -6 -12 -2l-7 6q-5 5 -1 12l86 113q8 12 18 3l12 -11
q7 -7 0 -16z" />
    <glyph glyph-name="epsilontonos" unicode="&#x3ad;" horiz-adv-x="418" 
d="M46 133q0 48 27 81.5t78 46.5v1q-87 24 -87 107q0 62 46 92.5t124 30.5q72 0 136 -31q6 -3 4 -8l-7 -15q-3 -6 -9 -3q-66 28 -130 28q-127 0 -127 -91q0 -49 38 -73t101 -24h64q7 0 7 -6v-17q0 -6 -7 -6h-64q-69 0 -112.5 -26t-43.5 -82t43 -87t117 -31q60 0 125 26
q8 3 11 -2l7 -16q2 -6 -4 -8q-60 -29 -147 -29q-86 0 -138 37t-52 105zM299 665l-96 -105q-6 -6 -12 -2l-7 6q-5 5 -1 12l86 113q8 12 18 3l12 -11q7 -7 0 -16z" />
    <glyph glyph-name="etatonos" unicode="&#x3ae;" horiz-adv-x="528" 
d="M128 371v-361q0 -10 -9 -10h-18q-9 0 -9 9v393q0 32 -8.5 44.5t-29.5 12.5h-7q-7 0 -7 6v16q0 6 7 6h11q38 0 54 -19t16 -62q75 86 172 86q147 0 147 -176v-311q0 -116 15 -203q1 -8 -6 -8h-21q-6 0 -8 8q-16 81 -16 197v307q0 74 -24.5 115t-95.5 41q-40 0 -85 -26
t-78 -65zM337 665l-96 -105q-6 -6 -12 -2l-7 6q-5 5 -1 12l86 113q8 12 18 3l12 -11q7 -7 0 -16z" />
    <glyph glyph-name="iotatonos" unicode="&#x3af;" horiz-adv-x="209" 
d="M111 474v-364q0 -44 7.5 -63.5t26.5 -19.5q14 0 30 9q9 5 12 -2l6 -13q2 -6 -4 -10q-25 -15 -55 -15q-33 0 -46 27t-13 79v372q0 8 7 8h22q7 0 7 -8zM175 665l-96 -105q-6 -6 -12 -2l-7 6q-5 5 -1 12l86 113q8 12 18 3l12 -11q7 -7 0 -16z" />
    <glyph glyph-name="upsilondieresistonos" unicode="&#x3b0;" horiz-adv-x="499" 
d="M42 459h-7q-7 0 -7 6v16q0 6 7 6h11q38 0 54 -19t16 -62v-209q0 -96 37.5 -136t93.5 -40q78 0 121 60.5t43 173.5q0 127 -41 217q-5 10 6 10h18q7 0 11 -9q44 -90 44 -211q0 -50 -9.5 -94t-31 -86t-63.5 -66.5t-100 -24.5q-75 0 -120 49t-45 153v209q0 32 -8.5 44.5
t-29.5 12.5zM139 611q0 11 7.5 18.5t17.5 7.5q11 0 18.5 -7.5t7.5 -18.5q0 -10 -7.5 -17.5t-18.5 -7.5q-10 0 -17.5 7.5t-7.5 17.5zM314 676l-73 -122q-6 -8 -12 -4l-7 3q-8 5 -4 11l62 128q6 14 18 6l13 -7q9 -5 3 -15zM324 611q0 11 7.5 18.5t17.5 7.5q11 0 18.5 -7.5
t7.5 -18.5q0 -10 -7.5 -17.5t-18.5 -7.5q-10 0 -17.5 7.5t-7.5 17.5z" />
    <glyph glyph-name="alpha" unicode="&#x3b1;" horiz-adv-x="550" 
d="M431 221q3 -38 4.5 -52t5 -44t9 -42.5t14 -29t21.5 -22.5t30 -6h8q7 0 7 -6v-18q0 -6 -7 -6h-9q-30 0 -50.5 12t-32 36t-17 48.5t-8.5 59.5h-1q-34 -160 -171 -160q-84 0 -134 62.5t-50 187.5q0 132 55.5 191.5t137.5 59.5q81 0 122.5 -56.5t52.5 -139.5h1q19 104 48 179
q3 7 10 7h16q10 0 6 -9q-39 -97 -68 -252zM242 463q-72 0 -112.5 -56.5t-40.5 -159.5q0 -41 7 -78t22.5 -72t45 -55.5t70.5 -20.5q126 0 160 206q-4 41 -9 69.5t-16 62.5t-26 55t-41 35t-60 14z" />
    <glyph glyph-name="beta" unicode="&#x3b2;" horiz-adv-x="514" 
d="M80 -23v510q0 114 48.5 172t136.5 58q71 0 119.5 -43.5t48.5 -116.5q0 -58 -30.5 -106.5t-85.5 -63.5v-1q73 -9 116.5 -61.5t43.5 -126.5q0 -99 -60 -153t-151 -54q-104 0 -149 63h-1v-71q0 -103 15 -181q1 -8 -6 -8h-21q-6 0 -8 8q-16 73 -16 175zM222 374v14q0 7 7 7
h14q58 0 105 41t47 118q0 66 -37.5 100t-95.5 34q-68 0 -107 -49.5t-39 -142.5v-398q22 -37 61.5 -57.5t87.5 -20.5q82 0 128 51t46 125q0 81 -55 126t-121 45h-32q-9 0 -9 7z" />
    <glyph glyph-name="gamma" unicode="&#x3b3;" horiz-adv-x="422" 
d="M10 482h24q6 0 11 -7q98 -133 144 -314q14 -54 19 -110q155 234 155 383q0 20 -4 40q-1 8 6 8h20q6 0 8 -8q4 -19 4 -43q0 -91 -56.5 -209.5t-126.5 -209.5q2 -34 2 -54q0 -82 -18 -157q-1 -7 -8 -7h-21q-8 0 -6 8q18 69 18 150q0 93 -25 195q-44 180 -152 326q-7 9 6 9z
" />
    <glyph glyph-name="delta" unicode="&#x3b4;" horiz-adv-x="490" 
d="M397 672l-7 -15q-3 -5 -10 -1q-55 33 -110 33q-54 0 -81 -27t-27 -67q0 -37 21 -67t52 -48t68 -42t68 -48.5t52 -68.5t21 -100q0 -105 -55.5 -167.5t-145.5 -62.5q-87 0 -144.5 59t-57.5 166q0 170 174 236q-91 62 -91 143q0 50 38 86t105 36q73 0 126 -36q6 -4 4 -9z
M242 434q-162 -59 -162 -215q0 -99 48 -149.5t120 -50.5q68 0 112.5 54.5t44.5 144.5q0 76 -33.5 118.5t-106.5 84.5z" />
    <glyph glyph-name="epsilon" unicode="&#x3b5;" horiz-adv-x="418" 
d="M46 133q0 48 27 81.5t78 46.5v1q-87 24 -87 107q0 62 46 92.5t124 30.5q72 0 136 -31q6 -3 4 -8l-7 -15q-3 -6 -9 -3q-66 28 -130 28q-127 0 -127 -91q0 -49 38 -73t101 -24h64q7 0 7 -6v-17q0 -6 -7 -6h-64q-69 0 -112.5 -26t-43.5 -82t43 -87t117 -31q60 0 125 26
q8 3 11 -2l7 -16q2 -6 -4 -8q-60 -29 -147 -29q-86 0 -138 37t-52 105z" />
    <glyph glyph-name="zeta" unicode="&#x3b6;" horiz-adv-x="378" 
d="M313 688q-82 -14 -171 -14h-56q-7 0 -7 6v18q0 6 7 6h68q90 0 208 16q8 2 8 -5v-14q0 -7 -7 -10q-108 -54 -200.5 -183.5t-92.5 -266.5q0 -84 37.5 -122.5t102.5 -52.5q30 -7 49.5 -12t44 -16t38.5 -23.5t24 -33t10 -46.5q0 -63 -45 -132q-6 -9 -13 -9h-21q-11 0 -4 11
q44 74 44 126q0 21 -8.5 36.5t-18 24.5t-33.5 18t-38.5 12.5l-48.5 11.5q-70 16 -114.5 60.5t-44.5 141.5q0 134 83 261.5t199 189.5v1z" />
    <glyph glyph-name="eta" unicode="&#x3b7;" horiz-adv-x="528" 
d="M128 371v-361q0 -10 -9 -10h-18q-9 0 -9 9v393q0 32 -8.5 44.5t-29.5 12.5h-7q-7 0 -7 6v16q0 6 7 6h11q38 0 54 -19t16 -62q75 86 172 86q147 0 147 -176v-311q0 -116 15 -203q1 -8 -6 -8h-21q-6 0 -8 8q-16 81 -16 197v307q0 74 -24.5 115t-95.5 41q-40 0 -85 -26
t-78 -65z" />
    <glyph glyph-name="theta" unicode="&#x3b8;" horiz-adv-x="545" 
d="M493 356q0 -49 -6 -96.5t-22.5 -97t-40.5 -87t-63.5 -61t-89.5 -23.5t-89 23.5t-63 60t-39.5 85.5t-21.5 96.5t-6 96.5t6 96.5t22.5 97t40.5 86.5t63.5 60.5t89.5 23.5q62 0 107 -34t68 -90t33.5 -115t10.5 -122zM273 21q50 0 88 33t57 86t28 103.5t10 100.5h-367
q1 -50 10 -101t28 -103.5t57 -85.5t89 -33zM273 688q-50 0 -87 -31.5t-56.5 -82.5t-29 -101t-11.5 -100h366q-1 50 -10.5 99.5t-28.5 100.5t-56.5 83t-86.5 32z" />
    <glyph glyph-name="iota" unicode="&#x3b9;" horiz-adv-x="228" 
d="M111 474v-364q0 -44 7.5 -63.5t26.5 -19.5q14 0 30 9q9 5 12 -2l6 -13q2 -6 -4 -10q-25 -15 -55 -15q-33 0 -46 27t-13 79v372q0 8 7 8h22q7 0 7 -8z" />
    <glyph glyph-name="kappa" unicode="&#x3ba;" horiz-adv-x="464" 
d="M78 8v324q0 74 -10 143q-2 7 5 7h24q5 0 6 -6q11 -58 11 -137v-128l177 186q84 90 141 90q7 0 7 -6v-18q0 -6 -7 -6q-40 0 -119 -79l-84 -83l215 -285q8 -10 -3 -10h-25q-10 0 -15 8l-191 263l-96 -98v-165q0 -8 -7 -8h-22q-7 0 -7 8z" />
    <glyph glyph-name="lambda" unicode="&#x3bb;" horiz-adv-x="452" 
d="M242 461l-160 -454q-3 -7 -10 -7h-20q-10 0 -6 9l180 493l-13 39q-28 83 -60 114.5t-77 31.5q-19 0 -37 -3q-8 -1 -9 4l-3 17q-2 6 6 8q16 4 34 4q69 0 106.5 -35t68.5 -126l188 -547q4 -9 -5 -9h-23q-8 0 -11 8z" />
    <glyph glyph-name="mu" unicode="&#x3bc;" horiz-adv-x="515" 
d="M387 99v375q0 8 7 8h22q7 0 7 -8v-386q0 -62 31 -62q12 0 23 6q9 5 13 -3l5 -10q4 -6 -3 -11q-15 -12 -42 -12q-29 0 -43 17t-18 53q-71 -75 -165 -75q-77 0 -111 45v-184q0 -8 -7 -8h-22q-7 0 -7 8v622q0 8 7 8h22q7 0 7 -8v-349q0 -45 29 -74.5t89 -29.5q86 0 156 78z
" />
    <glyph glyph-name="nu" unicode="&#x3bd;" horiz-adv-x="415" 
d="M199 33h1q162 194 162 366q0 40 -8 74q-2 9 6 9h20q7 0 9 -8q9 -31 9 -74q0 -98 -52.5 -204t-129.5 -189q-6 -7 -15 -7h-19q-8 0 -10 6l-157 467q-4 9 5 9h25q6 0 9 -7z" />
    <glyph glyph-name="xi" unicode="&#x3be;" horiz-adv-x="380" 
d="M259 686v1q-56 -10 -123 -10h-55q-7 0 -7 6v18q0 6 7 6h67q76 0 203 13q8 1 8 -5v-12q0 -7 -6 -8q-120 -33 -183.5 -77.5t-63.5 -115.5q0 -35 14.5 -58.5t43 -35t60.5 -15.5t78 -4h21q7 0 7 -6v-18q0 -6 -7 -6h-26q-48 0 -100 -17t-85 -51q-42 -42 -42 -100q0 -31 11 -53
t34 -35t44 -19.5t55 -12.5t57.5 -13.5t48.5 -21.5t38 -37t13 -56q0 -66 -48 -142q-5 -7 -11 -7h-22q-9 0 -4 9q46 71 46 131q0 28 -9.5 46.5t-31 29.5t-40 16t-53.5 12q-38 7 -62.5 14.5t-51.5 23.5t-40 43.5t-13 66.5q0 72 44.5 117.5t116.5 61.5v1q-124 24 -124 134
q0 129 191 186z" />
    <glyph glyph-name="omicron" unicode="&#x3bf;" horiz-adv-x="502" 
d="M454 241q0 -105 -53 -177.5t-154 -72.5q-70 0 -116.5 37t-64.5 91.5t-18 123.5q0 104 52.5 176.5t152.5 72.5q104 0 152.5 -71t48.5 -180zM415 240q0 57 -14 105t-52.5 83t-95.5 35q-58 0 -96.5 -33.5t-54 -80.5t-15.5 -105q0 -42 8 -79.5t25.5 -71.5t50 -54t77.5 -20
q58 0 97 33.5t54.5 81.5t15.5 106z" />
    <glyph glyph-name="pi" unicode="&#x3c0;" horiz-adv-x="526" 
d="M150 455v-445q0 -10 -8 -10h-21q-7 0 -7 9v446h-82q-7 0 -7 6v15q0 6 7 6h460q7 0 7 -6v-15q0 -6 -7 -6h-112v-332q0 -56 9.5 -76t38.5 -20q24 0 48 13q9 5 12 -3l5 -11q4 -8 -3 -12q-30 -18 -70 -18q-43 0 -59.5 28t-16.5 91v340h-194z" />
    <glyph glyph-name="rho" unicode="&#x3c1;" horiz-adv-x="512" 
d="M462 247q0 -117 -57.5 -186.5t-148.5 -69.5q-44 0 -85 17t-64 47v-72q0 -103 15 -181q1 -8 -6 -8h-21q-6 0 -8 8q-16 73 -16 175v267q0 112 50 180t144 68q97 0 147 -69.5t50 -175.5zM423 245q0 98 -42 158t-119 60t-116 -60t-39 -155v-149q22 -35 61.5 -57t85.5 -22
q78 0 123.5 60.5t45.5 164.5z" />
    <glyph glyph-name="sigma1" unicode="&#x3c2;" horiz-adv-x="393" 
d="M365 468q6 -2 3 -10l-6 -13q-3 -7 -10 -3q-53 20 -101 20q-82 0 -129.5 -58.5t-47.5 -158.5q0 -82 31 -117.5t94 -55.5q12 -4 39 -12l40 -12t33 -14.5t30 -22t17.5 -30.5t7.5 -44q0 -66 -47 -136q-5 -7 -11 -7h-22q-9 0 -4 9q45 78 45 131q0 19 -6 33.5t-14 23.5t-25 17
t-28.5 11.5l-36.5 11l-38 11.5q-67 21 -105.5 64t-38.5 136q0 110 58.5 180t158.5 70q60 0 113 -24z" />
    <glyph glyph-name="sigma" unicode="&#x3c3;" horiz-adv-x="535" 
d="M515 454h-152q46 -31 74 -89.5t28 -128.5q0 -102 -55 -173.5t-160 -71.5q-104 0 -155 70t-51 170q0 107 58 179t174 72h239q7 0 7 -6v-16q0 -6 -7 -6zM426 235q0 71 -28 129.5t-85 89.5h-41q-98 0 -143.5 -63.5t-45.5 -155.5q0 -56 14.5 -102t54 -80t100.5 -34
q88 0 131 63.5t43 152.5z" />
    <glyph glyph-name="tau" unicode="&#x3c4;" horiz-adv-x="405" 
d="M154 455h-141q-7 0 -7 6v15q0 6 7 6h364q7 0 7 -6v-15q0 -6 -7 -6h-187v-319q0 -60 11.5 -83.5t53.5 -23.5q39 0 65 14q9 5 12 -2l6 -14q2 -6 -4 -10q-38 -21 -84 -21q-57 0 -76.5 34t-19.5 102v323z" />
    <glyph glyph-name="upsilon" unicode="&#x3c5;" horiz-adv-x="499" 
d="M42 459h-7q-7 0 -7 6v16q0 6 7 6h11q38 0 54 -19t16 -62v-209q0 -96 37.5 -136t93.5 -40q78 0 121 60.5t43 173.5q0 127 -41 217q-5 10 6 10h18q7 0 11 -9q44 -90 44 -211q0 -50 -9.5 -94t-31 -86t-63.5 -66.5t-100 -24.5q-75 0 -120 49t-45 153v209q0 32 -8.5 44.5
t-29.5 12.5z" />
    <glyph glyph-name="phi" unicode="&#x3c6;" horiz-adv-x="616" 
d="M570 241q0 -102 -62 -175t-181 -81v-183q0 -8 -7 -8h-21q-7 0 -7 8v182q-66 2 -115 24t-77 59t-41 80.5t-13 95.5q0 103 63 176t183 79v196q0 10 7 11l20 3q8 1 8 -7v-202q124 -5 183.5 -78.5t59.5 -179.5zM83 244q0 -43 10.5 -81t33 -72.5t65 -56t100.5 -23.5v459
q-106 -6 -157.5 -71t-51.5 -155zM533 240q0 92 -49.5 158.5t-156.5 71.5v-458q105 7 155.5 73t50.5 155z" />
    <glyph glyph-name="chi" unicode="&#x3c7;" horiz-adv-x="392" 
d="M177 151l-20 103q-24 120 -48.5 162.5t-69.5 42.5h-11q-7 0 -7 6v16q0 6 7 6h18q60 0 91 -53.5t53 -170.5l15 -79h1l29 64l114 226q3 8 11 8h19q8 0 4 -9l-168 -334l24 -116q25 -121 54.5 -163.5t76.5 -42.5h11q7 0 7 -6v-15q0 -6 -7 -6h-18q-60 0 -96 52.5t-60 169.5
l-18 92h-1l-26 -61l-115 -241q-3 -8 -11 -8h-22q-8 0 -4 9z" />
    <glyph glyph-name="psi" unicode="&#x3c8;" horiz-adv-x="591" 
d="M465 482h20q6 0 10 -9q44 -90 44 -211q0 -37 -6 -71.5t-21 -70t-38.5 -62t-62.5 -45t-88 -21.5v-190q0 -8 -7 -8h-21q-7 0 -7 8v189q-95 2 -151.5 51t-56.5 151v139q0 74 -10 143q-2 7 5 7h23q6 0 7 -6q11 -58 11 -137v-142q0 -93 48.5 -133t123.5 -43v574q0 10 7 11
l20 3q8 1 8 -7v-580q85 7 131.5 67t46.5 166q0 127 -41 217q-5 10 5 10z" />
    <glyph glyph-name="omega" unicode="&#x3c9;" horiz-adv-x="700" 
d="M332 197v131q0 8 7 8h22q7 0 7 -8v-131q0 -176 112 -176q61 0 95.5 62t34.5 176q0 61 -12 120.5t-29 92.5q-5 10 6 10h18q7 0 11 -9q44 -90 44 -209q0 -50 -8 -95t-26 -86.5t-53.5 -66.5t-84.5 -25q-96 0 -126 107h-1q-30 -107 -129 -107q-46 0 -80.5 24.5t-52.5 65
t-26.5 84.5t-8.5 92q0 124 44 216q4 9 11 9h19q10 0 5 -10q-17 -33 -29 -91t-12 -119q0 -117 35 -179t100 -62q107 0 107 176z" />
    <glyph glyph-name="iotadieresis" unicode="&#x3ca;" horiz-adv-x="209" 
d="M111 474v-364q0 -44 7.5 -63.5t26.5 -19.5q14 0 30 9q9 5 12 -2l6 -13q2 -6 -4 -10q-25 -15 -55 -15q-33 0 -46 27t-13 79v372q0 8 7 8h22q7 0 7 -8zM-11 620q0 12 8 20.5t19 8.5q12 0 20.5 -8t8.5 -21q0 -11 -8.5 -19t-20.5 -8q-11 0 -19 8t-8 19zM142 620q0 12 8 20.5
t19 8.5q12 0 20.5 -8t8.5 -21q0 -11 -8.5 -19t-20.5 -8q-11 0 -19 8t-8 19z" />
    <glyph glyph-name="upsilondieresis" unicode="&#x3cb;" horiz-adv-x="499" 
d="M42 459h-7q-7 0 -7 6v16q0 6 7 6h11q38 0 54 -19t16 -62v-209q0 -96 37.5 -136t93.5 -40q78 0 121 60.5t43 173.5q0 127 -41 217q-5 10 6 10h18q7 0 11 -9q44 -90 44 -211q0 -50 -9.5 -94t-31 -86t-63.5 -66.5t-100 -24.5q-75 0 -120 49t-45 153v209q0 32 -8.5 44.5
t-29.5 12.5zM127 620q0 12 8 20.5t19 8.5q12 0 20.5 -8t8.5 -21q0 -11 -8.5 -19t-20.5 -8q-11 0 -19 8t-8 19zM280 620q0 12 8 20.5t19 8.5q12 0 20.5 -8t8.5 -21q0 -11 -8.5 -19t-20.5 -8q-11 0 -19 8t-8 19z" />
    <glyph glyph-name="omicrontonos" unicode="&#x3cc;" horiz-adv-x="502" 
d="M454 241q0 -105 -53 -177.5t-154 -72.5q-70 0 -116.5 37t-64.5 91.5t-18 123.5q0 104 52.5 176.5t152.5 72.5q104 0 152.5 -71t48.5 -180zM415 240q0 57 -14 105t-52.5 83t-95.5 35q-58 0 -96.5 -33.5t-54 -80.5t-15.5 -105q0 -42 8 -79.5t25.5 -71.5t50 -54t77.5 -20
q58 0 97 33.5t54.5 81.5t15.5 106zM336 665l-96 -105q-6 -6 -12 -2l-7 6q-5 5 -1 12l86 113q8 12 18 3l12 -11q7 -7 0 -16z" />
    <glyph glyph-name="upsilontonos" unicode="&#x3cd;" horiz-adv-x="499" 
d="M42 459h-7q-7 0 -7 6v16q0 6 7 6h11q38 0 54 -19t16 -62v-209q0 -96 37.5 -136t93.5 -40q78 0 121 60.5t43 173.5q0 127 -41 217q-5 10 6 10h18q7 0 11 -9q44 -90 44 -211q0 -50 -9.5 -94t-31 -86t-63.5 -66.5t-100 -24.5q-75 0 -120 49t-45 153v209q0 32 -8.5 44.5
t-29.5 12.5zM329 665l-96 -105q-6 -6 -12 -2l-7 6q-5 5 -1 12l86 113q8 12 18 3l12 -11q7 -7 0 -16z" />
    <glyph glyph-name="omegatonos" unicode="&#x3ce;" horiz-adv-x="700" 
d="M332 197v131q0 8 7 8h22q7 0 7 -8v-131q0 -176 112 -176q61 0 95.5 62t34.5 176q0 61 -12 120.5t-29 92.5q-5 10 6 10h18q7 0 11 -9q44 -90 44 -209q0 -50 -8 -95t-26 -86.5t-53.5 -66.5t-84.5 -25q-96 0 -126 107h-1q-30 -107 -129 -107q-46 0 -80.5 24.5t-52.5 65
t-26.5 84.5t-8.5 92q0 124 44 216q4 9 11 9h19q10 0 5 -10q-17 -33 -29 -91t-12 -119q0 -117 35 -179t100 -62q107 0 107 176zM435 665l-96 -105q-6 -6 -12 -2l-7 6q-5 5 -1 12l86 113q8 12 18 3l12 -11q7 -7 0 -16z" />
    <glyph glyph-name="uni0400" unicode="&#x400;" horiz-adv-x="470" 
d="M127 34h284q9 0 9 -8v-18q0 -8 -9 -8h-311q-13 0 -13 12v661q0 8 3 11t12 3h308q7 0 7 -6l-2 -20q-1 -7 -10 -7h-278v-276h241q9 0 9 -8v-17q0 -8 -9 -8h-241v-311zM191 854l128 -102q7 -5 3 -11l-5 -8q-4 -6 -9 -2l-145 86q-9 5 -3 14l15 22q6 8 16 1z" />
    <glyph glyph-name="afii10023" unicode="&#x401;" horiz-adv-x="470" 
d="M127 34h284q9 0 9 -8v-18q0 -8 -9 -8h-311q-13 0 -13 12v661q0 8 3 11t12 3h308q7 0 7 -6l-2 -20q-1 -7 -10 -7h-278v-276h241q9 0 9 -8v-17q0 -8 -9 -8h-241v-311zM150 778q0 12 8 20.5t19 8.5q12 0 20.5 -8t8.5 -21q0 -11 -8.5 -19t-20.5 -8q-11 0 -19 8t-8 19z
M303 778q0 12 8 20.5t19 8.5q12 0 20.5 -8t8.5 -21q0 -11 -8.5 -19t-20.5 -8q-11 0 -19 8t-8 19z" />
    <glyph glyph-name="afii10051" unicode="&#x402;" horiz-adv-x="613" 
d="M210 359v-351q0 -8 -8 -8h-24q-8 0 -8 8v646h-158q-7 0 -7 7v20q0 6 7 6h428q5 0 7 -1.5t1 -5.5l-2 -19q-1 -7 -13 -7h-223v-264q66 15 131 15q235 0 235 -201q0 -209 -232 -209h-38q-7 0 -7 7v21q0 6 6 6h33q89 0 141.5 38.5t52.5 134.5q0 170 -199 170q-73 0 -123 -13z
" />
    <glyph glyph-name="afii10052" unicode="&#x403;" horiz-adv-x="474" 
d="M127 654v-646q0 -8 -8 -8h-23q-9 0 -9 8v665q0 14 14 14h354q5 0 7 -1.5t1 -5.5l-2 -19q-1 -7 -10 -7h-324zM212 751l128 102q10 7 16 -1l15 -22q6 -9 -3 -14l-145 -86q-5 -4 -9 2l-5 8q-4 6 3 11z" />
    <glyph glyph-name="afii10053" unicode="&#x404;" horiz-adv-x="553" 
d="M86 376h380q9 0 9 -8v-19q0 -8 -9 -8h-381q1 -62 15.5 -116.5t43.5 -100t79.5 -72.5t116.5 -27q82 0 157 32q8 3 11 -3l6 -17q2 -8 -3 -10q-76 -36 -178 -36q-142 0 -217.5 100t-75.5 253q0 149 82 251.5t224 102.5q89 0 160 -37q7 -3 4 -10l-9 -17q-3 -8 -10 -3
q-65 33 -151 33q-80 0 -138 -43.5t-85 -106.5t-31 -138z" />
    <glyph glyph-name="afii10054" unicode="&#x405;" horiz-adv-x="458" 
d="M416 171q0 -87 -58 -133.5t-148 -46.5q-76 0 -142 24q-10 3 -7 14l6 17q3 10 14 5q64 -25 131 -25q66 0 115 35t49 106q0 87 -102 147l-121 72q-97 58 -97 151q0 75 54.5 118t136.5 43q70 0 128 -27q8 -4 5 -12l-6 -14q-4 -7 -13 -4q-60 24 -115 24q-62 0 -105 -30.5
t-43 -87.5q0 -47 23 -77.5t65 -55.5l102 -62q65 -40 96.5 -79.5t31.5 -101.5z" />
    <glyph glyph-name="afii10055" unicode="&#x406;" horiz-adv-x="336" 
d="M185 29h71q6 0 6 -6v-17q0 -6 -6 -6h-177q-6 0 -6 6v17q0 6 6 6h66v630h-68q-7 0 -7 6v17q0 5 6 5h179q7 0 7 -6v-16q0 -6 -7 -6h-70v-630z" />
    <glyph glyph-name="afii10056" unicode="&#x407;" horiz-adv-x="336" 
d="M185 29h71q6 0 6 -6v-17q0 -6 -6 -6h-177q-6 0 -6 6v17q0 6 6 6h66v630h-68q-7 0 -7 6v17q0 5 6 5h179q7 0 7 -6v-16q0 -6 -7 -6h-70v-630zM61 778q0 12 8 20.5t19 8.5q12 0 20.5 -8t8.5 -21q0 -11 -8.5 -19t-20.5 -8q-11 0 -19 8t-8 19zM214 778q0 12 8 20.5t19 8.5
q12 0 20.5 -8t8.5 -21q0 -11 -8.5 -19t-20.5 -8q-11 0 -19 8t-8 19z" />
    <glyph glyph-name="afii10057" unicode="&#x408;" horiz-adv-x="344" 
d="M217 659h-117q-8 0 -8 7v16q0 5 6 5h151q8 0 8 -8v-451q0 -80 -9 -127.5t-37 -73.5q-38 -36 -113 -36q-24 0 -40 4q-9 2 -7 10l3 14q2 7 9 6q19 -4 40 -4q70 0 94 45q20 37 20 137v456z" />
    <glyph glyph-name="afii10058" unicode="&#x409;" horiz-adv-x="903" 
d="M517 351v-317h110q45 0 79.5 7t64.5 24t46 50.5t16 82.5q0 166 -195 166q-73 0 -121 -13zM509 687q8 0 8 -8v-298q64 15 129 15q231 0 231 -197q0 -199 -245 -199h-141q-14 0 -14 12v642h-249v-82q0 -105 -4 -182t-17 -152t-34.5 -123.5t-58 -81t-87.5 -38.5
q-10 -1 -11 6l-5 18q-2 8 7 10q39 6 68.5 30.5t48 68t30 89t16.5 111t6.5 114.5t1.5 118v119q0 8 8 8h312z" />
    <glyph glyph-name="afii10059" unicode="&#x40a;" horiz-adv-x="898" 
d="M127 378h345v300q0 9 8 9h24q8 0 8 -10v-296q64 15 129 15q231 0 231 -197q0 -199 -245 -199h-142q-13 0 -13 12v333h-345v-336q0 -9 -8 -9h-25q-7 0 -7 9v669q0 9 8 9h24q8 0 8 -10v-299zM512 351v-317h110q45 0 79.5 7t64.5 24t46 50.5t16 82.5q0 166 -195 166
q-73 0 -121 -13z" />
    <glyph glyph-name="afii10060" unicode="&#x40b;" horiz-adv-x="615" 
d="M211 654v-254q79 15 146 15q210 0 210 -177v-230q0 -8 -8 -8h-24q-8 0 -8 8v228q0 83 -48 114.5t-130 31.5q-73 0 -138 -13v-361q0 -8 -8 -8h-24q-8 0 -8 8v646h-158q-7 0 -7 7v20q0 6 7 6h428q5 0 7 -1.5t1 -5.5l-2 -19q-1 -7 -13 -7h-223z" />
    <glyph glyph-name="afii10061" unicode="&#x40c;" horiz-adv-x="570" 
d="M127 336v-328q0 -8 -8 -8h-24q-8 0 -8 8v669q0 10 9 10h23q8 0 8 -11v-308h90q74 0 108.5 25.5t51.5 86.5l22 79q9 33 16 51.5t20.5 40.5t33 31.5t47.5 9.5h4q8 0 8 -7v-20q0 -9 -8 -9h-4q-35 0 -50 -22.5t-31 -82.5l-22 -82q-13 -48 -37 -76t-64 -41v-1q30 -8 50.5 -29
t44.5 -65l136 -245q7 -12 -6 -12h-24q-11 0 -16 9l-127 231q-34 62 -66 79t-104 17h-73zM229 751l128 102q10 7 16 -1l15 -22q6 -9 -3 -14l-145 -86q-5 -4 -9 2l-5 8q-4 6 3 11z" />
    <glyph glyph-name="uni040D" unicode="&#x40d;" horiz-adv-x="648" 
d="M127 679v-551l394 490v61q0 8 8 8h24q8 0 8 -8v-671q0 -8 -8 -8h-24q-8 0 -8 8v554l-394 -487v-67q0 -8 -8 -8h-24q-8 0 -8 8v671q0 8 8 8h24q8 0 8 -8zM272 854l128 -102q7 -5 3 -11l-5 -8q-4 -6 -9 -2l-145 86q-9 5 -3 14l15 22q6 8 16 1z" />
    <glyph glyph-name="afii10062" unicode="&#x40e;" horiz-adv-x="494" 
d="M138 851h18q7 0 7 -8q2 -32 27.5 -52t70.5 -20t70.5 20t27.5 52q0 8 7 8h18q7 0 7 -8q0 -44 -35 -73t-95 -29t-95 28.5t-35 73.5q0 8 7 8zM255 167l-212 510q-4 10 5 10h27q10 0 13 -9l187 -462h1l168 462q3 9 13 9h22q10 0 6 -9l-200 -536q-32 -86 -67 -118.5
t-105 -32.5q-13 0 -28 3q-8 2 -7 9l3 18q2 7 10 6q18 -2 28 -2q85 0 121 100z" />
    <glyph glyph-name="afii10145" unicode="&#x40f;" horiz-adv-x="624" 
d="M127 34h370v645q0 8 8 8h24q8 0 8 -9v-666q0 -12 -13 -12h-192v-184q0 -8 -8 -8h-21q-8 0 -8 8v184h-195q-13 0 -13 12v666q0 9 8 9h24q8 0 8 -10v-643z" />
    <glyph glyph-name="afii10017" unicode="&#x410;" horiz-adv-x="556" 
d="M21 13l240 665q3 9 10 9h21q7 0 10 -8l235 -668q3 -11 -8 -11h-26q-10 0 -13 8l-74 223h-277l-79 -225q-2 -6 -9 -6h-24q-10 0 -6 13zM150 263h256l-126 365z" />
    <glyph glyph-name="afii10018" unicode="&#x411;" horiz-adv-x="529" 
d="M127 654v-264q66 15 132 15q235 0 235 -201q0 -204 -249 -204h-144q-14 0 -14 12v661q0 14 14 14h353q5 0 7 -1.5t1 -5.5l-2 -19q-1 -7 -13 -7h-320zM127 359v-325h112q98 0 154.5 36t56.5 132q0 170 -199 170q-74 0 -124 -13z" />
    <glyph glyph-name="afii10019" unicode="&#x412;" horiz-adv-x="526" 
d="M475 189q0 -104 -61.5 -146.5t-171.5 -42.5h-141q-14 0 -14 13v660q0 14 14 14h118q205 0 205 -159q0 -58 -31.5 -104.5t-90.5 -58.5v-1q77 -1 125 -50.5t48 -124.5zM382 526q0 33 -10.5 57.5t-26.5 38t-40.5 21t-46.5 9.5t-51 2h-80v-276h89q166 0 166 148zM431 188
q0 157 -198 157h-106v-311h106q93 0 145.5 33t52.5 121z" />
    <glyph glyph-name="afii10020" unicode="&#x413;" horiz-adv-x="474" 
d="M127 654v-646q0 -8 -8 -8h-23q-9 0 -9 8v665q0 14 14 14h354q5 0 7 -1.5t1 -5.5l-2 -19q-1 -7 -10 -7h-324z" />
    <glyph glyph-name="afii10021" unicode="&#x414;" horiz-adv-x="650" 
d="M529 34h66q8 0 8 -8v-210q0 -8 -8 -8h-21q-8 0 -8 8v184h-520v-184q0 -8 -8 -8h-21q-8 0 -8 8v210q0 8 8 8h27q178 207 178 532v113q0 8 8 8h291q8 0 8 -8v-645zM261 654v-75q0 -332 -172 -545h400v620h-228z" />
    <glyph glyph-name="afii10022" unicode="&#x415;" horiz-adv-x="470" 
d="M127 34h284q9 0 9 -8v-18q0 -8 -9 -8h-311q-13 0 -13 12v661q0 8 3 11t12 3h308q7 0 7 -6l-2 -20q-1 -7 -10 -7h-278v-276h241q9 0 9 -8v-17q0 -8 -9 -8h-241v-311z" />
    <glyph glyph-name="afii10024" unicode="&#x416;" horiz-adv-x="863" 
d="M449 368h75q74 0 108 25.5t46 86.5l16 79q13 64 38 98.5t78 34.5h4q8 0 8 -7v-18q0 -9 -8 -9h-4q-36 0 -52.5 -23.5t-27.5 -81.5l-16 -84q-17 -90 -91 -116v-1q31 -10 50 -30.5t40 -63.5l117 -246q6 -12 -6 -12h-25q-11 0 -15 9l-110 231q-29 61 -61.5 78.5t-103.5 17.5
h-60v-325q0 -11 -9 -11h-23q-8 0 -8 11v325h-55q-72 0 -105 -17.5t-62 -78.5l-109 -230q-4 -10 -15 -10h-24q-12 0 -6 12l117 245q21 43 39.5 63t49.5 31v1q-38 14 -59.5 41.5t-30.5 75.5l-16 84q-11 58 -27.5 81.5t-52.5 23.5h-4q-8 0 -8 9v18q0 7 8 7h4q56 0 79.5 -33.5
t37.5 -99.5l16 -79q12 -60 45 -86t104 -26h74v309q0 10 9 10h23q8 0 8 -11v-308z" />
    <glyph glyph-name="afii10025" unicode="&#x417;" horiz-adv-x="491" 
d="M449 193q0 -89 -66.5 -145.5t-167.5 -56.5q-105 0 -170 29q-7 3 -4 11l7 19q3 7 11 4q79 -28 151 -28q88 0 142.5 43t54.5 120q0 80 -55 123t-143 43h-69q-8 0 -8 7v18q0 7 7 7h62q83 0 133.5 34.5t50.5 105.5q0 67 -51 102.5t-128 35.5q-80 0 -142 -28q-8 -3 -10 3
l-6 17q-3 7 6 11q64 30 158 30t153.5 -44.5t59.5 -122.5q0 -56 -29 -100.5t-86 -57.5v-1q63 -13 101 -63t38 -116z" />
    <glyph glyph-name="afii10026" unicode="&#x418;" horiz-adv-x="648" 
d="M127 679v-551l394 490v61q0 8 8 8h24q8 0 8 -8v-671q0 -8 -8 -8h-24q-8 0 -8 8v554l-394 -487v-67q0 -8 -8 -8h-24q-8 0 -8 8v671q0 8 8 8h24q8 0 8 -8z" />
    <glyph glyph-name="afii10027" unicode="&#x419;" horiz-adv-x="648" 
d="M206 851h18q7 0 7 -8q2 -32 27.5 -52t70.5 -20t70.5 20t27.5 52q0 8 7 8h18q7 0 7 -8q0 -44 -35 -73t-95 -29t-95 28.5t-35 73.5q0 8 7 8zM127 679v-551l394 490v61q0 8 8 8h24q8 0 8 -8v-671q0 -8 -8 -8h-24q-8 0 -8 8v554l-394 -487v-67q0 -8 -8 -8h-24q-8 0 -8 8v671
q0 8 8 8h24q8 0 8 -8z" />
    <glyph glyph-name="afii10028" unicode="&#x41a;" horiz-adv-x="570" 
d="M127 336v-328q0 -8 -8 -8h-24q-8 0 -8 8v669q0 10 9 10h23q8 0 8 -11v-308h90q74 0 108.5 25.5t51.5 86.5l22 79q9 33 16 51.5t20.5 40.5t33 31.5t47.5 9.5h4q8 0 8 -7v-20q0 -9 -8 -9h-4q-35 0 -50 -22.5t-31 -82.5l-22 -82q-13 -48 -37 -76t-64 -41v-1q30 -8 50.5 -29
t44.5 -65l136 -245q7 -12 -6 -12h-24q-11 0 -16 9l-127 231q-34 62 -66 79t-104 17h-73z" />
    <glyph glyph-name="afii10029" unicode="&#x41b;" horiz-adv-x="614" 
d="M229 654v-82q0 -105 -4 -182t-17 -152t-34.5 -123.5t-58 -81t-87.5 -38.5q-10 -1 -11 6l-5 18q-2 8 7 10q39 6 68.5 30.5t48 68t30 89t16.5 111t6.5 114.5t1.5 118v119q0 8 8 8h321q8 0 8 -8v-671q0 -8 -8 -8h-23q-9 0 -9 8v646h-258z" />
    <glyph glyph-name="afii10030" unicode="&#x41c;" horiz-adv-x="798" 
d="M642 578l-223 -570q-3 -8 -11 -8h-12q-9 0 -12 8l-236 570h-2l-15 -570q0 -8 -7 -8h-25q-7 0 -7 7l21 668q0 12 10 12h15q9 0 13 -10l250 -609h2l242 612q2 7 10 7h21q7 0 7 -7l23 -671q0 -9 -9 -9h-22q-9 0 -9 10l-22 568h-2z" />
    <glyph glyph-name="afii10031" unicode="&#x41d;" horiz-adv-x="621" 
d="M494 378v301q0 8 8 8h24q8 0 8 -9v-669q0 -9 -7 -9h-24q-4 0 -5.5 0.5t-2.5 2.5t-1 7v335h-367v-336q0 -9 -8 -9h-25q-7 0 -7 9v669q0 9 8 9h24q8 0 8 -10v-299h367z" />
    <glyph glyph-name="afii10032" unicode="&#x41e;" horiz-adv-x="621" 
d="M570 348q0 -168 -75 -262.5t-190 -94.5q-119 0 -186.5 91.5t-67.5 258.5q0 164 74 260.5t190 96.5q120 0 187.5 -94t67.5 -256zM525 345q0 147 -54.5 232.5t-157.5 85.5q-98 0 -157.5 -90.5t-59.5 -228.5q0 -146 55 -232.5t157 -86.5q98 0 157.5 89t59.5 231z" />
    <glyph glyph-name="afii10033" unicode="&#x41f;" horiz-adv-x="616" 
d="M127 654v-646q0 -8 -8 -8h-24q-8 0 -8 8v671q0 8 8 8h426q8 0 8 -8v-671q0 -8 -8 -8h-24q-8 0 -8 8v646h-362z" />
    <glyph glyph-name="afii10034" unicode="&#x420;" horiz-adv-x="478" 
d="M127 278v-268q0 -10 -8 -10h-24q-8 0 -8 9v668q0 10 10 10h110q106 0 168 -47.5t62 -151.5q0 -101 -63.5 -155.5t-162.5 -54.5h-84zM127 311h80q86 0 136.5 43t50.5 134q0 95 -52.5 130.5t-144.5 35.5h-70v-343z" />
    <glyph glyph-name="afii10035" unicode="&#x421;" horiz-adv-x="549" 
d="M343 25q77 0 153 38q8 3 11 -4l7 -16q3 -7 -6 -12q-77 -40 -172 -40q-139 0 -212 100t-73 253q0 147 77.5 250.5t210.5 103.5q98 0 167 -43q6 -4 3 -12l-7 -14q-4 -8 -12 -4q-67 39 -146 39q-82 0 -140 -48.5t-83 -118t-25 -148.5q0 -62 13.5 -118t42 -103t77.5 -75
t114 -28z" />
    <glyph glyph-name="afii10036" unicode="&#x422;" horiz-adv-x="514" 
d="M272 654v-646q0 -8 -8 -8h-23q-9 0 -9 8v646h-198q-7 0 -7 7v20q0 6 7 6h442q5 0 7.5 -2t1.5 -6l-2 -17q-1 -8 -11 -8h-200z" />
    <glyph glyph-name="afii10037" unicode="&#x423;" horiz-adv-x="494" 
d="M255 167l-212 510q-4 10 5 10h27q10 0 13 -9l187 -462h1l168 462q3 9 13 9h22q10 0 6 -9l-200 -536q-32 -86 -67 -118.5t-105 -32.5q-13 0 -28 3q-8 2 -7 9l3 18q2 7 10 6q18 -2 28 -2q85 0 121 100z" />
    <glyph glyph-name="afii10038" unicode="&#x424;" horiz-adv-x="649" 
d="M304 635v81q0 9 8 9h24q8 0 8 -10v-79q138 -4 205 -74.5t67 -213.5q0 -146 -72.5 -218.5t-199.5 -78.5v-80q0 -9 -8 -9h-25q-7 0 -7 9v80q-136 4 -203.5 73.5t-67.5 216.5q0 142 71 215t200 79zM343 603v-520q110 6 170 73.5t60 188.5q0 125 -56.5 189.5t-173.5 68.5z
M305 83v519q-109 -6 -169 -74t-60 -184q0 -252 229 -261z" />
    <glyph glyph-name="afii10039" unicode="&#x425;" horiz-adv-x="512" 
d="M257 323l-175 -314q-4 -9 -15 -9h-20q-13 0 -6 12l196 347l-176 316q-6 12 8 12h20q11 0 15 -8l156 -280l156 280q4 8 15 8h20q11 0 6 -11l-177 -313l198 -351q7 -12 -9 -12h-22q-11 0 -17 10z" />
    <glyph glyph-name="afii10040" unicode="&#x426;" horiz-adv-x="652" 
d="M488 34v645q0 8 8 8h24q8 0 8 -8v-645h69q8 0 8 -8v-210q0 -8 -8 -8h-20q-9 0 -9 8v184h-467q-14 0 -14 12v667q0 8 8 8h24q8 0 8 -8v-645h361z" />
    <glyph glyph-name="afii10041" unicode="&#x427;" horiz-adv-x="551" 
d="M424 274q-91 -20 -161 -20q-227 0 -227 211v214q0 8 8 8h24q8 0 8 -8v-212q0 -101 52.5 -140.5t140.5 -39.5q79 0 155 18v374q0 8 8 8h24q8 0 8 -8v-670q0 -9 -7 -9h-24q-4 0 -5.5 0.5t-2.5 2.5t-1 7v264z" />
    <glyph glyph-name="afii10042" unicode="&#x428;" horiz-adv-x="870" 
d="M743 34v645q0 8 8 8h24q8 0 8 -8v-667q0 -12 -14 -12h-668q-14 0 -14 12v667q0 8 8 8h24q8 0 8 -8v-645h288v645q0 8 8 8h24q8 0 8 -8v-645h288z" />
    <glyph glyph-name="afii10043" unicode="&#x429;" horiz-adv-x="901" 
d="M737 34v645q0 8 8 8h24q8 0 8 -8v-645h69q8 0 8 -8v-210q0 -8 -8 -8h-20q-9 0 -9 8v184h-716q-14 0 -14 12v667q0 8 8 8h24q8 0 8 -8v-645h285v645q0 8 8 8h24q8 0 8 -8v-645h285z" />
    <glyph glyph-name="afii10044" unicode="&#x42a;" horiz-adv-x="587" 
d="M208 350v-316h108q45 0 79 7t64 24t45.5 50.5t15.5 82.5q0 165 -192 165q-72 0 -120 -13zM168 654h-157q-7 0 -7 7v20q0 6 7 6h189q8 0 8 -10v-296q64 15 127 15q229 0 229 -197q0 -199 -243 -199h-140q-13 0 -13 12v642z" />
    <glyph glyph-name="afii10045" unicode="&#x42b;" horiz-adv-x="713" 
d="M626 677v-668q0 -9 -8 -9h-25q-7 0 -7 9v669q0 9 8 9h24q8 0 8 -10zM127 677v-296q64 15 128 15q230 0 230 -197q0 -199 -244 -199h-140q-14 0 -14 12v666q0 9 8 9h24q8 0 8 -10zM127 350v-316h109q45 0 79.5 7t64 24t45.5 50.5t16 82.5q0 165 -193 165q-73 0 -121 -13z
" />
    <glyph glyph-name="afii10046" unicode="&#x42c;" horiz-adv-x="524" 
d="M127 677v-296q66 15 133 15q238 0 238 -197q0 -199 -252 -199h-146q-13 0 -13 12v666q0 9 8 9h24q8 0 8 -10zM127 350v-316h113q47 0 83 7t67 24t47.5 50.5t16.5 82.5q0 165 -201 165q-76 0 -126 -13z" />
    <glyph glyph-name="afii10047" unicode="&#x42d;" horiz-adv-x="562" 
d="M135 375h342q-4 78 -29 140.5t-83.5 105.5t-143.5 43q-87 0 -157 -30q-9 -4 -11 3l-6 16q-2 7 6 12q78 33 175 33q143 0 218.5 -97.5t75.5 -246.5q0 -99 -33 -180t-104 -132t-170 -51q-103 0 -172 37q-8 5 -4 10l9 17q4 8 10 3q59 -33 160 -33q52 0 95 18t72.5 48.5
t50.5 71.5t31 85.5t11 92.5h-343q-7 0 -7 7v21q0 6 7 6z" />
    <glyph glyph-name="afii10048" unicode="&#x42e;" horiz-adv-x="787" 
d="M736 355q0 -172 -70.5 -268t-179.5 -96q-112 0 -175 92.5t-64 260.5h-120v-335q0 -9 -8 -9h-25q-7 0 -7 9v669q0 9 8 9h24q8 0 8 -10v-302h120q7 149 75.5 236t173.5 87q113 0 176.5 -92t63.5 -251zM693 352q0 143 -51.5 227.5t-147.5 84.5q-92 0 -148 -89t-56 -224
q0 -149 52.5 -238t146.5 -89q91 0 147.5 91.5t56.5 236.5z" />
    <glyph glyph-name="afii10049" unicode="&#x42f;" horiz-adv-x="535" 
d="M408 304h-65q-74 0 -109 -18t-64 -81l-92 -195q-5 -10 -15 -10h-25q-11 0 -5 12l102 211q18 37 36.5 58.5t44.5 32.5q-61 14 -97.5 60.5t-36.5 123.5q0 189 232 189h125q9 0 9 -9v-670q0 -8 -6 -8h-28q-6 0 -6 8v296zM408 336v318h-96q-88 0 -137.5 -35t-49.5 -119
q0 -82 46.5 -123t126.5 -41h110z" />
    <glyph glyph-name="afii10065" unicode="&#x430;" horiz-adv-x="503" 
d="M389 93q-17 -41 -56 -71.5t-102 -30.5q-87 0 -135 68.5t-48 173.5q0 121 56 190t138 69q44 0 84.5 -20.5t62.5 -62.5v64q0 9 10 9h16q10 0 10 -9v-400q0 -49 30 -49h5q8 0 8 -7v-10q0 -7 -8 -7h-18q-53 0 -53 69v24zM389 152v210q-45 101 -144 101q-72 0 -115 -61
t-43 -165q0 -101 40.5 -159.5t105.5 -58.5q117 0 156 133z" />
    <glyph glyph-name="afii10066" unicode="&#x431;" horiz-adv-x="511" 
d="M329 694l96 14q7 1 7 -6v-23q0 -6 -7 -7l-89 -10q-145 -17 -194 -104q-31 -54 -36 -165q28 35 73.5 56.5t97.5 21.5q81 0 132.5 -59.5t51.5 -169.5q0 -113 -53 -182t-144 -69q-51 0 -88.5 20.5t-58 51.5t-32.5 79t-15 90.5t-3 98.5q0 90 10.5 151.5t40.5 104.5
q58 85 211 107zM104 351v-18q0 -164 38.5 -238.5t123.5 -74.5q75 0 116 64.5t41 151.5q0 36 -7.5 69.5t-23.5 65t-47.5 51t-74.5 19.5q-52 0 -96.5 -26.5t-69.5 -63.5z" />
    <glyph glyph-name="afii10067" unicode="&#x432;" horiz-adv-x="447" 
d="M84 482h135q167 0 167 -114q0 -85 -84 -109v-1q51 -8 83 -40t32 -79q0 -139 -180 -139h-153q-7 0 -7 9v467q0 6 7 6zM113 455v-188h86q149 0 149 96q0 54 -40 73t-112 19h-83zM113 240v-213h98q34 0 59 3.5t52 13.5t41.5 33t14.5 57q0 61 -56 87q-38 19 -113 19h-96z" />
    <glyph glyph-name="afii10068" unicode="&#x433;" horiz-adv-x="361" 
d="M113 455v-447q0 -8 -7 -8h-22q-7 0 -7 8v468q0 6 7 6h257q7 0 7 -6v-15q0 -6 -7 -6h-228z" />
    <glyph glyph-name="afii10069" unicode="&#x434;" horiz-adv-x="503" 
d="M37 27q115 141 115 341v108q0 6 7 6h240q7 0 7 -6v-449h51q7 0 7 -6v-154q0 -8 -7 -8h-16q-7 0 -7 8v133h-387v-133q0 -8 -7 -8h-16q-7 0 -7 8v154q0 6 7 6h13zM186 455v-79q0 -197 -110 -349h294v428h-184z" />
    <glyph glyph-name="afii10070" unicode="&#x435;" horiz-adv-x="468" 
d="M87 245q0 -97 42 -161t135 -64q61 0 114 21q11 4 13 -4l4 -13q2 -6 -6 -10q-55 -23 -130 -23q-103 0 -157 67.5t-54 183.5q0 108 57 179t151 71q78 0 123 -57t45 -147v-30q0 -13 -15 -13h-322zM88 272h301v20q0 73 -33 122t-102 49q-77 0 -118 -54.5t-48 -136.5z" />
    <glyph glyph-name="afii10072" unicode="&#x436;" horiz-adv-x="614" 
d="M322 254h33q53 0 80.5 23.5t38.5 71.5l11 47q6 23 10 36t12.5 27.5t21.5 21t31 6.5h4q7 0 7 -6v-16q0 -8 -7 -8h-4q-18 0 -27 -16.5t-18 -52.5l-12 -49q-20 -80 -75 -98v-1q23 -8 35 -21t27 -41l87 -168q7 -10 -3 -10h-24q-10 0 -14 8l-80 154q-20 39 -41 52t-64 13h-29
v-218q0 -9 -7 -9h-21q-7 0 -7 9v218h-30q-40 0 -60.5 -13t-40.5 -52l-80 -154q-4 -8 -14 -8h-22q-9 0 -3 10l87 168q14 26 26.5 39t34.5 22v1q-56 17 -76 99l-12 49q-9 37 -17.5 53t-26.5 16h-4q-7 0 -7 8v16q0 6 7 6h4q35 0 50.5 -23t26.5 -68l11 -47q21 -95 112 -95h34
v219q0 9 7 9h21q7 0 7 -9v-219z" />
    <glyph glyph-name="afii10073" unicode="&#x437;" horiz-adv-x="391" 
d="M354 140q0 -72 -48.5 -110.5t-129.5 -38.5q-80 0 -136 28q-8 3 -4 10l7 14q3 6 11 3q55 -26 122 -26q63 0 102 32t39 86q0 55 -42 81.5t-107 26.5h-51q-7 0 -7 7v16q0 6 7 6h51q131 0 131 97q0 45 -33 68t-87 23q-58 0 -111 -27q-6 -4 -10 2l-7 13q-3 6 4 9q56 32 131 32
q69 0 109.5 -29t40.5 -89q0 -87 -80 -111v-1q45 -11 71.5 -44.5t26.5 -77.5z" />
    <glyph glyph-name="afii10074" unicode="&#x438;" horiz-adv-x="518" 
d="M113 101l292 327v46q0 8 7 8h22q7 0 7 -8v-466q0 -8 -7 -8h-22q-7 0 -7 8v373l-292 -324v-49q0 -8 -7 -8h-22q-7 0 -7 8v466q0 8 7 8h22q7 0 7 -8v-373z" />
    <glyph glyph-name="afii10075" unicode="&#x439;" horiz-adv-x="518" 
d="M148 673h17q7 0 7 -8q0 -34 23 -56.5t64 -22.5t63 22t24 57q0 8 7 8h17q7 0 7 -8q-5 -47 -34.5 -77t-84.5 -30q-53 0 -85 30.5t-32 76.5q0 8 7 8zM113 101l292 327v46q0 8 7 8h22q7 0 7 -8v-466q0 -8 -7 -8h-22q-7 0 -7 8v373l-292 -324v-49q0 -8 -7 -8h-22q-7 0 -7 8
v466q0 8 7 8h22q7 0 7 -8v-373z" />
    <glyph glyph-name="afii10076" unicode="&#x43a;" horiz-adv-x="452" 
d="M113 254h64q109 1 132 95l12 47q8 31 14.5 47t23.5 30t43 14h4q7 0 7 -6v-16q0 -8 -7 -8h-4q-19 0 -29.5 -17t-19.5 -52l-13 -49q-20 -78 -89 -98v-1q41 -14 69 -62l100 -168q7 -10 -3 -10h-24q-9 0 -14 8l-91 154q-24 39 -46.5 51.5t-69.5 13.5h-59v-218q0 -9 -7 -9h-22
q-7 0 -7 9v464q0 9 7 9h22q7 0 7 -9v-219z" />
    <glyph glyph-name="afii10077" unicode="&#x43b;" horiz-adv-x="485" 
d="M185 455v-90q0 -81 -6 -140t-22 -111.5t-47 -82.5t-78 -36q-8 -1 -9 5l-4 15q-1 7 6 8q34 5 58.5 29t37.5 54.5t20.5 77.5t9 83.5t1.5 87.5v121q0 6 7 6h242q7 0 7 -6v-468q0 -8 -7 -8h-22q-7 0 -7 8v447h-187z" />
    <glyph glyph-name="afii10078" unicode="&#x43c;" horiz-adv-x="593" 
d="M490 8l-10 412h-2l-158 -411q-3 -9 -12 -9h-17q-8 0 -12 9l-166 411h-2l-7 -412q0 -8 -7 -8h-22q-7 0 -7 8l13 466q0 8 8 8h23q8 0 12 -9l174 -426h3l168 426q4 9 12 9h24q8 0 8 -8l13 -466q0 -8 -7 -8h-22q-7 0 -7 8z" />
    <glyph glyph-name="afii10079" unicode="&#x43d;" horiz-adv-x="517" 
d="M404 273v201q0 8 7 8h22q7 0 7 -8v-466q0 -8 -7 -8h-22q-7 0 -7 8v236h-291v-236q0 -8 -7 -8h-22q-7 0 -7 8v466q0 8 7 8h22q7 0 7 -8v-201h291z" />
    <glyph glyph-name="afii10080" unicode="&#x43e;" horiz-adv-x="502" 
d="M454 241q0 -105 -53 -177.5t-154 -72.5q-70 0 -116.5 37t-64.5 91.5t-18 123.5q0 104 52.5 176.5t152.5 72.5q104 0 152.5 -71t48.5 -180zM415 240q0 57 -14 105t-52.5 83t-95.5 35q-58 0 -96.5 -33.5t-54 -80.5t-15.5 -105q0 -42 8 -79.5t25.5 -71.5t50 -54t77.5 -20
q58 0 97 33.5t54.5 81.5t15.5 106z" />
    <glyph glyph-name="afii10081" unicode="&#x43f;" horiz-adv-x="509" 
d="M396 455h-283v-447q0 -8 -7 -8h-22q-7 0 -7 8v468q0 6 7 6h341q7 0 7 -6v-468q0 -8 -7 -8h-22q-7 0 -7 8v447z" />
    <glyph glyph-name="afii10082" unicode="&#x440;" horiz-adv-x="509" 
d="M461 242q0 -112 -57 -181.5t-145 -69.5q-45 0 -84.5 20t-61.5 57v-265q0 -9 -8 -9h-20q-8 0 -8 9v671q0 8 8 8h20q8 0 8 -8v-60q60 78 158 78q94 0 142 -71t48 -179zM422 241q0 100 -40.5 161t-114.5 61q-45 0 -88.5 -25.5t-65.5 -65.5v-254q20 -43 58.5 -70.5
t82.5 -27.5q77 0 122.5 59.5t45.5 161.5z" />
    <glyph glyph-name="afii10083" unicode="&#x441;" horiz-adv-x="405" 
d="M260 21q62 0 108 23q6 3 9 -4l6 -12q2 -6 -6 -10q-54 -27 -117 -27q-105 0 -158.5 67.5t-53.5 184.5q0 110 58.5 179.5t157.5 69.5q60 0 111 -28q9 -5 6 -11l-7 -15q-2 -6 -11 -2q-56 26 -99 26q-81 0 -129 -58.5t-48 -158.5q0 -96 41.5 -160t131.5 -64z" />
    <glyph glyph-name="afii10084" unicode="&#x442;" horiz-adv-x="401" 
d="M182 455h-163q-7 0 -7 8v13q0 6 7 6h363q7 0 7 -6v-13q0 -8 -7 -8h-164v-447q0 -8 -7 -8h-22q-7 0 -7 8v447z" />
    <glyph glyph-name="afii10085" unicode="&#x443;" horiz-adv-x="434" 
d="M226 34h1l146 439q4 9 12 9h17q12 0 7 -12l-183 -529q-31 -91 -68 -126t-105 -35q-19 0 -32 4q-8 3 -7 11l3 12q2 8 10 7l12 -2q12 -1 20 -1q83 0 117 90l32 84l-171 487q-3 10 7 10h19q9 0 12 -8z" />
    <glyph glyph-name="afii10086" unicode="&#x444;" horiz-adv-x="580" 
d="M274 491v203q0 10 7 11l18 3q9 2 9 -7v-209q67 -2 114 -22t73 -55.5t37 -77.5t11 -96q0 -110 -56.5 -176.5t-178.5 -72.5v-190q0 -8 -7 -8h-20q-7 0 -7 8v189q-130 3 -183.5 69t-53.5 183q0 110 57 176.5t180 71.5zM274 18v445q-107 -5 -153.5 -65t-46.5 -154
q0 -220 200 -226zM308 464v-446q105 6 151.5 66.5t46.5 155.5q0 216 -198 224z" />
    <glyph glyph-name="afii10087" unicode="&#x445;" horiz-adv-x="424" 
d="M211 224l-135 -216q-5 -8 -15 -8h-18q-10 0 -3 11l154 241l-134 221q-4 9 5 9h19q9 0 16 -10l114 -189l120 191q5 8 13 8h17q5 0 6.5 -3.5t-1.5 -6.5l-138 -217l150 -244q7 -11 -5 -11h-21q-9 0 -14 8z" />
    <glyph glyph-name="afii10088" unicode="&#x446;" horiz-adv-x="517" 
d="M113 27h271v447q0 8 7 8h22q7 0 7 -8v-447h51q7 0 7 -6v-154q0 -8 -7 -8h-16q-7 0 -7 8v133h-364q-7 0 -7 6v468q0 8 7 8h22q7 0 7 -8v-447z" />
    <glyph glyph-name="afii10089" unicode="&#x447;" horiz-adv-x="447" 
d="M334 216v258q0 8 7 8h22q7 0 7 -8v-466q0 -8 -7 -8h-22q-7 0 -7 8v180q-66 -24 -141 -24q-88 0 -122 41t-34 120v149q0 8 7 8h22q7 0 7 -8v-137q0 -35 3.5 -57t15.5 -44.5t39 -33t69 -10.5q71 0 134 24z" />
    <glyph glyph-name="afii10090" unicode="&#x448;" horiz-adv-x="724" 
d="M113 27h232v447q0 8 7 8h21q7 0 7 -8v-447h231v447q0 8 7 8h22q7 0 7 -8v-468q0 -6 -7 -6h-556q-7 0 -7 6v468q0 8 7 8h22q7 0 7 -8v-447z" />
    <glyph glyph-name="afii10091" unicode="&#x449;" horiz-adv-x="724" 
d="M113 27h222v447q0 8 7 8h21q7 0 7 -8v-447h221v447q0 8 7 8h22q7 0 7 -8v-447h51q7 0 7 -6v-154q0 -8 -7 -8h-16q-7 0 -7 8v133h-571q-7 0 -7 6v468q0 8 7 8h22q7 0 7 -8v-447z" />
    <glyph glyph-name="afii10092" unicode="&#x44a;" horiz-adv-x="520" 
d="M155 455h-146q-7 0 -7 8v13q0 6 7 6h175q7 0 7 -8v-204q53 16 111 16q38 0 71.5 -7t63 -22t46.5 -43.5t17 -67.5q0 -43 -21 -74.5t-57 -48.5t-75.5 -24.5t-83.5 -7.5q-48 0 -99 9q-9 2 -9 11v444zM191 241v-216q36 -6 77 -6q47 0 88 10t73.5 39t32.5 75q0 33 -15.5 56.5
t-42.5 35t-54.5 16.5t-58.5 5q-57 0 -100 -15z" />
    <glyph glyph-name="afii10093" unicode="&#x44b;" horiz-adv-x="612" 
d="M535 474v-466q0 -8 -7 -8h-22q-7 0 -7 8v466q0 8 7 8h22q7 0 7 -8zM113 474v-204q52 16 109 16q37 0 69.5 -7t62 -22t46.5 -43.5t17 -67.5q0 -43 -21 -74.5t-56 -48.5t-74 -24.5t-83 -7.5q-46 0 -97 9q-9 2 -9 11v463q0 8 7 8h22q7 0 7 -8zM113 241v-216q34 -6 76 -6
q34 0 65 6t60.5 19t47 38.5t17.5 60.5q0 33 -15.5 56.5t-41.5 35t-53 16.5t-58 5q-55 0 -98 -15z" />
    <glyph glyph-name="afii10094" unicode="&#x44c;" horiz-adv-x="449" 
d="M113 474v-204q55 16 113 16q39 0 73 -7t64.5 -22t48 -43.5t17.5 -67.5q0 -43 -21.5 -74.5t-58.5 -48.5t-77 -24.5t-85 -7.5q-49 0 -101 9q-9 2 -9 11v463q0 8 7 8h22q7 0 7 -8zM113 241v-216q36 -6 79 -6q35 0 67.5 6t63 19t49 38.5t18.5 60.5q0 43 -29 69.5t-65.5 35
t-80.5 8.5q-57 0 -102 -15z" />
    <glyph glyph-name="afii10095" unicode="&#x44d;" horiz-adv-x="450" 
d="M373 240h-269q-7 0 -7 8v15q0 6 7 6h268q-6 86 -53 139.5t-145 53.5q-68 0 -116 -22q-6 -3 -9 2l-7 17q-2 5 5 8q61 25 134 25q111 0 171 -68.5t60 -180.5q0 -107 -64.5 -179.5t-177.5 -72.5q-70 0 -129 24q-7 3 -5 8l7 18q2 6 9 3q42 -21 121 -21q89 0 144 58.5
t56 158.5z" />
    <glyph glyph-name="afii10096" unicode="&#x44e;" horiz-adv-x="654" 
d="M113 474v-209h111q5 99 53 163t140 64q52 0 90 -20t59 -55.5t30.5 -79t9.5 -96.5q0 -51 -11.5 -95t-34 -79.5t-61 -55.5t-88.5 -20q-97 0 -141.5 69t-45.5 178h-111v-230q0 -8 -7 -8h-22q-7 0 -7 8v466q0 8 7 8h22q7 0 7 -8zM567 240q0 59 -12.5 106.5t-47.5 82t-90 34.5
t-91.5 -33t-50.5 -80t-14 -106q0 -44 7 -81.5t23.5 -71t47 -53t73.5 -19.5q55 0 91 33t50 80.5t14 107.5z" />
    <glyph glyph-name="afii10097" unicode="&#x44f;" horiz-adv-x="461" 
d="M348 221h-89q-43 0 -64 -12.5t-43 -52.5l-81 -148q-4 -8 -13 -8h-23q-9 0 -3 10l90 162q23 44 54 55v1q-110 15 -110 120q0 73 50 105q42 29 140 29h121q7 0 7 -9v-465q0 -8 -7 -8h-22q-7 0 -7 8v213zM348 248v207h-98q-68 0 -107.5 -22.5t-39.5 -82.5q0 -58 38.5 -80
t107.5 -22h99z" />
    <glyph glyph-name="uni0450" unicode="&#x450;" horiz-adv-x="468" 
d="M87 245q0 -97 42 -161t135 -64q61 0 114 21q11 4 13 -4l4 -13q2 -6 -6 -10q-55 -23 -130 -23q-103 0 -157 67.5t-54 183.5q0 108 57 179t151 71q78 0 123 -57t45 -147v-30q0 -13 -15 -13h-322zM88 272h301v20q0 73 -33 122t-102 49q-77 0 -118 -54.5t-48 -136.5zM176 694
l128 -102q7 -5 3 -11l-5 -8q-4 -6 -9 -2l-145 86q-9 5 -3 14l15 22q6 9 16 1z" />
    <glyph glyph-name="afii10071" unicode="&#x451;" horiz-adv-x="468" 
d="M87 245q0 -97 42 -161t135 -64q61 0 114 21q11 4 13 -4l4 -13q2 -6 -6 -10q-55 -23 -130 -23q-103 0 -157 67.5t-54 183.5q0 108 57 179t151 71q78 0 123 -57t45 -147v-30q0 -13 -15 -13h-322zM88 272h301v20q0 73 -33 122t-102 49q-77 0 -118 -54.5t-48 -136.5zM146 618
q0 12 8 20.5t19 8.5q12 0 20.5 -8t8.5 -21q0 -11 -8.5 -19t-20.5 -8q-11 0 -19 8t-8 19zM299 618q0 12 8 20.5t19 8.5q12 0 20.5 -8t8.5 -21q0 -11 -8.5 -19t-20.5 -8q-11 0 -19 8t-8 19z" />
    <glyph glyph-name="afii10099" unicode="&#x452;" horiz-adv-x="507" 
d="M90 603v92q0 9 7 10l21 3q4 1 6 -1t2 -7v-97h192q7 0 7 -6v-13q0 -8 -7 -8h-192v-162q55 47 139 47q97 0 146 -77t49 -197q0 -121 -56 -202t-163 -81h-14q-7 0 -7 7l1 16q0 6 7 6h12q92 0 137 71.5t45 176.5q0 115 -39 183t-124 68q-78 0 -133 -50v-374q0 -8 -7 -8h-22
q-7 0 -7 8v568h-60q-8 0 -8 7v14q0 6 7 6h61z" />
    <glyph glyph-name="afii10100" unicode="&#x453;" horiz-adv-x="361" 
d="M113 455v-447q0 -8 -7 -8h-22q-7 0 -7 8v468q0 6 7 6h257q7 0 7 -6v-15q0 -6 -7 -6h-228zM150 592l128 102q10 7 16 -1l15 -22q6 -9 -3 -14l-145 -86q-5 -4 -9 2l-5 8q-4 6 3 11z" />
    <glyph glyph-name="afii10101" unicode="&#x454;" horiz-adv-x="440" 
d="M79 270h275q7 0 7 -6v-15q0 -8 -7 -8h-276q1 -95 47 -157.5t144 -62.5q62 0 120 23q8 4 10 -3l5 -14q2 -6 -5 -9q-56 -27 -129 -27q-115 0 -173 67.5t-58 184.5q0 110 63.5 179.5t172.5 69.5q65 0 121 -28q8 -5 6 -10l-6 -16q-2 -6 -9 -3q-64 27 -113 27
q-85 0 -136.5 -51.5t-58.5 -140.5z" />
    <glyph glyph-name="afii10102" unicode="&#x455;" horiz-adv-x="363" 
d="M324 127q0 -60 -43.5 -98t-117.5 -38q-66 0 -114 28q-7 4 -4 10l6 14q3 6 9 3q56 -27 105 -27q55 0 90 27.5t35 75.5q0 41 -24 65t-69 44l-59 26q-92 40 -92 116q0 54 40 86.5t103 32.5q56 0 104 -22q8 -4 5 -12l-4 -11q-3 -9 -12 -4q-48 21 -92 21q-48 0 -78.5 -23
t-30.5 -61q0 -37 20.5 -59t59.5 -39l61 -27q102 -45 102 -128z" />
    <glyph glyph-name="afii10103" unicode="&#x456;" horiz-adv-x="210" 
d="M132 607q0 -11 -7.5 -18.5t-19.5 -7.5t-19.5 7.5t-7.5 18.5t7.5 18.5t19.5 7.5t19.5 -7.5t7.5 -18.5zM123 473v-464q0 -9 -8 -9h-20q-8 0 -8 9v464q0 9 8 9h20q8 0 8 -9z" />
    <glyph glyph-name="afii10104" unicode="&#x457;" horiz-adv-x="210" 
d="M0 618q0 12 8 20.5t19 8.5q12 0 20.5 -8t8.5 -21q0 -11 -8.5 -19t-20.5 -8q-11 0 -19 8t-8 19zM153 618q0 12 8 20.5t19 8.5q12 0 20.5 -8t8.5 -21q0 -11 -8.5 -19t-20.5 -8q-11 0 -19 8t-8 19zM123 473v-464q0 -9 -8 -9h-20q-8 0 -8 9v464q0 9 8 9h20q8 0 8 -9z" />
    <glyph glyph-name="afii10105" unicode="&#x458;" horiz-adv-x="235" 
d="M159 607q0 -11 -7.5 -18.5t-19.5 -7.5t-19 7.5t-7 18.5t7 18.5t19 7.5t19.5 -7.5t7.5 -18.5zM149 473v-461q0 -42 -2 -70.5t-11 -61.5t-24.5 -53t-45 -33.5t-70.5 -13.5q-21 0 -37 4q-8 3 -7 10l2 10q2 8 11 7q18 -3 34 -3q39 0 64 17.5t35 52t12.5 61t2.5 69.5v465
q0 9 8 9h20q8 0 8 -9z" />
    <glyph glyph-name="afii10106" unicode="&#x459;" horiz-adv-x="717" 
d="M404 241v-216q32 -6 73 -6q72 0 127 29t55 95q0 33 -14.5 56.5t-39.5 35t-51 16.5t-56 5q-52 0 -94 -15zM177 455v-90q0 -81 -6 -140t-22 -111.5t-47 -82.5t-78 -36q-8 -1 -9 5l-4 15q-1 7 6 8q34 5 58.5 29t37.5 54.5t20.5 77.5t9 83.5t1.5 87.5v121q0 6 7 6h246
q7 0 7 -6v-206q50 16 105 16q49 0 89 -11.5t69.5 -44.5t29.5 -84q0 -43 -20 -74.5t-54.5 -48.5t-72 -24.5t-79.5 -7.5q-45 0 -94 9q-9 2 -9 11v444h-191z" />
    <glyph glyph-name="afii10107" unicode="&#x45a;" horiz-adv-x="741" 
d="M113 273h279v201q0 8 7 8h22q7 0 7 -8v-199q52 13 105 13q79 0 133.5 -33t54.5 -108q0 -56 -36 -93t-84 -50t-106 -13q-45 0 -94 9q-9 2 -9 11v233h-279v-236q0 -8 -7 -8h-22q-7 0 -7 8v466q0 8 7 8h22q7 0 7 -8v-201zM428 245v-220q32 -6 73 -6q72 0 127 29t55 95
q0 33 -14.5 56.5t-39.5 35.5t-51 17t-56 5q-51 0 -94 -12z" />
    <glyph glyph-name="afii10108" unicode="&#x45b;" 
d="M88 603v92q0 9 7 10l21 3q4 1 6 -1t2 -7v-97h186q7 0 7 -6v-13q0 -8 -7 -8h-186v-186q28 30 73 50.5t95 20.5q79 0 119 -46.5t40 -130.5v-276q0 -8 -7 -8h-22q-7 0 -7 8v267q0 72 -27.5 113.5t-98.5 41.5q-92 0 -165 -76v-346q0 -8 -7 -8h-22q-7 0 -7 8v568h-60
q-8 0 -8 7v14q0 6 7 6h61z" />
    <glyph glyph-name="afii10109" unicode="&#x45c;" horiz-adv-x="452" 
d="M113 254h64q109 1 132 95l12 47q8 31 14.5 47t23.5 30t43 14h4q7 0 7 -6v-16q0 -8 -7 -8h-4q-19 0 -29.5 -17t-19.5 -52l-13 -49q-20 -78 -89 -98v-1q41 -14 69 -62l100 -168q7 -10 -3 -10h-24q-9 0 -14 8l-91 154q-24 39 -46.5 51.5t-69.5 13.5h-59v-218q0 -9 -7 -9h-22
q-7 0 -7 9v464q0 9 7 9h22q7 0 7 -9v-219zM159 592l128 102q10 7 16 -1l15 -22q6 -9 -3 -14l-145 -86q-5 -4 -9 2l-5 8q-4 6 3 11z" />
    <glyph glyph-name="uni045D" unicode="&#x45d;" horiz-adv-x="518" 
d="M113 101l292 327v46q0 8 7 8h22q7 0 7 -8v-466q0 -8 -7 -8h-22q-7 0 -7 8v373l-292 -324v-49q0 -8 -7 -8h-22q-7 0 -7 8v466q0 8 7 8h22q7 0 7 -8v-373zM198 694l128 -102q7 -5 3 -11l-5 -8q-4 -6 -9 -2l-145 86q-9 5 -3 14l15 22q6 9 16 1z" />
    <glyph glyph-name="afii10110" unicode="&#x45e;" horiz-adv-x="434" 
d="M121 673h17q7 0 7 -8q0 -34 23 -56.5t64 -22.5t63 22t24 57q0 8 7 8h17q7 0 7 -8q-5 -47 -34.5 -77t-84.5 -30q-53 0 -85 30.5t-32 76.5q0 8 7 8zM226 34h1l146 439q4 9 12 9h17q12 0 7 -12l-183 -529q-31 -91 -68 -126t-105 -35q-19 0 -32 4q-8 3 -7 11l3 12q2 8 10 7
l12 -2q12 -1 20 -1q83 0 117 90l32 84l-171 487q-3 10 7 10h19q9 0 12 -8z" />
    <glyph glyph-name="afii10193" unicode="&#x45f;" horiz-adv-x="524" 
d="M113 27h298v447q0 8 7 8h22q7 0 7 -8v-468q0 -6 -7 -6h-163v-133q0 -8 -7 -8h-16q-7 0 -7 8v133h-163q-7 0 -7 6v468q0 8 7 8h22q7 0 7 -8v-447z" />
    <glyph glyph-name="afii10146" unicode="&#x462;" horiz-adv-x="571" 
d="M167 386q70 9 132 9q46 0 84.5 -9t73 -30t54.5 -61.5t20 -97.5q0 -197 -247 -197h-143q-14 0 -14 12v550h-107q-7 0 -7 7v20q0 6 7 6h107v133q0 9 8 9h24q8 0 8 -10v-132h243q5 0 7 -1.5t1 -5.5l-2 -19q-1 -7 -13 -7h-236v-176zM167 34h108q47 0 81.5 6.5t66 23t48 49.5
t16.5 82q0 167 -199 167q-69 0 -121 -8v-320z" />
    <glyph glyph-name="afii10194" unicode="&#x463;" horiz-adv-x="507" 
d="M143 455v-154q43 12 110 12q40 0 75 -7t67 -23t50.5 -47.5t18.5 -74.5q0 -48 -22 -82.5t-60 -53t-80.5 -26.5t-91.5 -8q-55 0 -94 8q-9 1 -9 9v447h-74q-8 0 -8 7v14q0 6 7 6h75v211q0 11 8 12l20 3q4 1 6 -1.5t2 -7.5v-217h182q7 0 7 -6v-13q0 -8 -7 -8h-182zM143 272
v-248q37 -5 82 -5q48 0 90.5 11t76.5 43.5t34 82.5q0 127 -183 127q-57 0 -100 -11z" />
    <glyph glyph-name="afii10147" unicode="&#x472;" horiz-adv-x="637" 
d="M583 348q0 -179 -72.5 -268t-197.5 -89q-259 0 -259 350q0 175 71.5 266t197.5 91q260 0 260 -350zM316 25q104 0 162 82t60 228h-439q3 -310 217 -310zM321 663q-102 0 -159.5 -79.5t-62.5 -215.5h438q-8 295 -216 295z" />
    <glyph glyph-name="afii10195" unicode="&#x473;" horiz-adv-x="498" 
d="M450 241q0 -105 -52 -177.5t-153 -72.5q-102 0 -149.5 71.5t-47.5 180.5q0 104 51.5 176.5t151.5 72.5q104 0 151.5 -70.5t47.5 -180.5zM246 19q82 0 122 61t43 150h-324q3 -90 40 -150.5t119 -60.5zM251 463q-82 0 -121.5 -60t-42.5 -148h324q-3 87 -41.5 147.5
t-118.5 60.5z" />
    <glyph glyph-name="afii10148" unicode="&#x474;" horiz-adv-x="617" 
d="M279 52l139 454q30 98 73 142t116 44q10 0 10 -8v-18q0 -10 -10 -10q-56 0 -89.5 -39.5t-62.5 -130.5l-149 -476q-4 -10 -12 -10h-34q-7 0 -11 10l-219 664q-4 13 6 13h26q11 0 14 -9l202 -626h1z" />
    <glyph glyph-name="afii10196" unicode="&#x475;" horiz-adv-x="447" 
d="M212 53h1l26 86l68 215q43 138 139 138q6 0 6 -6v-14q0 -6 -6 -6q-71 0 -112 -128l-106 -333q-2 -5 -6 -5h-21q-6 0 -8 5l-164 468q-4 9 6 9h22q8 0 11 -7l115 -335z" />
    <glyph glyph-name="afii10050" unicode="&#x490;" horiz-adv-x="490" 
d="M127 654v-646q0 -8 -8 -8h-23q-9 0 -9 8v665q0 14 14 14h342v173q0 11 7 12l20 3q10 2 10 -8v-205q0 -8 -8 -8h-345z" />
    <glyph glyph-name="afii10098" unicode="&#x491;" horiz-adv-x="376" 
d="M113 455v-447q0 -8 -7 -8h-22q-7 0 -7 8v468q0 6 7 6h247v125q0 9 6 10l16 2q8 2 8 -6v-150q0 -8 -7 -8h-241z" />
    <glyph glyph-name="uni0492" unicode="&#x492;" horiz-adv-x="479" 
d="M268 348h-136v-340q0 -8 -8 -8h-23q-9 0 -9 8v340h-71q-11 0 -11 10v17q0 8 10 8h72v290q0 14 14 14h354q5 0 7 -1.5t1 -5.5l-2 -19q-1 -7 -10 -7h-324v-271h135q12 0 12 -12v-10q0 -13 -11 -13z" />
    <glyph glyph-name="uni0493" unicode="&#x493;" horiz-adv-x="378" 
d="M250 269h-123v-261q0 -8 -7 -8h-22q-7 0 -7 8v261h-50q-7 0 -7 6v15q0 6 7 6h50v180q0 6 7 6h257q7 0 7 -6v-15q0 -6 -7 -6h-228v-159h123q7 0 7 -6v-15q0 -6 -7 -6z" />
    <glyph glyph-name="uni049A" unicode="&#x49a;" horiz-adv-x="567" 
d="M498 0h-21q-11 0 -15 9l-110 231q-29 61 -61.5 78.5t-103.5 17.5h-60v-325q0 -11 -9 -11h-23q-8 0 -8 11v666q0 10 9 10h23q8 0 8 -11v-308h75q74 0 108 25.5t46 86.5l16 79q13 64 38 98.5t78 34.5h4q8 0 8 -7v-18q0 -9 -8 -9h-4q-36 0 -52.5 -23.5t-27.5 -81.5l-16 -84
q-17 -90 -91 -116v-1q31 -10 50 -30.5t40 -63.5l106 -224h30q8 0 8 -8v-210q0 -8 -8 -8h-20q-9 0 -9 8v184z" />
    <glyph glyph-name="uni049B" unicode="&#x49b;" horiz-adv-x="437" 
d="M77 9v464q0 9 7 9h21q7 0 7 -9v-219h44q53 0 80.5 23.5t38.5 71.5l11 47q6 23 10 36t12.5 27.5t21.5 21t31 6.5h4q7 0 7 -6v-16q0 -8 -7 -8h-4q-18 0 -27 -16.5t-18 -52.5l-12 -49q-20 -80 -75 -98v-1q23 -8 35 -21t27 -41l78 -151h29q7 0 7 -6v-154q0 -8 -7 -8h-16
q-7 0 -7 8v133h-24q-10 0 -14 8l-80 154q-20 39 -41 52t-64 13h-40v-218q0 -9 -7 -9h-21q-7 0 -7 9z" />
    <glyph glyph-name="uni04A2" unicode="&#x4a2;" horiz-adv-x="665" 
d="M581 0h-78q-4 0 -5.5 0.5t-2.5 2.5t-1 7v335h-367v-336q0 -9 -8 -9h-25q-7 0 -7 9v669q0 9 8 9h24q8 0 8 -10v-299h367v301q0 8 8 8h24q8 0 8 -9v-644h76q8 0 8 -8v-210q0 -8 -8 -8h-20q-9 0 -9 8v184z" />
    <glyph glyph-name="uni04A3" unicode="&#x4a3;" horiz-adv-x="529" 
d="M446 0h-35q-7 0 -7 8v236h-291v-236q0 -8 -7 -8h-22q-7 0 -7 8v466q0 8 7 8h22q7 0 7 -8v-201h291v201q0 8 7 8h22q7 0 7 -8v-447h29q7 0 7 -6v-154q0 -8 -7 -8h-16q-7 0 -7 8v133z" />
    <glyph glyph-name="uni04AE" unicode="&#x4ae;" horiz-adv-x="500" 
d="M442 687h16q13 0 8 -12l-189 -409v-255q0 -11 -12 -11h-16q-12 0 -12 11v253l-200 412q-3 4 -0.5 7.5t9.5 3.5h20q10 0 14 -9l178 -374h1l169 374q4 9 14 9z" />
    <glyph glyph-name="uni04AF" unicode="&#x4af;" horiz-adv-x="409" 
d="M189 -5l-172 477q-3 10 7 10h19q9 0 12 -8l153 -438h1l144 437q4 9 12 9h17q12 0 7 -12l-164 -475v-193q0 -8 -7 -8h-22q-7 0 -7 8v193z" />
    <glyph glyph-name="uni04B0" unicode="&#x4b0;" horiz-adv-x="512" 
d="M117 291h113l-187 385q-3 4 -0.5 7.5t9.5 3.5h20q10 0 14 -9l178 -374h1l169 374q4 9 14 9h16q13 0 8 -12l-178 -384h108q12 0 12 -12v-10q0 -13 -11 -13h-120v-245q0 -11 -12 -11h-16q-12 0 -12 11v245h-125q-11 0 -11 10v17q0 8 10 8z" />
    <glyph glyph-name="uni04B1" unicode="&#x4b1;" horiz-adv-x="409" 
d="M334 -16h-109v-182q0 -8 -7 -8h-22q-7 0 -7 8v182h-108q-8 0 -8 7v15q0 6 7 6h103l-166 460q-3 10 7 10h19q9 0 12 -8l153 -438h1l144 437q4 9 12 9h17q12 0 7 -12l-158 -458h103q7 0 7 -6v-14q0 -8 -7 -8z" />
    <glyph glyph-name="uni04BA" unicode="&#x4ba;" horiz-adv-x="563" 
d="M87 8v701q0 8 8 8h24q8 0 8 -8v-287q76 15 152 15q210 0 210 -177v-252q0 -8 -8 -8h-24q-8 0 -8 8v250q0 77 -44.5 111.5t-133.5 34.5q-79 0 -144 -13v-383q0 -8 -8 -8h-24q-8 0 -8 8z" />
    <glyph glyph-name="uni04BB" unicode="&#x4bb;" horiz-adv-x="509" 
d="M113 421q27 30 72 50.5t94 20.5q153 0 153 -177v-306q0 -9 -8 -9h-20q-8 0 -8 9v297q0 73 -25.5 114t-95.5 41q-91 0 -162 -76v-376q0 -9 -8 -9h-20q-8 0 -8 9v684q0 11 8 12l18 3q10 2 10 -8v-279z" />
    <glyph glyph-name="uni04D8" unicode="&#x4d8;" horiz-adv-x="597" 
d="M257 664q-80 0 -158 -39q-8 -3 -11 4l-7 16q-3 7 6 12q79 41 174 41q127 0 206 -92.5t79 -257.5q0 -169 -71 -263t-185 -94q-118 0 -181 89t-63 257q0 13 5 17t18 4h432q-3 143 -71.5 224.5t-172.5 81.5zM293 25q94 0 149.5 83.5t58.5 221.5h-420q2 -148 59 -226.5
t153 -78.5z" />
    <glyph glyph-name="afii10846" unicode="&#x4d9;" horiz-adv-x="468" 
d="M59 238h322q0 97 -42 161t-135 64q-61 0 -114 -21q-11 -4 -13 4l-4 13q-2 6 6 10q55 23 130 23q103 0 157 -67.5t54 -183.5q0 -108 -57 -179t-151 -71q-78 0 -123 57t-45 147v30q0 13 15 13zM380 211h-301v-20q0 -73 33 -122t102 -49q77 0 118 54.5t48 136.5z" />
    <glyph glyph-name="uni04E8" unicode="&#x4e8;" horiz-adv-x="621" 
d="M570 348q0 -168 -75 -262.5t-190 -94.5q-119 0 -186.5 91.5t-67.5 258.5q0 164 74 260.5t190 96.5q120 0 187.5 -94t67.5 -256zM308 25q95 0 154.5 84t62.5 220h-429q2 -141 57 -222.5t155 -81.5zM313 663q-96 0 -155 -85.5t-62 -218.5h429q-3 141 -57.5 222.5
t-154.5 81.5z" />
    <glyph glyph-name="uni04E9" unicode="&#x4e9;" horiz-adv-x="502" 
d="M454 241q0 -105 -53 -177.5t-154 -72.5q-70 0 -116.5 37t-64.5 91.5t-18 123.5q0 104 52.5 176.5t152.5 72.5q104 0 152.5 -71t48.5 -180zM248 19q83 0 124 62.5t43 151.5h-328q2 -89 40 -151.5t121 -62.5zM253 463q-55 0 -93 -30.5t-54 -74t-19 -97.5h327
q-4 85 -43 143.5t-118 58.5z" />
    <glyph glyph-name="Wgrave" unicode="&#x1e80;" horiz-adv-x="830" 
d="M800 676l-179 -667q-3 -9 -12 -9h-30q-8 0 -11 9l-147 613h-2l-152 -613q-1 -9 -12 -9h-29q-8 0 -11 9l-174 667q-4 11 8 11h20q9 0 12 -9l162 -632h1l157 632q3 9 13 9h15q9 0 12 -8l157 -633h1l165 631q3 10 12 10h15q12 0 9 -11zM371 854l128 -102q7 -5 3 -11l-5 -8
q-4 -6 -9 -2l-145 86q-9 5 -3 14l15 22q6 8 16 1z" />
    <glyph glyph-name="wgrave" unicode="&#x1e81;" horiz-adv-x="648" 
d="M596 482h15q9 0 5 -12l-135 -463q-2 -7 -9 -7h-21q-8 0 -9 7l-121 424l-121 -425q-2 -6 -8 -6h-21q-7 0 -9 6l-133 466q-3 10 9 10h15q9 0 11 -9l119 -430l122 432q2 7 10 7h15q7 0 10 -8l123 -430l120 429q3 9 13 9zM233 694l128 -102q7 -5 3 -11l-5 -8q-4 -6 -9 -2
l-145 86q-9 5 -3 14l15 22q6 9 16 1z" />
    <glyph glyph-name="Wacute" unicode="&#x1e82;" horiz-adv-x="830" 
d="M800 676l-179 -667q-3 -9 -12 -9h-30q-8 0 -11 9l-147 613h-2l-152 -613q-1 -9 -12 -9h-29q-8 0 -11 9l-174 667q-4 11 8 11h20q9 0 12 -9l162 -632h1l157 632q3 9 13 9h15q9 0 12 -8l157 -633h1l165 631q3 10 12 10h15q12 0 9 -11zM350 751l128 102q10 7 16 -1l15 -22
q6 -9 -3 -14l-145 -86q-5 -4 -9 2l-5 8q-4 6 3 11z" />
    <glyph glyph-name="wacute" unicode="&#x1e83;" horiz-adv-x="648" 
d="M596 482h15q9 0 5 -12l-135 -463q-2 -7 -9 -7h-21q-8 0 -9 7l-121 424l-121 -425q-2 -6 -8 -6h-21q-7 0 -9 6l-133 466q-3 10 9 10h15q9 0 11 -9l119 -430l122 432q2 7 10 7h15q7 0 10 -8l123 -430l120 429q3 9 13 9zM292 592l128 102q10 7 16 -1l15 -22q6 -9 -3 -14
l-145 -86q-5 -4 -9 2l-5 8q-4 6 3 11z" />
    <glyph glyph-name="Wdieresis" unicode="&#x1e84;" horiz-adv-x="830" 
d="M800 676l-179 -667q-3 -9 -12 -9h-30q-8 0 -11 9l-147 613h-2l-152 -613q-1 -9 -12 -9h-29q-8 0 -11 9l-174 667q-4 11 8 11h20q9 0 12 -9l162 -632h1l157 632q3 9 13 9h15q9 0 12 -8l157 -633h1l165 631q3 10 12 10h15q12 0 9 -11zM317 778q0 12 8 20.5t19 8.5
q12 0 20.5 -8t8.5 -21q0 -11 -8.5 -19t-20.5 -8q-11 0 -19 8t-8 19zM470 778q0 12 8 20.5t19 8.5q12 0 20.5 -8t8.5 -21q0 -11 -8.5 -19t-20.5 -8q-11 0 -19 8t-8 19z" />
    <glyph glyph-name="wdieresis" unicode="&#x1e85;" horiz-adv-x="648" 
d="M596 482h15q9 0 5 -12l-135 -463q-2 -7 -9 -7h-21q-8 0 -9 7l-121 424l-121 -425q-2 -6 -8 -6h-21q-7 0 -9 6l-133 466q-3 10 9 10h15q9 0 11 -9l119 -430l122 432q2 7 10 7h15q7 0 10 -8l123 -430l120 429q3 9 13 9zM219 618q0 12 8 20.5t19 8.5q12 0 20.5 -8t8.5 -21
q0 -11 -8.5 -19t-20.5 -8q-11 0 -19 8t-8 19zM372 618q0 12 8 20.5t19 8.5q12 0 20.5 -8t8.5 -21q0 -11 -8.5 -19t-20.5 -8q-11 0 -19 8t-8 19z" />
    <glyph glyph-name="Ygrave" unicode="&#x1ef2;" horiz-adv-x="500" 
d="M442 687h16q13 0 8 -12l-189 -409v-255q0 -11 -12 -11h-16q-12 0 -12 11v253l-200 412q-3 4 -0.5 7.5t9.5 3.5h20q10 0 14 -9l178 -374h1l169 374q4 9 14 9zM200 854l128 -102q7 -5 3 -11l-5 -8q-4 -6 -9 -2l-145 86q-9 5 -3 14l15 22q6 8 16 1z" />
    <glyph glyph-name="ygrave" unicode="&#x1ef3;" horiz-adv-x="434" 
d="M226 34h1l146 439q4 9 12 9h17q12 0 7 -12l-183 -529q-31 -91 -68 -126t-105 -35q-19 0 -32 4q-8 3 -7 11l3 12q2 8 10 7l12 -2q12 -1 20 -1q83 0 117 90l32 84l-171 487q-3 10 7 10h19q9 0 12 -8zM176 694l128 -102q7 -5 3 -11l-5 -8q-4 -6 -9 -2l-145 86q-9 5 -3 14
l15 22q6 9 16 1z" />
    <glyph glyph-name="endash" unicode="&#x2013;" horiz-adv-x="500" 
d="M500 271v-18q0 -7 -8 -7h-485q-7 0 -7 7v18q0 7 7 7h485q8 0 8 -7z" />
    <glyph glyph-name="emdash" unicode="&#x2014;" horiz-adv-x="1000" 
d="M1000 271v-18q0 -7 -8 -7h-985q-7 0 -7 7v18q0 7 7 7h985q8 0 8 -7z" />
    <glyph glyph-name="afii00208" unicode="&#x2015;" horiz-adv-x="1000" 
d="M1000 271v-18q0 -7 -8 -7h-985q-7 0 -7 7v18q0 7 7 7h985q8 0 8 -7z" />
    <glyph glyph-name="quoteleft" unicode="&#x2018;" horiz-adv-x="157" 
d="M36 560q0 79 63 137q5 5 10 1l4 -5q5 -5 -1 -10q-34 -34 -34 -70q0 -19 16 -40t16 -32q0 -14 -9.5 -22.5t-23.5 -8.5q-16 0 -28.5 14t-12.5 36z" />
    <glyph glyph-name="quoteright" unicode="&#x2019;" horiz-adv-x="157" 
d="M121 648q0 -79 -63 -137q-6 -5 -10 -1l-4 5q-4 5 1 10q34 34 34 70q0 19 -16 40t-16 32q0 14 9.5 22.5t23.5 8.5q16 0 28.5 -14t12.5 -36z" />
    <glyph glyph-name="quotesinglbase" unicode="&#x201a;" horiz-adv-x="157" 
d="M121 28q0 -79 -63 -137q-6 -5 -10 -1l-4 5q-4 5 1 10q34 34 34 70q0 19 -16 40t-16 32q0 14 9.5 22.5t23.5 8.5q16 0 28.5 -14t12.5 -36z" />
    <glyph glyph-name="quotedblleft" unicode="&#x201c;" horiz-adv-x="297" 
d="M176 560q0 79 63 137q5 5 10 1l4 -5q5 -5 -1 -10q-34 -34 -34 -70q0 -19 16 -40t16 -32q0 -14 -9.5 -22.5t-23.5 -8.5q-16 0 -28.5 14t-12.5 36zM36 560q0 79 63 137q5 5 10 1l4 -5q5 -5 -1 -10q-34 -34 -34 -70q0 -19 16 -40t16 -32q0 -14 -9.5 -22.5t-23.5 -8.5
q-16 0 -28.5 14t-12.5 36z" />
    <glyph glyph-name="quotedblright" unicode="&#x201d;" horiz-adv-x="297" 
d="M121 648q0 -79 -63 -137q-6 -5 -10 -1l-4 5q-4 5 1 10q34 34 34 70q0 19 -16 40t-16 32q0 14 9.5 22.5t23.5 8.5q16 0 28.5 -14t12.5 -36zM261 648q0 -79 -63 -137q-6 -5 -10 -1l-4 5q-4 5 1 10q34 34 34 70q0 19 -16 40t-16 32q0 14 9.5 22.5t23.5 8.5q16 0 28.5 -14
t12.5 -36z" />
    <glyph glyph-name="quotedblbase" unicode="&#x201e;" horiz-adv-x="297" 
d="M121 28q0 -79 -63 -137q-6 -5 -10 -1l-4 5q-4 5 1 10q34 34 34 70q0 19 -16 40t-16 32q0 14 9.5 22.5t23.5 8.5q16 0 28.5 -14t12.5 -36zM261 28q0 -79 -63 -137q-6 -5 -10 -1l-4 5q-4 5 1 10q34 34 34 70q0 19 -16 40t-16 32q0 14 9.5 22.5t23.5 8.5q16 0 28.5 -14
t12.5 -36z" />
    <glyph glyph-name="dagger" unicode="&#x2020;" horiz-adv-x="496" 
d="M265 429l152 3q9 0 9 -7v-17q0 -7 -8 -7l-153 3l-4 -395q0 -9 -9 -9h-8q-9 0 -9 8l-4 396l-153 -3q-7 0 -7 7v17q0 7 9 7l151 -3l-2 249q0 9 9 9h20q9 0 9 -10z" />
    <glyph glyph-name="daggerdbl" unicode="&#x2021;" horiz-adv-x="496" 
d="M265 479l152 3q9 0 9 -7v-17q0 -7 -8 -7l-153 3l-2 -165l133 3q9 0 9 -7v-17q0 -7 -8 -7l-134 3l-2 -255q0 -9 -9 -9h-8q-9 0 -9 8l-3 256l-135 -3q-7 0 -7 7v17q0 7 9 7l133 -3l-1 165l-153 -3q-7 0 -7 7v17q0 7 9 7l151 -3l-2 199q0 9 9 9h20q9 0 9 -10z" />
    <glyph glyph-name="bullet" unicode="&#x2022;" horiz-adv-x="449" 
d="M375 266q0 -65 -43.5 -111t-106.5 -46t-107 46t-44 111t44 110t107 45t106.5 -45t43.5 -110z" />
    <glyph glyph-name="ellipsis" unicode="&#x2026;" horiz-adv-x="570" 
d="M134 25q0 -35 -34 -35t-34 35q0 15 10 24t25 9q14 0 23.5 -9t9.5 -24zM324 25q0 -35 -34 -35t-34 35q0 15 10 24t25 9q14 0 23.5 -9t9.5 -24zM514 25q0 -35 -34 -35t-34 35q0 15 10 24t25 9q14 0 23.5 -9t9.5 -24z" />
    <glyph glyph-name="perthousand" unicode="&#x2030;" horiz-adv-x="938" 
d="M603 173q0 -41 -9 -78.5t-37 -68.5t-70 -31q-32 0 -55.5 17t-35.5 45.5t-17 56.5t-5 58q0 29 5.5 57.5t17.5 56.5t36 45.5t56 17.5q42 0 69.5 -31t36 -67.5t8.5 -77.5zM566 172q0 22 -3 44.5t-11 47.5t-24.5 40.5t-39.5 15.5t-39.5 -15.5t-24.5 -40.5t-11 -47.5t-3 -44.5
t3 -44.5t11 -47t24.5 -40t39.5 -15.5t39.5 15.5t24.5 40t11 47t3 44.5zM261 517q0 -41 -9 -78.5t-37 -68.5t-70 -31q-32 0 -55.5 17t-35.5 45.5t-17 56.5t-5 58q0 29 5.5 57.5t17.5 56.5t36 45.5t56 17.5q42 0 69.5 -31t36 -67.5t8.5 -77.5zM224 516q0 22 -3 44.5t-11 47.5
t-24.5 40.5t-39.5 15.5t-39.5 -15.5t-24.5 -40.5t-11 -47.5t-3 -44.5t3 -44.5t11 -47t24.5 -40t39.5 -15.5t39.5 15.5t24.5 40t11 47t3 44.5zM906 173q0 -41 -9 -78.5t-37 -68.5t-70 -31q-32 0 -55.5 17t-35.5 45.5t-17 56.5t-5 58q0 29 5.5 57.5t17.5 56.5t36 45.5t56 17.5
q42 0 69.5 -31t36 -67.5t8.5 -77.5zM869 172q0 22 -3 44.5t-11 47.5t-24.5 40.5t-39.5 15.5t-39.5 -15.5t-24.5 -40.5t-11 -47.5t-3 -44.5t3 -44.5t11 -47t24.5 -40t39.5 -15.5t39.5 15.5t24.5 40t11 47t3 44.5zM534 688l-396 -689q-5 -8 -13 -8h-17q-11 0 -5 10l395 689
q5 8 13 8h18q11 0 5 -10z" />
    <glyph glyph-name="guilsinglleft" unicode="&#x2039;" horiz-adv-x="289" 
d="M131 229l82 -158q5 -8 -2 -11l-5 -3q-6 -3 -12 5l-102 155q-3 5 -3 10t3 9l102 150q6 8 12 5l6 -3q7 -3 2 -11z" />
    <glyph glyph-name="guilsinglright" unicode="&#x203a;" horiz-adv-x="289" 
d="M159 224l-83 152q-5 8 2 11l6 3q7 3 12 -5l101 -150q3 -4 3 -10q0 -3 -3 -9l-102 -152q-5 -8 -12 -5l-5 3q-7 3 -2 11z" />
    <glyph glyph-name="fraction" unicode="&#x2044;" horiz-adv-x="136" 
d="M283 688l-396 -689q-5 -8 -13 -8h-17q-11 0 -5 10l395 689q5 8 13 8h18q11 0 5 -10z" />
    <glyph glyph-name="zero.sup" unicode="&#x2070;" horiz-adv-x="270" 
d="M250 627q0 -41 -9 -78.5t-37 -68.5t-70 -31q-32 0 -55.5 17t-35.5 45.5t-17 56.5t-5 58q0 29 5.5 57.5t17.5 56.5t36 45.5t56 17.5q42 0 69.5 -31t36 -67.5t8.5 -77.5zM213 626q0 22 -3 44.5t-11 47.5t-24.5 40.5t-39.5 15.5t-39.5 -15.5t-24.5 -40.5t-11 -47.5t-3 -44.5
t3 -44.5t11 -47t24.5 -40t39.5 -15.5t39.5 15.5t24.5 40t11 47t3 44.5z" />
    <glyph glyph-name="four.sup" unicode="&#x2074;" horiz-adv-x="270" 
d="M203 566v81q0 8 8 8h17q8 0 8 -7v-186q0 -8 -7 -8h-19q-7 0 -7 8v75h-165q-9 0 -9 9v8q0 11 4 20l96 215q4 8 11 8h19q10 0 5 -10l-97 -221h136z" />
    <glyph glyph-name="five.sup" unicode="&#x2075;" horiz-adv-x="270" 
d="M238 556q0 -49 -33.5 -78t-85.5 -29q-43 0 -76 17q-8 5 -5 11l6 13q3 6 11 3q27 -14 68 -14q33 0 55 19.5t22 56.5q0 82 -106 82h-24q-15 0 -15 14v137q0 9 9 9h146q9 0 9 -8v-12q0 -8 -9 -8h-121v-105h18q57 0 94 -27t37 -81z" />
    <glyph glyph-name="six.sup" unicode="&#x2076;" horiz-adv-x="270" 
d="M246 564q0 -49 -28 -82t-73 -33q-108 0 -108 150q0 52 11.5 95t45 76t84.5 33q17 0 35 -5q6 -3 5 -10l-3 -11q-1 -7 -9 -5q-12 3 -26 3q-93 0 -105 -143q31 34 77 34q41 0 67.5 -28t26.5 -74zM209 561q0 32 -15.5 54t-46.5 22q-41 0 -73 -36v-4q0 -119 71 -119
q33 0 48.5 26t15.5 57z" />
    <glyph glyph-name="seven.sup" unicode="&#x2077;" horiz-adv-x="270" 
d="M207 768h-150q-9 0 -9 7v14q0 8 8 8h179q8 0 8 -8v-10q0 -7 -5 -19l-135 -298q-3 -8 -12 -8h-17q-10 0 -6 10z" />
    <glyph glyph-name="eight.sup" unicode="&#x2078;" horiz-adv-x="270" 
d="M244 549q0 -44 -31.5 -72t-78.5 -28q-48 0 -78 25t-30 70q0 29 21.5 54t57.5 38q-65 29 -65 84q0 35 28 59t68 24t66.5 -22.5t26.5 -58.5q0 -24 -18.5 -47t-46.5 -35q80 -32 80 -91zM191 722q0 25 -15 40.5t-42 15.5q-25 0 -40.5 -16t-15.5 -40t15 -39t43 -30
q55 25 55 69zM207 545q0 28 -19 46t-56 33q-69 -27 -69 -78q0 -33 22 -52t51 -19t50 18.5t21 51.5z" />
    <glyph glyph-name="nine.sup" unicode="&#x2079;" horiz-adv-x="270" 
d="M201 620q-31 -34 -77 -34q-41 0 -67.5 28t-26.5 74q0 49 28 82t73 33q56 0 82 -41.5t26 -108.5q0 -38 -7 -72t-22 -65t-44 -49t-68 -18q-23 0 -37 5q-8 3 -6 10l3 11q2 8 10 5q10 -3 28 -3q95 0 105 143zM202 651v12q0 111 -71 111q-33 0 -48.5 -26t-15.5 -57
q0 -32 15.5 -54t46.5 -22q41 0 73 36z" />
    <glyph glyph-name="plus.sup" unicode="&#x207a;" horiz-adv-x="270" 
d="M151 643h83q9 0 9 -8v-11q0 -8 -9 -8h-83v-96q0 -10 -9 -10h-14q-9 0 -9 10v96h-84q-9 0 -9 8v11q0 8 9 8h84v96q0 10 9 10h14q9 0 9 -10v-96z" />
    <glyph glyph-name="minus.sup" unicode="&#x207b;" horiz-adv-x="270" 
d="M35 643h199q9 0 9 -8v-11q0 -8 -9 -8h-199q-9 0 -9 8v11q0 8 9 8z" />
    <glyph glyph-name="equal.sup" unicode="&#x207c;" horiz-adv-x="270" 
d="M35 701h199q9 0 9 -8v-11q0 -8 -9 -8h-199q-9 0 -9 8v11q0 8 9 8zM35 584h199q9 0 9 -8v-11q0 -8 -9 -8h-199q-9 0 -9 8v11q0 8 9 8z" />
    <glyph glyph-name="parenleft.sup" unicode="&#x207d;" horiz-adv-x="185" 
d="M146 839l9 -5q9 -4 3 -13q-64 -93 -64 -195q0 -113 63 -194q7 -7 -3 -13l-11 -7q-9 -5 -15 3q-74 100 -74 206q0 119 77 215q6 8 15 3z" />
    <glyph glyph-name="parenright.sup" unicode="&#x207e;" horiz-adv-x="185" 
d="M30 834l9 5q9 5 15 -3q77 -100 77 -208q0 -115 -74 -213q-6 -8 -15 -3l-11 7q-10 6 -3 13q63 81 63 192q0 104 -64 197q-6 9 3 13z" />
    <glyph glyph-name="n.sup" unicode="&#x207f;" horiz-adv-x="312" 
d="M82 563v-210q0 -9 -8 -9h-16q-8 0 -8 9v253q0 9 9 9h15q8 0 8 -9v-17q40 31 94 31q89 0 89 -90v-177q0 -9 -9 -9h-15q-8 0 -8 9v172q0 34 -14 52t-51 18q-45 0 -86 -32z" />
    <glyph glyph-name="zero.sub" unicode="&#x2080;" horiz-adv-x="270" 
d="M250 63q0 -41 -9 -78.5t-37 -68.5t-70 -31q-32 0 -55.5 17t-35.5 45.5t-17 56.5t-5 58q0 29 5.5 57.5t17.5 56.5t36 45.5t56 17.5q42 0 69.5 -31t36 -67.5t8.5 -77.5zM213 62q0 22 -3 44.5t-11 47.5t-24.5 40.5t-39.5 15.5t-39.5 -15.5t-24.5 -40.5t-11 -47.5t-3 -44.5
t3 -44.5t11 -47t24.5 -40t39.5 -15.5t39.5 15.5t24.5 40t11 47t3 44.5z" />
    <glyph glyph-name="one.sub" unicode="&#x2081;" horiz-adv-x="270" 
d="M175 223v-324q0 -9 -9 -9h-15q-9 0 -9 9v298l-68 -45q-8 -5 -12 2l-7 11q-5 7 4 11l80 53q5 4 16 4h11q9 0 9 -10z" />
    <glyph glyph-name="two.sub" unicode="&#x2082;" horiz-adv-x="270" 
d="M73 -81h150q9 0 9 -8v-13q0 -8 -9 -8h-185q-8 0 -8 8v11q0 7 4 12l37.5 39.5l37.5 39.5q84 92 84 146q0 29 -18 46t-48 17q-31 0 -70 -21q-7 -4 -10 4l-5 11q-3 6 3 11q38 25 88 25q41 0 68 -23.5t27 -65.5q0 -37 -18.5 -71t-69.5 -90q-31 -36 -67 -70z" />
    </font>
</defs>
</svg>
