<?xml version="1.0" encoding="UTF-8"?>
<svg width="246px" height="65px" viewBox="0 0 246 65" version="1.1" xmlns="http://www.w3.org/2000/svg" xmlns:xlink="http://www.w3.org/1999/xlink">
    <!-- Generator: Sketch 46.2 (44496) - http://www.bohemiancoding.com/sketch -->
    <title>Pitchday header</title>
    <desc>Created with Sketch.</desc>
    <defs>
        <linearGradient x1="0%" y1="0%" x2="24.9999151%" y2="100%" id="linearGradient-1">
            <stop stop-color="#65B1D1" offset="0%"></stop>
            <stop stop-color="#6497CE" offset="56%"></stop>
            <stop stop-color="#6231C3" offset="100%"></stop> 
            <stop stop-color="#6231C3" offset="100%"></stop>
        </linearGradient>
        <linearGradient x1="-6.61153516%" y1="108.088235%" x2="75.0002972%" y2="12.5%" id="linearGradient-2">
            <stop stop-color="#A453FF" offset="0%"></stop>
            <stop stop-color="#3A81F4" offset="100%"></stop> 
        </linearGradient>
        <linearGradient x1="0%" y1="50%" x2="100%" y2="50%" id="linearGradient-3">
            <stop stop-color="#53DFFF" offset="0%"></stop>
            <stop stop-color="#3A81F4" offset="100%"></stop>
        </linearGradient>
        <linearGradient x1="0%" y1="50%" x2="99.9994906%" y2="50%" id="linearGradient-4">
            <stop stop-color="#65B1D1" offset="0%"></stop>
            <stop stop-color="#6231C3" offset="100%"></stop>
        </linearGradient>
        <linearGradient x1="-0.000630519794%" y1="-0.000332088003%" x2="24.9998089%" y2="100.00036%" id="linearGradient-5">
            <stop stop-color="#65B1D1" offset="0%"></stop>
            <stop stop-color="#6497CE" offset="56%"></stop>
            <stop stop-color="#6231C3" offset="100%"></stop>
            <stop stop-color="#6231C3" offset="100%"></stop>
        </linearGradient>
        <linearGradient x1="-6.6106461%" y1="108.088851%" x2="75.0001098%" y2="12.5%" id="linearGradient-6">
            <stop stop-color="#A453FF" offset="0%"></stop>
            <stop stop-color="#3A81F4" offset="100%"></stop>
        </linearGradient>
        <linearGradient x1="-0.000504411403%" y1="49.9993912%" x2="100.000023%" y2="49.9993912%" id="linearGradient-7">
            <stop stop-color="#53DFFF" offset="0%"></stop>
            <stop stop-color="#3A81F4" offset="100%"></stop>
        </linearGradient>
        <linearGradient x1="0%" y1="50.0005074%" x2="100.001318%" y2="50.0005074%" id="linearGradient-8">
            <stop stop-color="#65B1D1" offset="0%"></stop>
            <stop stop-color="#6231C3" offset="100%"></stop>
        </linearGradient>
    </defs>
    <g id="Page-1" stroke="none" stroke-width="1" fill="none" fill-rule="evenodd">
        <g id="Artboard" transform="translate(-65.000000, -43.000000)">
            <g id="Pitchday-header" transform="translate(66.000000, 44.000000)">
                <g id="Logo">
                    <g id="Group">
                        <g transform="translate(0.016409, 5.389585)" id="Shape" fill="url(#linearGradient-1)">
                            <polygon points="9.22190119 57.5915623 9.22190119 15.7067897 36.5699605 31.4135794 36.5699605 20.9423863 0.105881432 0 0.105881432 52.3559657"></polygon>
                        </g>
                        <g transform="translate(8.994659, 21.096374)" id="Shape" fill="url(#linearGradient-2)">
                            <polygon points="9.35967089 5.23559657 9.35967089 26.1779829 27.5917104 15.7067897 27.5917104 5.23559657 36.7074206 0 36.7074206 20.9423863 0.243651131 41.8847726 0.243651131 0"></polygon>
                        </g>
                        <g transform="translate(0.016409, 0.153988)" id="Shape" fill="url(#linearGradient-3)">
                            <polygon points="0.105881432 5.23559657 9.22190119 0 45.6856706 20.9423863 36.5699605 26.1779829"></polygon>
                        </g>
                        <g transform="translate(18.282503, 31.567568)" id="Shape" fill="url(#linearGradient-4)">
                            <polygon points="0.0718260005 5.23559657 9.18784576 0 18.3038655 5.23559657 0.0718260005 15.7067897"></polygon>
                        </g>
                    </g>
                    <g id="Group" stroke="#45386A">
                        <g transform="translate(18.316869, 26.331971)" id="Shape">
                            <polyline points="0.0377705692 0 0.0377705692 20.9423863 27.2477506 5.31474647"></polyline>
                        </g>
                        <g transform="translate(9.029024, 21.096374)" id="Shape">
                            <polyline points="36.6733652 10.4711931 36.6733652 20.9423863 0.2095957 41.8847726 0.2095957 0"></polyline>
                        </g>
                        <g transform="translate(0.050774, 15.860778)" id="Shape">
                            <polyline points="9.18784576 47.1203691 0.0718260005 41.8847726 0.0718260005 0"></polyline>
                        </g>
                        <g transform="translate(18.316869, 31.567568)" id="Shape">
                            <polyline points="0.0377705692 5.23559657 9.15348074 0 18.2695005 5.23559657"></polyline>
                        </g>
                        <g transform="translate(0.050774, 0.153988)" id="Shape">
                            <polyline points="45.6516152 31.4135794 45.6516152 26.5497102 45.6516152 20.9423863 9.18784576 0 0.0718260005 5.23559657 0.0718260005 15.7067897 35.9164058 36.2934634"></polyline>
                        </g>
                        <g transform="translate(0.050774, 5.389585)" id="Shape">
                            <polyline points="36.5355955 31.4135794 36.5355955 20.9423863 0.0718260005 0"></polyline>
                        </g>
                        <g transform="translate(36.582963, 21.096374)" id="Shape">
                            <path d="M9.1194253,0 L0.00340554313,5.23559657"></path>
                        </g>
                    </g>
                </g>
                <g id="Logo-PD-Full">
                    <g id="Group" transform="translate(78.000000, 14.000000)" fill-rule="nonzero" fill="#372861">
                        <path d="M22.3558389,11.524 C22.3558389,9.12069091 21.529545,6.62669091 19.8769573,4.81287273 C17.5357915,2.27352727 13.8633744,1.36661818 8.53836967,1.36661818 L1.3771564,1.36661818 C0.321336493,1.36661818 -1.42108547e-14,1.63869091 -1.42108547e-14,2.77232727 L-1.42108547e-14,31.6573818 C-1.42108547e-14,32.6549818 0.504957346,32.8363636 1.33125118,32.8363636 L5.92177251,32.8363636 C6.97759242,32.8363636 7.29892891,32.3829091 7.29892891,31.6120364 L7.29892891,22.4069091 L9.86962085,22.4069091 C16.7094976,22.4069091 22.3558389,18.7339273 22.3558389,11.524 L22.3558389,11.524 Z M15.0110047,11.8414182 C15.0110047,15.6050909 12.5321232,16.8747636 9.22694787,16.8747636 L7.29892891,16.8747636 L7.29892891,6.94410909 L9.54828436,6.94410909 C12.9911754,6.94410909 15.0110047,8.39516364 15.0110047,11.8414182 L15.0110047,11.8414182 Z" id="Shape"></path>
                        <path d="M32.0418389,4.67683636 C32.0418389,2.50025455 30.2056303,1.23058182 28.3694218,1.23058182 C26.4873081,1.23058182 24.6510995,2.50025455 24.6510995,4.72218182 C24.6510995,6.89876364 26.6250237,8.12309091 28.3694218,8.12309091 C30.1138199,8.12309091 32.0418389,6.85341818 32.0418389,4.67683636 Z M31.858218,11.9321091 C31.858218,10.9798545 31.3991659,10.7531273 30.5269668,10.7531273 L26.3954976,10.7531273 C25.5692038,10.7531273 24.972436,11.0252 24.972436,11.9321091 L24.972436,31.5213455 C24.972436,32.5189455 25.4314882,32.8363636 26.3954976,32.8363636 L30.5269668,32.8363636 C31.4450711,32.8363636 31.858218,32.4282545 31.858218,31.5213455 L31.858218,11.9321091 Z" id="Shape"></path>
                        <path d="M43.7476682,5.22098182 C43.7476682,4.49545455 43.3345213,4.13269091 42.4623223,4.26872727 L37.9636114,4.85821818 C37.0914123,4.99425455 36.8618863,5.44770909 36.8618863,6.26392727 L36.8618863,10.7531273 L34.7502464,10.7531273 C34.0616682,10.7531273 33.6944265,11.2972727 33.6944265,11.9321091 L33.6944265,13.8819636 C33.6944265,15.1062909 33.8780474,15.3783636 34.9797725,15.3783636 L36.815981,15.3783636 L36.815981,24.0846909 C36.815981,27.8030182 36.9077915,29.6621818 38.3767583,31.3853091 C39.6161991,32.8363636 41.6819336,33.4258545 44.2526256,33.4258545 C46.3642654,33.4258545 48.4759052,32.9724 50.0366825,32.2922182 C50.8629763,31.9294545 50.9547867,31.5213455 50.8170711,30.8865091 L50.2662085,27.9844 C50.1284929,27.2588727 49.5317251,27.3042182 48.9808626,27.4856 C48.0627583,27.7576727 47.1905592,28.0297455 46.0429289,28.0297455 C44.0230995,28.0297455 43.7476682,26.5786909 43.7476682,24.2207273 L43.7476682,15.3783636 L48.7054313,15.3783636 C49.3481043,15.3783636 49.8071564,15.0156 49.8071564,14.3354182 L49.8071564,11.7053818 C49.8071564,11.0252 49.3481043,10.7531273 48.7054313,10.7531273 L43.7476682,10.7531273 L43.7476682,5.22098182 L43.7476682,5.22098182 Z" id="Shape"></path>
                        <path d="M68.8119147,27.6669818 C68.6282938,26.9868 68.1692417,27.0774909 67.6642844,27.2588727 C66.0576019,27.8483636 65.0476872,28.0750909 63.6246256,28.0750909 C59.9063033,28.0750909 57.8864739,26.1705818 57.8864739,21.7720727 C57.8864739,17.8723636 59.8144929,15.5144 63.3950995,15.5144 C64.8181611,15.5144 66.1494123,15.8771636 67.4347583,16.3759636 C68.0315261,16.6026909 68.4905782,16.6480364 68.6741991,15.9225091 L69.4086825,12.6576364 C69.5463981,12.0228 69.5463981,11.6146909 68.9037251,11.3426182 C66.7461801,10.4357091 64.6804455,10.1182909 62.5229005,10.1182909 C55.2239716,10.1182909 50.7711659,14.7888727 50.7711659,22.1348364 C50.7711659,29.6168364 55.4534976,33.4258545 62.1097536,33.4258545 C64.5427299,33.4258545 67.0216114,33.0177455 69.087346,32.1108364 C69.6841137,31.8387636 69.959545,31.6120364 69.6841137,30.7051273 L68.8119147,27.6669818 L68.8119147,27.6669818 Z" id="Shape"></path>
                        <path d="M78.5438199,18.0084 C79.8291659,16.9201091 81.80309,16.2399273 83.3179621,16.2399273 C85.3836967,16.2399273 85.9345592,17.5096 85.9345592,19.4141091 L85.9345592,31.5213455 C85.9345592,32.5189455 86.3936114,32.8363636 87.3576209,32.8363636 L91.48909,32.8363636 C92.4071943,32.8363636 92.8203412,32.4282545 92.8203412,31.5213455 L92.8203412,18.1897818 C92.8203412,13.2924727 90.5709858,10.1182909 85.5673175,10.1182909 C83.2720569,10.1182909 80.3341232,10.8891636 78.5438199,12.3855636 L78.5438199,1.27592727 C78.5438199,0.5504 78.130673,0.187636364 77.2584739,0.323672727 L72.759763,0.913163636 C71.887564,1.0492 71.6580379,1.50265455 71.6580379,2.31887273 L71.6580379,31.5213455 C71.6580379,32.5189455 72.11709,32.8363636 73.0810995,32.8363636 L77.2125687,32.8363636 C78.130673,32.8363636 78.5438199,32.4282545 78.5438199,31.5213455 L78.5438199,18.0084 L78.5438199,18.0084 Z" id="Shape"></path>
                        <path d="M110.356133,11.9321091 C109.116692,10.7984727 107.234578,10.1182909 105.214749,10.1182909 C98.4207773,10.1182909 95.1615071,16.1492364 95.1615071,22.1801818 C95.1615071,28.3471636 98.374872,33.4258545 104.801602,33.4258545 C107.234578,33.4258545 109.575744,32.3829091 110.86109,30.9772 L110.9529,31.9294545 C110.998806,32.4282545 111.366047,32.8363636 112.146436,32.8363636 L116.002474,32.8363636 C116.691052,32.8363636 117.241915,32.4736 117.241915,31.5666909 L117.241915,1.27592727 C117.241915,0.5504 116.828768,0.187636364 115.956569,0.323672727 L111.457858,0.913163636 C110.585659,1.0492 110.356133,1.50265455 110.356133,2.31887273 L110.356133,11.9321091 L110.356133,11.9321091 Z M110.356133,26.2612727 C109.621649,27.0321455 107.923156,27.8937091 106.591905,27.8937091 C103.103109,27.8937091 102.32272,24.5834909 102.32272,21.7720727 C102.32272,19.0513455 103.37854,15.6050909 106.729621,15.6050909 C108.060872,15.6050909 109.529839,16.2852727 110.356133,17.0561455 L110.356133,26.2612727 L110.356133,26.2612727 Z" id="Shape"></path>
                        <path d="M143.591507,29.1633818 C143.591507,28.4832 143.270171,28.2564727 142.627498,28.2564727 L142.260256,28.2564727 C141.755299,28.2564727 141.571678,27.9390545 141.571678,27.4856 L141.571678,11.8414182 C141.571678,11.1158909 141.112626,10.7531273 140.469953,10.7531273 L136.338483,10.7531273 C135.741716,10.7531273 135.374474,11.0705455 135.282664,11.6600364 L135.144948,12.6576364 C134.180938,11.2972727 132.115204,10.1182909 129.544512,10.1182909 C124.494938,10.1182909 119.445365,14.1993818 119.445365,22.2255273 C119.445365,28.2564727 122.521014,33.4258545 129.131365,33.4258545 C131.38072,33.4258545 134.318654,32.1561818 135.558095,30.7504727 L135.649905,30.7504727 C136.246673,32.0654909 137.348398,32.8363636 140.056806,32.8363636 L142.489782,32.8363636 C143.132455,32.8363636 143.591507,32.4736 143.591507,31.7934182 L143.591507,29.1633818 L143.591507,29.1633818 Z M134.685896,26.0345455 C134.135033,26.7147273 132.482445,27.9390545 130.829858,27.9390545 C127.341062,27.9390545 126.606578,24.5834909 126.606578,21.7720727 C126.606578,17.5549455 128.718218,15.7411273 130.967573,15.7411273 C132.34473,15.7411273 133.859602,16.5573455 134.685896,17.2828727 L134.685896,26.0345455 L134.685896,26.0345455 Z" id="Shape"></path>
                        <path d="M155.480957,25.0822909 L155.343242,25.0822909 L151.074057,11.6600364 C150.890436,11.1158909 150.477289,10.7531273 149.6969,10.7531273 L144.280085,10.7531273 C143.499697,10.7531273 143.17836,11.4786545 143.453791,12.1134909 L151.946256,32.9724 L151.395393,34.3781091 C150.615005,36.3733091 149.421469,37.2348727 146.713062,37.2348727 C145.565431,37.2348727 144.922758,37.0988364 144.463706,37.0988364 C144.050559,37.0988364 143.683318,37.1895273 143.545602,38.0964364 L143.132455,40.9532 C143.040645,41.6787273 143.040645,42.2228727 143.912844,42.4042545 C144.830948,42.5856364 145.611336,42.6763273 146.667156,42.6763273 C152.634834,42.6763273 155.389147,40.7264727 157.500787,35.3303636 L166.590019,12.0228 C166.819545,11.4333091 166.681829,10.7531273 165.901441,10.7531273 L161.173204,10.7531273 C160.2551,10.7531273 159.750142,11.1612364 159.474711,12.0681455 L155.480957,25.0822909 L155.480957,25.0822909 Z" id="Shape"></path>
                    </g>
                    <g id="Logo">
                        <g id="Group">
                            <polygon id="Shape" fill="url(#linearGradient-5)" points="9.52666102 62.54325 9.52666102 21.15225 36.7221356 36.673875 36.7221356 26.326125 0.462033898 5.630625 0.462033898 57.369375 9.52666102 62.54325"></polygon>
                            <polygon id="Shape" fill="url(#linearGradient-6)" points="18.5920847 26.326125 18.5920847 47.021625 36.7221356 36.673875 36.7221356 26.326125 45.7875593 21.15225 45.7875593 41.84775 9.52666102 62.54325 9.52666102 21.15225"></polygon>
                            <polygon id="Shape" fill="url(#linearGradient-7)" points="0.462033898 5.630625 9.52666102 0.45675 45.7875593 21.15225 36.7221356 26.326125"></polygon>
                            <polygon id="Shape" fill="url(#linearGradient-8)" points="18.5920847 36.673875 27.6575085 31.5 36.7221356 36.673875 18.5920847 47.021625"></polygon>
                        </g>
                        <g id="Group" fill-rule="nonzero" fill="#45386A">
                            <path d="M18.6948475,25.8811875 C18.753,25.8985125 18.7697288,25.9000875 18.8231017,25.9308 C18.9234746,25.9882875 18.9991525,26.082 19.0334068,26.1914625 C19.0517288,26.2497375 19.049339,26.2654875 19.0541186,26.326125 L19.0541186,46.230975 L45.4195254,31.1826375 L45.481661,31.1535 C45.5039661,31.1464125 45.5254746,31.1385375 45.5477797,31.133025 C45.6377966,31.11255 45.7333898,31.1196375 45.8194237,31.1535 C45.8624407,31.1700375 45.9022712,31.192875 45.9389153,31.221225 C45.9747627,31.249575 46.0058305,31.2834375 46.0321186,31.3212375 C46.1245254,31.454325 46.1372712,31.630725 46.0663729,31.7764125 C46.0368983,31.8378375 45.9922881,31.892175 45.9389153,31.9347 C45.9205932,31.9496625 45.900678,31.9606875 45.8815593,31.9732875 L18.8231017,47.41695 C18.8023898,47.4271875 18.7824746,47.4382125 18.7609661,47.446875 C18.7179492,47.4634125 18.6725424,47.47365 18.626339,47.4768 C18.4877288,47.4870375 18.348322,47.4334875 18.2535254,47.3319 C18.2224576,47.298825 18.1961695,47.261025 18.1762542,47.220075 C18.156339,47.1783375 18.142,47.135025 18.1356271,47.0901375 C18.1316441,47.0673 18.1316441,47.0444625 18.1300508,47.021625 L18.1300508,26.326125 C18.1348305,26.2654875 18.1324407,26.2497375 18.1507627,26.1914625 C18.1993559,26.0371125 18.33,25.916625 18.489322,25.8811875 C18.5490678,25.8678 18.5657966,25.87095 18.626339,25.87095 C18.6494407,25.8741 18.6717458,25.87725 18.6948475,25.8811875 L18.6948475,25.8811875 Z" id="Shape"></path>
                            <path d="M45.9930847,31.0912875 C46.0177797,31.10625 46.0432712,31.11885 46.0655763,31.1353875 C46.1571864,31.2039 46.2201186,31.3047 46.2416271,31.4157375 C46.2464068,31.4440875 46.2464068,31.47165 46.2495932,31.5 L46.2495932,41.84775 C46.2472034,41.874525 46.2472034,41.9013 46.2424237,41.9272875 C46.2280847,42.0060375 46.1930339,42.0800625 46.1412542,42.1414875 C46.0950508,42.195825 46.0767288,42.2029125 46.0185763,42.243075 L9.75767797,62.938575 C9.69315254,62.9685 9.67801695,62.9803125 9.60711864,62.9929125 C9.47408475,63.0165375 9.33388136,62.979525 9.23032203,62.8929 C9.18889831,62.8590375 9.15384746,62.8180875 9.12676271,62.771625 C9.10047458,62.72595 9.08135593,62.67555 9.07179661,62.6227875 C9.06781356,62.5968 9.06781356,62.570025 9.06542373,62.54325 L9.06542373,21.15225 C9.06781356,21.1239 9.06781356,21.09555 9.07338983,21.0679875 C9.08374576,21.0128625 9.10445763,20.9601 9.1339322,20.9120625 C9.16420339,20.864025 9.20323729,20.8215 9.24864407,20.7876375 C9.38725424,20.684475 9.57764407,20.66715 9.73298305,20.7435375 C9.7839661,20.7687375 9.83016949,20.8026 9.86840678,20.8443375 C9.92576271,20.9073375 9.96479661,20.9853 9.98072881,21.0679875 C9.98630508,21.09555 9.98630508,21.1239 9.98869492,21.15225 L9.98869492,61.7526 L45.3255254,41.5839375 L45.3255254,31.5 C45.3326949,31.425975 45.3295085,31.4055 45.3565932,31.3354125 C45.4195254,31.17555 45.5724746,31.0613625 45.745339,31.0456125 C45.8210169,31.038525 45.8401356,31.0471875 45.9142203,31.060575 C45.9405085,31.0708125 45.9667966,31.08105 45.9930847,31.0912875 Z" id="Shape"></path>
                            <path d="M0.552050847,15.5302875 C0.628525424,15.553125 0.650830508,15.5539125 0.718542373,15.5988 C0.819711864,15.6657375 0.890610169,15.7712625 0.914508475,15.8893875 C0.920881356,15.918525 0.920881356,15.94845 0.923271186,15.978375 L0.923271186,57.10635 L9.75767797,62.147925 L9.83176271,62.1999 C9.85167797,62.22195 9.87477966,62.2416375 9.89310169,62.2652625 C9.93054237,62.3133 9.95762712,62.3676375 9.97276271,62.425125 C10.0125932,62.5716 9.97515254,62.730675 9.87398305,62.8448625 C9.83415254,62.88975 9.78555932,62.9267625 9.73138983,62.95275 C9.67642373,62.979525 9.61747458,62.995275 9.5569322,62.9992125 C9.49638983,63.00315 9.43584746,62.995275 9.37849153,62.9755875 C9.34981356,62.9661375 9.32352542,62.951175 9.29644068,62.938575 L0.231016949,57.7647 C0.208711864,57.7497375 0.185610169,57.73635 0.164898305,57.719025 C0.102762712,57.6678375 0.0557627119,57.6009 0.0278813559,57.5260875 C0.00318644068,57.45915 0.00637288136,57.4394625 -2.63677968e-15,57.369375 L-2.63677968e-15,15.978375 C0.00796610169,15.899625 0.00398305085,15.877575 0.0350508475,15.80355 C0.0820508475,15.6925125 0.172864407,15.6027375 0.285186441,15.556275 C0.360067797,15.5255625 0.382372881,15.5295 0.462033898,15.521625 C0.491508475,15.524775 0.521779661,15.527925 0.552050847,15.5302875 L0.552050847,15.5302875 Z" id="Shape"></path>
                            <path d="M27.7371695,31.0503375 C27.7841695,31.0613625 27.7961186,31.06215 27.8399322,31.08105 C27.856661,31.0881375 27.8717966,31.0968 27.8885254,31.104675 L36.9531525,36.27855 C36.9945763,36.305325 37.0065254,36.3108375 37.0423729,36.3447 C37.1092881,36.4084875 37.1562881,36.4919625 37.1746102,36.582525 C37.1857627,36.6368625 37.1873559,36.692775 37.1785932,36.7471125 C37.1507119,36.913275 37.0296271,37.05345 36.8687119,37.107 C36.815339,37.124325 36.7595763,37.1322 36.7038136,37.1298375 C36.6480508,37.127475 36.5930847,37.1156625 36.5413051,37.0936125 C36.5245763,37.086525 36.5078475,37.0778625 36.4911186,37.0692 L27.6575085,32.0268375 L18.8231017,37.0692 L18.7729153,37.0936125 C18.7267119,37.11015 18.7155593,37.11645 18.6661695,37.124325 C18.5928814,37.1361375 18.5164068,37.130625 18.4455085,37.107 C18.3929322,37.089675 18.3435424,37.0621125 18.2997288,37.0274625 C18.2567119,36.9928125 18.2200678,36.9502875 18.1921864,36.90225 C18.1069492,36.7565625 18.1109322,36.5722875 18.2017458,36.42975 C18.2320169,36.3832875 18.2702542,36.3423375 18.3148644,36.3092625 C18.3292034,36.2982375 18.3459322,36.2887875 18.3610678,36.27855 L27.4264915,31.104675 C27.4687119,31.0834125 27.4790678,31.076325 27.5244746,31.0629375 C27.5595254,31.0527 27.5945763,31.0464 27.6304237,31.0440375 C27.6479492,31.04325 27.6662712,31.0440375 27.6837966,31.0440375 C27.7021186,31.0464 27.7196441,31.047975 27.7371695,31.0503375 L27.7371695,31.0503375 Z" id="Shape"></path>
                            <path d="M9.60711864,0.0070875 C9.68518644,0.0275625 9.68518644,0.0275625 9.75767797,0.061425 L46.0185763,20.756925 C46.0400847,20.7718875 46.0639831,20.785275 46.0846949,20.8026 C46.1460339,20.8537875 46.1938305,20.920725 46.2217119,20.996325 C46.2464068,21.0632625 46.2432203,21.0821625 46.2495932,21.15225 L46.2495932,31.5 C46.2464068,31.529925 46.2464068,31.55985 46.2408305,31.5889875 C46.2288814,31.64805 46.2049831,31.7039625 46.1715254,31.753575 C46.1380678,31.8031875 46.0942542,31.8465 46.0440678,31.879575 C45.9166102,31.9638375 45.7517119,31.9795875 45.6107119,31.9221 C45.5549492,31.898475 45.5039661,31.8654 45.4609492,31.822875 C45.3964237,31.7590875 45.3526102,31.6771875 45.3342881,31.5889875 C45.3287119,31.55985 45.3287119,31.529925 45.3255254,31.5 L45.3255254,21.4160625 L9.52666102,0.9835875 L0.923271186,5.89365 L0.923271186,15.7145625 L36.3373729,35.927325 C36.3620678,35.94465 36.3883559,35.9596125 36.4114576,35.9793 C36.4791695,36.0383625 36.5293559,36.1171125 36.5524576,36.204525 C36.5683898,36.2620125 36.5723729,36.32265 36.5644068,36.3817125 C36.5444915,36.532125 36.4481017,36.6652125 36.3110847,36.73215 C36.2569153,36.7581375 36.1971695,36.7738875 36.1366271,36.777825 C36.0760847,36.7817625 36.0155424,36.7738875 35.9581864,36.7549875 C35.9295085,36.7455375 35.9032203,36.7297875 35.8761356,36.717975 L0.231016949,16.3737 C0.172864407,16.3335375 0.154542373,16.32645 0.108338983,16.271325 C0.0557627119,16.2106875 0.0207118644,16.135875 0.00716949153,16.0579125 C0.00238983051,16.0311375 0.00238983051,16.0043625 -8.51749227e-16,15.978375 L-8.51749227e-16,5.630625 C0.00238983051,5.60385 0.00238983051,5.577075 0.00716949153,5.5510875 C0.0207118644,5.4723375 0.0557627119,5.3983125 0.108338983,5.3368875 C0.154542373,5.28255 0.172864407,5.2754625 0.231016949,5.2353 L9.29644068,0.061425 C9.3609661,0.0315 9.37610169,0.0196875 9.447,0.0070875 C9.47328814,0.0023625 9.50037288,0.0023625 9.52666102,1.18325488e-14 C9.55374576,0.0023625 9.5800339,0.004725 9.60711864,0.0070875 L9.60711864,0.0070875 Z" id="Shape"></path>
                            <path d="M0.541694915,5.1809625 C0.619762712,5.2014375 0.619762712,5.2014375 0.693050847,5.2353 L36.9531525,25.9308 C36.9754576,25.9457625 36.9985593,25.95915 37.0192712,25.976475 C37.0814068,26.0276625 37.1284068,26.0946 37.1562881,26.1702 C37.1809831,26.2371375 37.1777966,26.2560375 37.1841695,26.326125 L37.1841695,36.673875 C37.1817797,36.70065 37.1817797,36.727425 37.177,36.7534125 C37.1682373,36.8053875 37.1491186,36.8557875 37.1220339,36.90225 C37.0957458,36.947925 37.0606949,36.9896625 37.0192712,37.023525 C36.9778475,37.058175 36.9308475,37.08495 36.880661,37.1030625 C36.7269153,37.1581875 36.5508644,37.127475 36.4257966,37.023525 C36.3429492,36.9550125 36.2863898,36.85815 36.2672712,36.7534125 C36.2632881,36.727425 36.2632881,36.70065 36.2608983,36.673875 L36.2608983,26.5899375 L0.231016949,6.02595 L0.164898305,5.980275 C0.145779661,5.961375 0.125067797,5.94405 0.108338983,5.923575 C0.0732881356,5.8834125 0.0462033898,5.83695 0.0278813559,5.78655 C-0.0278813559,5.6345625 0.00318644068,5.460525 0.108338983,5.3368875 C0.14259322,5.2959375 0.184016949,5.262075 0.231016949,5.2353 C0.277220339,5.208525 0.32820339,5.1904125 0.381576271,5.1809625 C0.407864407,5.1762375 0.434949153,5.1762375 0.462033898,5.173875 C0.488322034,5.1762375 0.51540678,5.1786 0.541694915,5.1809625 Z" id="Shape"></path>
                            <path d="M45.8281864,20.697075 C45.8632373,20.7018 45.8727966,20.7018 45.9070508,20.71125 C45.9588305,20.7246375 46.0082203,20.747475 46.0528305,20.7781875 C46.0966441,20.8089 46.1348814,20.8467 46.1659492,20.8900125 C46.1890508,20.9230875 46.2073729,20.958525 46.2217119,20.996325 C46.2679153,21.1215375 46.2551695,21.2648625 46.1874576,21.380625 C46.1603729,21.4263 46.125322,21.4680375 46.0846949,21.5019 C46.0568136,21.5247375 46.0488475,21.528675 46.0185763,21.547575 L36.9531525,26.72145 C36.9212881,26.7379875 36.9141186,26.7427125 36.880661,26.7553125 C36.829678,26.773425 36.7763051,26.782875 36.7221356,26.782875 C36.6687627,26.782875 36.6145932,26.773425 36.5644068,26.7553125 C36.4369492,26.7096375 36.3349831,26.60805 36.2887797,26.48205 C36.2744407,26.4450375 36.265678,26.4056625 36.2624915,26.3655 C36.2577119,26.3127375 36.2624915,26.2591875 36.2760339,26.208 C36.3007288,26.118225 36.3533051,26.036325 36.4257966,25.976475 C36.4528814,25.9536375 36.4616441,25.9497 36.4911186,25.9308 L45.5565424,20.756925 C45.5931864,20.738025 45.6282373,20.7214875 45.6680678,20.71125 C45.7078983,20.7010125 45.7469322,20.697075 45.7875593,20.6955 C45.8011017,20.6962875 45.8146441,20.697075 45.8281864,20.697075 L45.8281864,20.697075 Z" id="Shape"></path>
                        </g>
                    </g>
                </g>
            </g>
        </g>
    </g>
</svg>