<?xml version="1.0" encoding="UTF-8"?>
<svg width="40px" height="40px" viewBox="0 0 40 40" version="1.1" xmlns="http://www.w3.org/2000/svg" xmlns:xlink="http://www.w3.org/1999/xlink">
    <!-- Generator: Sketch 46.2 (44496) - http://www.bohemiancoding.com/sketch -->
    <title>slack_cmyk</title>
    <desc>Created with Sketch.</desc>
    <defs>
        <polygon id="path-1" points="30.558427 39.9803279 0.118730764 39.9803279 0.118730764 0.0124379026 30.558427 0.0124379026 30.558427 39.9803279"></polygon>
    </defs>
    <g id="Page-1" stroke="none" stroke-width="1" fill="none" fill-rule="evenodd">
        <g id="Artboard" transform="translate(-453.000000, -562.000000)">
            <g id="Contact" transform="translate(280.000000, 488.000000)">
                <g id="Join-us">
                    <g id="Group-2" transform="translate(0.000000, 74.000000)">
                        <g id="slack" transform="translate(173.000000, 0.000000)">
                            <g id="slack_cmyk">
                                <g id="Group-4" transform="translate(4.666667, 0.000000)">
                                    <mask id="mask-2" fill="white">
                                        <use xlink:href="#path-1"></use>
                                    </mask>
                                    <g id="Clip-2"></g>
                                    <path d="M21.2356879,2.4747541 C20.6308369,0.603606557 18.631305,-0.420327869 16.769773,0.187868852 C14.9079149,0.795737705 13.8890638,2.8052459 14.4942411,4.67606557 L23.6590071,33.0144262 C24.2883262,34.7622951 26.1671489,35.7445902 27.9706099,35.2229508 C29.8517163,34.6786885 30.9984539,32.6708197 30.3981702,30.8140984 C30.3753333,30.7432787 21.2356879,2.4747541 21.2356879,2.4747541" id="Fill-1" fill="#DFA230" mask="url(#mask-2)"></path>
                                    <path d="M7.03506383,7.11180328 C6.42988652,5.24098361 4.43035461,4.21704918 2.5688227,4.82491803 C0.706964539,5.43278689 -0.311886525,7.44229508 0.29329078,9.31344262 L9.45805674,37.6518033 C10.0873759,39.3996721 11.9661986,40.3819672 13.7696596,39.86 C15.650766,39.3160656 16.7975035,37.3081967 16.1972199,35.4511475 C16.174383,35.3806557 7.03506383,7.11180328 7.03506383,7.11180328" id="Fill-3" fill="#3CB187" mask="url(#mask-2)"></path>
                                </g>
                                <path d="M37.5389835,25.7651671 C39.4092379,25.1443712 40.4323559,23.0921285 39.8247772,21.1811889 C39.2171985,19.2705841 37.2086495,18.2248745 35.3387228,18.8456704 L7.01388868,28.2523687 C5.26685413,28.8979429 4.28502792,30.8262943 4.80641827,32.6772973 C5.35042078,34.6079926 7.35733123,35.78496 9.21316628,35.1688519 C9.28395215,35.145413 37.5389835,25.7651671 37.5389835,25.7651671" id="Fill-5" fill="#CE1F5B"></path>
                                <path d="M12.7924887,33.3333333 C14.5738224,32.7545424 16.8696722,32.0085732 19.3333333,31.2081446 C18.7545424,29.4268109 18.0085732,27.1306445 17.207828,24.6666667 L10.6666667,26.7928053 L12.7924887,33.3333333" id="Fill-6" fill="#392538"></path>
                                <g id="Group-10" transform="translate(0.000000, 4.666667)">
                                    <path d="M27.1049198,24.4716053 C29.6600432,23.648193 32.0349012,22.8825526 33.8634012,22.2931491 C33.2653519,20.4671667 32.4942346,18.1127982 31.6668457,15.5864123 L24.908037,17.7658421 L27.1049198,24.4716053" id="Fill-7" fill="#BB242A"></path>
                                    <path d="M32.817142,7.01117544 C34.6839198,6.4094386 35.705642,4.42020175 35.0990864,2.56792982 C34.4925309,0.715982456 32.4873642,-0.297622807 30.6202593,0.304114035 L2.34312346,9.42201754 C0.599030864,10.0477719 -0.381141975,11.9169211 0.139697531,13.7110965 C0.68245679,15.5825175 2.68598765,16.7233509 4.53902469,16.1261579 C4.6093642,16.1034386 32.817142,7.01117544 32.817142,7.01117544" id="Fill-9" fill="#72C5CC"></path>
                                </g>
                                <path d="M8.12582798,19.3333333 C9.90690142,18.7545635 12.2030489,18.008305 14.6666667,17.2079056 C13.8635057,14.734836 13.1166959,12.4365372 12.5417884,10.6666667 L6,12.7930442 L8.12582798,19.3333333" id="Fill-11" fill="#238C73"></path>
                                <path d="M22.1257503,14.6666667 C24.5987751,13.8632479 26.8970547,13.1164926 28.6666667,12.5413105 C27.8632185,10.0683761 27.1164359,7.76986388 26.5412329,6 L20,8.12598924 L22.1257503,14.6666667" id="Fill-12" fill="#62803A"></path>
                            </g>
                        </g>
                    </g>
                </g>
            </g>
        </g>
    </g>
</svg>