<?xml version="1.0" encoding="UTF-8"?>
<svg width="40px" height="40px" viewBox="0 0 40 40" version="1.1" xmlns="http://www.w3.org/2000/svg" xmlns:xlink="http://www.w3.org/1999/xlink">
    <!-- Generator: Sketch 46.2 (44496) - http://www.bohemiancoding.com/sketch -->
    <title>Telegram_logo</title>
    <desc>Created with Sketch.</desc>
    <defs>
        <linearGradient x1="66.67%" y1="16.67%" x2="41.67%" y2="75%" id="linearGradient-1">
            <stop stop-color="#37AEE2" offset="0%"></stop>
            <stop stop-color="#1E96C8" offset="100%"></stop>
        </linearGradient>
        <linearGradient x1="61.2346759%" y1="43.69%" x2="74.7064382%" y2="80.24%" id="linearGradient-2">
            <stop stop-color="#EFF7FC" offset="0%"></stop>
            <stop stop-color="#FFFFFF" offset="100%"></stop>
        </linearGradient>
    </defs>
    <g id="Page-1" stroke="none" stroke-width="1" fill="none" fill-rule="evenodd">
        <g id="Artboard" transform="translate(-280.000000, -562.000000)" fill-rule="nonzero">
            <g id="Contact" transform="translate(280.000000, 488.000000)">
                <g id="Join-us">
                    <g id="Group-2" transform="translate(0.000000, 74.000000)">
                        <g id="telegram">
                            <g id="Telegram_logo">
                                <circle id="Oval" fill="url(#linearGradient-1)" cx="20" cy="20" r="20"></circle>
                                <path d="M16.6666667,30 C16.0187333,30 16.1288333,29.7527747 15.9053667,29.1293474 L14,22.7925726 L28.6666667,14" id="Shape" fill="#C8DAEA"></path>
                                <path d="M16.6666667,29.3333333 C17.2121212,29.3333333 17.4531212,29.0941501 17.7575758,28.8103379 L20.6666667,26.0980834 L17.0379394,24" id="Shape" fill="#A9C9DD"></path>
                                <path d="M16.3574485,24.9854754 L24.2634825,31.079069 C25.165663,31.5983778 25.8167991,31.3295051 26.0415227,30.2052543 L29.259684,14.3844919 C29.5891675,13.0064109 28.7561403,12.381378 27.8930649,12.7901531 L8.99607417,20.3917529 C7.70617759,20.9314936 7.7136978,21.6822392 8.76095304,22.0167566 L13.6103469,23.5957629 L24.8372094,16.2066689 C25.3672047,15.871384 25.8536318,16.0516403 25.4543902,16.4212895" id="Shape" fill="url(#linearGradient-2)"></path>
                            </g>
                        </g>
                    </g>
                </g>
            </g>
        </g>
    </g>
</svg>