<?xml version="1.0" encoding="UTF-8"?>
<svg width="47px" height="40px" viewBox="0 0 47 40" version="1.1" xmlns="http://www.w3.org/2000/svg" xmlns:xlink="http://www.w3.org/1999/xlink">
    <!-- Generator: Sketch 46.2 (44496) - http://www.bohemiancoding.com/sketch -->
    <title>icon</title>
    <desc>Created with Sketch.</desc>
    <defs></defs>
    <g id="Page-1" stroke="none" stroke-width="1" fill="none" fill-rule="evenodd">
        <g id="Artboard" transform="translate(-626.000000, -562.000000)" fill-rule="nonzero" fill="#1EBB00">
            <g id="Contact" transform="translate(280.000000, 488.000000)">
                <g id="Join-us">
                    <g id="Group-2" transform="translate(0.000000, 74.000000)">
                        <g id="wechat" transform="translate(346.000000, 0.000000)">
                            <g id="icon">
                                <path d="M32.0738117,13.2530973 C27.8021374,13.4769912 24.0875997,14.7761062 21.0718643,17.7111504 C18.0249025,20.6764602 16.6340017,24.3100885 17.0141883,28.8145133 C15.3445428,28.6070796 13.8237964,28.3787611 12.2944054,28.2495575 C11.7662019,28.2049558 11.1393791,28.2683186 10.6919763,28.5215929 C9.20686684,29.3623009 7.78315182,30.3115044 6.09568787,31.3697345 C6.40530619,29.9647788 6.6057201,28.7345133 6.96050212,27.5511504 C7.22142833,26.6814159 7.10058015,26.1973451 6.30192366,25.6309735 C1.17407973,21.9989381 -0.987426633,16.5633628 0.630174724,10.9672566 C2.12675148,5.79026549 5.80194741,2.65061947 10.7957116,1.0139823 C17.6117252,-1.21964602 25.2717354,1.05876106 29.4163868,6.48778761 C30.9133164,8.44884956 31.8312332,10.6499115 32.0738117,13.2530973 Z M12.4140187,11.5093805 C12.4533605,10.4858407 11.5693164,9.56371681 10.5192604,9.53292035 C9.44415267,9.50123894 8.55993215,10.3254867 8.52852926,11.3883186 C8.49677354,12.4654867 9.31801187,13.3286726 10.4008821,13.3562832 C11.474402,13.3835398 12.374324,12.5582301 12.4140187,11.5093805 Z M22.6712943,9.53221239 C21.6173571,9.55168142 20.7267854,10.4522124 20.745486,11.479823 C20.7647159,12.5449558 21.6383511,13.3782301 22.7221035,13.3651327 C23.8086785,13.3520354 24.6327396,12.5099115 24.6225072,11.4223009 C24.6135098,10.3546903 23.7437557,9.51256637 22.6712943,9.53221239 Z" id="Shape"></path>
                                <path d="M41.6707447,39.9699115 C40.3181272,39.3656637 39.0773605,38.459115 37.7563223,38.320708 C36.4404003,38.1828319 35.0570857,38.9444248 33.6802986,39.0856637 C29.4866022,39.5161062 25.7295471,38.3435398 22.6315997,35.4693805 C16.7396777,30.0021239 17.5815573,21.619115 24.3982765,17.1387611 C30.4567396,13.1568142 39.3418151,14.4842478 43.613313,20.0093805 C47.3409059,24.8306195 46.9028533,31.2306195 42.3522578,35.280885 C41.0354538,36.4530973 40.5615878,37.4176991 41.4064665,38.9630088 C41.5624224,39.2483186 41.5802409,39.6095575 41.6707447,39.9699115 L41.6707447,39.9699115 Z M26.2738049,25.0143363 C27.1349143,25.0152212 27.8439491,24.339115 27.8765869,23.4858407 C27.910989,22.5824779 27.186782,21.8247788 26.2850958,21.8210619 C25.3924071,21.8169912 24.6445598,22.5853097 24.6756098,23.4752212 C24.7048957,24.3254867 25.4188702,25.0132743 26.2738049,25.0143363 Z M36.1994097,21.8246018 C35.3638813,21.8187611 34.6539644,22.5049558 34.6199152,23.3518584 C34.5837489,24.2575221 35.285374,25.0012389 36.1787684,25.0035398 C37.042877,25.0063717 37.7256251,24.3507965 37.757028,23.4881416 C37.7905479,22.580354 37.08857,21.8307965 36.1994097,21.8246018 L36.1994097,21.8246018 Z" id="Shape"></path>
                            </g>
                        </g>
                    </g>
                </g>
            </g>
        </g>
    </g>
</svg>